<?xml version="1.0" encoding="UTF-8"?>
<svg width="140px" height="140px" viewBox="0 0 140 140" version="1.1" xmlns="http://www.w3.org/2000/svg" xmlns:xlink="http://www.w3.org/1999/xlink">
    <title>Group</title>
    <g id="Page-1" stroke="none" stroke-width="1" fill="none" fill-rule="evenodd">
        <g id="Group" fill-rule="nonzero">
            <rect id="Rectangle" fill="#F2F0ED" x="0" y="0" width="140" height="140"></rect>
            <g id="farm-girl" transform="translate(11.000000, 11.000000)">
                <path d="M51.4999716,0 L51.5000355,0 C68.3447005,0 82,13.5713522 82,30.3124636 L82,60 L21,60 L21,30.3124636 C21,22.273097 24.2133811,14.5630024 29.9332349,8.87831252 C35.6530894,3.19362266 43.4108766,0 51.4999716,0 Z" id="Path" fill="#2F2E41"></path>
                <path d="M81,64.1999942 C69.848573,72.2878505 54.9933513,75.4071834 39,77 C50.0190414,67.8718287 45.7010018,57.7899498 39,47.5599997 L63.4477189,45 C64.1541437,54.2867466 71.2080605,60.0115879 81,64.1999942 Z" id="Path" fill="#FFB8B8"></path>
                <path d="M21.8720705,129 C22.7749979,124.893394 22.961511,121.18923 22.4162893,117.365827 C21.6814079,112.524735 21.7428361,107.595104 22.5981178,102.774046 L23.0582577,100.306394 C24.0156652,95.5582258 25.8422281,91.0302924 28.4449283,86.9531782 C31.3491137,82.2481127 30.3470964,75.1784162 29.0909026,67.9548481 L46.068177,65.4258182 C55.4360546,70.210587 65.9530602,67.0226266 76.8787823,61 L97,62.8967741 C96.0996744,86.7064036 94.3869258,108.687903 91.5725397,129 C91.5725397,129 21.8720705,129 21.8720705,129 Z" id="Path" fill="#E6E6E6"></path>
                <path d="M24.9923837,128.971725 C29.0645083,118.864535 31.5581771,108.821121 29.0785323,98.6306285 C46.9454334,103.865511 64.929864,103.491379 83.0213309,98 C82.6151173,108.730028 82.5916498,118.985109 83.0213309,129 C83.0256548,129 24.9923837,129 24.9923837,128.971725 Z" id="Path" fill="#86D75C"></path>
                <circle id="Oval" fill="#FFB8B8" cx="48" cy="34" r="21"></circle>
                <circle id="Oval" fill="#E6E6E6" cx="32" cy="103" r="2"></circle>
                <circle id="Oval" fill="#E6E6E6" cx="80" cy="103" r="2"></circle>
                <polygon id="Path" fill="#2F2E41" points="62.0159755 31 29 30.4213329 29 9 69 9"></polygon>
                <path d="M75,60 L61,60 C66.1742115,47.3063631 65.7183583,33.9166848 61,20 L75,20 L75,60 Z" id="Path" fill="#2F2E41"></path>
                <polygon id="Path" fill="#FFB8B8" points="102.64706 129 95.1066676 95.6549154 112.856975 90 120 129"></polygon>
                <polygon id="Path" fill="#FFB8B8" points="17.3982852 129 23.8933334 100.654916 6.14302315 95 -7.10542736e-15 129"></polygon>
                <path d="M116,92.4581287 C107.910222,92.219942 100.082166,95.312272 94.3767446,101 L88,63.0895927 L95.7127966,63 C102.154161,63.2363867 107.762904,67.4288166 109.76123,73.5009409 L116,92.4581287 Z" id="Path" fill="#E6E6E6"></path>
                <path d="M4,97.4581215 C12.1083775,97.219937 19.9544294,100.31227 25.6729663,106 C33.070049,94.9085526 34.1422993,81.9612317 32.0643707,68.0895927 L24.3338428,68 C17.8776704,68.2363889 12.2560352,72.428818 10.2531127,78.5009409 L4,97.4581215 Z" id="Path" fill="#E6E6E6"></path>
                <path d="M79,101 L79.7107685,101 L83.9955613,61.8519339 C84.0191674,61.6346799 83.9478726,61.4177859 83.7994398,61.2552876 C83.6510071,61.0927892 83.4394106,61 83.2173668,61 L79.7826041,61 C79.3505541,61.000411 79.000414,61.3449548 79,61.7700949 L79,101 Z" id="Path" fill="#86D75C"></path>
                <path d="M31,103 L31.7156835,103 L35.9958273,67.6646072 C36.0162021,67.4958101 35.9613304,67.3266027 35.8450402,67.1996233 C35.72875,67.0726432 35.5621311,67 35.3871687,67 L31.6130852,67 C31.2746666,67.0004017 31.0004281,67.2667891 31,67.5955192 L31,103 Z" id="Path" fill="#86D75C"></path>
            </g>
        </g>
    </g>
</svg>
