<?xml version="1.0" encoding="UTF-8"?>
<svg width="713px" height="848px" viewBox="0 0 713 848" version="1.1" xmlns="http://www.w3.org/2000/svg" xmlns:xlink="http://www.w3.org/1999/xlink">
    <title>cabin</title>
    <g id="Page-1" stroke="none" stroke-width="1" fill="none" fill-rule="evenodd">
        <g id="cabin" fill-rule="nonzero">
            <path d="M238.58,576.58063 C240.066152,580.797987 241.782036,584.930836 243.71995,588.96063 L243.71995,588.97063 C245.28995,592.25063 246.996637,595.447297 248.84001,598.56063 L463.86,598.56063 L463.86,598.99063 C465.81,595.74063 467.603333,592.393963 469.24,588.95063 C471.182129,584.926131 472.89813,580.796376 474.38,576.58063 L238.58,576.58063 Z M244,588.83063 L244,586.83063 L468.99,586.83063 L468.99,588.83063 L244,588.83063 Z M260.76,615.37067 L452.2,615.37067 C456.126514,610.701848 459.706075,605.75196 462.91,600.56063 L250.05,600.56063 C253.253948,605.751957 256.833508,610.701856 260.76,615.37067 L260.76,615.37067 Z" id="Shape" fill="#3F3D56"></path>
            <path d="M477.74,565.36066 C476.97,568.49066 476.07,571.56066 475.06,574.58066 L237.9,574.58066 C236.89,571.56066 235.99,568.49066 235.22,565.36066 L477.74,565.36066 Z" id="Path" fill="#3F3D56"></path>
            <path d="M477.89,564.77063 L477.89,563.36063 L235.07,563.36063 L235.07,564.77063 C234.21996,561.29063 233.516627,557.747297 232.96,554.14063 L480,554.14063 C479.45,557.740663 478.746667,561.283997 477.89,564.77063 Z" id="Path" fill="#3F3D56"></path>
            <path d="M232.52,540.92066 L232.52,542.92066 L481.21,542.92066 C481.02,546.03066 480.72,549.10066 480.29,552.14066 L232.67,552.14066 C232.25,549.12066 231.94,546.06066 231.76,542.96066 C231.58,540.34066 231.5,537.70066 231.5,535.03066 C231.5,533.23066 231.54,531.44066 231.61,529.66066 L231.61,529.64066 C231.78004,525.85066 232.106707,522.11066 232.59,518.42066 L232.59,518.41066 C233.01,515.32066 233.533313,512.267327 234.15994,509.25066 L478.4,509.25066 L478.4,507.43066 C479.219947,511.05066 479.87328,514.73066 480.36,518.47066 L233.03,518.47066 L233.03,520.47066 L480.61,520.47066 C480.94,523.26066 481.173333,526.073993 481.31,528.91066 L481.34,529.69066 L232.78,529.69066 L232.78,531.69066 L481.41,531.69066 C481.45,532.80071 481.46,533.91066 481.46,535.03066 C481.46,537.01066 481.41,538.97066 481.32,540.92066 L232.52,540.92066 Z" id="Path" fill="#3F3D56"></path>
            <path d="M478.36,507.25067 L234.6,507.25067 C235.31,504.130623 236.133333,501.05729 237.07,498.03067 L475.85,498.03067 L475.85,497.92067 C476.81,500.98065 477.64,504.09064 478.36,507.25067 Z" id="Path" fill="#3F3D56"></path>
            <path d="M475.25,496.03064 L237.71,496.03064 C238.95,492.23064 240.366667,488.517307 241.96,484.89064 L241.96,486.80064 L471,486.80064 L471,484.90064 C472.59,488.520627 474.006667,492.230627 475.25,496.03064 Z" id="Path" fill="#3F3D56"></path>
            <path d="M470.95,484.80066 L242,484.80066 C243.38,481.66066 244.89,478.587327 246.53,475.58066 L466.16,475.58066 L466.16,475.08066 C467.9,478.240673 469.496667,481.480673 470.95,484.80066 Z" id="Path" fill="#3F3D56"></path>
            <path d="M465.32,473.58063 L247.63,473.58063 C269.801263,434.325987 311.391834,410.050665 356.475,410.050665 C401.558166,410.050665 443.148737,434.325987 465.32,473.58063 L465.32,473.58063 Z" id="Path" fill="#3F3D56"></path>
            <path d="M235.07,564.77063 C235.109367,564.969848 235.159439,565.1668 235.22,565.36063 L235.07,565.36063 L235.07,564.77063 Z" id="Path" fill="#000000" opacity="0.5"></path>
            <path d="M477.89,564.77063 L477.89,565.36063 L477.74,565.36063 C477.800537,565.166794 477.850609,564.969843 477.89,564.77063 L477.89,564.77063 Z" id="Path" fill="#000000" opacity="0.5"></path>
            <path d="M481.46,540.92066 L481.46,542.92066 L481.21,542.92066 C481.23,542.67066 481.25,542.42066 481.26,542.17066 C481.28,541.75066 481.3,541.34066 481.32,540.92066 L481.46,540.92066 Z" id="Path" fill="#000000" opacity="0.5"></path>
            <path d="M481.46,529.69061 L481.46,531.69061 L481.41,531.69061 C481.4,531.02061 481.37,530.36066 481.34006,529.69061 L481.46,529.69061 Z" id="Path" fill="#000000" opacity="0.5"></path>
            <path d="M478.4,507.25067 L478.4,507.43067 C478.39,507.37067 478.37,507.31067 478.36,507.25067 L478.4,507.25067 Z" id="Path" fill="#000000" opacity="0.5"></path>
            <path d="M241.96,484.80066 L242,484.80066 C241.990892,484.832365 241.977431,484.862654 241.96,484.89066 L241.96,484.80066 Z" id="Path" fill="#000000" opacity="0.5"></path>
            <path d="M471,484.80066 L471,484.90066 C470.985343,484.866359 470.968647,484.832966 470.95,484.80066 L471,484.80066 Z" id="Path" fill="#000000" opacity="0.5"></path>
            <rect id="Rectangle" fill="#000000" opacity="0.5" x="254.71045" y="462.35773" width="203.53857" height="2"></rect>
            <rect id="Rectangle" fill="#000000" opacity="0.5" x="263.12744" y="451.13507" width="187.21436" height="2"></rect>
            <rect id="Rectangle" fill="#000000" opacity="0.5" x="274.60547" y="439.91242" width="163.74902" height="2"></rect>
            <rect id="Rectangle" fill="#000000" opacity="0.5" transform="translate(355.204380, 429.817152) rotate(-0.111910) translate(-355.204380, -429.817152) " x="287.10294" y="428.817152" width="136.20288" height="2"></rect>
            <rect id="Rectangle" fill="#E6E6E6" x="278.67409" y="469.36066" width="59.68421" height="132.24798"></rect>
            <path d="M305.97756,481.81258 L308.50422,481.81258 C316.258469,481.81258 322.54453,488.098641 322.54453,495.85289 L322.54453,515.73332 L291.93725,515.73332 L291.93725,495.85289 C291.93725,488.098641 298.223311,481.81258 305.97756,481.81258 L305.97756,481.81258 Z" id="Path" fill="#3F3D56"></path>
            <path d="M415.14371,468.20378 L415.14371,468.20378 C423.595671,468.20378 430.44734,475.055449 430.44734,483.50741 L430.44734,508.50341 L399.84008,508.50341 L399.84008,483.50741 C399.84008,475.055449 406.691749,468.20378 415.14371,468.20378 L415.14371,468.20378 Z" id="Path" fill="#E6E6E6"></path>
            <path d="M473.297572,519.21592 C473.297572,520.408985 473.231522,521.601136 473.09857,522.78677 L356.47976,522.78677 L356.47976,516.15516 L473.14962,516.15516 C473.24654,517.17032 473.295857,518.190573 473.297572,519.21592 Z" id="Path" fill="#E6E6E6"></path>
            <path d="M373.21516,496.82941 L374.34883,495.07741 C374.012636,494.148719 373.624329,493.239728 373.18576,492.35477 L372.45269,492.94686 L373.03313,492.04986 C372.47997,490.96097 372.0447,490.27491 372.0447,490.27491 C370.648081,492.556849 369.624167,495.04684 369.0115,497.65115 L370.46626,499.89942 L368.85578,498.59864 C368.798417,499.040531 368.768906,499.485593 368.76742,499.93119 C368.76742,504.42385 370.23471,508.06587 372.0447,508.06587 C373.85469,508.06587 375.32199,504.42387 375.32199,499.93119 C375.288041,498.501827 375.035191,497.086114 374.57225,495.73337 L373.21516,496.82941 Z" id="Path" fill="#86D75C"></path>
            <path d="M381.23942,500.72429 L383.27992,500.28704 C383.698875,499.392631 384.06705,498.475305 384.38269,497.53943 L383.44569,497.43974 L384.49043,497.21588 C384.86924,496.05477 385.04658,495.26188 385.04658,495.26188 C382.445445,495.887898 379.960737,496.924573 377.68599,498.33288 L377.12489,500.95131 L376.90589,498.89274 C376.552868,499.164644 376.217295,499.45848 375.90116,499.77251 C372.72437,502.94931 371.1866,506.56213 372.46646,507.84199 C373.74632,509.12185 377.35914,507.58408 380.53594,504.40729 C381.522646,503.372573 382.344915,502.192722 382.9741,500.90884 L381.23942,500.72429 Z" id="Path" fill="#86D75C"></path>
            <path d="M381.98473,518.10861 C377.25302,518.41128 372.09733,518.09101 366.61254,518.10861 L366.61254,505.55105 C371.711713,506.265311 376.885557,506.265311 381.98473,505.55105 L381.98473,518.10861 Z" id="Path" fill="#E6E6E6"></path>
            <path d="M450.2435,496.82941 L451.37717,495.07741 C451.040976,494.148719 450.652669,493.239728 450.2141,492.35477 L449.48103,492.94686 L450.06147,492.04986 C449.50831,490.96097 449.07304,490.27491 449.07304,490.27491 C447.676421,492.556849 446.652507,495.04684 446.03984,497.65115 L447.4946,499.89942 L445.88412,498.59864 C445.826757,499.040531 445.797246,499.485593 445.79576,499.93119 C445.79576,504.42385 447.26305,508.06587 449.07304,508.06587 C450.88303,508.06587 452.35033,504.42387 452.35033,499.93119 C452.316381,498.501827 452.063531,497.086114 451.60059,495.73337 L450.2435,496.82941 Z" id="Path" fill="#86D75C"></path>
            <path d="M458.26776,500.72429 L460.30826,500.28704 C460.727215,499.392631 461.09539,498.475305 461.41103,497.53943 L460.47403,497.43974 L461.51877,497.21588 C461.89758,496.05477 462.07492,495.26188 462.07492,495.26188 C459.473785,495.887898 456.989077,496.924573 454.71433,498.33288 L454.15323,500.95131 L453.93423,498.89274 C453.581208,499.164644 453.245635,499.45848 452.9295,499.77251 C449.75271,502.94931 448.21494,506.56213 449.4948,507.84199 C450.77466,509.12185 454.38749,507.58408 457.56428,504.40729 C458.550986,503.372573 459.373255,502.192722 460.00244,500.90884 L458.26776,500.72429 Z" id="Path" fill="#86D75C"></path>
            <path d="M459.01307,518.10861 C454.28136,518.41128 449.12567,518.09101 443.64088,518.10861 L443.64088,505.55105 C448.740053,506.265311 453.913897,506.265311 459.01307,505.55105 L459.01307,518.10861 Z" id="Path" fill="#E6E6E6"></path>
            <ellipse id="Oval" fill="#3F3D56" cx="285.81579" cy="539.34904" rx="6.12146" ry="5.15252"></ellipse>
            <path d="M646.69,694.16065 C582.68,785.58065 476.57,845.36065 356.5,845.36065 C234.99,845.36065 127.78,784.14065 64.03,690.86065 C118.93,586.51065 230.4,612.36065 356.5,612.36065 C483.92,612.36066 592.37,588.02063 646.69,694.16065 Z" id="Path" fill="#86D75C"></path>
            <path d="M356.5,637.36066 C477.707,637.36066 581.74512,615.34583 638.35815,704.55701 C641.20703,700.81427 643.984293,697.015483 646.68994,693.16065 C592.37,587.02065 483.91994,611.36065 356.5,611.36065 C230.4,611.36065 118.92993,585.51065 64.03,689.86065 C66.744,693.831837 69.5380667,697.74254 72.4122,701.59276 C129.776,613.96454 236.51318,637.36066 356.5,637.36066 Z" id="Path" fill="#3F3D56"></path>
            <path d="M356.5,847.859874 C176.656394,847.72077 25.1540498,713.485814 3.35881587,534.967721 C-18.436418,356.449627 96.3196704,189.707239 270.847092,146.30308 C445.374513,102.89892 624.867588,196.462907 689.232677,364.394075 C753.597766,532.325243 682.622731,721.88929 523.79492,806.25438 C472.271453,833.5952 414.828275,847.881051 356.5,847.859874 Z M356.5,137.860222 C209.447026,137.926982 77.7939428,229.023872 25.9017095,366.616668 C-25.9905238,504.209464 12.7176399,659.556997 123.103024,756.71485 C233.488407,853.872704 392.493081,872.54599 522.38477,803.60594 C571.719867,777.25241 614.162254,739.660771 646.28125,693.86961 C715.853136,594.188389 729.420667,465.784607 682.21777,353.76461 L682.21777,353.76461 C626.969634,222.82103 498.621653,137.744686 356.5,137.860222 Z" id="Shape" fill="#3F3D56"></path>
            <path d="M356.499991,845.859859 C262.474161,845.881363 172.293199,808.539271 105.806889,742.052961 C39.3205789,675.566651 1.97848736,585.385689 1.99999071,491.35985 C1.99999071,295.88816 161.02783,136.86034 356.499991,136.86034 C551.97168,136.86034 711.000846,295.88817 711.000846,491.35985 C711.159235,564.027707 688.838833,634.966232 647.09863,694.45067 L647.09863,694.45067 C580.700573,789.268339 472.254415,845.771509 356.499991,845.859859 Z M356.5,139.86034 C162.68213,139.86034 5,297.54246 5,491.35985 C5.01158302,644.828738 104.581293,780.551574 250.967382,826.636417 C397.353471,872.72126 556.716177,818.514775 644.6416,692.72996 L644.6416,692.72996 C686.027405,633.749231 708.158127,563.411819 708.000841,491.35985 C708.000841,297.54246 550.31738,139.86034 356.5,139.86034 Z" id="Shape" fill="#3F3D56"></path>
            <circle id="Oval" fill="#EF924D" cx="132" cy="203.86066" r="95.5"></circle>
            <circle id="Oval" fill="#86D75C" cx="535.39077" cy="163.5" r="163.5"></circle>
            <path d="M657.01225,54.29484 C688.511597,127.977332 661.972172,213.630322 594.330203,256.594056 C526.688233,299.557789 437.877512,287.171042 384.57291,227.33846 C410.031064,286.897811 468.246168,325.815493 533.013901,326.57352 C597.781634,327.331547 656.891634,289.787011 683.736762,230.839807 C710.581891,171.892602 700.101159,102.655773 657.01225,54.29484 L657.01225,54.29484 Z" id="Path" fill="#000000" opacity="0.2"></path>
            <polygon id="Path" fill="#3F3D56" points="535.84 163.5 536.289 163.5 544.374 627.049 527.306 627.049"></polygon>
            <rect id="Rectangle" fill="#3F3D56" transform="translate(550.213595, 419.530220) rotate(62.234130) translate(-550.213595, -419.530220) " x="546.171015" y="404.25824" width="8.08516" height="30.54396"></rect>
            <path d="M509.04365,606.97339 C509.04365,606.97339 509.73421,592.50356 523.89077,594.18548" id="Path" fill="#3F3D56"></path>
            <circle id="Oval" fill="#86D75C" cx="505.04365" cy="586.1183" r="7.08526"></circle>
            <rect id="Rectangle" fill="#3F3D56" x="503.89077" y="598.04945" width="2" height="14"></rect>
            <path d="M602.04365,633.97339 C602.04365,633.97339 602.73421,619.50356 616.89077,621.18548" id="Path" fill="#3F3D56"></path>
            <circle id="Oval" fill="#86D75C" cx="598.04365" cy="613.1183" r="7.08526"></circle>
            <rect id="Rectangle" fill="#3F3D56" x="596.89077" y="625.04945" width="2" height="14"></rect>
            <path d="M105.04365,639.97339 C105.04365,639.97339 105.73421,625.50356 119.89077,627.18548" id="Path" fill="#3F3D56"></path>
            <circle id="Oval" fill="#86D75C" cx="101.04365" cy="619.1183" r="7.08526"></circle>
            <rect id="Rectangle" fill="#3F3D56" x="99.89077" y="631.04945" width="2" height="14"></rect>
            <path d="M565.04365,616.97339 C565.04365,616.97339 565.73421,602.50356 579.89077,604.18548" id="Path" fill="#3F3D56"></path>
            <circle id="Oval" fill="#86D75C" cx="561.04365" cy="596.1183" r="7.08526"></circle>
            <rect id="Rectangle" fill="#3F3D56" x="559.89077" y="608.04945" width="2" height="14"></rect>
            <path d="M181.68508,209.51533 L190.89077,202.15254 C183.73928,201.36354 180.80086,205.26381 179.59829,208.3509 C174.01129,206.03096 167.9291,209.07136 167.9291,209.07136 L186.34798,215.75807 C185.418776,213.276178 183.801261,211.110631 181.68508,209.51533 L181.68508,209.51533 Z" id="Path" fill="#3F3D56"></path>
            <path d="M321.68508,284.51533 L330.89077,277.15254 C323.73928,276.36354 320.80086,280.26381 319.59829,283.3509 C314.01129,281.03096 307.9291,284.07136 307.9291,284.07136 L326.34798,290.75807 C325.418776,288.276178 323.801261,286.110631 321.68508,284.51533 L321.68508,284.51533 Z" id="Path" fill="#3F3D56"></path>
            <path d="M170.68508,348.51533 L179.89077,341.15254 C172.73928,340.36354 169.80086,344.26381 168.59829,347.3509 C163.01129,345.03096 156.9291,348.07136 156.9291,348.07136 L175.34798,354.75807 C174.418776,352.276178 172.801261,350.110631 170.68508,348.51533 Z" id="Path" fill="#3F3D56"></path>
            <path d="M480.500106,536.36066 C480.521716,552.448897 477.208704,568.367019 470.77,583.11066 L263.4,479.19061 L247.63,471.36066 L269,470.19061 L454.21,460.07061 C471.84,480.55066 480.500106,507.21063 480.500106,536.36066 Z" id="Path" fill="#000000" opacity="0.2"></path>
            <polygon id="Path" fill="#3F3D56" points="505.5 471.361 207.5 471.361 207.5 447.361 355.5 385.361 505.5 447.361"></polygon>
        </g>
    </g>
</svg>
