<?xml version="1.0" encoding="UTF-8"?>
<svg width="908px" height="669px" viewBox="0 0 908 669" version="1.1" xmlns="http://www.w3.org/2000/svg" xmlns:xlink="http://www.w3.org/1999/xlink">
    <title>farm-girl</title>
    <g id="Page-1" stroke="none" stroke-width="1" fill="none" fill-rule="evenodd">
        <g id="farm-girl" fill-rule="nonzero">
            <circle id="Oval" fill="#EF924D" cx="72.5" cy="72.5" r="72.5"></circle>
            <ellipse id="Oval" fill="#3F3D56" cx="431" cy="637.5" rx="359" ry="31.5"></ellipse>
            <path d="M551.50002,616 L548.50002,616 C548.50002,515.27246 566.63772,420.60352 599.57326,349.43457 C632.67773,277.89746 676.86719,238.5 724.00002,238.5 L724.00002,241.5 C628.88281,241.5 551.50002,409.5 551.50002,616 Z" id="Path" fill="#3F3D56"></path>
            <path d="M789.00002,150.5 C789.00002,173.9721 778.70257,204 766.00002,204 C753.29747,204 743.00002,173.9721 743.00002,150.5 C743.00002,127.0279 753.29747,119 766.00002,119 C778.70257,119 789.00002,127.0279 789.00002,150.5 Z" id="Path" fill="#E6E6E6"></path>
            <path d="M879.26493,250.63083 C856.04837,254.08499 824.83202,248.31857 822.96271,235.75431 C821.0934,223.19005 849.279,208.58581 872.49555,205.13165 C895.7121,201.67749 905.16798,210.68143 907.03729,223.24565 C908.9066,235.80987 902.48148,247.17666 879.26493,250.63083 Z" id="Path" fill="#E6E6E6"></path>
            <path d="M776.37778,339.92437 C768.07529,317.96968 767.08566,286.24063 778.96702,281.74752 C790.84838,277.25441 811.10151,301.69869 819.40402,323.65338 C827.70653,345.60807 820.91436,356.75938 809.03302,361.25248 C797.15168,365.74558 784.68026,361.87905 776.37778,339.92437 Z" id="Path" fill="#E6E6E6"></path>
            <circle id="Oval" fill="#86D75C" cx="776" cy="240" r="29"></circle>
            <path d="M384.50002,627 L381.50002,627 C381.50002,420.5 304.11672,252.5 209.00002,252.5 L209.00002,249.5 C256.13332,249.5 300.32229,288.89746 333.42727,360.43457 C366.36182,431.60352 384.50002,526.27246 384.50002,627 Z" id="Path" fill="#3F3D56"></path>
            <path d="M144.00002,161.5 C144.00002,184.9721 154.29747,215 167.00002,215 C179.70257,215 190.00002,184.9721 190.00002,161.5 C190.00002,138.0279 179.70257,130 167.00002,130 C154.29747,130 144.00002,138.0279 144.00002,161.5 Z" id="Path" fill="#E6E6E6"></path>
            <path d="M53.73507,261.63083 C76.95163,265.08499 108.16798,259.31857 110.03729,246.75431 C111.9066,234.19005 83.721,219.58581 60.50445,216.13165 C37.2879,212.67749 27.83202,221.68143 25.96271,234.24565 C24.0934,246.80987 30.51852,258.17666 53.73507,261.63083 Z" id="Path" fill="#E6E6E6"></path>
            <path d="M156.62222,350.92437 C164.92471,328.96968 165.91434,297.24063 154.03298,292.74752 C142.15162,288.25441 121.89849,312.69869 113.59598,334.65338 C105.29347,356.60807 112.08564,367.75938 123.96698,372.25248 C135.84832,376.74558 148.31974,372.87905 156.62222,350.92437 Z" id="Path" fill="#E6E6E6"></path>
            <circle id="Oval" fill="#86D75C" cx="157" cy="251" r="29"></circle>
            <path d="M184.00002,621 L184.00002,563 C184.00002,563 207.00002,584 184.00002,626" id="Path" fill="#3F3D56"></path>
            <path d="M184.75902,619.49581 L201.05802,563.83305 C201.05802,563.83305 217.22983,590.4502 183.35395,624.29433" id="Path" fill="#3F3D56"></path>
            <path d="M588.00002,608 L588.00002,550 C588.00002,550 611.00002,571 588.00002,613" id="Path" fill="#3F3D56"></path>
            <path d="M588.75902,606.49581 L605.05802,550.83305 C605.05802,550.83305 621.22983,577.4502 587.35395,611.29433" id="Path" fill="#3F3D56"></path>
            <path d="M502.00002,611 L502.00002,553 C502.00002,553 479.00002,574 502.00002,616" id="Path" fill="#3F3D56"></path>
            <path d="M501.24102,609.49581 L484.94202,553.83305 C484.94202,553.83305 468.77021,580.4502 502.64609,614.29433" id="Path" fill="#3F3D56"></path>
            <path d="M428.1666,73 L428.16669,73 C451.879687,73 471.10287,92.2231826 471.10287,115.93618 L471.10287,157.98718 L385.23041,157.98718 L385.23041,115.93618 C385.23041,104.548795 389.754032,93.6278084 397.806129,85.5757124 C405.858227,77.5236164 416.779215,73 428.1666,73 Z" id="Path" fill="#2F2E41"></path>
            <path d="M470.66023,162.85623 C454.91176,174.04379 433.93265,178.35862 411.34623,180.56189 C426.90774,167.93531 420.80964,153.98951 411.34623,139.83889 L445.87223,136.29776 C446.86987,149.14369 456.83168,157.0626 470.66023,162.85623 Z" id="Path" fill="#FFB8B8"></path>
            <path d="M477.74249,296.534 L375.93494,282.36943 C384.18748,266.8221 389.72931,251.80208 387.7844,238.23812 C386.749746,231.459656 386.836232,224.557222 388.0404,217.80681 L388.68824,214.35162 C390.036193,207.703268 392.607847,201.363287 396.27224,195.65454 C400.3611,189.06654 398.95034,179.1676 397.18172,169.05321 L421.08436,165.51208 C434.27358,172.21168 449.08068,167.74792 464.46322,159.31508 L492.79228,161.97093 C490.87282,212.45358 486.65292,258.75609 477.74249,296.534 Z" id="Path" fill="#E6E6E6"></path>
            <path d="M562.72966,600.186 L543.25343,603.72717 L417.54324,385.06226 L367.9674,603.72717 L350.26174,602.84189 C349.87421,478.92236 344.3025,342.86467 374.27061,290.02078 C385.51398,263.33931 402.71681,237.79048 396.29645,211.54678 C421.51362,218.89554 446.89667,218.37033 472.43079,210.6615 C471.23222,242.15129 472.3679,271.65482 476.85721,298.3045 L562.72966,600.186 Z" id="Path" fill="#86D75C"></path>
            <path d="M557.18311,659.5 L557.18311,659.5 C548.442337,659.5 540.789072,653.634707 538.5167,645.19448 L536.79002,638.781 C536.381039,637.261972 536.257949,635.68016 536.42702,634.11615 L539.71232,603.72715 C545.97695,595.96093 555.08601,594.08846 568.04138,600.18602 L576.04725,635.94558 C577.329442,641.672674 575.940444,647.672131 572.271748,652.252992 C568.603052,656.833853 563.051978,659.5 557.18311,659.5 L557.18311,659.5 Z" id="Path" fill="#2F2E41"></path>
            <path d="M361.53557,659.5 L361.53557,659.5 C352.794796,659.5 345.141529,653.634709 342.86916,645.19448 L341.14246,638.78104 C340.733479,637.262012 340.610389,635.6802 340.77946,634.11619 L344.06476,603.72719 C350.32939,595.96097 359.43845,594.0885 372.39382,600.18606 L380.39969,635.94562 C381.681867,641.672704 380.292865,647.672147 376.624175,652.252997 C372.955486,656.833847 367.404426,659.5 361.53557,659.5 L361.53557,659.5 Z" id="Path" fill="#2F2E41"></path>
            <circle id="Oval" fill="#FFB8B8" cx="423.74023" cy="121.24792" r="29.21434"></circle>
            <circle id="Oval" fill="#E6E6E6" cx="401.16551" cy="217.30113" r="2.65585"></circle>
            <circle id="Oval" fill="#E6E6E6" cx="468.44702" cy="217.30113" r="2.65585"></circle>
            <polygon id="Path" fill="#2F2E41" points="442.774 117.264 396.739 116.449 396.739 86.279 452.512 86.279"></polygon>
            <path d="M461.36475,157.10189 L441.00324,157.10189 C448.52858,139.12195 447.86559,120.1561 441.00324,100.44377 L461.36475,100.44377 L461.36475,157.10189 Z" id="Path" fill="#2F2E41"></path>
            <path d="M486.59532,324.863 L474.53366,339.00425 C471.390334,342.689527 466.662326,344.632211 461.83603,344.221561 C457.009735,343.810911 452.677907,341.097361 450.20239,336.934 L450.20239,336.934 C447.991563,333.215782 447.491682,328.724738 448.830808,324.611388 C450.169933,320.498039 453.217956,317.162035 457.19403,315.458 L478.62779,306.27211 L504.30102,269.97547 L490.13649,207.12038 L514.92442,199.15283 L529.08894,278.8283 L486.59532,324.863 Z" id="Path" fill="#FFB8B8"></path>
            <path d="M393.6406,331.48578 L405.70226,345.627 C408.845587,349.312276 413.573597,351.254959 418.399892,350.844307 C423.226188,350.433654 427.558015,347.720103 430.03353,343.55674 L430.03353,343.55674 C432.244354,339.838521 432.744233,335.347478 431.405107,331.23413 C430.065982,327.120781 427.017962,323.784778 423.04189,322.08074 L401.60813,312.89485 L375.93492,276.59824 L390.09945,213.74315 L365.31153,205.7756 L351.14702,285.45106 L393.6406,331.48578 Z" id="Path" fill="#FFB8B8"></path>
            <path d="M518.46551,202.694 C507.234477,202.360272 496.366792,206.692995 488.44596,214.66218 L479.59313,161.54518 L490.3008,161.41965 C499.243342,161.750856 507.029955,167.62495 509.80423,176.13272 L518.46551,202.694 Z" id="Path" fill="#E6E6E6"></path>
            <path d="M361.77041,209.31672 C373.001445,208.982995 383.869129,213.315722 391.78996,221.28491 C402.03577,205.74447 403.52096,187.60373 400.64279,168.16791 L389.93512,168.04238 C380.992579,168.373589 373.205968,174.247682 370.43169,182.75545 L361.77041,209.31672 Z" id="Path" fill="#E6E6E6"></path>
            <path d="M468.00438,215.08792 L468.97957,215.08792 L474.8584,160.50292 C474.890788,160.199998 474.79297,159.897578 474.589317,159.671003 C474.385664,159.444428 474.095349,159.31505 473.7907,159.31505 L469.07813,159.31505 C468.485348,159.315623 468.004948,159.796028 468.00438,160.38881 L468.00438,215.08792 Z" id="Path" fill="#86D75C"></path>
            <path d="M399.83758,217.74377 L400.82058,217.74377 L406.69941,167.77977 C406.727395,167.541092 406.652028,167.301834 406.492302,167.122286 C406.332576,166.942737 406.103723,166.84002 405.86341,166.84002 L400.67966,166.84002 C400.214838,166.840588 399.838168,167.217258 399.83758,167.68208 L399.83758,217.74377 Z" id="Path" fill="#86D75C"></path>
        </g>
    </g>
</svg>
