<?xml version="1.0" encoding="UTF-8"?>
<svg width="24px" height="24px" viewBox="0 0 24 24" version="1.1" xmlns="http://www.w3.org/2000/svg" xmlns:xlink="http://www.w3.org/1999/xlink">
    <title>marker</title>
    <g id="Page-1" stroke="none" stroke-width="1" fill="none" fill-rule="evenodd">
        <g id="marker" fill-rule="nonzero">
            <path d="M12,24 C5.372583,24 0,18.627417 0,12 C0,5.372583 5.372583,0 12,0 C18.627417,0 24,5.372583 24,12 C24,18.627417 18.627417,24 12,24 Z M12,20.75 C16.8324915,20.75 20.75,16.8324915 20.75,12 C20.75,7.16750844 16.8324915,3.25 12,3.25 C7.16750844,3.25 3.25,7.16750844 3.25,12 C3.25,16.8324915 7.16750844,20.75 12,20.75 Z" id="Oval" fill-opacity="0.5" fill="#18221A"></path>
            <path d="M12,22 C6.4771525,22 2,17.5228475 2,12 C2,6.4771525 6.4771525,2 12,2 C17.5228475,2 22,6.4771525 22,12 C22,17.5228475 17.5228475,22 12,22 Z M12,20.75 C16.8324915,20.75 20.75,16.8324915 20.75,12 C20.75,7.16750844 16.8324915,3.25 12,3.25 C7.16750844,3.25 3.25,7.16750844 3.25,12 C3.25,16.8324915 7.16750844,20.75 12,20.75 Z" id="Oval" fill="#A3D8AF"></path>
            <path d="M12,21 C16.9705627,21 21,16.9705627 21,12 C21,7.02943725 16.9705627,3 12,3 C7.02943725,3 3,7.02943725 3,12 C3,16.9705627 7.02943725,21 12,21 Z" id="Path" fill="#73BD84"></path>
            <circle id="Oval" fill="#FFFFFF" cx="12" cy="12" r="5"></circle>
        </g>
    </g>
</svg>