<?xml version="1.0" encoding="UTF-8"?>
<svg width="513px" height="477px" viewBox="0 0 513 477" version="1.1" xmlns="http://www.w3.org/2000/svg" xmlns:xlink="http://www.w3.org/1999/xlink">
    <title>salad</title>
    <g id="Page-1" stroke="none" stroke-width="1" fill="none" fill-rule="evenodd">
        <g id="salad" fill-rule="nonzero">
            <g id="fill_49_" transform="translate(7.000000, 7.000000)">
                <path d="M478.205,220.151 C470.99,211.173 468.432,199.252 471.377,188.117 C482.663,145.453 465.985,98.594 426.888,73.386 C387.791,48.178 338.225,52.329 304.023,80.218 C295.096,87.497 283.183,90.087 272.027,87.221 C236.497,78.093 197.61,92.088 176.641,124.611 C150.526,165.116 168.648,203.852 168.691,203.937 C169.72,206.577 210.916,322.102 169.345,426.207 C164.771,437.661 168.915,450.748 179.28,457.431 C189.646,464.114 203.276,462.486 211.821,453.593 C289.485,372.76 411.715,362.6 414.544,362.447 C414.639,362.451 457.401,362.97 483.516,322.465 C504.488,289.942 501.184,248.746 478.205,220.151 Z" id="Path" fill="#2D60B9"></path>
                <path d="M359.331,57.258 C339.3,59.361 319.988,67.202 304.024,80.219 C295.097,87.498 283.184,90.088 272.028,87.222 C236.498,78.094 197.611,92.089 176.642,124.612 C150.527,165.117 168.649,203.853 168.692,203.938 C169.721,206.578 210.917,322.103 169.346,426.208 C164.772,437.662 168.916,450.749 179.282,457.432 L179.282,457.432 C189.648,464.115 203.278,462.488 211.823,453.594 C232.292,432.29 255.856,415.9 279.514,403.304 C307.447,345.67 356.23,306.402 362.979,301.151 C369.795,296.547 381.807,287.252 393.708,272.297 C414.123,246.645 425.15,215.578 425.6,182.456 C426.294,131.248 400.661,84.485 359.331,57.258 Z" id="Path" fill="#1E4281"></path>
                <path d="M361.353,175.034 C347.747,166.262 243.033,302.89 181.371,386.515 C178.517,399.747 174.599,413.047 169.363,426.166 C164.785,437.637 168.902,450.74 179.282,457.432 L179.282,457.432 C189.662,464.124 203.296,462.466 211.854,453.561 C221.642,443.377 232.139,434.319 243.014,426.258 C293.733,335.577 374.959,183.806 361.353,175.034 Z" id="Path" fill="#6436AA"></path>
                <path d="M306.83,97.725 C295.951,93.941 287.46,85.192 284.051,74.19 C270.988,32.036 231.995,1.158 185.481,0.527 C138.966,-0.104 99.15,29.705 84.949,71.489 C81.243,82.394 72.517,90.909 61.54,94.397 C26.577,105.506 1.034,137.996 0.509,176.69 C-0.145,224.88 35.764,248.104 35.846,248.154 C38.119,249.846 134.319,325.93 154.297,436.232 C156.495,448.368 166.949,457.265 179.282,457.434388 L179.282,457.434388 C191.614,457.599 202.306,448.99 204.833,436.918 C227.796,327.198 326.025,253.752 328.343,252.122 C328.426,252.075 364.952,229.833 365.606,181.643 C366.13,142.949 341.477,109.778 306.83,97.725 Z" id="Path" fill="#2D60B9"></path>
                <path d="M151.514,110.492 C149.306,47.569 192.43,20.289 224.67,8.71 C212.603,3.624 199.382,0.716 185.48,0.527 C138.965,-0.104 99.149,29.705 84.947,71.489 C81.241,82.395 72.515,90.909 61.538,94.397 C26.577,105.506 1.034,137.996 0.509,176.69 C-0.145,224.88 35.764,248.105 35.846,248.154 C38.119,249.846 134.319,325.93 154.297,436.233 C156.495,448.369 166.949,457.266 179.282,457.435388 C191.614,457.6 202.306,448.99 204.833,436.919 C207.075,426.206 210.043,415.844 213.561,405.856 C63.623,247.521 154.63,199.262 151.514,110.492 Z" id="Path" fill="#1E4281"></path>
                <path d="M183.84,121.458788 C167.653,121.239 151.354,292.606 143.437,396.205 C148.037,408.936 151.769,422.289 154.289,436.187 C156.492,448.339 166.932,457.264 179.282,457.433408 L179.282,457.433408 C191.631,457.599 202.309,448.961 204.842,436.873 C207.738,423.048 211.832,409.801 216.775,397.199 C211.671,293.424 200.027,121.679 183.84,121.458788 Z" id="Path" fill="#7E44D6"></path>
                <path d="M179.282,457.432 L179.282,457.432 C191.631,457.6 202.309,448.962 204.842,436.874 C207.083,426.177 210.047,415.83 213.561,405.856 C183.413,374.02 163.001,346.631 149.612,322.472 C147.224,348.594 145.137,373.963 143.438,396.206 C148.038,408.937 151.77,422.29 154.29,436.188 C156.493,448.34 166.933,457.264 179.282,457.432 Z" id="Path" fill="#6436AA"></path>
            </g>
            <path d="M142.917,27.766 C157.904,19.195 174.973,14.787 192.379,15.025 C234.615,15.598 271.39,43.08 283.887,83.409 C287.985,96.631 298.257,107.247 311.367,111.808 C343.979,123.152 365.574,153.988 365.106,188.54 C364.52,231.791 332.842,251.851 331.444,252.713 C331.302,252.799 304.533,272.448 275.639,306.099 C255.346,329.733 240.515,352.521 229.677,373.38 C228.416,350.495 226.739,322.84 224.66,294.373 C239.907,270.649 262.04,244.312 293.309,223.139 C296.739,220.817 297.637,216.154 295.314,212.724 C292.992,209.293 288.328,208.397 284.898,210.719 C258.068,228.885 237.782,250.476 222.832,270.52 C221.637,255.662 220.335,240.886 218.926,226.751 C218.114,218.604 217.292,210.941 216.461,203.744 C225.901,192.762 239.181,180.034 257.401,167.822 C260.842,165.516 261.761,160.857 259.455,157.417 C257.148,153.975 252.488,153.057 249.049,155.363 C234.676,164.997 223.097,174.431 213.864,183.03 C212.413,172.425 210.941,163.253 209.458,155.613 C205.216,133.767 200.826,121.093 190.94,120.96 C190.888,120.959 190.836,120.959 190.784,120.959 C181.005,120.959 176.297,133.49 171.489,155.098 C169.736,162.977 167.952,172.504 166.147,183.57 C157.239,174.009 145.997,163.774 131.92,153.774 C128.545,151.376 123.862,152.169 121.463,155.544 C119.064,158.921 119.857,163.604 123.234,166.002 C141.436,178.932 154.394,192.249 163.182,203.035 C162.157,210.203 161.127,217.836 160.096,225.953 C158.305,240.045 156.603,254.78 155.005,269.6 C140.605,249.158 120.911,227.025 94.584,208.137 C91.218,205.721 86.532,206.492 84.118,209.859 C81.703,213.224 82.474,217.911 85.84,220.325 C116.548,242.356 137.952,269.241 152.538,293.331 C149.685,321.757 147.256,349.385 145.373,372.246 C131.874,344.534 115.429,321.179 101.253,303.733 C73.286,269.315 47.568,249.318 47.325,249.137 C47.189,249.036 47.051,248.94 46.908,248.848 C45.425,247.874 14.422,226.961 15.008,183.79 C15.476,149.238 37.901,118.999 70.808,108.544 C84.036,104.342 94.594,94.009 99.048,80.901 C103.407,68.075 110.291,56.485 119.508,46.456 C122.311,43.405 127.93,36.337 142.917,27.766 Z M108.463,36.305 C97.826,47.881 89.88,61.261 84.846,76.075 C81.918,84.688 74.972,91.482 66.266,94.249 C27.193,106.664 0.566,142.566 0.01,183.588 C-0.658,232.814 33.535,257.892 38.419,261.209 C41.419,263.55 134.55,337.637 153.918,444.568 C156.623,459.503 169.12,470.662 184.054,471.825 C189.093,474.633 194.647,476.013 200.179,476.013 C209.008,476.013 217.768,472.518 224.233,465.789 C299.741,387.2 418.779,377.172 421.897,376.94 C427.683,376.855 470.25,374.744 496.823,333.529 C519.053,299.05 516.734,254.411 491.051,222.452 C485.329,215.332 483.302,205.83 485.628,197.035 C498.092,149.915 478.933,100.504 437.952,74.083 C402.338,51.122 357.429,50.092 320.751,71.398 C317.169,73.479 292.940031,85.0718048 298.215,93.1588429 C303.489969,101.245881 324.704,86.45 328.286,84.369 C360.062,65.909 398.97,66.798 429.824,86.69 C465.325,109.579 481.924,152.381 471.127,193.199 C467.586,206.581 470.664,221.03 479.359,231.848 C500.988,258.763 502.939,296.359 484.215,325.401 C461.052,361.328 424.158,361.949 421.71,361.949 C421.681,361.949 388.354,364.406 346.016,377.605 C316.278,386.876 291.62,398.326 271.368,410.26 C282.643,389.822 295.859,365.545 309.083,340.523 C334.523,328.545 367.192,318.015 404.998,316.65 C409.138,316.501 412.372,313.024 412.223,308.884 C412.074,304.743 408.588,301.522 404.457,301.659 C372.081,302.828 343.435,310.369 320.132,319.429 C330.854,298.772 341.208,278.216 350.134,259.459 C363.422,255.336 381.584,251.411 403.9,250.709 C408.04,250.579 411.291,247.117 411.161,242.978 C411.031,238.837 407.573,235.587 403.43,235.717 C388.735,236.179 375.662,237.922 364.255,240.305 C372.569,227.93 379.805,210.874 380.105,188.743 C380.661,147.722 355.018,111.11 316.295,97.641 C307.667,94.638 300.908,87.659 298.215,78.969 C283.788,32.412 241.338,0.688 192.582,0.027 C172.54,-0.248 152.784,4.843 135.471,14.745 C124.557,21.401 115.554333,28.5876667 108.463,36.305 Z M168.677,441.895 C166.181,428.116 162.503,414.889 158.028,402.305 C160.854,365.473 166.574,296.358 173.884,236.613 C181.324,175.8 187.171,151.215 190.666,141.286 C193.89,151.306 199.068,176.04 204.856,237.033 C210.544,296.976 214.389,366.254 216.214,403.14 C210.492,417.963 206.827,431.226 204.492,442.381 C202.703,450.93 195.104,457.006 186.384,456.933651 C177.681,456.815 170.234,450.491 168.677,441.895 Z M217.306,451.452 C218.104,449.542 231.67,353.352 324.535,277.74 C297.88,331.256 264.142,392.612 244.165,428.351 C233.445,436.387 224.563,444.254 217.306,451.452 Z" id="stroke_49_" fill="#000000"></path>
        </g>
    </g>
</svg>