<?xml version="1.0" encoding="UTF-8"?>
<svg width="128px" height="128px" viewBox="0 0 128 128" version="1.1" xmlns="http://www.w3.org/2000/svg" xmlns:xlink="http://www.w3.org/1999/xlink">
    <!-- Generator: Sketch 53 (72520) - https://sketchapp.com -->
    <title>Aromatic</title>
    <desc>Created with Sketch.</desc>
    <g id="Aromatic" stroke="none" stroke-width="1" fill="none" fill-rule="evenodd">
        <g id="garlic" transform="translate(5.000000, 6.000000)" fill-rule="nonzero">
            <path d="M82.38763,29.2145689 C83.5817038,27.8723407 85.557465,27.1404994 88.6349747,27.1404994 C103.19775,27.1404994 115,43.4621188 115,63.5986559 C115,83.735193 103.19775,100.056812 88.6349747,100.056812 C86.2006645,100.056812 80.5195817,99.4121691 74.2229969,98.3159642 L74.2199194,98.31285 C71.7948418,100.408719 69.1235634,102.031227 66.2799444,103.090061 C63.8025492,104.01187 61.192821,104.503916 58.5,104.503916 L58.4969225,104.503916 C55.801024,104.503916 53.1912958,104.01187 50.7139005,103.086947 C47.8702816,102.031227 45.1990032,100.408719 42.7739256,98.3159642 C36.4773408,99.4121691 30.796258,100.056812 28.3619478,100.056812 C13.8022496,100.056812 2,83.735193 2,63.5986559 C2,43.4621188 13.8022496,27.1404994 28.3619478,27.1404994 C31.442535,27.1404994 33.4182962,27.8723407 34.61237,29.2145689 C40.8135519,23.7553438 49.5229043,14.1261801 50.3630644,2.50391645 L66.6338581,2.50391645 C67.4740182,14.1261801 76.1833706,23.7553438 82.38763,29.2145689 Z" id="Shape" fill="#E6E6E6"></path>
            <path d="M89.8673449,97.7613746 L89.8642529,97.7582568 C89.1592859,98.366229 88.432675,98.9336697 87.6875125,99.4574611 C88.2100539,99.4886392 88.6645721,99.5039164 89.0417913,99.5039164 C91.0917614,99.5039164 93.0860762,99.1827824 95,98.575122 C93.3767205,98.3444044 91.6452224,98.0700374 89.8673449,97.7613746 Z M34.7655097,28.5803753 C33.5658288,27.2366009 31.5807899,26.5039164 28.4857371,26.5039164 C13.8576701,26.5039164 2,42.8443382 2,63.0037606 C2,83.1634947 13.8576701,99.5039164 28.4857371,99.5039164 C30.2450628,99.5039164 33.6864153,99.1703112 37.8327349,98.575122 C26.0740076,94.8493437 17.3052065,80.3390742 17.3052065,63.0037606 C17.3052065,47.9868475 23.8845901,35.0894191 33.2875524,29.486098 L34.7655097,28.5803753 Z" id="Shape" fill="#CCCCCC"></path>
            <path d="M101.213446,87.5039164 C100.738352,87.5039164 100.259373,87.3489107 99.8527044,87.0287501 C98.8699465,86.2540291 98.6834945,84.806079 99.4355776,83.7948513 C103.301171,78.598777 105.517979,71.1754183 105.517979,63.4266706 C105.517979,52.8481461 101.300696,42.9302411 95.0234761,38.7469323 C93.9842448,38.0543274 93.687535,36.6260605 94.360137,35.5570132 C95.0330377,34.4876583 96.4206714,34.1825677 97.4593051,34.87425 C105.077546,39.9516096 110,51.1590759 110,63.4266706 C110,72.168808 107.446443,80.6147738 102.994302,86.5994089 C102.55357,87.1929824 101.887243,87.5039164 101.213446,87.5039164 Z" id="Path" fill="#FFFFFF"></path>
            <path d="M44.3695652,30.2400276 C44.3695652,30.2400276 56.3913043,26.4205831 57,3.65669423 L50.7608696,3.50391645 C50.7608696,3.50391645 45.8913043,23.059472 36,28.559472 L37.673913,36.5039164 L44.3695652,30.2400276 Z" id="Path" fill="#CCCCCC"></path>
            <path d="M76.410203,84.5039164 C76.1569912,84.5039164 75.8992864,84.4653002 75.6457536,84.3834336 C74.3851503,83.9771903 73.7054258,82.6642364 74.1274455,81.4507581 C80.2465707,63.8562498 76.0144994,51.9611969 71.3867244,45.0807009 C70.6643165,44.0065502 70.9833185,42.5721867 72.0991835,41.8764756 C73.2150485,41.1807646 74.705436,41.4875324 75.4278438,42.5623009 C80.6304,50.2972982 85.4199225,63.5779036 78.6926396,82.9218843 C78.3553448,83.8913076 77.4166317,84.5039164 76.410203,84.5039164 Z" id="Path" fill="#FFFFFF"></path>
            <circle id="Oval" fill="#FFFFFF" cx="68.5" cy="38.0039164" r="2.5"></circle>
            <circle id="Oval" fill="#FFFFFF" cx="89.5" cy="34.0039164" r="2.5"></circle>
            <path d="M109.807451,36.7716662 C104.364689,29.2694327 97.0588887,25.1380974 89.2359214,25.1380974 C86.6892965,25.1380974 84.6502676,25.5890036 83.0685073,26.505452 C72.6038181,16.8184405 69.8765705,8.24655024 69.4720993,2.66907623 C69.3834862,1.44839072 68.3757045,0.503916449 67.1625996,0.503916449 L50.8380178,0.503916449 C49.6246042,0.503916449 48.6171312,1.44839072 48.5285181,2.66907623 C48.1243556,8.24686164 45.3971081,16.8184405 34.9324189,26.5057634 C33.3506586,25.5890036 31.3113209,25.1380974 28.7650048,25.1380974 C20.9420375,25.1380974 13.6362376,29.2697441 8.19347528,36.7716662 C2.90972269,44.0543631 0,53.6993357 0,63.929739 C0,74.1604537 2.90972269,83.8054262 8.19285777,91.0881231 C13.63562,98.5903566 20.9414199,102.721692 28.7643873,102.721692 C31.3764685,102.721692 36.8318898,102.086749 42.5707497,101.123279 C44.3013308,102.510563 46.1214512,103.662741 48.0051756,104.580746 L44.372036,111.774694 C43.7912648,112.924069 44.2448283,114.330349 45.3841403,114.91578 C45.7209938,115.088918 46.0797691,115.170816 46.4332954,115.170816 C47.2762011,115.170816 48.0894661,114.70434 48.4982599,113.894701 L52.3620407,106.244242 C53.7807775,106.64221 55.2232886,106.916864 56.6827813,107.055748 L56.6827813,114.168421 C56.6827813,115.458549 57.7192774,116.503916 58.9984562,116.503916 C60.277635,116.503916 61.3141311,115.458549 61.3141311,114.168421 L61.3141311,107.05606 C62.7736238,106.917176 64.2161348,106.642521 65.6348717,106.244553 L69.4980349,113.89439 C69.9071375,114.704651 70.7200937,115.170816 71.5633081,115.170816 C71.9171433,115.170816 72.2759185,115.088606 72.6121545,114.916091 C73.7517753,114.33066 74.2053388,112.924381 73.6248763,111.775006 L69.9920455,104.581058 C71.8757699,103.663052 73.6958903,102.510563 75.4267801,101.123279 C81.1665663,102.08706 86.6229139,102.722003 89.2353039,102.722003 C97.0582712,102.722003 104.364071,98.5903566 109.806833,91.0884345 C115.090277,83.8057376 118,74.1610765 118,63.9300504 C118.000617,53.6993357 115.090895,44.0543631 109.807451,36.7716662 Z M89.2359214,98.0507015 C87.674539,98.0507015 84.218317,97.736811 79.6548937,97.0635655 C83.0697423,93.1838409 85.8328056,88.3801943 87.7452443,82.9406702 C88.1728723,81.724967 87.5420824,80.389998 86.3366964,79.9590213 C85.1316192,79.5286673 83.8076707,80.163922 83.3803515,81.3796252 C78.8700343,94.2067878 69.3001219,102.495305 59.0003087,102.495305 C48.6983342,102.495305 39.1274955,94.2070992 34.6168696,81.3796252 C34.1898591,80.1642334 32.8668369,79.5292901 31.6605247,79.9590213 C30.4551387,80.389998 29.8246576,81.724967 30.2519768,82.9406702 C32.1647243,88.3805057 34.9277875,93.1844637 38.3429449,97.0638769 C33.7804478,97.7371224 30.3254609,98.0507015 28.7643873,98.0507015 C15.4572843,98.0507015 4.63134979,82.7441772 4.63134979,63.929739 C4.63134979,45.1156122 15.4572843,29.8090878 28.7643873,29.8090878 C31.0470252,29.8090878 32.5917347,30.2624853 33.3552899,31.1565129 C34.6631831,32.6873522 34.4143252,36.1420167 33.9477939,39.4244774 C31.2088137,44.0895513 29.2790846,49.3593627 28.2144917,55.0996986 C27.9792191,56.3674054 28.8076132,57.5874681 30.0648703,57.8247544 C30.2087509,57.8518462 30.352014,57.864925 30.4934245,57.864925 C31.5861143,57.864925 32.558389,57.0811328 32.7667997,55.958538 C33.7467934,50.676582 35.6095222,45.6515305 38.1539858,41.4267753 C38.1681886,41.403109 38.1823914,41.3791312 38.195668,41.3548421 C40.5453061,37.4695122 43.384941,34.327804 46.6361486,32.0150409 C47.6812898,31.2717306 47.931074,29.814693 47.1940718,28.7606062 C46.4570697,27.7071421 45.0130148,27.4542858 43.9672561,28.1979075 C41.8170747,29.7271898 39.8299169,31.5575953 38.021838,33.6695057 C38.0354233,32.4273337 37.9563815,31.2380995 37.7504409,30.2375734 C48.3429553,20.5437111 51.9294726,11.5965846 52.9042174,5.17490691 L65.0967088,5.17490691 C66.0628084,11.5377301 69.595602,20.3802265 79.9636504,29.9713269 C79.5795571,30.8254954 79.3313168,31.7634302 79.1917587,32.7832632 C77.5979569,31.0422293 75.8757123,29.5085874 74.0324351,28.1975961 C72.9876026,27.4542858 71.5429302,27.7062079 70.8056193,28.7602948 C70.0683084,29.8143816 70.3184013,31.2714192 71.3635426,32.0147295 C74.6147501,34.3274926 77.4540763,37.4692008 79.8037144,41.3539079 C79.8172997,41.3785084 79.8311938,41.4024862 79.8457053,41.4264639 C82.3901689,45.6512191 84.2528978,50.6762706 85.2328914,55.9582266 C85.4413021,57.0808214 86.4135768,57.8646136 87.5062666,57.8646136 C87.6476772,57.8646136 87.7909403,57.8515348 87.9348209,57.824443 C89.192078,57.5871567 90.0204721,56.367094 89.7851995,55.0993872 C88.7206066,49.3599855 86.7911862,44.0907969 84.0531322,39.4260344 C83.5866009,36.1429509 83.3374343,32.6870408 84.6453275,31.1558901 C85.4095002,30.2621739 86.953901,29.8087764 89.2362302,29.8087764 C102.543642,29.8087764 113.369576,45.1153008 113.369576,63.9294276 C113.369268,82.7441772 102.543024,98.0507015 89.2359214,98.0507015 Z" id="Shape" fill="#333333"></path>
        </g>
    </g>
</svg>