<?xml version="1.0" encoding="UTF-8"?>
<svg width="128px" height="128px" viewBox="0 0 128 128" version="1.1" xmlns="http://www.w3.org/2000/svg" xmlns:xlink="http://www.w3.org/1999/xlink">
    <!-- Generator: Sketch 53 (72520) - https://sketchapp.com -->
    <title>Beer</title>
    <desc>Created with Sketch.</desc>
    <g id="Beer" stroke="none" stroke-width="1" fill="none" fill-rule="evenodd">
        <g id="beer-1" transform="translate(19.660819, 3.000000)" fill-rule="nonzero">
            <path d="M79.7316289,17.4334267 C78.4401997,17.4334267 77.2355066,17.8013377 76.2177402,18.4372539 L75.8631078,18.4372539 C76.0188001,17.7979996 76.1074582,17.1327554 76.1074582,16.4460517 C76.1074582,11.7631141 72.2819446,7.96693038 67.5633627,7.96693038 C64.9845889,7.96693038 62.6744323,9.10237583 61.1078987,10.8949585 C60.1713422,5.83528772 55.7076824,2 50.3387008,2 C44.9697191,2 40.5060593,5.83504928 39.5697431,10.8947201 C38.0029692,9.10213739 35.6930529,7.96669194 33.1142791,7.96669194 C28.3954569,7.96669194 24.5701836,11.7631141 24.5701836,16.4458133 C24.5701836,17.1325169 24.6588417,17.7977611 24.814534,18.4370155 L24.4599016,18.4370155 C23.4421352,17.8010993 22.237442,17.4331882 20.9460128,17.4331882 C17.2970947,17.4331882 14.3391813,20.368608 14.3391813,23.9897777 C14.3391813,27.6109474 17.2970947,30.5463672 20.9460128,30.5463672 L20.9460128,41 L79.7323497,41 L79.7323497,30.546844 C83.3812679,30.546844 86.3391813,27.6114243 86.3391813,23.9902546 C86.3384605,20.3688464 83.3805471,17.4334267 79.7316289,17.4334267 Z" id="Path" fill="#FEFFCC"></path>
            <path d="M24.1710929,98 L16.5642668,98 C8.72036803,98 2.33918129,91.719808 2.33918129,84.0000541 L2.33918129,54.9999459 C2.33918129,47.280192 8.72036803,41 16.5642668,41 L24.1710929,41 C27.025371,41 29.3391813,43.2771897 29.3391813,46.0862933 C29.3391813,48.895397 27.025371,51.1725867 24.1710929,51.1725867 L16.5642668,51.1725867 C14.4197597,51.1725867 12.6753581,52.8893798 12.6753581,54.9999459 L12.6753581,83.9998168 C12.6753581,86.1103829 14.4197597,87.827176 16.5642668,87.827176 L24.1710929,87.827176 C27.025371,87.827176 29.3391813,90.1043657 29.3391813,92.9134693 C29.3391813,95.7225729 27.025371,98 24.1710929,98 Z" id="Path" fill="#BCC7D9"></path>
            <g id="Group" opacity="0.2" transform="translate(14.339181, 41.000000)" fill="#171D26">
                <path d="M9.64155738,56.9403983 C12.5518033,56.9403983 14.9109836,54.671278 14.9109836,51.8721286 C14.9109836,49.0729793 12.5518033,46.8038589 9.64155738,46.8038589 L1.88557377,46.8038589 C1.25237705,46.8038589 0.656065574,46.6569834 0.12442623,46.4020207 L0.12442623,56.8339668 C0.702295082,56.90161 1.2892623,56.9403983 1.88557377,56.9403983 L9.64155738,56.9403983 Z" id="Path"></path>
                <path d="M9.64155738,0.142381743 L1.88557377,0.142381743 C1.28901639,0.142381743 0.702295082,0.181406639 0.12442623,0.248813278 L0.12442623,10.6807593 C0.655819672,10.4257967 1.25262295,10.2789212 1.88557377,10.2789212 L9.64155738,10.2789212 C12.5518033,10.2789212 14.9109836,8.00980083 14.9109836,5.21065145 C14.9109836,2.41150207 12.5518033,0.142381743 9.64155738,0.142381743 Z" id="Path"></path>
            </g>
            <rect id="Rectangle" fill="#E4EAF5" x="20.3391813" y="31" width="59" height="79"></rect>
            <rect id="Rectangle" fill="#FFAC55" x="28.3391813" y="38" width="43" height="59"></rect>
            <rect id="Rectangle" fill="#171D26" opacity="0.2" x="20.3391813" y="31" width="20" height="79"></rect>
            <g id="Group" transform="translate(43.339181, 54.000000)" fill="#FEFFCC">
                <ellipse id="Oval" cx="13.6015641" cy="27.7240071" rx="5.21988462" ry="5.05112143"></ellipse>
                <ellipse id="Oval" cx="4.32079487" cy="14.2628357" rx="4.28912821" ry="4.15045714"></ellipse>
                <ellipse id="Oval" cx="15.3502949" cy="3.72357857" rx="3.629" ry="3.51167143"></ellipse>
            </g>
            <path d="M75.1861163,104 L25.492727,104 C20.4374143,104 16.3391813,108.178527 16.3391813,113.332884 L16.3391813,120 L84.3391813,120 L84.3391813,113.332884 C84.3394216,108.178527 80.2411886,104 75.1861163,104 Z" id="Path" fill="#BCC7D9"></path>
            <path d="M43.3391813,104 L25.4320583,104 C20.4102517,104 16.3391813,108.178527 16.3391813,113.332884 L16.3391813,120 L34.2463042,120 L34.2463042,113.332884 C34.2467818,108.178527 38.3176134,104 43.3391813,104 Z" id="Path" fill="#171D26" opacity="0.2"></path>
            <path d="M28.2616987,36 C27.19996,36 26.3391813,36.8489303 26.3391813,37.8965817 L26.3391813,96.1034183 C26.3391813,97.1508337 27.19996,98 28.2616987,98 L71.4166639,98 C72.4784026,98 73.3391813,97.1510697 73.3391813,96.1034183 L73.3391813,37.8965817 C73.3391813,36.8489303 72.4784026,36 71.4166639,36 L28.2616987,36 Z M69.4939073,39.7931633 L69.4939073,94.2068367 L30.1842161,94.2068367 L30.1842161,39.7931633 L69.4939073,39.7931633 Z" id="Shape" fill="#333333"></path>
            <path d="M57.3391813,75 C53.4793815,75 50.3391813,78.1402002 50.3391813,82 C50.3391813,85.8597998 53.479144,89 57.3391813,89 C61.198981,89 64.3391813,85.8597998 64.3391813,82 C64.3391813,78.1402002 61.198981,75 57.3391813,75 Z M57.3391813,85.1815374 C55.5847268,85.1815374 54.1574063,83.7542169 54.1574063,81.9997624 C54.1574063,80.245308 55.5847268,78.8179874 57.3391813,78.8179874 C59.0936357,78.8179874 60.5209563,80.245308 60.5209563,81.9997624 C60.5209563,83.7542169 59.0936357,85.1815374 57.3391813,85.1815374 Z" id="Shape" fill="#333333"></path>
            <path d="M48.3391813,75 C51.6475575,75 54.3391813,72.3086102 54.3391813,69 C54.3391813,65.6913898 51.6477915,63 48.3391813,63 C45.0305711,63 42.3391813,65.6913898 42.3391813,69 C42.3391813,72.3086102 45.031039,75 48.3391813,75 Z M48.3391813,66.7606458 C49.57409,66.7606458 50.5787695,67.7653252 50.5787695,69.000234 C50.5787695,70.2351427 49.57409,71.2398222 48.3391813,71.2398222 C47.1042725,71.2398222 46.0995931,70.2351427 46.0995931,69.000234 C46.0995931,67.7653252 47.1042725,66.7606458 48.3391813,66.7606458 Z" id="Shape" fill="#333333"></path>
            <path d="M58.8391813,52 C55.8064351,52 53.3391813,54.4675475 53.3391813,57.5001199 C53.3391813,60.5326923 55.8064351,63 58.8391813,63 C61.8719274,63 64.3391813,60.5326923 64.3391813,57.5001199 C64.3394211,54.4675475 61.8721672,52 58.8391813,52 Z M58.8391813,59.1457911 C57.9317077,59.1457911 57.1933062,58.4076133 57.1933062,57.5001199 C57.1933062,56.5926265 57.9314678,55.8542089 58.8391813,55.8542089 C59.7468947,55.8542089 60.4850564,56.5923867 60.4850564,57.5001199 C60.4850564,58.4076133 59.7468947,59.1457911 58.8391813,59.1457911 Z" id="Shape" fill="#333333"></path>
            <path d="M88.3391813,23.8902697 C88.3391813,19.2213961 84.4930253,15.4232003 79.7649559,15.4232003 C79.1807939,15.4232003 78.6019402,15.4815791 78.0363574,15.5961922 C77.6432966,10.2189097 73.0877493,5.96297663 67.5443624,5.96297663 C65.577611,5.96297663 63.6750427,6.5064951 62.0342735,7.50370019 C59.9828295,3.02068551 55.4219738,0 50.2470361,0 C45.0720984,0 40.5112427,3.02068551 38.4590748,7.50393847 C36.8187882,6.50673339 34.9157373,5.96321492 32.9489859,5.96321492 C27.405599,5.96321492 22.8498104,10.2193863 22.4567496,15.5964305 C21.8914081,15.4818174 21.3125544,15.4234386 20.7281511,15.4234386 C16.000323,15.4234386 12.1539257,19.2216343 12.1539257,23.890508 C12.1539257,27.9005354 14.9922151,31.2662514 18.789148,32.1366911 L18.789148,38.9751114 L16.5101679,38.9751114 C7.5935526,38.9751114 0.339181287,46.1390232 0.339181287,54.9444513 L0.339181287,84.0573593 C0.339181287,92.8627874 7.5935526,100.026699 16.5101679,100.026699 L18.789148,100.026699 L18.789148,104.700577 C15.9964623,106.699038 14.174726,109.943707 14.174726,113.602509 L14.174726,120.085176 C14.174726,121.142904 15.0428859,122 16.1137291,122 L84.3793779,122 C85.4502211,122 86.318381,121.142904 86.318381,120.085176 L86.318381,113.602509 C86.318381,109.943707 84.496886,106.698799 81.703959,104.700577 L81.703959,32.1366911 C85.5008919,31.2660132 88.3391813,27.9002971 88.3391813,23.8902697 Z M16.5106504,96.1968121 C9.73234347,96.1968121 4.21767005,90.7509048 4.21767005,84.057121 L4.21767005,54.9439747 C4.21767005,48.2501909 9.73234347,42.8042836 16.5106504,42.8042836 L18.7896306,42.8042836 L18.7896306,49.1868727 L16.5106504,49.1868727 C13.2961906,49.1868727 10.6808528,51.7695981 10.6808528,54.9439747 L10.6808528,84.0568827 C10.6808528,87.2312593 13.2961906,89.8139847 16.5106504,89.8139847 L18.7896306,89.8139847 L18.7896306,96.1968121 L16.5106504,96.1965738 L16.5106504,96.1968121 Z M18.7898718,53.0165215 L18.7898718,85.9845742 L16.5108917,85.9845742 C15.4347402,85.9845742 14.5591003,85.1198533 14.5591003,84.057121 L14.5591003,54.9439747 C14.5591003,53.8812424 15.4347402,53.0165215 16.5108917,53.0165215 L18.7898718,53.0165215 Z M82.4408574,113.602509 L82.4408574,118.170351 L18.0532147,118.170351 L18.0532147,113.602509 C18.0532147,110.92733 19.5472798,108.592179 21.7536318,107.363126 C21.8556973,107.306177 21.9589692,107.251849 22.0636889,107.199904 C22.085405,107.189181 22.1068797,107.177744 22.1288371,107.167021 C22.2617877,107.102924 22.3964272,107.042877 22.5329971,106.987119 C22.5460268,106.981639 22.5588151,106.977111 22.5718448,106.972107 C22.6980392,106.921592 22.8254401,106.874412 22.9540475,106.831045 C22.9740745,106.824135 22.9941015,106.817463 23.0143699,106.810791 C23.4400047,106.670921 23.8784279,106.570128 24.3238484,106.510081 C24.3515967,106.506269 24.379345,106.502933 24.4070933,106.499597 C24.5270143,106.484823 24.6474178,106.473386 24.7683038,106.464569 C24.7996715,106.462187 24.8307978,106.459566 24.8621655,106.457421 C25.0091108,106.448366 25.1562975,106.443124 25.3039667,106.443124 L75.190588,106.443124 C75.3382573,106.443124 75.4856852,106.448605 75.6323893,106.457421 C75.6639982,106.459089 75.6948833,106.462187 75.7262509,106.464569 C75.8468957,106.473624 75.9675405,106.485062 76.0877027,106.499835 C76.115451,106.503171 76.142958,106.506507 76.1707063,106.510319 C76.6161269,106.570604 77.0547914,106.671159 77.4806675,106.811268 C77.5002119,106.81794 77.520239,106.824612 77.5397834,106.831284 C77.6691146,106.874889 77.7972394,106.922545 77.9239164,106.973299 C77.9359809,106.978064 77.948528,106.98283 77.9605924,106.987596 C78.0974036,107.043592 78.2325258,107.103638 78.3657177,107.168213 C78.3867099,107.178459 78.4069782,107.18942 78.4277291,107.199904 C78.5334139,107.252326 78.6378923,107.30713 78.7411642,107.364794 C80.9475162,108.592893 82.4408574,110.927807 82.4408574,113.602509 Z M22.6676367,102.9261 L22.6676367,98.1116365 L22.6676367,87.8993986 L22.6676367,51.1016971 L22.6676367,40.8894592 L22.6676367,32.3573391 L77.8264354,32.3573391 L77.8264354,102.9261 C77.8138884,102.923002 77.8008587,102.921096 77.7880704,102.918236 C77.6034839,102.874393 77.416967,102.835553 77.2292437,102.801002 C77.1916025,102.794092 77.1534788,102.78742 77.1158376,102.780748 C76.9469349,102.75144 76.7768258,102.72642 76.6057514,102.704737 C76.5591825,102.69878 76.5130962,102.692585 76.4667686,102.687104 C76.2988311,102.66828 76.1296871,102.653507 75.9595779,102.641831 C75.9154219,102.638733 75.8712659,102.634444 75.8268687,102.631823 C75.6162229,102.620147 75.4043706,102.612761 75.1908293,102.612761 L25.3034841,102.612761 C25.0899429,102.612761 24.8780906,102.620147 24.6676861,102.631823 C24.6232888,102.634444 24.5793741,102.638733 24.5349768,102.641831 C24.3648677,102.653268 24.1957237,102.668042 24.0280274,102.687104 C23.9814585,102.692346 23.9351309,102.698542 23.888562,102.704737 C23.7174877,102.726182 23.5476198,102.75144 23.3789584,102.780748 C23.3408347,102.78742 23.3029522,102.794092 23.2648284,102.801002 C23.0771052,102.835553 22.8910709,102.874631 22.7067256,102.918236 C22.693696,102.921096 22.6806664,102.923002 22.6676367,102.9261 Z M79.7654385,28.5279287 L20.7286336,28.5279287 C18.1391138,28.5279287 16.0324145,26.4477374 16.0324145,23.8902697 C16.0324145,21.3330404 18.1388725,19.2528491 20.7286336,19.2528491 C21.6156141,19.2528491 22.478707,19.49804 23.2247744,19.9614962 C24.1267148,20.5221709 25.4839687,20.3410775 26.1436545,19.4989932 C26.9025102,18.5299052 26.3077314,17.4338136 26.3077314,16.351304 C26.3077314,12.7349165 29.2871752,9.79286369 32.9492272,9.79286369 C34.8737529,9.79286369 36.7027279,10.6185066 37.9673266,12.0584374 C39.0106628,13.2462671 41.0522139,12.6944088 41.3393485,11.1498728 C42.1278829,6.90823651 45.874145,3.82964877 50.2470361,3.82964877 C54.6199272,3.82964877 58.3661893,6.90823651 59.1549649,11.1493962 C59.2896045,11.8735315 59.8325061,12.4570811 60.551549,12.6508034 C61.2710746,12.8459554 62.0386167,12.6141082 62.5269868,12.0581991 C63.7913443,10.6182683 65.6205606,9.79262541 67.5450863,9.79262541 C71.2073796,9.79262541 74.1868234,12.7346783 74.1868234,16.3510657 C74.1868234,17.5336533 73.5218293,18.8380023 74.6049782,19.7656294 C75.303029,20.3634759 76.4875195,20.4480655 77.2697804,19.9617344 C78.0158478,19.49804 78.8789406,19.2530874 79.7659211,19.2530874 C82.3554409,19.2530874 84.4621403,21.3332786 84.4621403,23.890508 C84.4614164,26.4474991 82.3549583,28.5279287 79.7654385,28.5279287 Z" id="Shape" fill="#333333"></path>
        </g>
        <path d="M91.7338649,71.5563492 C91.0101444,71.5563492 90.2868001,71.2806214 89.7354477,70.7287902 L73.3807926,54.3635567 C72.2795932,53.2617725 72.2818513,51.4778062 73.3856851,50.3794028 C74.4898953,49.2798725 76.2771803,49.2825021 77.3772507,50.3842863 L93.7319058,66.7495197 C94.8331052,67.8513039 94.8308471,69.6352703 93.7270133,70.7336736 C93.1764136,71.2824996 92.4549511,71.5563492 91.7338649,71.5563492 Z" id="Path" fill="#FFFFFF" fill-rule="nonzero" transform="translate(83.556349, 60.556349) rotate(-315.000000) translate(-83.556349, -60.556349) "></path>
        <circle id="Oval" fill="#FFFFFF" fill-rule="nonzero" cx="87.5" cy="17.5" r="2.5"></circle>
        <circle id="Oval-Copy" fill="#FFFFFF" fill-rule="nonzero" cx="72.5" cy="12.5" r="2.5"></circle>
        <circle id="Oval-Copy-3" fill="#FFFFFF" fill-rule="nonzero" cx="53.5" cy="17.5" r="2.5"></circle>
        <circle id="Oval-Copy-4" fill="#FFFFFF" fill-rule="nonzero" cx="42.5" cy="26.5" r="2.5"></circle>
        <circle id="Oval-Copy-2" fill="#FFFFFF" fill-rule="nonzero" cx="99.5" cy="26.5" r="2.5"></circle>
        <circle id="Oval-Copy-2" fill="#FFFFFF" fill-rule="nonzero" cx="83.5" cy="80.5" r="2.5"></circle>
        <circle id="Oval-Copy-5" fill="#FFFFFF" fill-rule="nonzero" cx="83.5" cy="90.5" r="2.5"></circle>
    </g>
</svg>