<?xml version="1.0" encoding="UTF-8"?>
<svg width="128px" height="128px" viewBox="0 0 128 128" version="1.1" xmlns="http://www.w3.org/2000/svg" xmlns:xlink="http://www.w3.org/1999/xlink">
    <!-- Generator: Sketch 53 (72520) - https://sketchapp.com -->
    <title>Bread</title>
    <desc>Created with Sketch.</desc>
    <g id="Bread" stroke="none" stroke-width="1" fill="none" fill-rule="evenodd">
        <g id="bread" transform="translate(64.131160, 64.006794) rotate(-315.000000) translate(-64.131160, -64.006794) translate(-9.868840, 39.506794)" fill-rule="nonzero">
            <path d="M117.64262,8.87476333 C119.60092,10.8518082 119.60092,14.0527381 117.64262,16.0262961 C115.684321,17.9998541 112.50814,17.9998541 110.546381,16.0262961 L100.111345,5.50646463 L114.300364,5.50646463 L117.64262,8.87476333 Z" id="Path" fill="#E09B2D"></path>
            <path d="M78.7520148,9.58187011 C80.7099574,11.558915 80.7099574,14.7598448 78.7520148,16.7334029 C76.7906129,18.7069609 73.6150098,18.7069609 71.6570671,16.7334029 L61.2204718,6.21357141 L75.4103671,6.21357141 L78.7520148,9.58187011 Z" id="Path" fill="#E09B2D"></path>
            <path d="M41.272694,7.46054977 C43.2341852,9.43759466 43.2341852,12.6385245 41.272694,14.6120825 C39.3146622,16.5856406 36.1389146,16.5856406 34.1808828,14.6120825 L23.7438124,4.09225106 L37.9308942,4.09225106 L41.272694,7.46054977 Z" id="Path" fill="#E09B2D"></path>
            <path d="M139.059032,9.03172259 C142.885982,12.7430276 145.256006,17.8692474 145.256006,23.5289062 C145.256006,34.848224 135.782625,44.0272799 124.100356,44.0272799 L24.4116558,44.0272799 C18.570521,44.0272799 13.27993,41.7308896 9.45297968,38.0228372 C5.62602932,34.3147849 3.25600568,29.1885651 3.25600568,23.5289062 C3.25600568,13.1300962 11.2456038,4.54302763 21.5951546,3.20942985 L24.1095281,5.6456853 L34.2375187,15.4590133 C36.137566,17.3000288 39.2192681,17.3000288 41.1193154,15.4590133 C43.0227196,13.6179979 43.0227196,10.6320399 41.1193154,8.78777178 L37.8764785,5.6456853 L35.1741144,3.02727991 L59.5423887,3.02727991 L62.2447527,5.6456853 L72.3727433,15.4590133 C74.2727906,17.3000288 77.3544927,17.3000288 79.2578969,15.4590133 C81.1579442,13.6179979 81.1579442,10.6320399 79.2578969,8.78777178 L76.0150601,5.6456853 L73.312696,3.02727991 L97.6809702,3.02727991 L100.383334,5.6456853 L110.507968,15.4590133 C112.411372,17.3000288 115.493074,17.3000288 117.393122,15.4590133 C119.293169,13.6179979 119.293169,10.6320399 117.393122,8.78777178 L114.150285,5.6456853 L111.447921,3.02727991 L124.100356,3.02727991 C129.94149,3.02727991 135.232081,5.32041755 139.059032,9.03172259 Z" id="Path" fill="#F7B239"></path>
            <path d="M19.9682672,24.4976029 C19.9682672,18.3886549 22.6601972,12.9053692 26.9299615,9.13473228 L24.301779,6.53504784 L21.8278458,4.08794008 C11.6447535,5.42780509 3.78365726,14.0527981 3.78365726,24.4979296 C3.78365726,30.1827995 6.11556228,35.331854 9.88096132,39.0567506 C13.6463604,42.7809938 18.8518594,45.0879401 24.5990474,45.0879401 L40.7836573,45.0879401 C35.0364693,45.0879401 29.8309702,42.7809938 26.0655712,39.0567506 C22.3001722,35.331854 19.9682672,30.1827995 19.9682672,24.4976029 Z" id="Path" fill="#E09B2D"></path>
            <path d="M136.886578,31.759513 C136.586393,31.759513 136.281421,31.6913736 135.988718,31.5469991 C134.852627,30.9877166 134.334263,29.4960717 134.830779,28.2155914 C135.366801,26.8332393 135.638553,25.3611592 135.638553,23.8401672 C135.638553,20.9105118 134.62487,18.1539035 132.784558,16.0773395 C131.908248,15.0889814 131.909146,13.4870317 132.786055,12.4996856 C133.662665,11.5120021 135.083976,11.5130141 135.960286,12.5013722 C138.647579,15.5328992 140.127849,19.5602055 140.127849,23.8401672 C140.127849,26.0627923 139.729499,28.2166033 138.944171,30.2422315 C138.576049,31.192472 137.751814,31.759513 136.886578,31.759513 Z" id="Path" fill="#FFFFFF"></path>
            <path d="M100.890714,18.4206782 C100.199538,18.4206782 99.5087223,18.1791683 98.9813408,17.6958186 L92.3809718,11.6445442 C91.3269287,10.6778448 91.3269287,9.11099997 92.3816918,8.14529035 C93.4364549,7.17892088 95.145675,7.17925081 96.1997181,8.14562028 L102.800087,14.1968946 C103.85413,15.163594 103.85413,16.7304389 102.799367,17.6961485 C102.272346,18.1791683 101.58153,18.4206782 100.890714,18.4206782 Z" id="Path" fill="#FFFFFF"></path>
            <path d="M65.1184787,20.4813384 C64.4644486,20.4813384 63.8100776,20.2318627 63.3111197,19.7329113 L55.4232227,11.8447769 C54.4249661,10.8461926 54.4249661,9.22800887 55.4232227,8.22976537 C56.4214792,7.23186269 58.040025,7.23186269 59.0379408,8.22976537 L66.9258378,16.1178998 C67.9240944,17.1164841 67.9240944,18.7346678 66.9258378,19.7329113 C66.4268799,20.2315219 65.7725089,20.4813384 65.1184787,20.4813384 Z" id="Path" fill="#FFFFFF"></path>
            <circle id="Oval" fill="#FFFFFF" cx="126.228354" cy="11.1529112" r="2.5"></circle>
            <path d="M140.824184,7.26479456 C136.357129,2.73122112 130.413362,0.234386688 124.08867,0.234386688 L111.439287,0.234386688 C110.421026,0.234386688 109.503451,0.856128069 109.1138,1.81000934 C108.960088,2.18604888 108.90404,2.58420838 108.932567,2.9738602 L101.419793,2.9738602 L99.4561016,0.982041758 C98.9838892,0.503229431 98.3435331,0.234386688 97.675992,0.234386688 L73.3135947,0.234386688 C72.2953344,0.234386688 71.3777591,0.856128069 70.9881084,1.81000934 C70.8343961,2.18604888 70.7783481,2.58420838 70.8068755,2.9738602 L63.291081,2.9738602 L61.3263824,0.981701451 C60.8545057,0.503229431 60.2141495,0.234386688 59.5466084,0.234386688 L35.1842112,0.234386688 C34.1662865,0.234386688 33.2483755,0.856128069 32.8587249,1.81000934 C32.7050125,2.18604888 32.6489646,2.58420838 32.677492,2.9738602 L25.1643824,2.9738602 L23.3879646,1.17261383 C22.8338618,0.611106835 22.0525468,0.343625321 21.276266,0.447419038 C9.57768376,2.02474323 0.75600568,12.2519976 0.75600568,24.2362584 C0.75600568,30.6459458 3.21808787,36.6721069 7.68883445,41.2046594 C12.1592454,45.7378926 18.1023413,48.2343867 24.4236769,48.2343867 L124.088334,48.2343867 C137.13878,48.2343867 147.756006,37.4687662 147.756006,24.2359181 C147.756006,17.8286128 145.294259,11.8010905 140.824184,7.26479456 Z M113.097903,8.07846924 L115.601266,10.6168212 C116.517499,11.5475615 116.518506,13.0602274 115.602608,13.9885856 C114.687382,14.9166035 113.195232,14.9166035 112.279334,13.9885856 L106.452026,8.07846924 L113.097903,8.07846924 Z M74.9718755,8.07846924 L77.4752386,10.6168212 C78.3914714,11.5475615 78.3924783,13.0602274 77.4782591,13.986884 C76.5606838,14.9159229 75.0685331,14.9166035 74.1529714,13.9882453 L68.3246564,8.07846924 L74.9718755,8.07846924 L74.9718755,8.07846924 Z M36.842492,8.07846924 L39.3475331,10.6185227 C39.7928961,11.0697701 40.0378961,11.6690512 40.0375605,12.3061064 C40.0372249,12.9407795 39.7928961,13.5376785 39.3471975,13.9885856 C38.9041838,14.4377912 38.3145057,14.6855349 37.6872386,14.6855349 C37.0599714,14.6855349 36.4702934,14.4377912 36.026944,13.9882453 L30.198629,8.07846924 L36.842492,8.07846924 L36.842492,8.07846924 Z M124.088334,43.130118 L24.4236769,43.130118 C19.4471564,43.130118 14.7683276,41.1648435 11.248718,37.5953605 C7.7287728,34.0268985 5.79025226,29.2823346 5.79025226,24.2362584 C5.79025226,15.2136918 12.137766,7.45706817 20.7426358,5.70959034 L32.4673961,17.5982248 C33.8615468,19.0115209 35.715492,19.7901439 37.6872386,19.7901439 C39.6593207,19.7901439 41.513266,19.0115209 42.9054029,17.599586 C44.3015673,16.1869705 45.0708002,14.3074535 45.071807,12.3081483 C45.0724783,10.3068012 44.3039166,8.42490204 42.907081,7.00854319 L41.2602112,5.33899572 L58.5031769,5.33899572 L70.5930879,17.5978845 C73.4693207,20.5143178 78.1535194,20.5149984 81.0364646,17.5978845 C83.9130331,14.6811109 83.9140399,9.93178263 81.0364646,7.00854319 L79.3895947,5.33899572 L96.6322249,5.33899572 L108.720793,17.5992457 C111.601725,20.515679 116.286259,20.5146581 119.162156,17.5978845 C122.039396,14.6811109 122.040067,9.93178263 119.162156,7.00854319 L117.515287,5.33899572 L124.087999,5.33899572 C129.06754,5.33899572 133.746033,7.3042702 137.262287,10.8727322 C140.783239,14.4452779 142.721759,19.1912031 142.721759,24.2362584 C142.721759,34.6544251 134.362896,43.130118 124.088334,43.130118 Z" id="Shape" fill="#333333"></path>
        </g>
    </g>
</svg>