<?xml version="1.0" encoding="UTF-8"?>
<svg width="128px" height="128px" viewBox="0 0 128 128" version="1.1" xmlns="http://www.w3.org/2000/svg" xmlns:xlink="http://www.w3.org/1999/xlink">
    <!-- Generator: Sketch 53 (72520) - https://sketchapp.com -->
    <title>Cereal</title>
    <desc>Created with Sketch.</desc>
    <g id="Cereal" stroke="none" stroke-width="1" fill="none" fill-rule="evenodd">
        <g id="corn" transform="translate(30.481572, 4.000000)" fill-rule="nonzero">
            <path d="M34.5184275,110.784091 C37.0442609,110.784091 39.3746775,110.511364 41.5184275,110 L41.5184275,118 L27.5184275,118 L27.5184275,110 C29.6621775,110.511364 31.9925942,110.784091 34.5184275,110.784091 Z" id="Path" fill="#9AD14B"></path>
            <path d="M64.5935732,40 C64.5935732,40 72.7476867,101.381709 40.6321579,109.185394 C38.453578,109.716659 36.0852986,110 33.5184275,110 C33.5184275,110 35.8214977,64.697896 58.63286,44.4065438 C60.4824299,42.7596239 62.4653822,41.2779863 64.5935732,40 Z" id="Path" fill="#9AD14B"></path>
            <path d="M9.40623229,44.4094953 C32.2155625,64.7008475 34.5184275,110 34.5184275,110 C31.9517851,110 29.5837167,109.716659 27.4053308,109.185394 C-4.71030092,101.381709 3.4430862,40 3.4430862,40 C5.57405143,41.2809377 7.55682714,42.7625754 9.40623229,44.4065438 L9.40623229,44.4094953 Z" id="Path" fill="#9AD14B"></path>
            <path d="M16.7917013,52.7193574 C14.605906,49.6690138 12.1566297,46.8562634 9.40623229,44.4094953 L9.40623229,44.4065438 C7.55682714,42.7625754 5.57405143,41.2809377 3.4430862,40 C3.4430862,40 -4.71030092,101.381709 27.4053308,109.185394 C29.5837167,109.716659 31.9517851,110 34.5184275,110 C34.5184275,110 34.44374,108.543745 34.1921142,106.046212 C18.2768567,95.9560231 16.3859584,68.9004933 16.7917013,52.7193574 Z" id="Path" fill="#90BC42"></path>
            <path d="M60.5184275,40.6598952 C60.5184275,42.087156 60.0568026,43.4023591 59.2737933,44.4639581 C42.5121347,59.5769987 36.9843226,88.5792923 35.25469,102.362385 C35.1728831,103.022936 35.0969195,103.651048 35.0326426,104.237877 C35.0121909,104.423657 34.9917391,104.603539 34.9712874,104.780472 C34.9449923,105.042923 34.9157755,105.296527 34.8924021,105.538336 C34.8807154,105.656291 34.866107,105.771298 34.857342,105.883355 C34.8222819,106.225426 34.7930651,106.543906 34.7638484,106.844692 C34.7433966,107.048165 34.7258666,107.239843 34.7112582,107.422674 C34.7024931,107.514089 34.6966498,107.602556 34.6878848,107.691022 C34.6732764,107.865007 34.658668,108.033093 34.6469813,108.186435 C34.6382163,108.283748 34.6323729,108.378113 34.6236079,108.466579 C34.6119212,108.593381 34.6031561,108.714286 34.5973128,108.823394 C34.5622527,109.280472 34.5418009,109.610747 34.5301142,109.802425 C34.5271925,109.852556 34.5242709,109.890891 34.5213492,109.92038 C34.5184275,109.97346 34.5184275,110 34.5184275,110 C34.5184275,110 34.3139102,105.8981 33.4111121,99.6081258 C31.9590388,89.4816514 28.7042911,73.6874181 21.5958519,60.2316514 C18.5105615,54.3810616 14.6919302,48.9728047 9.97926581,44.6674312 C9.9062239,44.6025557 9.83610366,44.5317824 9.76306175,44.4669069 L9.76306175,44.4639581 C8.9829741,43.3994102 8.51842752,42.087156 8.51842752,40.6598952 C8.51842752,38.3332241 9.74845336,36.2984928 11.5891096,35.180865 C10.6249563,34.0573394 10.0376993,32.594692 10.0376993,30.9934469 C10.0376993,28.534076 11.413809,26.4020315 13.4268442,25.3315858 C13.0353395,24.5 12.8132921,23.5711009 12.8132921,22.5891219 C12.8132921,19.7110092 14.6948518,17.2811271 17.2834573,16.4760813 C17.2162587,16.1015727 17.1782769,15.7182176 17.1782769,15.3230668 C17.1782769,11.9996723 19.6909188,9.27195282 22.9018414,8.9593709 C22.887233,8.77359109 22.8755463,8.58486239 22.8755463,8.3931848 C22.8755463,4.86336828 25.7124943,2 29.2097411,2 C31.433137,2 33.3877387,3.15891219 34.5184275,4.90760157 C35.6491164,3.15891219 37.603718,2 39.8271139,2 C39.9381376,2 40.0462396,2.00294889 40.1543417,2.00884666 C40.3296423,2.01769332 40.5020212,2.03243775 40.6714784,2.05897772 C40.8058755,2.07372215 40.937351,2.09731324 41.0659048,2.12385321 C41.1623201,2.14154653 41.2587354,2.16513761 41.3522291,2.1887287 C41.4369577,2.2093709 41.5216863,2.23296199 41.6034933,2.25655308 C41.714517,2.28899083 41.822619,2.32437746 41.9277994,2.36271298 C42.0037629,2.38925295 42.0768049,2.41579292 42.1498468,2.44823067 C42.1702985,2.45412844 42.1878286,2.46002621 42.2053586,2.46887287 L42.2082803,2.46887287 C44.5251698,3.41841415 46.1613087,5.71264744 46.1613087,8.3931848 C46.1613087,8.58486239 46.149622,8.77359109 46.1350137,8.9593709 C49.3459362,9.27195282 51.8585781,11.9996723 51.8585781,15.3230668 C51.8585781,15.7182176 51.8205963,16.1015727 51.7533977,16.4760813 C54.3420032,17.2811271 56.2235629,19.7110092 56.2235629,22.5891219 C56.2235629,23.5711009 56.0015155,24.5 55.6100108,25.3315858 C57.623046,26.4020315 58.9991557,28.534076 58.9991557,30.9934469 C58.9991557,32.594692 58.4118987,34.0573394 57.4477454,35.180865 C59.2886938,36.2984928 60.5184275,38.3332241 60.5184275,40.6598952 Z" id="Path" fill="#F7B239"></path>
            <path d="M37.5286617,8.36775206 C37.5286617,8.55866714 37.540457,8.74664506 37.5552012,8.93168583 C34.3144379,9.24302426 31.7784449,11.9598926 31.7784449,15.2700663 C31.7784449,15.6636451 31.8167796,16.0454753 31.8846027,16.4184939 C29.2719401,17.2203373 27.3728941,19.640553 27.3728941,22.5072163 C27.3728941,23.4852889 27.5970051,24.4104927 27.9921482,25.2387704 C25.960405,26.3049577 24.5715064,28.4285208 24.5715064,30.8781081 C24.5715064,32.4729832 25.1642211,33.9298121 26.1373347,35.0488682 C24.2795724,36.1620499 23.0381153,38.1886869 23.0381153,40.5061022 C23.0381153,41.9276852 23.5069791,43.2347192 24.2943165,44.2950322 L24.2943165,44.2979693 C24.3680372,44.3625867 24.4388091,44.4330784 24.5125299,44.4976959 C23.3595377,45.3847167 22.6134839,46.7710538 22.6134839,48.3336203 C22.6134839,49.843318 23.3064587,51.188535 24.3916279,52.0784929 C23.3064587,52.9655137 22.6134839,54.3136679 22.6134839,55.8233656 C22.6134839,56.760318 21.7376816,58.3434446 20.7173868,60 C17.6034232,54.1726845 13.7493035,48.7859422 8.99284209,44.4976959 C8.91912136,44.4330784 8.84834946,44.3625867 8.77462873,44.2979693 L8.77462873,44.2950322 C7.98729135,43.2347192 7.51842752,41.9276852 7.51842752,40.5061022 C7.51842752,38.1886869 8.75988459,36.1620499 10.6176469,35.0488682 C9.64453333,33.9298121 9.05181867,32.4729832 9.05181867,30.8781081 C9.05181867,28.4285208 10.4407172,26.3049577 12.4724605,25.2387704 C12.0773174,24.4104927 11.8532064,23.4852889 11.8532064,22.5072163 C11.8532064,19.640553 13.7522523,17.2203373 16.3649149,16.4184939 C16.2970919,16.0454753 16.2587571,15.6636451 16.2587571,15.2700663 C16.2587571,11.9598926 18.7947502,9.24302426 22.0355134,8.93168583 C22.0207692,8.74664506 22.0089739,8.55866714 22.0089739,8.36775206 C22.0089739,4.85197752 24.872287,2 28.4020355,2 C30.6460945,2 32.6188612,3.15430192 33.760058,4.89603484 C34.9012549,3.15430192 36.8740216,2 39.1180806,2 C39.2301361,2 39.3392428,2.00293716 39.4483495,2.00881147 C39.6252792,2.01762293 39.7992601,2.03524586 39.9702922,2.0587431 C40.1059384,2.07342888 40.2386357,2.09692612 40.3683842,2.12336051 C40.4656955,2.14098344 40.5630069,2.16448068 40.6573694,2.18797792 C40.7428855,2.20853801 40.8284015,2.23203525 40.9109687,2.25553249 C41.0230242,2.28784119 41.1321309,2.32308705 41.2382887,2.36127007 C41.3149583,2.38770446 41.388679,2.41413886 41.4623998,2.44644756 C41.4830416,2.45232187 41.5007345,2.45819618 41.5184275,2.46700765 C39.1797111,3.41570872 37.5286617,5.69787816 37.5286617,8.36775206 Z" id="Path" fill="#E09B2D"></path>
            <path d="M52.7134851,94 C52.3561776,94 51.9938912,93.9124186 51.6582564,93.7275572 C50.5948272,93.1418198 50.2061821,91.801648 50.789882,90.7345068 C53.5229916,85.7379584 55.4211146,79.0226984 56.4309476,70.7756456 C56.7662895,68.0397554 57.0000038,65.1245879 57.1271116,62.1115525 C57.1780718,60.8951115 58.2130921,59.9475865 59.4144654,60.0022514 C60.6266751,60.0536834 61.5676825,61.0811485 61.5164294,62.2975895 C61.3846356,65.4278899 61.1409636,68.4614981 60.7915637,71.3134777 C59.7129051,80.1186416 57.6437431,87.3664435 54.6408956,92.8558577 C54.241414,93.5864865 53.489311,94 52.7134851,94 Z" id="Path" fill="#FFFFFF"></path>
            <circle id="Oval" fill="#FFFFFF" cx="38.5184275" cy="10" r="2"></circle>
            <circle id="Oval" fill="#FFFFFF" cx="44.5184275" cy="16" r="2"></circle>
            <circle id="Oval" fill="#FFFFFF" cx="49.5184275" cy="23" r="2"></circle>
            <circle id="Oval" fill="#FFFFFF" cx="51.5184275" cy="31" r="2"></circle>
            <circle id="Oval" fill="#FFFFFF" cx="53.5184275" cy="41" r="2"></circle>
            <circle id="Oval" fill="#FFFFFF" cx="58.5184275" cy="54" r="2"></circle>
            <path d="M67.5788703,40.0120007 C67.4811132,39.2718903 67.0176504,38.6309334 66.3463064,38.3075039 C65.6752569,37.9843695 64.8861334,38.021257 64.2483566,38.4072477 C63.7554489,38.7052985 63.2684301,39.0195799 62.7846502,39.3418289 C62.4781287,37.6948766 61.6960719,36.1659642 60.5488982,34.9566449 C61.1045237,33.8004436 61.3992672,32.5267926 61.3992672,31.2274679 C61.3992672,28.674854 60.2833051,26.3028413 58.3985365,24.6865793 C58.5339831,24.076903 58.6020008,23.4521766 58.6020008,22.8171217 C58.6020008,19.6279774 56.8894849,16.787051 54.1991035,15.2920751 C54.0945741,11.621623 51.7260256,8.51510665 48.374606,7.38693986 C47.7804077,3.21629345 44.1925455,0 39.8691494,0 C37.8928071,0 36.0183442,0.673712996 34.5190094,1.87211355 C33.0199691,0.673712996 31.1452117,0 29.1691638,0 C24.8457678,0 21.2582,3.21629345 20.6637073,7.38723496 C17.3122877,8.51540175 14.9437392,11.6219181 14.8392098,15.2923702 C12.1488284,16.7873461 10.4363125,19.6282725 10.4363125,22.8174168 C10.4363125,23.4527668 10.5043302,24.0774932 10.6397768,24.6868744 C8.75500812,26.3031364 7.63904606,28.6751491 7.63904606,31.227763 C7.63904606,32.5267926 7.9337896,33.8004436 8.48941504,34.95694 C7.34194692,36.1668495 6.55989013,37.696057 6.25366307,39.3435995 C5.76929431,39.0207603 5.28168661,38.7061838 4.78818993,38.4078379 C4.15041319,38.0218472 3.36158407,37.9843695 2.69024013,38.3080941 C2.0188962,38.6315236 1.55543333,39.2724805 1.45767623,40.0125909 C1.39966975,40.4537652 0.0399038384,50.963747 0.697703115,63.9664373 C1.59312281,81.6629861 5.67330391,94.782536 12.8254724,102.960639 C16.2914327,106.924125 20.4475817,109.664127 25.2444518,111.159693 L25.2444518,117.786751 C25.2444518,119.009055 26.2329175,120 27.45282,120 L41.5863766,120 C42.8062792,120 43.7947448,119.009055 43.7947448,117.786751 L43.7947448,111.159398 C48.5904372,109.663832 52.7462917,106.92383 56.2119575,102.960934 C63.3635371,94.7828311 67.4440127,81.6632812 68.3394324,63.9667324 C68.9966427,50.9631568 67.6368768,40.453175 67.5788703,40.0120007 Z M10.5243527,40.9008415 C10.5243527,39.4194402 11.2810869,38.0788015 12.5489847,37.3144928 C13.1075546,36.9774888 13.4891607,36.410602 13.5916289,35.7655136 C13.6940972,35.1201302 13.5068276,34.4626477 13.0798764,33.9689457 C12.4194271,33.204637 12.055488,32.2308074 12.055488,31.2274679 C12.055488,29.6687504 12.9123349,28.2481396 14.2921233,27.5198332 C15.3397732,26.9665209 15.7655466,25.6840169 15.2573275,24.6119191 C14.9887899,24.0456224 14.8527544,23.4418481 14.8527544,22.8171217 C14.8527544,20.9674357 16.0370287,19.3591415 17.7998954,18.8146822 C18.8675678,18.4847606 19.5215392,17.4079411 19.3227861,16.3060382 C19.2750854,16.0425141 19.2521183,15.7937449 19.2521183,15.5455659 C19.2521183,13.3789427 20.8736495,11.5882767 23.0240112,11.3805264 C24.2233024,11.2645521 25.1084164,10.2069142 25.0136038,9.00320183 C25.0038869,8.88014519 24.9941701,8.73761195 24.9941701,8.61071901 C24.9941701,6.30333315 26.8671608,4.4262029 29.1694583,4.4262029 C30.5845806,4.4262029 31.8931124,5.13886908 32.6701635,6.33225294 C33.0779755,6.95845486 33.7737587,7.33588759 34.5195983,7.33588759 C35.2654379,7.33588759 35.9612211,6.95845486 36.3690331,6.33225294 C37.1460842,5.13886908 38.454616,4.4262029 39.8697383,4.4262029 C42.1717414,4.4262029 44.0450265,6.30333315 44.0450265,8.61071901 C44.0450265,8.73761195 44.0353097,8.88014519 44.0255929,9.00320183 C43.9307802,10.2069142 44.8158942,11.2648472 46.0151854,11.3805264 C48.1655471,11.5882767 49.7870783,13.3789427 49.7870783,15.5455659 C49.7870783,15.7934498 49.7641113,16.0425141 49.7164105,16.3060382 C49.5176574,17.4079411 50.1716288,18.4847606 51.2393012,18.8146822 C53.0018735,19.3591415 54.1864422,20.9674357 54.1864422,22.8171217 C54.1864422,23.4418481 54.0504067,24.0456224 53.7818691,24.6119191 C53.27365,25.6837218 53.6997178,26.9665209 54.7470733,27.5198332 C56.1268617,28.2484347 56.9837086,29.6690455 56.9837086,31.2274679 C56.9837086,32.2308074 56.620064,33.204637 55.9593202,33.9689457 C55.532369,34.4626477 55.3450994,35.1204253 55.4475677,35.7655136 C55.550036,36.410602 55.931642,36.9774888 56.4902119,37.3144928 C57.7581097,38.0788015 58.5148439,39.4194402 58.5148439,40.9008415 C58.5148439,41.7554507 58.2604399,42.5669754 57.7828434,43.2607552 C53.6811676,46.9840302 49.9875981,51.6873319 46.7557249,57.3299364 C42.9325978,64.0050954 39.7345862,72.0046626 37.2506137,81.1067229 C36.0951954,85.3408158 35.2044869,89.3993242 34.5193039,93.0718421 C33.8338264,89.3993242 32.9434123,85.3408158 31.7879941,81.1067229 C29.3037271,72.0046626 26.1060099,64.0050954 22.2828829,57.3302315 C19.0527763,51.6911682 15.3618569,46.9902273 11.2631255,43.2678376 C10.7808179,42.5663852 10.5243527,41.7522046 10.5243527,40.9008415 Z M16.1503916,100.046823 C3.28885514,85.3458325 4.59385353,54.6997113 5.47337297,44.2053698 C17.4889572,53.2380817 24.0572331,69.5948771 27.5040542,82.1929855 C30.5610247,93.3666468 31.7299876,103.505688 32.1289661,107.982058 C25.6752309,107.462387 20.3083072,104.799701 16.1503916,100.046823 Z M39.3774195,115.572912 L29.6605994,115.572912 L29.6605994,112.157721 C31.2232407,112.386719 32.8427107,112.502103 34.5181261,112.502103 C36.1941303,112.502103 37.8141892,112.386719 39.3774195,112.157426 L39.3774195,115.572912 Z M52.8896884,100.042691 C48.7308894,104.798225 43.3630824,107.462387 36.9075805,107.981468 C37.306559,103.505098 38.4755219,93.3660566 41.5324924,82.1923953 C47.4406135,60.5966919 56.2944033,49.7010147 63.5646458,44.2103865 C64.4474042,54.7062035 65.7571138,85.3287167 52.8896884,100.042691 Z" id="Shape" fill="#333333"></path>
        </g>
    </g>
</svg>