<?xml version="1.0" encoding="UTF-8"?>
<svg width="128px" height="128px" viewBox="0 0 128 128" version="1.1" xmlns="http://www.w3.org/2000/svg" xmlns:xlink="http://www.w3.org/1999/xlink">
    <!-- Generator: Sketch 53 (72520) - https://sketchapp.com -->
    <title>Champagne</title>
    <desc>Created with Sketch.</desc>
    <g id="Champagne" stroke="none" stroke-width="1" fill="none" fill-rule="evenodd">
        <g id="champagne" transform="translate(38.750000, 3.000000)" fill-rule="nonzero">
            <path d="M36.9331339,17.6748766 L36.9331339,7.58661735 C36.9331339,4.50133813 34.4010349,2 31.2778137,2 L18.2221863,2 C15.0987225,2 12.5668661,4.50133813 12.5668661,7.58661735 L12.5668661,17.6746369 C12.5668661,20.0142351 14.4869825,21.9110253 16.8553525,21.9110253 C16.8553525,21.9110253 20.500566,44.3641233 12.5668661,56.0141913 C10.948011,58.3911694 9.50816624,60.3135983 8.25,62.3141417 L24.6010673,73 L24.8989327,73 L41.25,62.3141417 C39.9920763,60.3135983 38.551989,58.3911694 36.9331339,56.0141913 C28.9989489,44.3641233 32.6441624,21.9112649 32.6441624,21.9112649 C35.0130175,21.9112649 36.9331339,20.0144748 36.9331339,17.6748766 Z" id="Path" fill="#FFAC55"></path>
            <path d="M8.62025947,62.0604624 C3.71267378,69.7700059 1.57851669,78.7321873 2.43437466,120 L48.06558,120 C48.9202185,78.7952579 46.7941102,69.7975104 41.9023783,62.0960285 L41.8411584,62 L25.3996122,72.5740368 L25.1000985,72.5740368 L8.65830844,62 L8.62025947,62.0604624 Z" id="Path" fill="#43664A"></path>
            <rect id="Rectangle" fill="#F2E9DC" x="10.25" y="91" width="30" height="20"></rect>
            <g id="Group" opacity="0.2" transform="translate(40.250000, 60.000000)" fill="#171D26">
                <path d="M0.503,0.167 C0.5885,0.295 0.6705,0.4225 0.7555,0.5505 C0.756,0.551 0.756,0.5515 0.7565,0.552 C0.671,0.423 0.5885,0.2955 0.503,0.167 Z" id="Path"></path>
            </g>
            <path d="M39.059803,58 L13.25,73.7349536 L18.6810081,82 L44.25,66.4113407 C42.8670977,63.2305502 41.134035,60.8781368 39.059803,58 Z" id="Path" fill="#464655"></path>
            <path d="M39.059803,58 L13.25,73.7349536 L18.6810081,82 L44.25,66.4113407 C42.8670977,63.2305502 41.134035,60.8781368 39.059803,58 Z" id="Path" fill="#171D26" opacity="0.2"></path>
            <path d="M6.25,66.4739102 L31.7772944,82 L37.25,73.691276 L11.4509068,58 C9.37029921,60.8794635 7.63348038,63.2497206 6.25,66.4739102 Z" id="Path" fill="#464655"></path>
            <circle id="Oval" fill="#171D26" opacity="0.25" cx="24.75" cy="66.5" r="6.5"></circle>
            <circle id="Oval" fill="#D2555A" cx="24.75" cy="63.5" r="6.5"></circle>
            <path d="M20.1061516,32.4441367 C20.0328841,26.2257109 19.278473,21.5673125 19.2462353,21.3719219 C19.0975023,20.4662148 18.2969327,19.800457 17.3569106,19.800457 C16.0312572,19.800457 14.9527595,18.7479687 14.9527595,17.4548164 L14.9527595,7.42246094 C14.9527595,5.38873047 16.648658,3.73386719 18.7333628,3.73386719 L31.8785299,3.73386719 C33.9629904,3.73386719 35.6591332,5.38849219 35.6591332,7.42246094 L35.6591332,17.4543398 C35.6591332,18.7474922 34.5806355,19.7999805 33.2549821,19.7999805 C32.31496,19.7999805 31.5143904,20.4659766 31.3656574,21.3714453 C31.211063,22.3126562 27.6715098,44.5652656 35.9851735,56.6225352 C36.1158339,56.8119687 36.2442963,56.9966367 36.3722702,57.1801133 L32.747971,59.4180508 C31.371763,56.6806758 28.4864887,54.7913437 25.1564806,54.7913437 C21.8264726,54.7913437 18.9411983,56.6809141 17.5647461,59.4182891 L14.1497477,57.3095 C14.3070286,57.0848008 14.4655306,56.8565273 14.6269634,56.6225352 C17.2177023,52.8655547 18.9131124,47.7413164 19.6665465,41.3927891 C20.0084616,39.572638 20.1549966,36.5897539 20.1061516,32.4441367 Z M49.7645931,85.2522656 C49.5088895,81.268918 49.1308292,77.2762773 48.3646953,73.3522617 C47.8459614,70.6963789 47.1340454,68.0671836 46.0645841,65.5685664 C45.2137042,63.5803477 44.1286124,61.7060273 42.9218966,59.9046211 C41.7068772,58.0903477 40.4000291,56.3365977 39.1613199,54.5380508 C32.7753242,45.2762969 34.3474006,28.1965352 34.9599169,23.3024766 C37.5704381,22.577625 39.487116,20.2300781 39.487116,17.4538633 L39.487116,7.42246094 C39.4863834,3.32974219 36.073583,0 31.8782857,0 L18.7331185,0 C14.5383097,0 11.1255093,3.32974219 11.1255093,7.42246094 L11.1255093,17.4543398 C11.1255093,20.2310313 13.0434084,22.5790547 15.654418,23.3034297 C15.8788608,25.0821992 16.2320102,28.4686523 16.2793898,32.4867891 C16.4790823,40.410173 15.3529607,46.928436 12.9010252,52.0415781 C11.3028167,55.2931641 8.71525268,57.9140195 6.96293821,61.1038906 C3.11541733,68.108168 1.45126809,76.0903516 0.839484424,83.9550625 C-0.0919897799,95.9294102 0.298526018,108.215668 0.546902857,120.170477 C0.568150434,121.186746 1.41854193,122 2.46016162,122 L48.1517311,122 C49.193595,122 50.0439865,121.186746 50.0649898,120.170477 C50.2852808,109.517637 50.3084822,100.967152 50.1365478,94.0303086 L49.7645931,85.2522656 Z M46.3105187,94.1208555 C46.4712188,100.601391 46.4597402,108.514711 46.2751061,118.265656 L4.33703085,118.265656 C3.7819074,88.9873242 4.78933558,76.6722344 7.25503132,69.2554922 L12.0398878,72.2101797 C11.6501047,72.4765781 11.373642,72.8735547 11.2688694,73.3286719 C11.1575028,73.811668 11.2476219,74.3182539 11.5189558,74.7364375 L16.9773849,83.1501484 C17.3417686,83.7117773 17.9621002,84.0189219 18.5963525,84.0189219 C18.9460828,84.0189219 19.300209,83.9252773 19.6179458,83.7291719 L25.1562364,80.3091211 L30.6947713,83.7291719 C31.012508,83.9252773 31.3663901,84.0189219 31.7163645,84.0189219 C32.3503727,84.0189219 32.9709484,83.7117773 33.3353321,83.1501484 L38.7937612,74.7364375 C39.0650952,74.3180156 39.15497,73.811668 39.0438476,73.3286719 C38.9390751,72.8735547 38.6623682,72.4763398 38.272585,72.2101797 L43.3207161,69.0927461 C44.5767653,72.7980195 45.4474275,77.7218633 45.9449139,85.485543 C46.2765714,90.6613294 46.3984397,93.5397669 46.3105187,94.1208555 Z M19.1876213,79.5759297 L15.9929139,74.6513711 L21.5778515,78.1002539 L19.1876213,79.5759297 Z M32.9269879,66.2738789 C32.928209,66.2714961 32.9291859,66.268875 32.9301628,66.2669687 C33.3302034,65.3474414 33.5585538,64.3590508 33.5983625,63.3608906 C33.5990952,63.3437344 33.6017816,63.3270547 33.6022701,63.3096602 L38.5485593,60.2553711 C38.5529553,60.2615664 38.5575956,60.268 38.5619917,60.2741953 C39.7645556,61.9783828 40.924136,63.7156914 41.8570756,65.5771445 L34.6978635,69.9982148 L31.7620346,68.1851328 C31.8914739,68.2654336 32.8314959,66.4847578 32.9269879,66.2738789 Z M20.5550371,62.6417578 C20.7760608,60.4045352 22.7403626,58.5256875 25.1559922,58.5256875 C29.0665231,58.5256875 31.22303,63.2033867 28.5893074,66.0548984 C26.0947931,68.7553398 21.372214,67.4900664 20.6265951,63.944918 C20.5340338,63.5045742 20.5132747,63.0666133 20.5550371,62.6417578 Z M16.7099585,63.3096602 C16.7106912,63.3351562 16.7133777,63.3596992 16.7143546,63.384957 C16.8245001,66.0117695 18.317936,68.5399336 20.5801923,69.9646172 C20.6029053,69.9791523 20.6258624,69.9932109 20.6488196,70.0075078 C22.951373,71.4279023 25.9729249,71.6654687 28.4764755,70.6182227 C28.4901521,70.6125039 28.5045614,70.6075 28.518238,70.6017812 L32.4876271,73.0527422 L34.5361865,74.3177773 L31.1248515,79.5764062 L8.69449356,65.7255937 C9.58933401,63.9020273 10.6143464,62.3291328 11.7670885,60.6795117 C11.7949301,60.6397187 11.8227718,60.5999258 11.8508576,60.5596562 C11.8916432,60.5017539 11.9324288,60.443375 11.9732144,60.3852344 L16.7099585,63.3096602 Z" id="Shape" fill="#333333"></path>
            <path d="M10.1594552,89 C9.104929,89 8.25,89.8205512 8.25,90.833196 L8.25,110.166804 C8.25,111.179449 9.104929,112 10.1594552,112 L40.3405448,112 C41.395071,112 42.25,111.179449 42.25,110.166804 L42.25,90.833196 C42.25,89.8205512 41.395071,89 40.3405448,89 L10.1594552,89 Z M38.430846,108.333374 L12.0689103,108.333374 L12.0689103,92.666392 L38.430846,92.666392 L38.430846,108.333374 Z" id="Shape" fill="#333333"></path>
            <path d="M17.1501079,100 L33.3498921,100 C34.3992561,100 35.25,99.1047862 35.25,98 C35.25,96.8952138 34.3992561,96 33.3498921,96 L17.1501079,96 C16.1007439,96 15.25,96.8952138 15.25,98 C15.25,99.1047862 16.1005014,100 17.1501079,100 Z" id="Path" fill="#333333"></path>
            <path d="M17.1501079,105 L33.3498921,105 C34.3992561,105 35.25,104.104786 35.25,103 C35.25,101.895214 34.3992561,101 33.3498921,101 L17.1501079,101 C16.1007439,101 15.25,101.895214 15.25,103 C15.25,104.104786 16.1005014,105 17.1501079,105 Z" id="Path" fill="#333333"></path>
            <path d="M44.4874541,120 C45.3626198,120 46.0769487,119.21341 46.0945915,118.230461 C46.2796359,107.926895 46.299125,99.6567539 46.1547001,92.9473477 C46.1333646,91.9503398 45.8976484,85.4525039 45.8422582,84.4571094 C45.6274672,80.6043633 45.3098965,76.7426289 44.666344,72.9472695 C44.2306075,70.3784648 43.6325982,67.8354727 42.7342507,65.4187773 C42.0195115,63.4957461 41.1080344,61.6828789 40.0943932,59.9405352 C39.0737768,58.1857461 37.9760245,56.4894961 36.9355087,54.749918 C31.5712723,45.7918281 32.8918165,29.2720586 33.4063302,24.5384609 C35.599168,23.837375 37.2091775,21.5667969 37.2091775,18.8816055 L37.2091775,9.17910156 C37.208562,5.22057031 34.2225551,2 15.9929139,2 C27.2836367,12.2626694 23.0925337,26.1144558 23.2360366,36.0398449 C23.7863358,74.101336 33.8160189,57 34.5361865,120 C37.6404067,120 40.9574959,120 44.4874541,120 Z" id="Path" fill-opacity="0.3" fill="#333333"></path>
            <path d="M9.72003288,69.1421922 C10.1928011,67.844943 11.6276837,67.1765692 12.9249329,67.6493374 C14.2221821,68.1221056 14.890556,69.5569882 14.4177878,70.8542374 C12.8912027,75.0431005 12.1944948,81.2286207 12.194482,89.0000041 C12.1944797,90.380716 11.0751898,91.5000023 9.69447789,91.5 C8.31376602,91.4999977 7.19447974,90.3807078 7.19448202,88.9999959 C7.19449571,80.6924548 7.94769574,74.0053848 9.72003288,69.1421922 Z" id="Path" fill="#FFFFFF"></path>
            <circle id="Oval" fill="#FFFFFF" cx="9.75" cy="96.5" r="2.5"></circle>
        </g>
    </g>
</svg>