<?xml version="1.0" encoding="UTF-8"?>
<svg width="128px" height="128px" viewBox="0 0 128 128" version="1.1" xmlns="http://www.w3.org/2000/svg" xmlns:xlink="http://www.w3.org/1999/xlink">
    <!-- Generator: Sketch 53 (72520) - https://sketchapp.com -->
    <title>Cheese</title>
    <desc>Created with Sketch.</desc>
    <g id="Cheese" stroke="none" stroke-width="1" fill="none" fill-rule="evenodd">
        <g id="cheese" transform="translate(78.802561, 79.145707) rotate(-225.000000) translate(-78.802561, -79.145707) translate(-1.197439, 21.145707)" fill-rule="nonzero">
            <path d="M71.2704381,42.0639251 C74.5860982,42.0639251 77.2720779,44.7506392 77.2720779,48.0639251 C77.2720779,51.3772111 74.5860982,54.0639251 71.2704381,54.0639251 C67.9580577,54.0639251 65.2720779,51.3772111 65.2720779,48.0639251 C65.2720779,44.7506392 67.9580577,42.0639251 71.2704381,42.0639251 Z" id="Path" fill="#E09B2D"></path>
            <path d="M97.4369286,74.3334778 C103.235011,74.3334778 107.935029,79.0364445 107.935029,84.8334778 C107.935029,90.6343099 103.235011,95.3334778 97.4369286,95.3334778 C91.6350469,95.3334778 86.9350288,90.6343099 86.9350288,84.8334778 C86.9350288,79.0364445 91.6350469,74.3334778 97.4369286,74.3334778 Z" id="Path" fill="#E09B2D"></path>
            <path d="M132.280341,54.9779218 C129.922322,57.3354801 126.660154,58.790451 123.058027,58.790451 C115.857388,58.790451 110.020206,52.9633467 110.020206,45.7751405 C110.020206,42.1792322 111.477693,38.9263071 113.839329,36.5687488 L80.8198278,3.60986668 L44.7117554,39.6519874 C49.6990383,42.0853631 53.1311858,47.1903975 53.1311858,53.1005399 C53.1311858,61.3574096 46.4260209,68.0509979 38.1548709,68.0509979 C32.2345069,68.0509979 27.1170267,64.6247761 24.6866757,59.6461039 L4.31801948,79.9759829 C15.4679781,91.1066909 28.4443166,99.2985743 42.285021,104.551633 C54.6682381,109.259529 67.7458413,111.609867 80.8198278,111.609867 C108.50847,111.609867 136.193495,101.064035 157.318019,79.9759829 L132.280341,54.9779218 Z M70.8922778,52.9633467 C67.4167312,52.9633467 64.5668553,50.2880776 64.2992274,46.8871282 C64.284761,46.7138314 64.2775278,46.5369242 64.2775278,46.3600171 C64.2775278,44.4826353 65.0623287,42.7893813 66.3209033,41.5943556 C67.5071461,40.4534851 69.1201469,39.7566876 70.8922778,39.7566876 C74.5486542,39.7566876 77.5106445,42.7135639 77.5106445,46.3600171 C77.5106445,50.0064703 74.5486542,52.9633467 70.8922778,52.9633467 Z M95.8540081,94.597899 C90.3314694,94.597899 85.8577429,90.1318965 85.8577429,84.6188926 C85.8577429,79.109499 90.3314694,74.6398861 95.8540081,74.6398861 C101.37293,74.6398861 105.846657,79.109499 105.846657,84.6188926 C105.846657,90.1318965 101.37293,94.597899 95.8540081,94.597899 Z" id="Shape" fill="#F7B239"></path>
            <path d="M81.1342533,3.78143956 L66.5409096,42.1641428 L64.5060682,47.5124028 L42.3485019,105.78144 C28.4176646,100.47331 15.3568222,92.1955459 4.1342533,80.948148 L24.6355534,60.4051385 C27.0817312,65.4360052 32.2325372,68.8981462 38.1914556,68.8981462 C46.5164686,68.8981462 53.2652985,62.1343849 53.2652985,53.7909535 C53.2652985,47.8188515 49.8108004,42.6602979 44.7910396,40.2014117 L81.1342533,3.78143956 Z" id="Path" fill="#E09B2D"></path>
            <path d="M146.192615,83.4339828 C145.531325,83.4339828 144.87038,83.1482767 144.365802,82.5764743 L134.532215,71.4308144 C133.523403,70.2875998 133.523403,68.434023 134.532559,67.2911987 C135.541026,66.1483743 137.176685,66.147984 138.185497,67.291589 L148.019084,78.4372488 C149.027895,79.5804634 149.027895,81.4340402 148.018739,82.5768646 C147.51485,83.1482767 146.85356,83.4339828 146.192615,83.4339828 Z" id="Path" fill="#FFFFFF"></path>
            <path d="M122.03545,70.1202743 C121.924327,70.1202743 121.812053,70.1143848 121.699397,70.1022594 C114.959547,69.3927502 108.69408,66.188526 104.508928,61.3113428 C103.53602,60.1774444 103.764015,58.5453653 105.017798,57.665754 C106.271198,56.7861426 108.077152,56.9922745 109.05006,58.1258264 C112.295258,61.9075661 117.147919,64.3915414 122.36384,64.9409953 C123.940266,65.1069401 125.069897,66.3967365 124.885968,67.8219909 C124.715833,69.145392 123.473546,70.1202743 122.03545,70.1202743 Z" id="Path" fill="#FFFFFF"></path>
            <path d="M104.905438,40.6791488 C104.181717,40.6791488 103.458373,40.403421 102.907021,39.8515898 L86.5523654,23.4863564 C85.451166,22.3845722 85.4534241,20.6006058 86.557258,19.5022025 C87.6614682,18.4026721 89.4487532,18.4053017 90.5488235,19.5070859 L106.903479,35.8723193 C108.004678,36.9741036 108.00242,38.7580699 106.898586,39.8564733 C106.347986,40.4052993 105.626524,40.6791488 104.905438,40.6791488 Z" id="Path" fill="#FFFFFF"></path>
            <ellipse id="Oval" fill="#FFFFFF" cx="81.5251263" cy="15.1834598" rx="3" ry="2.5"></ellipse>
            <g id="Group" transform="translate(0.964466, 0.463420)" fill="#333333">
                <path d="M79.3304966,114.671013 C49.6637768,114.671013 21.7728588,103.063291 0.795724374,81.985538 C0.286127563,81.4734968 0,80.7791297 0,80.0552848 C0,79.3314399 0.286489749,78.6370728 0.795724374,78.1250316 L21.1937221,57.6328323 C21.8145103,57.0087025 22.6971595,56.7266614 23.5631481,56.8707753 C24.4291367,57.0163449 25.1712574,57.5738766 25.5558998,58.3665032 C27.6326788,62.6469778 31.8648314,65.305443 36.6007859,65.305443 C43.3733166,65.305443 48.8832642,59.7690665 48.8832642,52.9644146 C48.8832642,48.2071994 46.2364032,43.9525633 41.9756378,41.8618196 C41.1871572,41.4749684 40.6330114,40.7289241 40.4884989,39.8587816 C40.3439863,38.9890032 40.626492,38.1028481 41.246918,37.4790823 L77.40982,1.14672468 C78.4710273,0.0807911392 80.190328,0.0815189873 81.2515353,1.14672468 L114.31774,34.3715348 C115.378585,35.4378323 115.378585,37.1657437 114.31774,38.2316772 C112.365554,40.1932278 111.290583,42.8029272 111.290583,45.5800316 C111.290583,51.309288 115.929472,55.9704272 121.631378,55.9704272 C124.395588,55.9704272 126.992829,54.8903006 128.944654,52.92875 C130.005861,51.8631804 131.725524,51.8631804 132.786369,52.92875 L157.861647,78.1243038 C158.922492,79.1906013 158.922492,80.9185127 157.861647,81.9844462 C136.884513,103.063291 108.994681,114.671013 79.3304966,114.671013 Z M6.5820205,80.0312658 C26.2962096,98.8705222 52.0223371,109.212516 79.3301344,109.212516 C106.636121,109.212516 132.361162,98.8705222 152.074989,80.0312658 L130.70126,58.5550158 C128.064902,60.4234019 124.925105,61.4300158 121.630654,61.4300158 C112.9331,61.4300158 105.857057,54.3200316 105.857057,45.5807595 C105.857057,42.2705063 106.859228,39.1156487 108.718333,36.4666456 L79.3297722,6.93712025 L47.4978998,38.918038 C51.7727904,42.247943 54.3153417,47.3643513 54.3153417,52.9647785 C54.3153417,62.7798101 46.3682392,70.7646677 36.6000615,70.7646677 C31.0249203,70.7646677 25.934385,68.2102848 22.6232733,63.9156171 L6.5820205,80.0312658 Z" id="Shape"></path>
                <path d="M94.3840661,97.5240032 C87.366697,97.5240032 81.6575467,91.7874684 81.6575467,84.7368038 C81.6575467,77.6857753 87.366697,71.9492405 94.3840661,71.9492405 C101.401073,71.9492405 107.110223,77.6857753 107.110223,84.7368038 C107.110223,91.7874684 101.401073,97.5240032 94.3840661,97.5240032 Z M94.3840661,77.4084652 C90.362344,77.4084652 87.0903485,80.6961551 87.0903485,84.7371677 C87.0903485,88.7781804 90.362344,92.0655063 94.3840661,92.0655063 C98.4057882,92.0655063 101.677421,88.7781804 101.677421,84.7371677 C101.677421,80.6961551 98.4057882,77.4084652 94.3840661,77.4084652 Z" id="Shape"></path>
                <path d="M69.3888314,55.5584652 C64.2374487,55.5584652 60.0465854,51.3475 60.0465854,46.1714082 C60.0465854,40.9953165 64.2374487,36.7843513 69.3888314,36.7843513 C74.5402141,36.7843513 78.7307153,40.9953165 78.7307153,46.1714082 C78.7307153,51.3475 74.5398519,55.5584652 69.3888314,55.5584652 Z M69.3888314,42.243212 C67.2330957,42.243212 65.4793872,44.0053323 65.4793872,46.1714082 C65.4793872,48.3374842 67.2330957,50.0996044 69.3888314,50.0996044 C71.5445672,50.0996044 73.2979134,48.3374842 73.2979134,46.1714082 C73.2979134,44.0053323 71.544205,42.243212 69.3888314,42.243212 Z" id="Shape"></path>
                <ellipse id="Oval" cx="97.7252392" cy="65.2526741" rx="2.71640091" ry="2.72943038"></ellipse>
                <ellipse id="Oval" cx="43.397221" cy="84.1803639" rx="2.71640091" ry="2.72943038"></ellipse>
            </g>
        </g>
    </g>
</svg>