<?xml version="1.0" encoding="UTF-8"?>
<svg width="128px" height="128px" viewBox="0 0 128 128" version="1.1" xmlns="http://www.w3.org/2000/svg" xmlns:xlink="http://www.w3.org/1999/xlink">
    <!-- Generator: Sketch 53 (72520) - https://sketchapp.com -->
    <title>Chef</title>
    <desc>Created with Sketch.</desc>
    <g id="Chef" stroke="none" stroke-width="1" fill="none" fill-rule="evenodd">
        <g id="soup" transform="translate(3.000000, 14.043902)" fill-rule="nonzero">
            <path d="M28.704011,30.374872 C28.3868433,31.4412712 27.8068795,32.4442303 26.9641196,33.2840575 L26.6469519,33.6042794 L26.3267635,33.9214803 C23.6142244,36.6343033 19.2161655,36.6343033 16.5006057,33.9214803 L4.03440432,21.4539739 C1.32186523,18.7411508 1.32186523,14.3426315 4.03440432,11.6267875 L4.67176039,10.9893647 C5.51452031,10.1465165 6.51737441,9.56951296 7.58366205,9.25231205 C9.95184764,8.53634427 12.628139,9.11938976 14.4979182,10.9893647 L26.9641196,23.4568711 C28.8369194,25.330169 29.4196018,28.0064385 28.704011,30.374872 Z" id="Path" fill="#E09B2D"></path>
            <path d="M28.7137243,30.6578668 C26.4203319,31.3802334 23.8347876,30.7894845 22.0234459,28.8948026 L9.96633727,16.2625696 C8.15791705,14.3678878 7.59406389,11.6559521 8.28646388,9.25622577 C10.5769347,8.5307983 13.1654005,9.12154726 14.9738207,11.0162292 L27.0309293,23.6484621 C28.8422711,25.5465109 29.4058321,28.2581405 28.7137243,30.6578668 Z" id="Path" fill="#F7B239"></path>
            <path d="M39.4257149,45.9560976 L120,45.9560976 C120,63.0342097 110.787159,77.9512953 97.0798844,85.9560976 L50.9171292,85.9560976 C37.2128412,77.9512953 28,63.0342097 28,45.9560976 L39.4257149,45.9560976 Z" id="Path" fill="#F95428"></path>
            <path d="M54.3130027,45.9560976 L39.3111263,45.9560976 L28,45.9560976 C28,63.0342097 37.1204455,77.9512953 50.687293,85.9560976 L77,85.9560976 C63.4334482,77.9512953 54.3130027,63.0339095 54.3130027,45.9560976 Z" id="Path" fill="#E54728"></path>
            <path d="M112,85.9560976 L112,86.5673515 C112,91.7515846 107.624797,95.9560976 102.230101,95.9560976 L44.7698989,95.9560976 C39.3752027,95.9560976 35,91.7515846 35,86.5673515 L35,85.9560976 L50.5272138,85.9560976 L96.4727862,85.9560976 L112,85.9560976 Z" id="Path" fill="#E6E6E6"></path>
            <path d="M52.2334104,86.5673515 L52.2334104,85.9560976 L50.5219544,85.9560976 L35,85.9560976 L35,86.5673515 C35,91.7515846 39.3737207,95.9560976 44.7665896,95.9560976 L62,95.9560976 C56.6074282,95.9560976 52.2334104,91.7515846 52.2334104,86.5673515 Z" id="Path" fill="#CCCCCC"></path>
            <path d="M93.2150569,81.9560976 C92.4524677,81.9560976 91.7105289,81.5574938 91.2998812,80.8431673 C90.6859748,79.7752551 91.0447015,78.4068248 92.1014112,77.7864102 C99.1647278,73.6387846 104.714666,67.0992384 107.728442,59.372825 C108.176556,58.2238206 109.4616,57.6594549 110.598256,58.112617 C111.735207,58.565481 112.293357,59.8641481 111.845244,61.0128543 C108.467726,69.6718276 102.245175,77.0020224 94.3245726,81.6531945 C93.9749911,81.8586081 93.5923689,81.9560976 93.2150569,81.9560976 Z" id="Path" fill="#FFFFFF"></path>
            <circle id="Oval" fill="#FFFFFF" cx="112" cy="52.9560976" r="2"></circle>
            <g id="Group" transform="translate(0.000000, 0.956098)" fill="#333333">
                <path d="M115.391766,69.5278532 C119.712649,62.1275046 121.996727,53.6536514 121.996727,45.0224587 C121.996727,43.7811254 120.997517,42.7747523 119.76502,42.7747523 L40.4043171,42.7747523 L29.8361415,32.1308135 C30.8237463,30.6431315 31.3542976,28.8950153 31.3542976,27.0650826 C31.3542976,24.623474 30.4101366,22.3281162 28.6958878,20.601578 L16.4149512,8.23289908 C12.8763561,4.66923547 7.11884878,4.66863609 3.5799561,8.23289908 L2.95120976,8.86615291 C-0.587385366,12.4301162 -0.587385366,18.2288991 2.95120976,21.7928624 L15.2321463,34.161841 C16.9463951,35.8883792 19.2254146,36.8390092 21.6493463,36.8390092 C23.4668488,36.8390092 25.202522,36.3046544 26.6799122,35.3096697 L34.0918585,42.7747523 L28.0954098,42.7747523 C26.8629122,42.7747523 25.8637024,43.7811254 25.8637024,45.0224587 C25.8637024,53.6536514 28.1477805,62.1275046 32.4686634,69.5278532 C35.4186829,74.5800979 39.264361,79.0485382 43.7738976,82.7140979 L35.3865463,82.7140979 C34.1540488,82.7140979 33.154839,83.7204709 33.154839,84.9618043 L33.154839,85.6019511 C33.154839,92.2734434 38.5439659,97.7012049 45.1682683,97.7012049 L102.691268,97.7012049 C109.315273,97.7012049 114.7044,92.2734434 114.7044,85.6019511 L114.7044,84.9618043 C114.7044,83.7204709 113.70519,82.7140979 112.472693,82.7140979 L104.086234,82.7140979 C108.595771,79.0485382 112.441449,74.5800979 115.391766,69.5278532 Z M21.6496439,32.343896 C20.4177415,32.343896 19.2596341,31.860789 18.3883756,30.9832844 L6.10743902,18.6143058 C4.30927805,16.8032538 4.30927805,13.8560612 6.10743902,12.0447095 L6.73618537,11.4114557 C7.63541463,10.5057798 8.81643415,10.0532416 9.99745366,10.0532416 C11.1784732,10.0532416 12.3594927,10.5060795 13.258722,11.4114557 L25.5396585,23.7804343 C26.4109171,24.6579388 26.8905854,25.8243486 26.8905854,27.0650826 C26.8905854,28.3058165 26.4109171,29.4722263 25.5396585,30.3497309 L25.5396585,30.3497309 L24.9109122,30.9829847 C24.0399512,31.8604893 22.8818439,32.343896 21.6496439,32.343896 Z M102.691268,93.205792 L45.1685659,93.205792 C41.5532,93.205792 38.5231366,90.6329174 37.7884585,87.2095107 L110.071078,87.2095107 C109.336698,90.6326177 106.306634,93.205792 102.691268,93.205792 Z M96.3079902,82.7140979 L51.552439,82.7140979 C45.2846146,78.930159 40.0225463,73.5968012 36.3161268,67.2489786 C32.773961,61.1822691 30.741322,54.3177737 30.3839512,47.2701651 L117.47618,47.2701651 C117.119107,54.3177737 115.086468,61.1822691 111.544005,67.2489786 C107.837883,73.5968012 102.575815,78.930159 96.3079902,82.7140979 Z" id="Shape"></path>
                <path d="M75.518,32.0364098 C75.518,33.2777431 76.5172098,34.2841162 77.7497073,34.2841162 C78.9822049,34.2841162 79.9814146,33.2777431 79.9814146,32.0364098 C79.9814146,24.1121957 77.9109854,20.1151743 75.9089951,16.2500183 C74.0748293,12.7094312 72.3427268,9.36544343 72.3427268,2.54320489 C72.3427268,1.30187156 71.3435171,0.295498471 70.1110195,0.295498471 C68.878522,0.295498471 67.8793122,1.30187156 67.8793122,2.54320489 C67.8793122,10.467419 69.9497415,14.4644404 71.9517317,18.3295963 C73.7856,21.8701835 75.518,25.2141713 75.518,32.0364098 Z" id="Path"></path>
                <path d="M62.4848293,32.0364098 C62.4848293,33.2777431 63.484039,34.2841162 64.7165366,34.2841162 C65.9490341,34.2841162 66.9482439,33.2777431 66.9482439,32.0364098 C66.9482439,24.884208 64.9971366,21.1176514 63.2757463,17.7946422 C61.6474927,14.6511498 60.1094,11.6820795 60.1094,5.63215291 C60.1094,4.39081957 59.1101902,3.38444648 57.8776927,3.38444648 C56.6451951,3.38444648 55.6459854,4.39081957 55.6459854,5.63215291 C55.6459854,12.7843547 57.5970927,16.5509113 59.3184829,19.8742202 C60.9470341,23.0174128 62.4848293,25.9864832 62.4848293,32.0364098 Z" id="Path"></path>
                <path d="M87.7510293,32.0364098 C87.7510293,33.2777431 88.750239,34.2841162 89.9827366,34.2841162 C91.2152341,34.2841162 92.2144439,33.2777431 92.2144439,32.0364098 C92.2144439,24.884208 90.2633366,21.1176514 88.5419463,17.7946422 C86.9136927,14.6511498 85.3756,11.6820795 85.3756,5.63215291 C85.3756,4.39081957 84.3763902,3.38444648 83.1438927,3.38444648 C81.9113951,3.38444648 80.9121854,4.39081957 80.9121854,5.63215291 C80.9121854,12.7843547 82.8632927,16.5509113 84.5846829,19.8742202 C86.2132341,23.0174128 87.7510293,25.9864832 87.7510293,32.0364098 Z" id="Path"></path>
            </g>
        </g>
    </g>
</svg>