<?xml version="1.0" encoding="UTF-8"?>
<svg width="128px" height="128px" viewBox="0 0 128 128" version="1.1" xmlns="http://www.w3.org/2000/svg" xmlns:xlink="http://www.w3.org/1999/xlink">
    <!-- Generator: Sketch 53 (72520) - https://sketchapp.com -->
    <title>Confectionery</title>
    <desc>Created with Sketch.</desc>
    <g id="Confectionery" stroke="none" stroke-width="1" fill="none" fill-rule="evenodd">
        <g id="candy-cane" transform="translate(74.344624, 59.400405) rotate(-50.000000) translate(-74.344624, -59.400405) translate(38.344624, -8.599595)" fill-rule="nonzero">
            <path d="M68.3153977,27.2009453 L54.0789016,46.7827349 C53.6400246,46.4712749 53.2281553,46.1263247 52.8466699,45.7512331 C51.0844098,43.9963404 49.9905931,41.5783393 49.9905931,38.9058118 L49.9905931,36.2466805 C49.9905931,34.7496632 49.7542747,33.2961834 49.3153977,31.9297783 L49.3153977,31.9264293 L61.7795057,14.7827349 C64.7841255,18.3661991 67.0392783,22.5859793 68.3153977,27.2009453 Z" id="Path" fill="#F95428"></path>
            <path d="M40.2967889,3.35258075 L44.8022372,26.1606766 C42.7467984,24.3357525 40.1897348,23.2193689 37.3940934,23.1433304 C35.7301668,23.0983986 34.1335314,23.4198341 32.6653608,24.0419673 L28.8022372,4.47587688 C31.3409487,3.6463659 34.0203599,3.19359115 36.7915318,3.16248449 C37.9752442,3.1486593 39.146722,3.21432892 40.2967889,3.35258075 Z" id="Path" fill="#F95428"></path>
            <path d="M22.9136441,30.8436668 L23.5611385,31.2251869 C23.1409559,32.550288 22.9170882,33.9605499 22.9170882,35.4185018 L22.9170882,48.8568667 L22.9136441,48.8568667 L3.56113848,29.7127321 C4.41183591,25.0391107 6.21655436,20.6822872 8.77209078,16.8568667 L22.9136441,30.8436668 Z" id="Path" fill="#F95428"></path>
            <polygon id="Path" fill="#F95428" points="23.1873766 74.4622328 23.1873766 92.1381161 23.183917 92.1381161 3.18737664 72.8139993 3.18737664 55.1381161 23.183917 74.4622328"></polygon>
            <path d="M23.5796592,115.958618 L23.5796592,124.082776 C23.5796592,126.687949 22.493342,129.050858 20.732401,130.776578 L3.57965924,114.322503 L3.57965924,96.7765779 L23.5761996,115.958618 L23.5796592,115.958618 L23.5796592,115.958618 Z" id="Path" fill="#F95428"></path>
            <path d="M69.7470035,36.6174326 L69.7470035,39.6219745 C69.7470035,45.1211131 65.7820221,49.5796879 60.8916741,49.5796879 C58.9735301,49.5796879 57.196336,48.8905728 55.7470035,47.7259682 L68.6684305,27.5796879 C69.3731799,30.4601891 69.7470035,33.48885 69.7470035,36.6174326 Z" id="Path" fill="#E6E6E6"></path>
            <path d="M62.4100885,15.4200332 L50.0810053,32.5681215 C49.21276,29.8178616 47.5363787,27.4126403 45.329032,25.6740473 L40.4100885,3.56812146 C49.2327964,4.49939095 57.030307,8.91789621 62.4100885,15.4200332 Z" id="Path" fill="#E6E6E6"></path>
            <path d="M27.3382409,4.87855126 L31.6076412,23.9460359 C27.571486,25.4482613 24.4108452,28.7558519 23.1229263,32.8785513 L22.4874178,32.5013108 L8.60764122,18.6714058 C12.9750721,12.0865387 19.5735436,7.10157544 27.3382409,4.87855126 Z" id="Path" fill="#E6E6E6"></path>
            <path d="M23.8871625,50.5488608 L23.8871625,74.4698167 L23.8837029,74.4698167 L3.88716247,55.8760667 L3.88716247,38.2634748 C3.88716247,36.288291 4.07744097,34.3517101 4.44415953,32.4698167 L23.8837029,50.5488608 L23.8871625,50.5488608 L23.8871625,50.5488608 Z" id="Path" fill="#E6E6E6"></path>
            <polygon id="Path" fill="#E6E6E6" points="23.8964229 91.7584941 23.8964229 114.929672 23.8929632 114.929672 3.89642285 96.1008504 3.89642285 72.9296723 23.8929632 91.7584941"></polygon>
            <path d="M19.7722108,131.669871 C18.1899195,133.518611 15.969266,134.664212 13.5156557,134.664212 C8.6870958,134.664212 4.77221077,130.225865 4.77221077,124.751676 L4.77221077,114.664212 L19.7722108,131.669871 Z" id="Path" fill="#E6E6E6"></path>
            <path d="M60.9921898,10.9819303 C54.285982,4.33210553 45.4327236,0.683042916 36.0270718,0.683042916 C35.9093432,0.683042916 35.7916146,0.683708864 35.6738859,0.684707786 C16.2922305,0.872838124 0.523579844,17.0057638 0.523579844,36.648236 L0.523579844,123.562122 C0.523579844,130.245577 5.95439426,135.683043 12.6296733,135.683043 C19.3049524,135.683043 24.7357668,130.245577 24.7357668,123.562122 L24.7357668,36.2266909 C24.7357668,33.1633296 25.9456445,30.2930933 28.1422476,28.1450777 C30.3371879,25.998727 33.223867,24.8516314 36.2964508,24.9285484 C42.3701167,25.0720602 47.3113929,30.2561332 47.3113929,36.4854117 L47.3113929,39.1315565 C47.3113929,45.8153446 52.7422073,51.2528108 59.4174864,51.2528108 C66.0927654,51.2528108 71.5235798,45.8153446 71.5235798,39.1315565 L71.5235798,36.2266909 C71.5239124,26.6816568 67.7838672,17.7159975 60.9921898,10.9819303 Z M53.5250694,43.1239154 C52.7521843,41.9841452 52.2998936,40.6096283 52.2998936,39.1315565 L52.2998936,36.4854117 C52.2998936,35.1838162 52.1439198,33.915518 51.8575799,32.6951681 L61.4587809,19.364885 C63.0411333,21.7426527 64.2702998,24.3165421 65.1233335,27.0229552 L53.5250694,43.1239154 Z M58.2298906,15.309261 L49.5585462,27.3482708 C48.7447554,26.1106063 47.7706675,24.9901486 46.6695392,24.0138687 L42.7499079,6.42950907 C48.2701827,7.67150228 53.351137,10.4348539 57.4816155,14.5304347 C57.738357,14.7851599 57.9834587,15.0478764 58.2298906,15.309261 Z M5.51208053,112.735803 L5.51208053,102.195177 L19.7475987,116.447798 L19.7475987,123.562122 C19.7475987,124.569701 19.5350885,125.527334 19.1566276,126.397063 L5.51208053,112.735803 Z M5.51208053,95.1314652 L5.51208053,78.5094006 L19.7475987,92.7620219 L19.7475987,109.384086 L5.51208053,95.1314652 Z M5.51208053,71.4460221 L5.51208053,60.9053956 L19.7475987,75.1580168 L19.7475987,85.6986434 L5.51208053,71.4460221 Z M5.51208053,53.8413511 L5.51208053,36.648236 C5.51208053,36.481749 5.51573876,36.3162609 5.5183993,36.1507728 L19.7475987,50.3997313 L19.7475987,68.0943053 L5.51208053,53.8413511 Z M19.7472661,36.2266909 L19.7472661,43.3356869 L6.26301617,29.8325902 C6.87061555,27.114856 7.83306362,24.5293125 9.09814739,22.1292355 L20.0489041,33.0930721 C19.8510269,34.1146365 19.7472661,35.1621728 19.7472661,36.2266909 Z M5.51208053,123.562122 L5.51208053,119.799515 L15.6876242,129.987522 C14.7597631,130.432042 13.7251481,130.688432 12.6296733,130.688432 C8.70472097,130.688765 5.51208053,127.491548 5.51208053,123.562122 Z M24.6566159,24.5719332 C23.6060377,25.5994911 22.7157566,26.7435899 21.990096,27.9732631 L11.8451484,17.8162227 C15.2639342,13.3094189 19.8723112,9.77390043 25.1843993,7.70812943 L28.338462,21.8645212 C27.0085277,22.5810813 25.7683864,23.4847729 24.6566159,24.5719332 Z M33.0785353,20.198652 L29.9806764,6.29332269 C31.8403895,5.91040253 33.7596319,5.69829806 35.7224407,5.67931854 C35.8242061,5.67831962 35.9243087,5.67798664 36.0260741,5.67798664 C36.5122866,5.67798664 36.9965038,5.69063966 37.4790581,5.71328189 L40.8140371,20.6754708 C39.415594,20.2312835 37.9406607,19.9715637 36.4138469,19.9356025 C35.2834526,19.9086316 34.1673587,19.9995335 33.0785353,20.198652 Z M66.5354117,39.1315565 C66.5354117,43.0613162 63.3424387,46.2582001 59.4178189,46.2582001 C58.7869399,46.2582001 58.1780102,46.1676312 57.5953534,46.0124652 L66.4283252,33.7503629 C66.4938409,34.570478 66.5357443,35.3952547 66.5357443,36.2270239 L66.5357443,39.1315565 L66.5354117,39.1315565 Z" id="Shape" fill="#333333"></path>
            <path d="M15.2786446,123.75468 C13.9214357,123.75468 12.8217132,122.646544 12.8217132,121.279688 L12.8217132,44.3899423 C12.8217132,43.0230869 13.9214357,41.9149505 15.2786446,41.9149505 C16.6358535,41.9149505 17.735576,43.0230869 17.735576,44.3899423 L17.735576,121.279688 C17.735576,122.646544 16.6358535,123.75468 15.2786446,123.75468 Z M61.3644541,38.8657606 C60.0072452,38.8657606 58.9075227,37.7576243 58.9075227,36.3907688 C58.9075227,34.3513755 58.6402086,32.3373922 58.1121321,30.4042585 C57.2620338,27.2824689 55.7849266,24.4332583 53.722087,21.9345065 C49.9272745,17.3287118 44.619975,14.4521113 38.7764093,13.8327033 C37.9826566,13.7478936 37.1830073,13.7046637 36.3967893,13.7046637 L36.1694412,13.7056537 C36.1615791,13.7056537 36.1530617,13.7056537 36.1451995,13.7056537 C34.7994563,13.7056537 33.7020269,12.6130273 33.6889233,11.2544218 C33.6761472,9.88756634 34.7653868,8.76887004 36.1222682,8.75600008 L36.3971169,8.75468009 C37.3559753,8.75468009 38.3299029,8.80681991 39.2933477,8.91010957 C46.4171385,9.66547708 52.8847648,13.1674255 57.5021579,18.771137 C60.0144522,21.8143869 61.814564,25.2876255 62.8507339,29.0931729 C63.4951051,31.4520051 63.8217132,33.907857 63.8217132,36.3904388 C63.8213856,37.7576243 62.7213355,38.8657606 61.3644541,38.8657606 Z M15.2819205,38.8657606 C13.9250392,38.8657606 12.8233511,37.7576243 12.8233511,36.3907688 C12.8233511,35.0239133 13.9217633,33.9157769 15.2786446,33.9157769 L15.2819205,33.9157769 C16.6391294,33.9157769 17.738852,35.0239133 17.738852,36.3907688 C17.738852,37.7576243 16.6391294,38.8657606 15.2819205,38.8657606 Z" id="Shape" fill="#FFFFFF"></path>
        </g>
    </g>
</svg>