<?xml version="1.0" encoding="UTF-8"?>
<svg width="128px" height="128px" viewBox="0 0 128 128" version="1.1" xmlns="http://www.w3.org/2000/svg" xmlns:xlink="http://www.w3.org/1999/xlink">
    <!-- Generator: Sketch 53 (72520) - https://sketchapp.com -->
    <title>Cosmetic</title>
    <desc>Created with Sketch.</desc>
    <g id="Cosmetic" stroke="none" stroke-width="1" fill="none" fill-rule="evenodd">
        <g id="vinegar" transform="translate(13.091569, 3.000000)" fill-rule="nonzero">
            <rect id="Rectangle" fill="#A3E3E5" x="26.9084309" y="25" width="10" height="39"></rect>
            <path d="M44.1207422,14 C47.3177512,14 49.9084309,16.4624911 49.9084309,19.5013098 C49.9084309,21.0180995 49.260761,22.393427 48.2134649,23.3889021 C47.1661689,24.3843772 45.7192467,25 44.1207422,25 L36.6160391,25 L26.1348104,25 L18.4178921,25 L17.1115281,25 C16.1689616,25 15.2374193,24.8428197 14.3637539,24.5441772 C13.4900885,24.2455347 12.6687879,23.8028102 11.9411928,23.2317218 L7.07677819,19.4017623 C4.7617027,17.5784711 6.11767549,14 9.12451759,14 L22.2322546,14 L40.5158389,14 L44.1207422,14 Z" id="Path" fill="#99E2FF"></path>
            <polygon id="Path" fill="#F7B239" points="41.9084309 2 40.3023278 14 22.5145341 14 20.9084309 2"></polygon>
            <polygon id="Path" fill="#E09B2D" points="20.9084309 2 22.4851616 14 30.9084309 14 29.3317002 2"></polygon>
            <path d="M63.666431,48.0293103 C65.8311332,50.9175287 66.4661861,54.545546 65.4059238,57.9824713 L55.7061804,89.504454 C57.9509545,93.4600575 59.2486714,97.9998563 59.2900879,102.820833 C59.3287433,107.699138 58.1000539,112.288075 55.9105018,116.290086 C54.6486792,118.594109 52.180256,120 49.5296002,120 L12.6689186,120 C10.0210239,120 7.55536181,118.599569 6.29630033,116.301006 C4.13712032,112.359052 2.90843093,107.846552 2.90843093,103.050144 C2.90843093,92.2862069 9.08224997,82.9472701 18.1193295,78.3037356 L18.1193295,25 L25.8504088,25 L25.8504088,64.0373563 L25.8504088,82.9472701 L21.6839092,85.0875 C14.8722762,88.5872126 10.6395102,95.4692529 10.6395102,103.050144 C10.6395102,106.339655 11.4098571,109.470833 12.931223,112.356322 L49.2672958,112.356322 C50.7941839,109.454454 51.5838585,106.184052 51.5590086,102.880891 C51.4982644,95.4119253 47.2599762,88.6008621 40.498043,85.1011494 L36.3508711,82.9554598 L36.3508711,64.0373563 L36.3508711,25 L43.8693457,25 L44.0819504,25 L44.0819504,43.4867816 L54.5409963,43.4867816 C58.1773647,43.4867816 61.5017288,45.1438218 63.666431,48.0293103 Z M57.5616394,55.6238506 C57.8570771,54.6683908 57.6803667,53.6583333 57.078447,52.8557471 C56.4765272,52.0531609 55.5515588,51.5945402 54.5409963,51.5945402 L44.0819504,51.5945402 L44.0819504,78.3283046 C46.0174814,79.3301724 47.8204795,80.5477011 49.4633338,81.9481322 L57.5616394,55.6238506 Z" id="Shape" fill="#99E2FF"></path>
            <path d="M51.9078609,102.587119 C51.9327594,105.868475 51.1415423,109.117288 49.6116715,112 L13.2046203,112 C11.6802825,109.133559 10.9084309,106.023051 10.9084309,102.755254 C10.9084309,95.2244068 15.1494651,88.3877966 21.9744039,84.9111864 L26.1490423,82.7850847 L26.1490423,64 L36.6700161,64 L36.6700161,82.7932203 L40.825289,84.9247458 C47.6004309,88.4013559 51.8469981,95.1674576 51.9078609,102.587119 Z" id="Path" fill="#76FABB"></path>
            <path d="M26.7976201,64 L28.9084309,64 L28.9084309,82.7852498 L26.5057282,84.9113395 C22.5759985,88.3876588 20.1327553,95.2245016 20.1327553,102.755306 C20.1327553,106.023085 20.5787012,109.133576 21.4543769,112 L14.1516742,112 C12.662485,109.133576 11.9084309,106.023085 11.9084309,102.755306 C11.9084309,95.2245016 16.0516742,88.38793 22.7192417,84.9113395 L26.7976201,82.7852498 L26.7976201,64 Z" id="Path" fill="#60CF9A"></path>
            <g id="Group" transform="translate(0.908431, 0.000000)" fill="#333333">
                <path d="M64.318627,46.9765212 C61.774,43.5781826 57.8632869,41.6291715 53.5890164,41.6291715 L45.2455943,41.6291715 L45.2455943,26.9728686 C48.4572008,26.0077372 50.801377,23.0514788 50.801377,19.562931 C50.801377,15.292931 47.2910164,11.8193274 42.975832,11.8193274 L41.747041,11.8193274 L43.0694672,2.316098 C43.1507459,1.73272606 42.9728115,1.14310468 42.5817951,0.69885078 C42.1910533,0.254868597 41.625123,0 41.0298115,0 L19.5225369,0 C18.9275,0 18.3612951,0.254868597 17.9702787,0.698579065 C17.5792623,1.14283296 17.4013279,1.73245434 17.4826066,2.31582628 L18.8053074,11.8190557 L8.1097459,11.8190557 C5.86497131,11.8190557 3.92306967,13.1694788 3.16218033,15.2589666 C2.40129098,17.3484543 3.02708197,19.6137416 4.75590164,21.0301915 L9.60241803,25.0013051 C11.2203033,26.3272739 13.2220656,27.1195947 15.3070287,27.275559 L15.3070287,77.1143252 C5.94542623,82.425265 0.182053279,92.21298 0.182053279,102.951969 C0.182053279,107.894192 1.4322623,112.790494 3.79758197,117.111577 C5.4017377,120.042022 8.52410246,121.862512 11.9460451,121.862512 L48.6063033,121.862512 C52.0304426,121.862512 55.1555533,120.037675 56.7619057,117.100165 C59.1629221,112.708708 60.4106598,107.731978 60.3702951,102.707969 C60.3324016,98.0344722 59.1590779,93.4001024 56.9694959,89.249657 L66.3651475,58.6898797 C67.609041,54.6437728 66.8632541,50.374588 64.318627,46.9765212 Z M21.8848361,4.07572383 L38.6672377,4.07572383 L37.5894713,11.8190557 L22.9626025,11.8190557 L21.8848361,4.07572383 Z M12.228873,21.8624543 L7.38235656,17.891069 C6.8257623,17.4351314 6.95536885,16.8645301 7.03692213,16.6403653 C7.11847541,16.4162004 7.38620082,15.8947795 8.10919672,15.8947795 L42.975832,15.8947795 C45.0196066,15.8947795 46.6825246,17.5402851 46.6825246,19.5626592 C46.6825246,21.5847617 45.0196066,23.2302673 42.975832,23.2302673 L16.0659959,23.2302673 C14.668332,23.2302673 13.305541,22.744441 12.228873,21.8624543 L12.228873,21.8624543 Z M26.0045123,84.7511448 C26.6863197,84.4003608 27.1141311,83.703412 27.1141311,82.942882 L27.1141311,66.1612249 L33.4382172,66.1612249 L33.4382172,82.9534788 C33.4382172,83.7118352 33.863832,84.4076971 34.5428934,84.7592962 L38.6672377,86.8944321 C44.7167336,90.0262183 48.5085492,96.1218708 48.5623689,102.80171 C48.5829631,105.343332 48.0612418,107.869465 47.0463566,110.179042 L13.5029713,110.179042 C12.4976967,107.908864 11.9888811,105.483537 11.9888811,102.951969 C11.9888811,96.1713229 15.7716352,90.0137194 21.8614959,86.8813898 L26.0045123,84.7511448 Z M33.4382172,62.0855011 L27.1141311,62.0855011 L27.1141311,27.3059911 L33.4382172,27.3059911 L33.4382172,62.0855011 Z M62.4242295,57.5038441 L52.7784262,88.877951 C52.6147705,89.4091537 52.6779262,89.9832873 52.9522418,90.467755 C55.0756475,94.2149755 56.2165697,98.4591626 56.251168,102.741118 C56.2863156,107.078775 55.2099221,111.373501 53.1389631,115.160935 C52.2531352,116.7809 50.5160779,117.787332 48.6060287,117.787332 L11.9457705,117.787332 C10.0368197,117.787332 8.30223361,116.784976 7.41887705,115.170717 C5.37894672,111.443875 4.30063115,107.218708 4.30063115,102.952241 C4.30063115,93.3218486 9.67106557,84.5772472 18.3159877,80.1314477 C18.9977951,79.7806637 19.4256066,79.0837149 19.4256066,78.3231849 L19.4256066,27.3059911 L22.9952787,27.3059911 L22.9952787,81.7052205 L19.9621557,83.2654076 C12.5037377,87.1012071 7.87030328,94.6448285 7.87030328,102.951969 C7.87030328,106.557354 8.71494262,109.991016 10.380332,113.157853 C10.7348279,113.831706 11.4391516,114.254766 12.2071803,114.254766 L48.3448934,114.254766 C49.1134713,114.254766 49.8180697,113.831163 50.172291,113.156223 C51.8428975,109.974169 52.7103279,106.382098 52.6812213,102.769105 C52.6150451,94.5807038 47.976668,87.1139777 40.5764631,83.2827973 L37.5570697,81.7196214 L37.5570697,27.3059911 L41.1267418,27.3059911 L41.1267418,43.6670334 C41.1267418,44.7927483 42.048541,45.7048953 43.186168,45.7048953 L53.5890164,45.7048953 C56.5449795,45.7048953 59.249418,47.0526013 61.0089918,49.4026637 C62.7688402,51.7529978 63.2847951,54.7054521 62.4242295,57.5038441 Z" id="Shape"></path>
                <path d="M53.5890164,49.6982895 L43.186168,49.6982895 C42.048541,49.6982895 41.1267418,50.6104365 41.1267418,51.7361514 L41.1267418,78.3473675 C41.1267418,79.1057238 41.5523566,79.8015857 42.231418,80.1531849 C43.9995041,81.0685924 45.6687377,82.1921336 47.1924385,83.492833 C47.5710984,83.815902 48.0499836,83.9873541 48.5376557,83.9873541 C48.7287705,83.9873541 48.9215328,83.9609978 49.1101762,83.9069265 C49.7793525,83.7153675 50.304918,83.2018263 50.5075656,82.5426459 L58.5634918,56.3409042 C58.5637664,56.3409042 58.5637664,56.3406325 58.5637664,56.3406325 C59.0475943,54.7652294 58.7570779,53.1031492 57.7666311,51.7796258 C56.7756352,50.4569176 55.2530328,49.6982895 53.5890164,49.6982895 Z M54.6233975,55.1548686 L47.4379221,78.5253408 C46.726459,78.033265 45.9946762,77.5718931 45.2455943,77.1433987 L45.2455943,53.7740134 L53.5890164,53.7740134 C53.9402172,53.7740134 54.248582,53.9275323 54.4575451,54.2063118 C54.6665082,54.4856347 54.7255451,54.822833 54.6233975,55.1548686 L54.6233975,55.1548686 Z" id="Shape"></path>
            </g>
            <g id="Group" transform="translate(33.908431, 4.000000)" fill="#FFFFFF">
                <path d="M17.5109589,104.997818 C17.3772603,104.997818 17.2419178,104.985 17.1057534,104.958 C15.9928767,104.736273 15.2715068,103.658455 15.4939726,102.550909 C15.7405479,101.324182 15.8610959,100.068545 15.8517808,98.8191818 C15.7975342,92.1171818 12.0139726,85.9988182 5.97808219,82.8534545 C4.97260274,82.3295455 4.58438356,81.0935455 5.11068493,80.0926364 C5.63726027,79.0917273 6.87917808,78.7058182 7.88410959,79.2291818 C15.2668493,83.0762727 19.8947945,90.5708182 19.9613699,98.7875455 C19.9726027,100.317273 19.8254795,101.853 19.5238356,103.353545 C19.3282192,104.325545 18.470137,104.997818 17.5109589,104.997818 Z" id="Path"></path>
                <path d="M2.80767123,72.723 C1.67260274,72.723 0.752876712,71.8074545 0.752876712,70.6775455 L0.752876712,35.4957273 C0.752876712,34.3658182 1.67260274,33.4502727 2.80767123,33.4502727 C3.94273973,33.4502727 4.86246575,34.3658182 4.86246575,35.4957273 L4.86246575,70.6775455 C4.86246575,71.8074545 3.94246575,72.723 2.80767123,72.723 Z" id="Path"></path>
                <path d="M2.12493151,7.02327273 C1.99150685,7.02327273 1.85589041,7.01045455 1.71972603,6.98345455 C0.606849315,6.76172727 -0.114794521,5.68418182 0.107671233,4.57663636 L0.655616438,1.84936364 C0.878356164,0.741545455 1.96109589,0.0215454545 3.07342466,0.244636364 C4.18630137,0.466363636 4.90794521,1.54390909 4.68547945,2.65145455 L4.13753425,5.37872727 C3.94219178,6.351 3.08438356,7.02327273 2.12493151,7.02327273 Z" id="Path"></path>
                <ellipse id="Oval" cx="9.9309589" cy="15.0411818" rx="2.05479452" ry="2.04545455"></ellipse>
                <ellipse id="Oval" cx="2.80767123" cy="28.2556364" rx="2.05479452" ry="2.04545455"></ellipse>
            </g>
        </g>
        <g id="soya" transform="translate(64.091569, 21.000000)" fill-rule="nonzero">
            <polygon id="Path" fill="#F95428" points="41.9084309 2 40.756041 10.3810651 37.836022 10.3810651 36.4233386 18 17.3911569 18 15.9808398 10.3810651 13.0584546 10.3810651 11.9084309 2 14.3102293 2 39.5066325 2"></polygon>
            <polygon id="Path" fill="#E54728" points="22.9119293 2 14.2164596 2 11.9084309 2 13.013556 10.3809411 15.8218471 10.3809411 17.1771033 18 24.9084309 18"></polygon>
            <path d="M19.2312986,55 L34.5869047,55 C35.7778353,58.8825976 37.1954961,62.7120407 38.8327274,66.4813959 L39.8279539,68.7693552 C43.4413185,77.0892073 44.6775952,86.1000693 43.4460918,95 L10.3697248,95 C9.14060809,86.1000693 10.3744981,77.0892073 13.9902493,68.7693552 L14.9830892,66.4813959 C16.6203205,62.7120407 18.0379813,58.8825976 19.2312986,55 Z" id="Path" fill="#FFA2DB"></path>
            <path d="M19.939792,68.7693552 L20.8810278,66.481627 C22.4331618,62.7120407 23.7771379,58.8828287 24.9084309,55 L18.7467304,55 C17.6154374,58.8828287 16.2714613,62.7120407 14.7193273,66.481627 L13.7780915,68.7693552 C10.3502737,77.0892073 9.18051668,86.1000693 10.3457485,95 L16.507449,95 C15.3422172,86.1000693 16.5119742,77.0892073 19.939792,68.7693552 Z" id="Path" fill="#DF86BD"></path>
            <path d="M33.9084309,54 L18.9084309,54 C21.8203053,44.2752861 23.3729942,34.2304361 23.5455152,24 L29.2713467,24 C29.4415363,34.2304361 30.9942251,44.2752861 33.9084309,54 Z" id="Path" fill="#A3E3E5"></path>
            <path d="M45.3453763,65.8655134 C49.8058814,76.4833984 51.030566,88.1851283 48.8678251,99.4979074 C48.5906721,100.949358 47.3209797,102 45.8451992,102 L6.97034563,102 C6.23127097,102 5.54667937,101.736747 5.01132401,101.293248 C4.47359981,100.849749 4.0898495,100.223633 3.95008859,99.4979074 C1.78497884,88.1851283 3.01203229,76.4833984 7.47253739,65.8655134 L8.45797028,63.5199498 C14.0176121,50.2837612 16.8815264,36.070452 16.8815264,21.7124721 L16.8815264,17 L35.9340185,17 L35.9340185,21.7124721 C35.9340185,36.070452 38.7979328,50.2837612 44.3575746,63.5199498 L45.3453763,65.8655134 Z M42.8225733,95.359375 C44.0448891,86.226144 42.8178357,76.9790737 39.2314285,68.4411272 L38.2436268,66.093192 C36.6186101,62.2250279 35.2115256,58.2952009 34.0294799,54.3108259 C31.0684436,44.3688616 29.4908034,34.0996094 29.3178789,23.640625 L23.5000348,23.640625 C23.3247414,34.0996094 21.7471013,44.3688616 18.7884338,54.3108259 C17.6040192,58.2952009 16.1969348,62.2250279 14.5719181,66.093192 L13.5864852,68.4411272 C9.99770916,76.9790737 8.77302454,86.226144 9.9929715,95.359375 L42.8225733,95.359375 Z" id="Shape" fill="#99E2FF"></path>
            <path d="M37.1611169,85 C36.2980914,85 35.5479178,84.3488137 35.4329718,83.454439 C34.9250223,79.507303 33.8993506,75.6463604 32.3838788,71.9791161 L31.4126552,69.633188 C30.153136,66.585873 29.0036763,63.4561534 27.9959213,60.3302225 C27.6952934,59.3981973 28.1944009,58.3948969 29.110013,58.0891945 C30.0263231,57.7827818 31.0119732,58.2914175 31.3121357,59.222969 C32.2908052,62.2577339 33.4067583,65.296761 34.6295135,68.2552778 L35.6007371,70.6014428 C37.2374373,74.5625496 38.3452465,78.7313258 38.8934503,82.9933991 C39.0186344,83.9659162 38.3454792,84.8574494 37.3896127,84.9848451 C37.3130596,84.9950273 37.2365066,85 37.1611169,85 Z" id="Path" fill="#FFFFFF"></path>
            <path d="M31.4880999,15 C31.3342381,15 31.1778505,14.9732532 31.0231467,14.9165101 C30.1898514,14.6120468 29.7221621,13.5629234 29.9787387,12.5732929 L30.8206638,9.32368503 C31.0768195,8.33380449 31.9608408,7.77912143 32.7937151,8.08333471 C33.6270104,8.38779797 34.0946998,9.43692136 33.8381231,10.4265519 L32.9961981,13.6761598 C32.7876112,14.4820625 32.1626923,15 31.4880999,15 Z" id="Path" fill="#FFFFFF"></path>
            <ellipse id="Oval" fill="#FFFFFF" cx="37.4084309" cy="90" rx="1.5" ry="2"></ellipse>
            <ellipse id="Oval" fill="#FFFFFF" cx="35.4084309" cy="6" rx="1.5" ry="2"></ellipse>
            <g id="Group" transform="translate(0.908431, 0.000000)" fill="#333333">
                <path d="M46.1023395,65.6164535 L45.1150744,63.2824671 C39.6096837,50.2699683 36.8179674,36.5141406 36.8179674,22.3972608 L36.8179674,17.8717279 L37.9333256,11.8883084 L39.3829116,11.8883084 C40.2719721,11.8883084 41.0246372,11.2357732 41.145614,10.360381 L42.2989256,2.00972336 C42.3686651,1.50340136 42.2149535,0.991891156 41.8771674,0.606548753 C41.5393814,0.221206349 41.050493,0 40.5364605,0 L10.4635395,0 C9.94950698,0 9.4603814,0.221206349 9.12283256,0.606077098 C8.7848093,0.991419501 8.63133488,1.50292971 8.70107442,2.0092517 L9.85438605,10.3599093 C9.97536279,11.2355374 10.7280279,11.8878367 11.6170884,11.8878367 L13.0666744,11.8878367 L14.1822698,17.8726712 L14.1822698,22.3970249 C14.1822698,36.5134331 11.3905535,50.2692608 5.88516279,63.2822313 L4.89766047,65.6159819 C0.279669767,76.5305578 -0.977302326,88.4471655 1.26266512,100.077007 C1.70055349,102.349914 3.70805581,103.999764 6.0357907,103.999764 L44.9644465,103.999764 C47.2921814,103.999764 49.2994465,102.349914 49.7373349,100.077007 L49.7373349,100.076771 C51.9773023,88.4474014 50.7203302,76.5310295 46.1023395,65.6164535 Z M12.5035395,3.53741497 L38.4962233,3.53741497 L37.8315628,8.3506576 L36.453614,8.3506576 C35.5961023,8.3506576 34.8605163,8.95885714 34.7044326,9.79722449 L33.5589488,15.9424218 L17.440814,15.9424218 L16.295093,9.79722449 C16.1390093,8.95885714 15.4034233,8.3506576 14.5459116,8.3506576 L13.1679628,8.3506576 L12.5035395,3.53741497 Z M46.2427674,99.4119728 L46.2427674,99.4119728 C46.125586,100.020644 45.5878326,100.462585 44.9644465,100.462585 L6.0357907,100.462585 C5.41216744,100.462585 4.87441395,100.020644 4.75723256,99.4119728 C2.64962791,88.4695692 3.8325907,77.2573787 8.17731628,66.9880272 L9.1648186,64.6542766 C14.8549953,51.2047891 17.7401721,36.9874467 17.7401721,22.3972608 L17.7401721,19.4798367 L33.2598279,19.4798367 L33.2598279,22.3972608 C33.2598279,36.9879184 36.1450047,51.2050249 41.8351814,64.6540408 L42.8224465,66.9880272 C47.1676465,77.2573787 48.3503721,88.4695692 46.2427674,99.4119728 Z" id="Shape"></path>
                <path d="M38.9927023,65.8426122 C33.3914791,52.6037188 30.4301581,38.6217324 30.1917628,24.2848254 C30.1758698,23.3195828 29.3840651,22.5453605 28.4129302,22.5453605 L22.5870698,22.5453605 C21.6159349,22.5453605 20.8241302,23.3195828 20.8082372,24.2848254 C20.5698419,38.6214966 17.6087581,52.6037188 12.0072977,65.8428481 L11.0197953,68.1765986 C7.32312558,76.9142494 6.03697674,86.4879093 7.29987907,95.8630023 C7.41824651,96.7412245 8.17209767,97.3968254 9.06329302,97.3968254 L41.9369442,97.3968254 C42.8283767,97.3968254 43.5819907,96.7412245 43.7003581,95.8630023 C44.9632605,86.4879093 43.6768744,76.9142494 39.9802047,68.1768345 L38.9927023,65.8426122 Z M24.3239163,26.0830113 L26.6760837,26.0830113 C26.9657163,35.2486893 28.3384465,44.2669751 30.7710279,53.0423583 L20.2289721,53.0423583 C22.6615535,44.2669751 24.0342837,35.2486893 24.3239163,26.0830113 Z M40.355707,93.8594104 L10.6445302,93.8594104 C9.79532093,85.6016689 11.0499209,77.2290794 14.2994512,69.5481723 L15.2869535,67.2144218 C16.7664279,63.717805 18.065386,60.1702494 19.1864372,56.5795374 L31.8135628,56.5795374 C32.934614,60.1702494 34.2335721,63.7175692 35.7130465,67.2141859 L36.7005488,69.5481723 C39.9503163,77.2293152 41.2046791,85.6016689 40.355707,93.8594104 Z" id="Shape"></path>
            </g>
        </g>
    </g>
</svg>