<?xml version="1.0" encoding="UTF-8"?>
<svg width="128px" height="128px" viewBox="0 0 128 128" version="1.1" xmlns="http://www.w3.org/2000/svg" xmlns:xlink="http://www.w3.org/1999/xlink">
    <!-- Generator: Sketch 53 (72520) - https://sketchapp.com -->
    <title>Delicatessen</title>
    <desc>Created with Sketch.</desc>
    <g id="Delicatessen" stroke="none" stroke-width="1" fill="none" fill-rule="evenodd">
        <g id="chorizo" transform="translate(61.441189, 63.551935) rotate(-45.000000) translate(-61.441189, -63.551935) translate(-6.558811, 39.051935)" fill-rule="nonzero">
            <polygon id="Path" fill="#B27214" points="15.6813398 25.2135996 1.68133977 37.2119685 1.68133977 13.2119685"></polygon>
            <polygon id="Path" fill="#B27214" points="123.877947 3.35841513 132.171978 46.3584151 120.462757 46.3584151 112.171978 3.35841513"></polygon>
            <path d="M113.024258,3.71196852 L121.285416,46.7119685 L37.918696,46.7119685 C31.9456421,46.7119685 26.5365119,44.3057209 22.6214554,40.4144931 C18.7063989,36.5264865 16.2854162,31.1502785 16.2854162,25.2135791 C16.2854162,13.3369592 25.9693473,3.71196852 37.918696,3.71196852 L113.024258,3.71196852 Z" id="Path" fill="#F95428"></path>
            <path d="M44.2876547,25.5671325 C44.2876547,13.6908347 53.9419358,4.06552191 65.8546983,4.06552191 L37.4217419,4.06552191 C25.5089794,4.06552191 15.8546983,13.6908347 15.8546983,25.5671325 C15.8546983,31.504154 18.2682686,36.8800399 22.1713381,40.7680464 C26.0744075,44.6592743 31.4669762,47.0655219 37.4217419,47.0655219 L65.8546983,47.0655219 C59.8999326,47.0655219 54.5073639,44.6592743 50.6042944,40.7680464 C46.701225,36.880362 44.2876547,31.504154 44.2876547,25.5671325 Z" id="Path" fill="#E54728"></path>
            <path d="M110.680085,42.5152694 C109.478861,42.5152694 108.408383,41.7134877 108.174812,40.5616278 L104.282753,21.3714437 C104.018198,20.0669857 104.926606,18.80773 106.312031,18.5586359 C107.698817,18.3085801 109.034872,19.1655022 109.299086,20.4693191 L113.191146,39.6595033 C113.455701,40.9639613 112.547293,42.223217 111.161868,42.4723111 C111.000139,42.5014842 110.83909,42.5152694 110.680085,42.5152694 Z" id="Path" fill="#FFFFFF"></path>
            <circle id="Oval" fill="#FFFFFF" cx="104.847862" cy="10.3627261" r="2.5"></circle>
            <path d="M135.181679,45.9789453 L126.924429,2.82794925 C126.705847,1.68527682 125.704575,0.85841513 124.5388,0.85841513 L37.8388126,0.85841513 C26.2668759,0.85841513 16.5796088,9.06205972 14.303433,19.9492875 L4.25574715,11.1453762 C3.53944313,10.5179569 2.52100907,10.3660316 1.65153516,10.759098 C0.783032731,11.1515179 0.224756,12.0152295 0.224756,12.9671872 L0.224756,36.7493198 C0.224756,37.7012775 0.783032731,38.5649891 1.65153516,38.9577323 C1.97244713,39.1028695 2.31376017,39.1736602 2.65280642,39.1736602 C3.23148422,39.1736602 3.80368548,38.9671064 4.25542332,38.571454 L14.3031092,29.767866 C16.579285,40.6547705 26.266552,48.8584151 37.8384888,48.8584151 L132.79605,48.8584151 C133.519802,48.8584151 134.20599,48.5361395 134.667443,47.9791877 C135.128895,47.4222359 135.317362,46.6891154 135.181679,45.9789453 Z M5.08215215,31.3957298 L5.08215215,18.3214237 L12.5427888,24.8587384 L5.08215215,31.3957298 Z M18.6530693,24.8587384 C18.6530693,14.2986349 27.2597276,5.70741913 37.8388126,5.70741913 L110.873326,5.70741913 L118.202489,44.0097344 L37.8388126,44.0097344 C27.2597276,44.0097344 18.6530693,35.4181953 18.6530693,24.8587384 Z M123.147642,44.0097344 L115.818479,5.70741913 L122.530429,5.70741913 L129.859592,44.0097344 L123.147642,44.0097344 Z" id="Shape" fill="#333333"></path>
        </g>
    </g>
</svg>