<?xml version="1.0" encoding="UTF-8"?>
<svg width="128px" height="128px" viewBox="0 0 128 128" version="1.1" xmlns="http://www.w3.org/2000/svg" xmlns:xlink="http://www.w3.org/1999/xlink">
    <!-- Generator: Sketch 53 (72520) - https://sketchapp.com -->
    <title>Egg</title>
    <desc>Created with Sketch.</desc>
    <g id="Egg" stroke="none" stroke-width="1" fill="none" fill-rule="evenodd">
        <g id="fried-egg" transform="translate(4.000000, 15.010127)" fill-rule="nonzero">
            <path d="M110.001497,68.9898734 C113.315041,68.9898734 116,71.6771552 116,74.9898734 C116,78.3025916 113.315041,80.9898734 110.001497,80.9898734 C106.687952,80.9898734 104,78.3025916 104,74.9898734 C104,71.6771552 106.687952,68.9898734 110.001497,68.9898734 Z" id="Path" fill="#E6E6E6"></path>
            <path d="M116.992601,37.6794931 C117.250116,48.514718 110.760761,57.8893485 101.369072,62.0237246 C95.2190301,64.733276 90.0142165,69.1299628 86.148476,74.5609888 C77.7868429,86.3083399 63.9265272,93.9898734 48.2454356,93.9898734 C22.475852,93.9898734 1.62933124,73.2524156 2.00499881,47.8142289 C2.3655185,23.2255715 22.8242533,3.21244921 47.8152357,2.99186967 C55.6678998,2.92033036 63.0691569,4.77439084 69.5706295,8.10394961 C75.5782811,11.1831208 82.2827355,12.7450624 89.0447518,12.3575578 C89.7839686,12.3158266 90.5292446,12.3039033 91.2805798,12.324769 C105.265108,12.6765039 116.665407,23.920099 116.992601,37.6794931 Z M74.8693601,37.7361284 C74.8693601,27.0737903 66.0866158,18.4324377 55.2498181,18.4324377 C44.41605,18.4324377 35.6333057,27.0737903 35.6333057,37.7361284 C35.6333057,48.3954858 44.41605,57.0398192 55.2498181,57.0398192 C66.0866158,57.0398192 74.8693601,48.3954858 74.8693601,37.7361284 Z" id="Shape" fill="#E6E6E6"></path>
            <path d="M11.1301038,47.8144607 C11.4720131,24.5885938 29.8198272,5.4485217 53,3.21172269 C51.3570711,3.05463406 49.6904153,2.97653687 48.0015538,2.991739 C22.9089399,3.21231886 2.36700496,23.2254699 2.00501914,47.8141626 C1.62782383,73.2523858 22.5591217,93.9898734 48.4335032,93.9898734 C49.9727034,93.9898734 51.4939565,93.9141609 52.9948288,93.7704859 C29.2686354,91.5023884 10.7754185,71.7381349 11.1301038,47.8144607 Z" id="Path" fill="#CCCCCC"></path>
            <path d="M55.4984943,18.9898734 C66.270095,18.9898734 75,27.7191044 75,38.4898734 C75,49.2576313 66.270095,57.9898734 55.4984943,57.9898734 C44.729905,57.9898734 36,49.2576313 36,38.4898734 C36,27.7191044 44.729905,18.9898734 55.4984943,18.9898734 Z" id="Path" fill="#F7B239"></path>
            <path d="M48.0348483,38.4898734 C48.0348483,29.7657613 53.9050694,22.3825 62,19.891101 C60.1005567,19.306643 58.0795243,18.9898734 55.9819587,18.9898734 C44.9463627,18.9898734 36,27.7191044 36,38.4898734 C36,49.2576313 44.9463627,57.9898734 55.9819587,57.9898734 C58.0795243,57.9898734 60.1005567,57.6731038 62,57.0883447 C53.9050694,54.5960423 48.0348483,47.2112755 48.0348483,38.4898734 Z" id="Path" fill="#E09B2D"></path>
            <path d="M103.995575,54.9898734 C103.355978,54.9898734 102.720046,54.7317752 102.267074,54.2271354 C101.436269,53.3014192 101.535844,51.8977323 102.490047,51.0914347 C106.375281,47.8090535 108.534456,43.0471266 108.413501,38.0265088 C108.310261,33.7410708 106.506316,29.6823208 103.333986,26.5978841 C100.162267,23.5134474 95.9767834,21.7541717 91.5490836,21.6442355 C91.0420484,21.6306046 90.5683065,21.638309 90.0896776,21.6649782 C81.8158411,22.1334664 73.2799346,20.3045546 65.6142349,16.4307107 C63.9746176,15.6027814 62.2687191,14.8904185 60.5447996,14.313772 C59.3486853,13.9134382 58.7133641,12.6487273 59.125712,11.4883225 C59.5380599,10.3279176 60.8423009,9.71215631 62.0381098,10.1116011 C63.9752285,10.7596617 65.8903553,11.5591439 67.7303431,12.488416 C74.6672561,15.9939291 82.3552532,17.6503804 89.8248586,17.227526 C90.4363552,17.1931524 91.0542661,17.1839664 91.6727879,17.2008569 C97.2752211,17.3401291 102.57099,19.5622629 106.577484,23.4583311 C110.583978,27.354103 112.862887,32.4908798 112.993922,37.922499 C113.146644,44.2682778 110.415068,50.2898782 105.49927,54.4434519 C105.065236,54.8100047 104.529184,54.9898734 103.995575,54.9898734 Z" id="Path" fill="#FFFFFF"></path>
            <path d="M53.7772911,12.9898734 C53.679101,12.9898734 53.580021,12.9833719 53.4803476,12.96944 C51.8820144,12.7465298 50.2377009,12.6338363 48.5927941,12.6338363 C48.4773985,12.6338363 48.3628928,12.6344555 48.2454207,12.6356939 C47.0241256,12.6567465 46.0113733,11.6177372 46.0001007,10.3353843 C45.9885315,9.05272171 46.9754755,8.00380531 48.2041868,7.991731 C48.3356013,7.99049261 48.4637528,7.98987342 48.5930908,7.98987342 C50.4340811,7.98987342 52.2765547,8.1164988 54.0691916,8.36603441 C55.2869269,8.53600345 56.1427531,9.70380531 55.9801906,10.9750127 C55.8306806,12.1415762 54.8751811,12.9898734 53.7772911,12.9898734 Z" id="Path" fill="#FFFFFF"></path>
            <path d="M64.9027307,48.9898734 C64.3101122,48.9898734 63.7171849,48.7751377 63.264769,48.3453729 C62.360246,47.4861367 62.3605548,46.0929948 63.264769,45.234052 C65.2658987,43.3334063 66.3677553,40.8108484 66.3677553,38.1313457 C66.3677553,34.9147104 64.7205291,31.8658741 61.9612553,29.9746157 C60.9239413,29.263817 60.6895497,27.8888631 61.4378116,26.903191 C62.1860736,25.9178123 63.6338045,25.6945693 64.6711185,26.406248 C68.6341582,29.1218333 71,33.5048473 71,38.1313457 C71,41.9863211 69.4160811,45.6139465 66.5400748,48.3456663 C66.0882765,48.7748444 65.4953492,48.9898734 64.9027307,48.9898734 Z" id="Path" fill="#FFFFFF"></path>
            <ellipse id="Oval" fill="#FFFFFF" cx="57.5" cy="25.9898734" rx="2.5" ry="2"></ellipse>
            <g id="Group" transform="translate(0.000000, 0.989873)" fill="#333333">
                <path d="M119.869063,37.0404486 C119.697114,29.7857196 116.706532,22.9335327 111.448709,17.7453458 C106.190886,12.5574579 99.236962,9.59790654 91.867443,9.41128972 C91.0547848,9.3915514 90.2360506,9.40411215 89.4346329,9.44986916 C83.2505316,9.80157009 76.9060253,8.41271028 71.0892152,5.4313271 C64.0775696,1.83775701 56.1648608,-0.0122616822 48.2020253,0.0463551402 C35.4820253,0.16 23.4723038,5.12179439 14.3848101,14.0174953 C5.29670886,22.9134953 0.190177215,34.7083364 0.00546835443,47.2287103 C-0.185012658,60.1617944 4.78481013,72.3534953 13.9998987,81.5575327 C23.2168101,90.7633645 35.5233418,95.8334206 48.6522532,95.8334206 C64.5116962,95.8334206 79.4184304,88.1884112 88.5284051,75.3833271 C92.2608608,70.1365234 97.2151899,66.0497944 102.855494,63.5645607 C113.461975,58.8919626 120.140354,48.4805981 119.869063,37.0404486 Z M84.7956456,72.8098692 C76.5381266,84.4174953 63.0264304,91.3474393 48.6522532,91.3474393 C36.7531139,91.3474393 25.5991899,86.7522991 17.2453671,78.4083738 C8.89336709,70.066243 4.38896203,59.0160748 4.56182278,47.2933084 C4.72891139,35.9515514 9.35878481,25.2635514 17.5977722,17.1980561 C25.8364557,9.13345794 36.72,4.63521495 48.243038,4.53263551 C48.3757975,4.53143925 48.5082532,4.53084112 48.6407089,4.53084112 C55.723443,4.53084112 62.7493671,6.2148785 68.9848101,9.41039252 C75.5301266,12.7650093 82.6918481,14.3273271 89.6983291,13.9280748 C90.3742785,13.8891963 91.0642025,13.878729 91.7507848,13.8957757 C97.9449114,14.052486 103.794835,16.5445981 108.222684,20.9139439 C112.650532,25.2826916 115.168709,31.0471776 115.313316,37.1448224 C115.541468,46.7741308 109.920911,55.5373458 100.99443,59.4700561 C94.6019241,62.2863551 89.0008101,66.8994393 84.7956456,72.8098692 Z" id="Shape"></path>
                <path d="M110.140861,66.1006355 C105.526481,66.1006355 101.772152,69.7961869 101.772152,74.3389907 C101.772152,78.8817944 105.526177,82.5773458 110.140861,82.5773458 C114.755544,82.5773458 118.50957,78.8817944 118.50957,74.3389907 C118.50957,69.7961869 114.755544,66.1006355 110.140861,66.1006355 Z M110.140861,78.0913645 C108.03919,78.0913645 106.329114,76.4079252 106.329114,74.3389907 C106.329114,72.2700561 108.038886,70.5866168 110.140861,70.5866168 C112.242835,70.5866168 113.952608,72.2700561 113.952608,74.3389907 C113.952608,76.4079252 112.242835,78.0913645 110.140861,78.0913645 Z" id="Shape"></path>
                <path d="M55.678481,15.5385421 C43.5739747,15.5385421 33.7263797,25.2327477 33.7263797,37.1487103 C33.7263797,49.0646729 43.5742785,58.7591776 55.678481,58.7591776 C67.7829873,58.7591776 77.6308861,49.0646729 77.6308861,37.1487103 C77.6308861,25.2327477 67.7829873,15.5385421 55.678481,15.5385421 Z M55.678481,54.2731963 C46.0866835,54.2731963 38.2833418,46.5911028 38.2833418,37.1487103 C38.2833418,27.7066168 46.0869873,20.0245234 55.678481,20.0245234 C65.2702785,20.0245234 73.0739241,27.7066168 73.0739241,37.1487103 C73.0739241,46.5911028 65.2702785,54.2731963 55.678481,54.2731963 Z" id="Shape"></path>
                <ellipse id="Oval" cx="91.6717975" cy="44.5428037" rx="2.27848101" ry="2.24299065"></ellipse>
                <ellipse id="Oval" cx="55.3078481" cy="71.9204486" rx="2.27848101" ry="2.24299065"></ellipse>
                <ellipse id="Oval" cx="23.0554937" cy="26.8168972" rx="2.27848101" ry="2.24299065"></ellipse>
            </g>
        </g>
    </g>
</svg>