<?xml version="1.0" encoding="UTF-8"?>
<svg width="128px" height="128px" viewBox="0 0 128 128" version="1.1" xmlns="http://www.w3.org/2000/svg" xmlns:xlink="http://www.w3.org/1999/xlink">
    <!-- Generator: Sketch 53 (72520) - https://sketchapp.com -->
    <title>Fish</title>
    <desc>Created with Sketch.</desc>
    <g id="Fish" stroke="none" stroke-width="1" fill="none" fill-rule="evenodd">
        <g id="fish" transform="translate(70.447987, 52.788788) rotate(-45.000000) translate(-70.447987, -52.788788) translate(1.947987, 11.288788)" fill-rule="nonzero">
            <path d="M104.801784,34.1610015 C110.327191,34.1610015 114.803428,38.6397914 114.803428,44.1610015 C114.803428,49.6822116 110.327191,54.1610015 104.801784,54.1610015 C99.2796659,54.1610015 94.8034284,49.6822116 94.8034284,44.1610015 C94.8034284,38.6397914 99.2796659,34.1610015 104.801784,34.1610015 Z" id="Path" fill="#F2F2F2"></path>
            <path d="M87.9946859,9.92351524 C90.6210367,12.5115325 92.6448333,15.5539837 93.9940309,18.8542698 C93.689479,18.793034 93.3849271,18.7350212 93.0803752,18.6770083 C89.1473985,17.9486249 85.1161792,17.5747643 81.0423881,17.5747643 C76.2874487,17.5747643 71.6012791,18.0872111 67.052649,19.0734294 C65.0517757,15.2800342 63.9940309,11.0515427 63.9940309,6.7424778 C63.9940309,5.30827146 64.111922,3.86117337 64.3509789,2.4237441 C72.999598,1.03465885 81.7988557,3.82572108 87.9946859,9.92351524 Z" id="Path" fill="#F7B239"></path>
            <path d="M133.399623,45.2232686 C123.617817,58.6762902 109.05062,67.7167464 92.8893757,70.7216617 C88.14619,63.3556021 85.3996225,54.6076028 85.3996225,45.2232686 C85.3996225,35.8389343 88.14619,27.0941489 92.8893757,19.7248755 L92.8893757,19.7216617 C93.1913033,19.7795103 93.4932309,19.837359 93.7951585,19.8984214 C99.6032072,21.0618217 105.193738,23.0093925 110.420657,25.6575745 C119.413556,30.2244029 127.328605,36.8705684 133.399623,45.2232686 Z M114.676863,45.2232686 C114.676863,39.8272764 110.258331,35.450063 104.804154,35.450063 C99.3532242,35.450063 94.9346919,39.8272764 94.9346919,45.2232686 C94.9346919,50.6192608 99.3532242,54.9964742 104.804154,54.9964742 C110.258331,54.9964742 114.676863,50.6192608 114.676863,45.2232686 Z" id="Shape" fill="#F7B239"></path>
            <path d="M92.2557012,18.9837299 L92.2557012,18.9869919 C87.5397079,26.466876 84.8088863,35.342918 84.8088863,44.8681083 C84.8088863,54.3932986 87.5397079,63.2726027 92.2557012,70.7492246 C88.3789675,71.4897103 84.408624,71.8681083 80.3898617,71.8681083 C78.446653,71.8681083 76.5099001,71.7800329 74.5925147,71.6038821 C77.0909259,67.7774957 78.1141771,63.0964519 77.3685272,58.4806491 C76.387239,58.3175465 75.4059509,58.2392573 74.4278907,58.2392573 C69.6311993,58.2392573 64.9765365,60.1540815 61.5258884,63.6412145 C60.2573152,64.9232007 59.195329,66.3715516 58.3657532,67.9340742 C55.8770257,67.0141757 53.4528566,65.9409608 51.0997018,64.7242156 C44.5502491,61.331682 38.5785943,56.8072167 33.4817062,51.2976117 C31.6191955,49.284926 29.8728899,47.1417582 28.2557012,44.8746324 C28.4590603,44.8713703 28.6591914,44.8681083 28.8625505,44.8681083 C28.6591914,44.8681083 28.4590603,44.8648462 28.2557012,44.8615842 C29.8728899,42.5944584 31.6191955,40.4480285 33.4849341,38.4353428 C42.3843137,28.815553 53.9531845,22.1903265 66.600181,19.3849622 C71.083764,18.3867745 75.7029197,17.8681083 80.3898617,17.8681083 C84.4053961,17.8681083 88.3789675,18.2465063 92.2557012,18.9837299 Z" id="Path" fill="#F95428"></path>
            <path d="M57.531431,51.1322453 C55.662274,49.1222115 53.9097369,46.9818674 52.2867773,44.7177288 C52.4908621,44.714471 52.6917074,44.7112133 52.8957921,44.7112133 C52.6917074,44.7112133 52.4908621,44.7079555 52.2867773,44.7046978 C53.9097369,42.4405591 55.662274,40.2969573 57.5346704,38.2869235 C66.465807,28.6798085 78.0759606,22.0633113 90.7680873,19.2616433 C91.4956656,19.1003845 92.228103,18.9563918 92.962808,18.8205435 C89.1444799,18.1123079 85.2344756,17.7467879 81.2830064,17.7467879 C76.5793393,17.7467879 71.9437004,18.2647707 67.444118,19.2616433 C54.7519913,22.0633113 43.1418377,28.6798085 34.2107011,38.2869235 C32.3383047,40.2969573 30.5857675,42.4405591 28.962808,44.7046978 C29.1668927,44.7079555 29.367738,44.7112133 29.5718228,44.7112133 C29.367738,44.7112133 29.1668927,44.714471 28.962808,44.7177288 C30.5857675,46.9818674 32.3383047,49.1222115 34.2074617,51.1322453 C39.3225377,56.6345909 45.3155021,61.153095 51.8883262,64.5411585 C54.2498781,65.7563006 56.6826977,66.8281015 59.1803061,67.7467879 C60.0128422,66.186324 61.078618,64.7398815 62.351718,63.4595844 C63.8593535,61.9434259 65.5963413,60.7256777 67.4739208,59.8327275 C63.8943394,57.2962406 60.55804,54.3880441 57.531431,51.1322453 Z" id="Path" fill="#E54728"></path>
            <path d="M78.3000548,58.6438455 C79.0308864,63.1203445 78.0279703,67.6601155 75.5792097,71.3710224 L75.576046,71.3710224 C74.9211449,72.3707211 74.1555118,73.3103113 73.2949654,74.1708115 C69.9128918,77.5527036 65.3507308,79.4097388 60.6493637,79.4097388 C59.6907404,79.4097388 58.7289533,79.3338124 57.7671662,79.1756322 C57.1249203,75.2337822 57.8241141,71.2444782 59.6749215,67.8119684 C60.4880112,66.2966024 61.5288926,64.8919624 62.7722555,63.6486662 C66.1543292,60.2667741 70.7164902,58.4097388 75.4178573,58.4097388 C76.3764806,58.4097388 77.3382677,58.4856653 78.3000548,58.6438455 Z" id="Path" fill="#F7B239"></path>
            <path d="M33.826012,38.8512475 L33.8292944,38.8545253 C31.9320741,40.8769178 30.1563023,43.0336994 28.5118259,45.3117591 C21.5498811,45.1544255 14.8373978,42.3388093 9.82847377,37.3303558 C4.66527754,32.1809577 1.82929436,25.2287785 1.82929436,18.0602656 C1.82929436,16.6016519 1.94746033,15.129927 2.18379226,13.6680355 C10.8525788,12.2553107 19.6756376,15.0938714 25.8859156,21.2954381 C30.6289661,26.0383911 33.4124311,32.2989579 33.826012,38.8512475 Z" id="Path" fill="#F7B239"></path>
            <path d="M33.8292944,50.8782114 C33.4156971,57.4302958 30.6354042,63.697222 25.888883,68.4400265 C20.7287645,73.5892634 13.7632611,76.4244575 6.58439396,76.4244575 C5.1236734,76.4244575 3.65310528,76.306461 2.18581968,76.0671902 C0.771054374,67.4108346 3.61699758,58.6069833 9.83080439,52.4056108 C14.839927,47.3973142 21.5526766,44.5817862 28.5148975,44.4244575 C30.1594391,46.7024458 31.9352814,48.8558822 33.8292944,50.8782114 Z" id="Path" fill="#F7B239"></path>
            <path d="M56.2126467,32.8975455 C55.291743,32.8975455 54.4080443,32.4105265 53.983645,31.5765219 C53.3946222,30.4190772 53.9148324,29.0314448 55.1445697,28.4775071 C59.31975,26.5972791 63.747792,25.1665833 68.3062157,24.2253849 C72.5554766,23.3442895 76.9183277,22.8975455 81.2716306,22.8975455 C82.6357007,22.8975455 83.7409826,23.9378826 83.7409826,25.2211096 C83.7409826,26.5043365 82.6357007,27.5446736 81.2716306,27.5446736 C77.2752314,27.5446736 73.2696132,27.9548601 69.3667201,28.76408 C65.1767236,29.6293753 61.1101948,30.9432733 57.277102,32.6692166 C56.9333682,32.8241209 56.5702089,32.8975455 56.2126467,32.8975455 Z" id="Path" fill="#FFFFFF"></path>
            <path d="M25.4400355,36.8975455 C24.4413709,36.8975455 23.5105366,36.2529959 23.1758439,35.2323233 C22.3564676,32.7341647 20.9568724,30.4253689 19.1289596,28.5551662 C16.6424887,26.0150354 13.3465136,24.307841 9.84927694,23.7491879 C8.54585412,23.5412791 7.6545078,22.2928505 7.85831689,20.9614536 C8.06212598,19.6300568 9.28147756,18.7187071 10.5868111,18.9272666 C15.0763432,19.6443729 19.3098402,21.8383145 22.5074137,25.1053126 C24.8550397,27.507163 26.6520627,30.4722216 27.704864,33.6809792 C28.1239464,34.9586907 27.4501026,36.3418207 26.1992243,36.7703275 C25.9479659,36.8565494 25.6916123,36.8975455 25.4400355,36.8975455 Z" id="Path" fill="#FFFFFF"></path>
            <path d="M77.4286027,14.0734294 C77.0854626,14.0734294 76.7370625,13.9889492 76.4078461,13.8104122 C74.9251346,13.0059697 73.345886,12.4553096 71.7143464,12.173481 C70.4479152,11.9549271 69.5815562,10.6429196 69.7795811,9.24335367 C69.9772966,7.84344573 71.1654461,6.88543396 72.4303302,7.10467193 C74.5241342,7.46619226 76.5501765,8.17281571 78.4527627,9.20504688 C79.6034731,9.82924234 80.0781141,11.3663023 79.5134337,12.6379509 C79.1105767,13.546027 78.2859886,14.0734294 77.4286027,14.0734294 Z" id="Path" fill="#FFFFFF"></path>
            <path d="M102.166711,31.7510989 C101.884706,31.7510989 101.597727,31.6949871 101.318832,31.5766791 C99.651678,30.8688592 97.9332226,30.2475731 96.2116579,29.7303981 C94.9701539,29.3575589 94.241979,27.9611864 94.5849239,26.611799 C94.9281797,25.2624116 96.2129016,24.470424 97.4537837,24.8432633 C99.3289429,25.4067474 101.200371,26.0831312 103.015834,26.8538234 C104.215363,27.3632239 104.808288,28.8332854 104.339731,30.1377157 C103.979686,31.1386015 103.09916,31.7510989 102.166711,31.7510989 Z" id="Path" fill="#FFFFFF"></path>
            <circle id="Oval" fill="#FFFFFF" cx="50.3562063" cy="34.2615066" r="2.5"></circle>
            <g id="Group" transform="translate(0.033876, 0.332574)" fill="#333333">
                <path d="M135.329067,43.2717874 C129.166648,34.7334567 120.942533,27.6814567 111.545257,22.8773543 C106.482495,20.2924173 101.119562,18.3654173 95.5895429,17.139937 C94.1353143,13.9551732 92.1412952,11.0825906 89.6431048,8.58837008 C82.9781333,1.94733858 73.4490667,-1.1144252 64.1547619,0.398377953 C63.1244,0.566251969 62.316819,1.37140157 62.1490857,2.39866142 C61.8948952,3.95407874 61.7656952,5.54081102 61.7656952,7.11430709 C61.7656952,10.7652441 62.4660952,14.4074646 63.8014857,17.8027165 C53.244,20.6081496 43.613581,25.9226535 35.6770095,33.239378 C34.4280762,28.0017087 31.7485524,23.174685 27.878381,19.3132598 C21.2163238,12.6712598 11.6869333,9.60949606 2.38939048,11.122622 C1.35902857,11.2901732 0.551447619,12.0956457 0.383714286,13.1229055 C0.12887619,14.6786457 0,16.2650551 0,17.838874 C0,25.5426772 3.13577143,33.085063 8.60135238,38.5306378 C11.242019,41.1652913 14.3127048,43.2369213 17.6547429,44.6858031 C14.3136762,46.1343622 11.2429905,48.2059921 8.60264762,50.8406457 C1.93832381,57.4807087 -1.13430476,66.9794724 0.383390476,76.2496693 C0.551771429,77.2769291 1.35935238,78.0820787 2.38939048,78.2493071 C3.94918095,78.5027323 5.54070476,78.6315433 7.11927619,78.6315433 C14.8473143,78.6315433 22.4134476,75.5068268 27.878381,70.0583465 C31.7517905,66.1936929 34.4322857,61.3592441 35.6799238,56.1125354 C40.1423429,60.2215748 45.1568571,63.7320787 50.5602667,66.4910236 C52.2350095,67.3468583 53.9544381,68.1294094 55.6926476,68.8406142 C54.4165143,72.1964803 54.0136952,75.8729213 54.6069143,79.5002913 C54.7752952,80.5275512 55.5828762,81.3327008 56.6129143,81.500252 C57.7184,81.6800709 58.8280952,81.7682047 59.9322857,81.7682047 C65.3875048,81.7682047 70.7008952,79.6155433 74.6138095,75.7144094 C75.2614286,75.0687402 75.859181,74.3833622 76.4090095,73.6669921 C77.9464571,73.7738504 79.5023619,73.8287323 81.0514667,73.8287323 C102.503848,73.8287323 122.7944,63.4631575 135.328419,46.1007874 C135.9388,45.2556063 135.9388,44.1169685 135.329067,43.2717874 Z M66.7186857,4.95486614 C73.8933333,4.32437008 81.071219,6.89445669 86.2078095,12.0120315 C87.4560952,13.2581732 88.5496,14.6205354 89.4905905,16.0810394 C82.5714286,15.2077717 75.4654286,15.4172913 68.6013143,16.7137953 C67.3044571,13.6898031 66.6225143,10.406252 66.6225143,7.11430709 C66.6225143,6.396 66.6548952,5.67414173 66.7186857,4.95486614 Z M4.85714286,17.838874 C4.85714286,17.1202441 4.88952381,16.3983858 4.95331429,15.6791102 C12.1337905,15.0476457 19.3087619,17.618378 24.4427619,22.7369213 C28.425619,26.7106929 30.9024381,31.9080079 31.4849714,37.4636693 C30.1133143,38.9755039 28.8070667,40.5551339 27.5707619,42.1990079 C21.700419,41.775126 16.2238286,39.2847795 12.0363238,35.1066535 C7.47384762,30.5611417 4.85714286,24.2671575 4.85714286,17.838874 Z M24.4430857,66.634685 C19.8828762,71.1811654 13.5685905,73.7890236 7.11927619,73.7890236 C6.39847619,73.7890236 5.6744381,73.7567402 4.95331429,73.6931417 C4.32059048,66.5358976 6.90038095,59.3831732 12.037619,54.2646299 C16.2235048,50.0877953 21.7000952,47.5977717 27.5772381,47.1735669 C28.8070667,48.8054961 30.1110476,50.3806063 31.485619,51.8921181 C30.9047048,57.4561732 28.4275619,62.6592992 24.4430857,66.634685 Z M71.1791619,72.2901024 C68.0097143,75.4503307 63.6379619,77.111315 59.2118095,76.9092205 C59.0084571,72.493811 60.6757524,68.1374803 63.8452,64.9775748 C67.0146476,61.8176693 71.3870476,60.1573307 75.8125524,60.3584567 C76.015581,64.7738661 74.3486095,69.1301969 71.1791619,72.2901024 Z M79.1235048,68.952315 C80.5628381,65.4569843 81.0417524,61.5852283 80.4174476,57.7677087 C80.2493905,56.7404488 79.4414857,55.9352992 78.4114476,55.767748 C71.8449143,54.7004567 65.1155048,56.863126 60.4105524,61.5535906 C59.488019,62.4733465 58.6645714,63.4715512 57.9421524,64.530126 C56.1916381,63.8282835 54.4605524,63.0421811 52.7754476,62.1811811 C44.5924571,58.0027323 37.3627619,51.9747638 31.7718667,44.6851575 C40.6682095,33.0634331 53.3751429,24.9741654 67.7409524,21.8300787 C74.7080381,20.2985512 81.9898667,19.9954094 89.0586286,20.9093543 C85.1211048,28.1860472 83.053581,36.3340709 83.053581,44.686126 C83.053581,53.0368898 85.1204571,61.1829764 89.0566857,68.4587008 C86.4176381,68.8034882 83.7452381,68.9858898 81.0517905,68.9858898 C80.4093524,68.9862126 79.7659429,68.9723307 79.1235048,68.952315 Z M94.1333714,67.5802677 C90.0579048,60.6583701 87.9110476,52.7792677 87.9110476,44.686126 C87.9110476,36.5913701 90.0588762,28.7106535 94.1359619,21.7877874 C99.4062857,22.9193228 104.515676,24.728811 109.3304,27.1871969 C116.593771,30.9001181 123.098781,36.0641811 128.373638,42.2648661 L124.971048,42.2648661 C123.629505,42.2648661 122.542476,43.3489449 122.542476,44.686126 C122.542476,46.0233071 123.629505,47.1073858 124.971048,47.1073858 L128.372343,47.1073858 C119.503848,57.5365591 107.40859,64.7089764 94.1333714,67.5802677 Z" id="Shape"></path>
                <path d="M104.838514,32.4487559 C98.0705714,32.4487559 92.5641905,37.9385591 92.5641905,44.686126 C92.5641905,51.4336929 98.0705714,56.9234961 104.838514,56.9234961 C111.606457,56.9234961 117.112838,51.4336929 117.112838,44.686126 C117.112838,37.9385591 111.606457,32.4487559 104.838514,32.4487559 Z M104.838514,52.0812992 C100.748476,52.0812992 97.4213333,48.7638504 97.4213333,44.6864488 C97.4213333,40.6090472 100.748476,37.2915984 104.838514,37.2915984 C108.928552,37.2915984 112.255695,40.6090472 112.255695,44.6864488 C112.255695,48.7638504 108.928229,52.0812992 104.838514,52.0812992 Z" id="Shape"></path>
                <ellipse id="Oval" cx="104.838514" cy="44.686126" rx="2.42857143" ry="2.42125984"></ellipse>
            </g>
        </g>
    </g>
</svg>