<?xml version="1.0" encoding="UTF-8"?>
<svg width="128px" height="128px" viewBox="0 0 128 128" version="1.1" xmlns="http://www.w3.org/2000/svg" xmlns:xlink="http://www.w3.org/1999/xlink">
    <!-- Generator: Sketch 53 (72520) - https://sketchapp.com -->
    <title>Fruit</title>
    <desc>Created with Sketch.</desc>
    <g id="Fruit" stroke="none" stroke-width="1" fill="none" fill-rule="evenodd">
        <g id="Group-2" transform="translate(1.000000, 11.000000)" fill-rule="nonzero">
            <g id="apple" transform="translate(44.671642, 8.000000)">
                <path d="M41.3283582,23 C29.1787491,23 19.3283582,13.1496091 19.3283582,1 C25.4031628,1 30.9038242,3.46325917 34.8857845,7.44521948 C38.865099,11.424534 41.3283582,16.9249308 41.3283582,23 Z" id="Path" fill="#9AD14B"></path>
                <path d="M47.6182248,29 C68.8838401,29 83.7018196,50.1810436 76.4768642,70.2515093 L69.9082549,88.4882303 C69.3651606,89.9965499 68.6624841,91.4170564 67.8233906,92.7290879 C66.6754283,94.5189261 65.2700754,96.1124762 63.6716795,97.460666 L63.6691056,97.460666 C62.2225701,98.6823016 60.6164525,99.7024836 58.8945091,100.497967 C54.8740672,102.347208 50.2744963,102.463432 46.1099157,100.983522 C45.1241095,100.634852 44.117712,100.379161 43.0984451,100.211283 C42.1821344,100.061484 41.2529542,99.9891676 40.3289217,99.9891676 C38.3727528,99.9891676 36.4191578,100.319758 34.5479278,100.983522 C33.1605922,101.474243 31.7295002,101.79192 30.2855387,101.926222 C27.38732,102.194827 24.4453449,101.732517 21.7633344,100.497967 C16.7416429,98.1864157 12.7083314,93.9300616 10.7470147,88.4882303 L4.1809793,70.2515093 C-3.04655006,50.1810436 11.7714295,29 33.0370447,29 L40.3289217,29 L47.6182248,29 Z" id="Path" fill="#F95428"></path>
                <path d="M27.3878835,88.4884886 L20.7868145,70.2517676 C13.6884011,50.644387 27.7431664,29.9811826 48.3283582,29.0374497 C47.8421407,29.0152382 47.3533355,29 46.8598726,29 L39.5316769,29 L32.2008934,29 C10.8218138,29 -4.07522832,50.1810436 3.19086411,70.2515093 L9.79193313,88.4882303 C11.7637146,93.9300616 15.8185461,98.1864157 20.8670313,100.497967 C23.5633519,101.732517 26.5210242,102.194827 29.4347065,101.926222 C30.8863724,101.79192 32.3251001,101.474243 33.719838,100.983522 C34.9960619,100.533351 36.3108417,100.24021 37.6383008,100.095576 C32.9748565,97.7111917 29.2509841,93.6302056 27.3878835,88.4884886 Z" id="Path" fill="#E54728"></path>
                <path d="M62.6727985,91 C62.3111136,91 61.9452565,90.9003784 61.6185145,90.6915363 C60.7094781,90.1111886 60.4453204,88.9076872 61.0286578,88.00331 C61.5637532,87.1736489 62.0083623,86.2757575 62.3502288,85.334541 L69.0052826,67.0153243 C71.6014863,59.8651405 70.5717145,52.1953159 66.1806463,45.9723393 C64.2853863,43.2864478 61.9322181,41.0885466 59.1860729,39.4390829 C58.2613904,38.8836406 57.964376,37.6879221 58.5226797,36.7677196 C59.0809835,35.8477765 60.2831228,35.5520249 61.2078053,36.1077266 C64.4220286,38.0381543 67.1723461,40.6047073 69.3818312,43.7360422 C74.515566,51.0112718 75.7190091,59.9779931 72.6839333,68.3376453 L66.0288795,86.6571214 C65.588182,87.8707406 65.0131891,89.030917 64.3205899,90.1047029 C63.9471705,90.6840128 63.3166341,91 62.6727985,91 Z M53.2854202,36.8914683 C52.2053202,36.8914683 51.3283582,36.0202983 51.3283582,34.9457341 C51.3283582,33.87117 52.2027125,33 53.2828125,33 L53.2854202,33 C54.365781,33 55.2411783,33.87117 55.2411783,34.9457341 C55.2411783,36.0202983 54.3655202,36.8914683 53.2854202,36.8914683 Z" id="Shape" fill="#FFFFFF"></path>
                <path d="M41.3283582,23 C29.1787491,23 19.3283582,13.1496091 19.3283582,1 L41.3283582,23 Z" id="Path" fill="#90BC42"></path>
                <path d="M75.2822264,40.8834979 C69.0063563,32.0124086 59.1416279,26.9247569 48.2182216,26.9247569 L42.785484,26.9247569 L42.785484,26.7867489 C42.785484,21.187458 45.5813124,15.9708608 50.264077,12.8316329 C51.1599216,12.2311818 51.3952993,11.0240652 50.790415,10.1354286 C50.1855308,9.24679205 48.9689775,9.01324012 48.072872,9.6131734 C45.3691593,11.4256606 43.1769104,13.8010546 41.6112048,16.5241872 C38.6191413,6.96305812 29.6205091,0 19.0133753,0 C17.9325166,0 17.0562433,0.869476022 17.0562433,1.94195061 C17.0562433,14.287578 26.711689,24.4372476 38.9231492,25.3476341 C38.8897474,25.8248361 38.8712199,26.3043684 38.8712199,26.7870079 L38.8712199,26.9250158 L33.4358728,26.9250158 C22.5137712,26.9250158 12.6503476,32.0124086 6.3747385,40.88298 C0.0988684106,49.7538105 -1.37185108,60.6877692 2.33965413,70.8811974 L2.33965413,70.8811974 L8.99833925,89.1647919 C11.1370931,95.0369917 15.4667911,99.705182 21.1897062,102.308949 C24.1650688,103.663136 27.4976732,104.215427 30.8263634,103.908599 C32.4484345,103.759716 34.0608503,103.407576 35.6189884,102.862017 C37.2979467,102.273994 39.0504932,101.975711 40.828352,101.975711 C41.6678311,101.975711 42.5067884,102.042255 43.3206944,102.173531 C44.2525502,102.324485 45.1661394,102.555966 46.0358889,102.86124 C48.1996941,103.621449 50.4271713,104 52.6327287,104 C55.3296566,104 57.9939657,103.433986 60.4683025,102.307914 C62.3554997,101.446982 64.1119605,100.346544 65.6904527,99.0358564 C65.7118507,99.019544 65.7329877,99.0027138 65.7536028,98.9853657 C67.5434653,97.4921351 69.0898606,95.7487813 70.3492098,93.8045003 C71.289677,92.3526981 72.0667889,90.7913698 72.6583647,89.164533 L79.3170498,70.8809385 C83.028555,60.6877692 81.5578355,49.7543283 75.2822264,40.8834979 Z M26.7526583,15.793237 C23.5147791,12.5804739 21.5401633,8.44826195 21.0764535,3.99032012 C30.3185529,4.94653661 37.6844151,12.255003 38.6478459,21.4256706 C34.1547927,20.9652988 29.9902766,19.0057412 26.7526583,15.793237 Z M75.6358149,69.5614478 L68.9768688,87.8458191 C68.4844544,89.1994881 67.8383399,90.4980058 67.0565309,91.7048633 C66.0229042,93.3006289 64.7565093,94.7337884 63.2915307,95.9652441 C63.2706547,95.9812975 63.2500395,95.9976099 63.2299463,96.0146991 C61.9048374,97.1231645 60.4255066,98.0534883 58.8350106,98.779001 C55.2688551,100.401954 51.1870605,100.551872 47.3419484,99.2005338 C46.2530001,98.8183579 45.1121226,98.5291367 43.9498471,98.340897 C42.9277023,98.1759606 41.8773747,98.0925862 40.828352,98.0925862 C38.6055719,98.0925862 36.4143668,98.4651818 34.3163213,99.2002749 C33.0621911,99.6391557 31.7665697,99.9224216 30.4644245,100.041787 C27.8168162,100.286214 25.1739051,99.8499221 22.8211715,98.77926 C18.0601216,96.6130788 14.4584767,92.7299543 12.6793132,87.8453012 L6.02062808,69.5617067 L6.02062808,69.5617067 C2.7483033,60.5748771 4.04522947,50.9352932 9.57791128,43.1144108 C15.1105931,35.2940462 23.8062612,30.808917 33.4353509,30.808917 L48.2176997,30.808917 C57.8483551,30.808917 66.545067,35.2943051 72.0780098,43.1151875 C77.6112135,50.9355521 78.9078787,60.5748771 75.6358149,69.5614478 Z" id="Shape" fill="#333333"></path>
            </g>
            <g id="banana">
                <path d="M101,82.0441433 C109.073824,81.2647986 113.259577,90.9993109 106.92931,95.8738643 C105.501658,96.9742874 104.025406,98.0163326 102.50359,99 L101,82.0441433 Z" id="Path" fill="#B27214"></path>
                <path d="M16.541537,4.94567864 C21.6214879,-1.12664569 31.7661804,2.88854765 30.9539966,10.6304698 C30.7319389,12.72548 30.6193891,14.849628 30.6193891,17 L12,11.0966751 C13.3871004,8.95795819 14.9050019,6.90374099 16.541537,4.94567864 Z" id="Path" fill="#B27214"></path>
                <path d="M100.529237,81.866796 L102,99.1167202 C91.7729974,105.991152 79.4601854,110 66.2114333,110 C30.6486808,110 2,81.3679171 2,45.8257681 C2,33.4102176 5.52686,21.8201927 11.6357262,12 L29.8226765,18.0162414 C29.8226765,53.4336707 58.5961493,82.1934428 94.0370811,82.1904733 C96.229855,82.1904733 98.3958878,82.0806012 100.529237,81.866796 Z" id="Path" fill="#F7B239"></path>
                <path d="M15.7945129,45.8257681 C15.7945129,34.9926732 18.4761035,24.7885219 23.2112366,15.8398824 L11.6209741,12 C5.52146045,21.8201927 2,33.4102176 2,45.8257681 C2,81.3679171 30.6048202,110 66.113127,110 C68.4399016,110 70.7370092,109.873499 73,109.631483 C40.7621718,106.201394 15.7945129,79.0309072 15.7945129,45.8257681 Z" id="Path" fill="#E09B2D"></path>
                <path d="M74.7695679,88 C74.5642805,88 74.3551254,87.9714637 74.1480529,87.9117158 C62.383599,84.5099483 51.5289549,78.0794663 42.7572338,69.3155454 C32.8974897,59.4645689 26.0846266,47.1559017 23.0550016,33.7197524 C22.7842602,32.5185516 23.5393607,31.3253766 24.7413332,31.054876 C25.9439006,30.7846727 27.1378401,31.5385073 27.4085814,32.7397081 C30.2525553,45.3515738 36.6509759,56.9090818 45.912709,66.162579 C54.153063,74.3956053 64.3457298,80.4351992 75.3884052,83.6282948 C76.572229,83.9704334 77.2541401,85.2067102 76.9113995,86.3894813 C76.6293525,87.3653641 75.7373937,88 74.7695679,88 Z" id="Path" fill="#FFFFFF"></path>
                <circle id="Oval" fill="#FFFFFF" cx="23" cy="24" r="2"></circle>
                <g id="Group" fill="#333333">
                    <path d="M111.000318,85.4747162 C109.252286,81.1958408 105.135618,78.7294642 100.523119,79.194992 C98.4548329,79.4029496 96.345252,79.5081167 94.2526048,79.5081167 C77.7101751,79.5081167 62.1498992,73.0584615 50.4383236,61.3465889 C38.7264509,49.6347162 32.2767958,34.0744403 32.2770928,17.5320106 C32.2770928,15.4405517 32.382557,13.3312679 32.5905146,11.2620902 C33.054557,6.64543236 30.5893687,2.53292308 26.3104934,0.785188329 C22.0550875,-0.953039788 17.4428859,0.250143236 14.5591088,3.84959151 C5.17071618,15.5682971 0,30.3080318 0,45.3537613 C0,63.1457188 6.89676393,79.8411459 19.4202653,92.3646472 C31.9434695,104.888149 48.6388966,111.78521 66.4308541,111.78521 C81.4768806,111.78521 96.2169125,106.61479 107.935618,97.2261008 C111.535363,94.3423236 112.738249,89.7295279 111.000318,85.4747162 Z M18.0367533,6.63592573 C19.3106419,5.04594164 20.9035968,4.46692838 22.3833634,4.46692838 C23.1872679,4.46692838 23.9576021,4.63804775 24.6251459,4.91047215 C26.540435,5.69298674 28.4738462,7.65521485 28.1562653,10.8164668 C28.0347586,12.0252944 27.9491989,13.2471936 27.8933475,14.4714695 L15.3101326,10.3069708 C16.1707798,9.05803714 17.078069,7.83287003 18.0367533,6.63592573 Z M22.5714164,89.213496 C10.8895491,77.5319257 4.45623342,61.9556074 4.45623342,45.3537613 C4.45623342,34.2108011 7.33228647,23.5895172 12.8398939,14.1832997 L27.8404668,19.1478408 C28.2468753,36.2758196 35.1160106,52.3259841 47.2871724,64.497443 C59.840679,77.0509496 76.5197666,83.9643501 94.2526048,83.9640531 C95.7380159,83.9640531 97.230557,83.909687 98.7141857,83.8113528 L99.882313,97.5421963 C89.9270875,103.963332 78.4843714,107.328679 66.4311512,107.328679 C49.829305,107.328976 34.2529867,100.895363 22.5714164,89.213496 Z M105.149284,93.7484562 C104.802292,94.0265252 104.452923,94.300435 104.101475,94.5701857 L103.184976,83.7988753 C105.06818,84.3152042 106.29513,85.7409019 106.874737,87.1597666 C107.649231,89.0560424 107.602886,91.7826631 105.149284,93.7484562 Z" id="Shape"></path>
                    <path d="M84.3054005,94.354504 C82.6182706,94.4920531 80.8996499,94.5618674 79.1979629,94.5618674 C62.5964138,94.5618674 47.0200955,88.1282546 35.3382281,76.4463873 C23.6566578,64.7645199 17.2233422,49.1882016 17.2233422,32.5863554 C17.2233422,30.1303767 17.3683183,27.6577613 17.6544085,25.2365411 C17.7987905,24.0146419 16.9250716,22.9068223 15.7031724,22.7624403 C14.4818674,22.6189496 13.3734536,23.4917772 13.2290716,24.7136764 C12.9224828,27.3075013 12.7671088,29.9562865 12.7671088,32.5863554 C12.7671088,50.378313 19.6638727,67.0737401 32.187374,79.5972414 C44.7108753,92.1207427 61.4063024,99.0178037 79.1979629,99.0178037 C81.0205623,99.0178037 82.8606897,98.9432361 84.6681379,98.7955862 C85.8944934,98.6954695 86.8074271,97.6200318 86.7076074,96.3936764 C86.6071936,95.167618 85.5308647,94.2543873 84.3054005,94.354504 Z" id="Path"></path>
                </g>
            </g>
        </g>
    </g>
</svg>