<?xml version="1.0" encoding="UTF-8"?>
<svg width="128px" height="128px" viewBox="0 0 128 128" version="1.1" xmlns="http://www.w3.org/2000/svg" xmlns:xlink="http://www.w3.org/1999/xlink">
    <!-- Generator: Sketch 53 (72520) - https://sketchapp.com -->
    <title>Honey</title>
    <desc>Created with Sketch.</desc>
    <g id="Honey" stroke="none" stroke-width="1" fill="none" fill-rule="evenodd">
        <g id="honey" transform="translate(10.368957, 2.000000)" fill-rule="nonzero">
            <path d="M68.129443,86 C71.1666848,86 73.6310433,88.4618743 73.6310433,91.5 C73.6310433,94.5381257 71.1666848,97 68.129443,97 C65.0954017,97 62.6310433,94.5381257 62.6310433,91.5 C62.6310433,88.4618743 65.0954017,86 68.129443,86 Z" id="Path" fill="#E09B2D"></path>
            <path d="M31.6294488,70 C34.9427626,70 37.6310433,72.6875664 37.6310433,76 C37.6310433,79.3124336 34.9427626,82 31.6294488,82 C28.3161349,82 25.6310433,79.3124336 25.6310433,76 C25.6310433,72.6875664 28.3161349,70 31.6294488,70 Z" id="Path" fill="#E09B2D"></path>
            <polygon id="Path" fill="#F95428" points="99.6310433 2 99.6310433 21 92.4745448 21 67.9268174 21 53.0981775 21 16.7906669 21 9.63104326 21 9.63104326 2"></polygon>
            <polygon id="Path" fill="#E54728" points="30.6310433 2 30.6310433 21 28.9612977 21 23.233323 21 19.773373 21 11.3017154 21 9.63104326 21 9.63104326 2"></polygon>
            <path d="M95.6310433,46.2769379 L95.6310433,59 L12.6310433,59 L12.6310433,46.2769379 C12.6310433,44.3149995 14.2373737,42.7199528 16.2163226,42.7199528 L19.5698896,42.7199528 C22.8107316,42.7199528 25.437849,40.1112898 25.437849,36.8932133 L25.437849,30 L52.5951659,30 L52.5951659,42.0607913 C52.5951659,45.7950038 55.6450018,48.8234159 59.4056311,48.8234159 L60.6424742,48.8234159 C64.4031035,48.8234159 67.4529394,45.7950038 67.4529394,42.0607913 L67.4529394,30 L82.8242375,30 L82.8242375,36.8932133 C82.8242375,40.1112898 85.4513549,42.7199528 88.6921969,42.7199528 L92.0488951,42.7199528 C94.0247129,42.7199528 95.6310433,44.3149995 95.6310433,46.2769379 Z" id="Path" fill="#A3E3E5"></path>
            <path d="M104.631043,46.8933776 L104.631043,109.053311 C104.631043,116.204062 98.9231202,122 91.8809584,122 L16.3842455,122 C9.34208372,122 3.63104326,116.204062 3.63104326,109.053311 L3.63104326,46.8933776 C3.63104326,39.7457925 9.34208372,33.9466888 16.3842455,33.9466888 L16.3842455,21 L52.6019683,21 L52.6019683,30.322249 L25.5649301,30.322249 L25.5649301,37.3400508 C25.5649301,40.6162911 22.9494481,43.2721033 19.7229597,43.2721033 L16.3842455,43.2721033 C14.4140613,43.2721033 12.8148452,44.8959789 12.8148452,46.8933776 L12.8148452,59.8463973 L12.8148452,109.053311 C12.8148452,111.05071 14.4140613,112.677751 16.3842455,112.677751 L91.8809584,112.677751 C93.8480253,112.677751 95.4472413,111.05071 95.4472413,109.053311 L95.4472413,59.8463973 L95.4472413,46.8933776 C95.4472413,44.8959789 93.8480253,43.2721033 91.8809584,43.2721033 L88.5391268,43.2721033 C85.3126384,43.2721033 82.6971564,40.6162911 82.6971564,37.3400508 L82.6971564,30.322249 L67.3939372,30.322249 L67.3939372,21 L91.8809584,21 L91.8809584,33.9466888 C98.9231202,33.9466888 104.631043,39.7457925 104.631043,46.8933776 Z" id="Path" fill="#99E2FF"></path>
            <path d="M95.6310433,60 L95.6310433,109.36399 C95.6310433,111.367765 94.0247129,113 92.0488951,113 L16.2163226,113 C14.2373737,113 12.6310433,111.367765 12.6310433,109.36399 L12.6310433,60 L95.6310433,60 Z M73.6027111,91.9556022 C73.6027111,88.9420012 71.1916499,86.5 68.2200952,86.5 C65.2516718,86.5 62.8406105,88.9420012 62.8406105,91.9556022 C62.8406105,94.9692031 65.2516718,97.4112043 68.2200952,97.4112043 C71.1916499,97.4112043 73.6027111,94.9692031 73.6027111,91.9556022 Z M37.2238678,76.3668065 C37.2238678,73.0674056 34.5842254,70.3904134 31.3308584,70.3904134 C28.0774914,70.3904134 25.4409803,73.0674056 25.4409803,76.3668065 C25.4409803,79.6662073 28.0774914,82.3431995 31.3308584,82.3431995 C34.5842254,82.3431995 37.2238678,79.6662073 37.2238678,76.3668065 Z" id="Shape" fill="#F7B239"></path>
            <path d="M67.6310433,30.1632404 L67.6310433,42.2325814 C67.6310433,45.969441 64.5520127,49 60.7553847,49 L59.5067018,49 C55.7100738,49 52.6310433,45.969441 52.6310433,42.2325814 L52.6310433,30.1632404 L52.6310433,21 L67.6310433,21 L67.6310433,30.1632404 Z" id="Path" fill="#F7B239"></path>
            <path d="M24.6310433,113 L17.7371149,113 C14.9170837,113 12.6310433,110.692427 12.6310433,107.845834 L12.6310433,60 L24.6310433,60 L24.6310433,113 Z" id="Path" fill="#E09B2D"></path>
            <g id="Group" transform="translate(0.631043, 0.000000)" fill="#333333">
                <path d="M93.2432118,31.6761628 L93.2432118,23.3189415 L98.0447,23.3189415 C99.3363412,23.3189415 100.382935,22.2594198 100.382935,20.9525293 L100.382935,2.36641221 C100.382935,1.05952163 99.3363412,0 98.0447,0 L8.26114118,0 C6.96981176,0 5.92290588,1.05952163 5.92290588,2.36641221 L5.92290588,20.9525293 C5.92290588,22.2594198 6.96981176,23.3189415 8.26114118,23.3189415 L13.0629412,23.3189415 L13.0629412,31.6761628 C5.84901765,32.8170891 0.311452941,39.1489771 0.311452941,46.7647226 L0.311452941,108.722443 C0.311452941,117.143084 7.08048824,123.994005 15.4011765,123.994005 L90.9049765,123.994005 C99.2253529,123.994005 105.994388,117.143399 105.994388,108.722443 L105.994388,46.7647226 C105.994388,39.1489771 100.456824,32.8170891 93.2432118,31.6761628 Z M10.5993765,4.73282443 L95.7064647,4.73282443 L95.7064647,18.586117 L10.5993765,18.586117 L10.5993765,4.73282443 Z M87.5625471,45.5190433 L90.9046647,45.5190433 C91.5827529,45.5190433 92.1339529,46.077201 92.1339529,46.763145 L92.1339529,57.3072468 L14.1712647,57.3072468 L14.1712647,46.763145 C14.1712647,46.077201 14.7227765,45.5190433 15.4008647,45.5190433 L18.7429824,45.5190433 C23.2529706,45.5190433 26.9221294,41.8056692 26.9221294,37.2413333 L26.9221294,32.611369 L49.2843882,32.611369 L49.2843882,42.4859338 C49.2843882,47.5746667 53.3750529,51.714626 58.4031941,51.714626 L59.6359118,51.714626 C64.6640529,51.714626 68.7547176,47.5746667 68.7547176,42.4859338 L68.7547176,32.611369 L79.3837118,32.611369 L79.3837118,37.2413333 C79.3837118,41.8056692 83.0525588,45.5190433 87.5625471,45.5190433 Z M14.1712647,62.0400712 L92.1339529,62.0400712 L92.1339529,108.723705 C92.1339529,109.409649 91.5824412,109.967807 90.9046647,109.967807 L15.4008647,109.967807 C14.7227765,109.967807 14.1712647,109.409649 14.1712647,108.723705 L14.1712647,62.0400712 Z M64.0782471,42.4856183 C64.0782471,44.9646718 62.0854471,46.981486 59.6359118,46.981486 L58.4031941,46.981486 C55.9539706,46.981486 53.9608588,44.9646718 53.9608588,42.4856183 L53.9608588,23.3189415 L64.0782471,23.3189415 L64.0782471,42.4856183 Z M101.317918,108.722443 C101.317918,114.533405 96.6467471,119.261181 90.9049765,119.261181 L15.4011765,119.261181 C9.65940588,119.261181 4.98792353,114.53372 4.98792353,108.722443 L4.98792353,46.7647226 C4.98792353,40.9537608 9.65909412,36.2259847 15.4011765,36.2259847 C16.6925059,36.2259847 17.7394118,35.1664631 17.7394118,33.8595725 L17.7394118,23.3189415 L49.2843882,23.3189415 L49.2843882,27.8785445 L24.5838941,27.8785445 C23.2925647,27.8785445 22.2456588,28.9380662 22.2456588,30.2449567 L22.2456588,37.2413333 C22.2456588,39.1959898 20.6743647,40.7862188 18.7429824,40.7862188 L15.4008647,40.7862188 C12.1441706,40.7862188 9.49479412,43.4675216 9.49479412,46.763145 L9.49479412,108.723705 C9.49479412,112.019328 12.1441706,114.700631 15.4008647,114.700631 L90.9046647,114.700631 C94.1610471,114.700631 96.8104235,112.019328 96.8104235,108.723705 L96.8104235,46.763145 C96.8104235,43.4675216 94.1610471,40.7862188 90.9046647,40.7862188 L87.5625471,40.7862188 C85.6314765,40.7862188 84.0601824,39.1959898 84.0601824,37.2413333 L84.0601824,30.2446412 C84.0601824,28.9377506 83.0135882,27.878229 81.7219471,27.878229 L68.7547176,27.878229 L68.7547176,23.3189415 L88.5667412,23.3189415 L88.5667412,33.8595725 C88.5667412,35.1664631 89.6133353,36.2259847 90.9049765,36.2259847 C96.6467471,36.2259847 101.317918,40.9534453 101.317918,46.7647226 L101.317918,108.722443 L101.317918,108.722443 Z" id="Shape"></path>
                <path d="M30.4519294,84.240173 C34.9759471,84.240173 38.6566412,80.5151247 38.6566412,75.9365903 C38.6566412,71.358056 34.9759471,67.6330076 30.4519294,67.6330076 C25.9279118,67.6330076 22.2472176,71.358056 22.2472176,75.9365903 C22.2472176,80.5151247 25.9279118,84.240173 30.4519294,84.240173 Z M30.4519294,72.3658321 C32.3973412,72.3658321 33.9801706,73.9677354 33.9801706,75.9365903 C33.9801706,77.9054453 32.3973412,79.5073486 30.4519294,79.5073486 C28.5065176,79.5073486 26.9236882,77.9054453 26.9236882,75.9365903 C26.9236882,73.9677354 28.5065176,72.3658321 30.4519294,72.3658321 Z" id="Shape"></path>
                <path d="M67.1818647,99.2123053 C71.4246706,99.2123053 74.8765294,95.7188499 74.8765294,91.424916 C74.8765294,87.1309822 71.4249824,83.6375267 67.1818647,83.6375267 C62.9387471,83.6375267 59.4868882,87.1309822 59.4868882,91.424916 C59.4868882,95.7191654 62.9390588,99.2123053 67.1818647,99.2123053 Z M67.1818647,88.3706667 C68.8460647,88.3706667 70.2000588,89.7409771 70.2000588,91.4252316 C70.2000588,93.109486 68.8460647,94.4797964 67.1818647,94.4797964 C65.5173529,94.4797964 64.1633588,93.109486 64.1633588,91.4252316 C64.1633588,89.7406616 65.5173529,88.3706667 67.1818647,88.3706667 Z" id="Shape"></path>
                <ellipse id="Oval" cx="62.8467765" cy="74.1283359" rx="2.33823529" ry="2.36641221"></ellipse>
            </g>
            <path d="M87.1310433,98 C85.7500433,98 84.6310433,96.9373418 84.6310433,95.6265823 L84.6310433,50.3734177 C84.6310433,49.0626582 85.7500433,48 87.1310433,48 C88.5120433,48 89.6310433,49.0626582 89.6310433,50.3734177 L89.6310433,95.6265823 C89.6310433,96.9373418 88.5117099,98 87.1310433,98 Z" id="Path" fill="#FFFFFF"></path>
            <path d="M92.1310433,17 C90.7500433,17 89.6310433,15.9206429 89.6310433,14.5892857 L89.6310433,10.4107143 C89.6310433,9.07935714 90.7500433,8 92.1310433,8 C93.5120433,8 94.6310433,9.07935714 94.6310433,10.4107143 L94.6310433,14.5892857 C94.6310433,15.9206429 93.5117099,17 92.1310433,17 Z" id="Path" fill="#FFFFFF"></path>
            <path d="M62.1310433,35 C60.7500433,35 59.6310433,33.971166 59.6310433,32.7021277 L59.6310433,28.2978723 C59.6310433,27.028834 60.7500433,26 62.1310433,26 C63.5120433,26 64.6310433,27.028834 64.6310433,28.2978723 L64.6310433,32.7021277 C64.6310433,33.971166 63.5117099,35 62.1310433,35 Z" id="Path" fill="#FFFFFF"></path>
            <circle id="Oval" fill="#FFFFFF" cx="62.1310433" cy="40.5" r="2.5"></circle>
            <circle id="Oval" fill="#FFFFFF" cx="87.1310433" cy="103.5" r="2.5"></circle>
        </g>
    </g>
</svg>