<?xml version="1.0" encoding="UTF-8"?>
<svg width="128px" height="128px" viewBox="0 0 128 128" version="1.1" xmlns="http://www.w3.org/2000/svg" xmlns:xlink="http://www.w3.org/1999/xlink">
    <!-- Generator: Sketch 53 (72520) - https://sketchapp.com -->
    <title>Jam</title>
    <desc>Created with Sketch.</desc>
    <g id="Jam" stroke="none" stroke-width="1" fill="none" fill-rule="evenodd">
        <g id="jam" transform="translate(9.311705, 4.000000)" fill-rule="nonzero">
            <path d="M69.6898712,83 C73.002716,83 75.6882952,85.6855792 75.6882952,89.001576 C75.6882952,92.3144208 73.002716,95 69.6898712,95 C66.3738744,95 63.6882952,92.3144208 63.6882952,89.001576 C63.6882952,85.6855792 66.3738744,83 69.6898712,83 Z" id="Path" fill="#BC3987"></path>
            <path d="M41.6882952,70 C43.8996999,70 45.6882952,71.7907543 45.6882952,74.0013903 C45.6882952,76.2092457 43.8996999,78 41.6882952,78 C39.4796721,78 37.6882952,76.2092457 37.6882952,74.0013903 C37.6882952,71.7907543 39.4796721,70 41.6882952,70 Z" id="Path" fill="#BC3987"></path>
            <path d="M104.688295,27.4129833 L103.310323,29.2918222 C101.884213,31.2399133 100.217408,32.9350837 98.3730925,34.3532458 C97.3170486,35.166205 96.2008313,35.8918463 95.0394839,36.5211369 C88.8055154,39.8994339 81.2597659,40.5648561 74.3007074,37.9513429 C68.2322159,42.6514513 60.9572468,45 53.6882952,45 C46.4163348,45 39.1443745,42.6514513 33.0758829,37.9513429 C30.5816938,38.8877514 28.0092792,39.4056365 25.4519079,39.5260749 C25.0607806,39.5441407 24.6726619,39.5531736 24.2815345,39.5531736 C21.194637,39.5531736 18.1468522,38.9810912 15.2886137,37.8820908 C13.6308354,37.2437673 12.0362392,36.4308081 10.5379206,35.4462243 C8.07983549,33.8353607 5.87748754,31.7698422 4.06325829,29.2918222 L2.68829517,27.4129833 L18.1558782,20 L89.2177035,20 L91.5975631,21.1411538 L104.688295,27.4129833 Z" id="Path" fill="#9AD14B"></path>
            <path d="M105.688295,45.440367 L105.688295,105.492355 C105.688295,112.400612 100.149743,118 93.3165438,118 L20.0600465,118 C13.2268469,118 7.68829517,112.400612 7.68829517,105.492355 L7.68829517,45.440367 C7.68829517,41.733945 9.28240591,38.4036697 11.8172537,36.1131498 L11.8202786,36.1100917 C13.3266679,37.1100917 14.9298533,37.9357798 16.5965611,38.5840979 L16.5965611,53.058104 L16.5965611,105.492355 C16.5965611,107.422018 18.1483236,108.990826 20.0600465,108.990826 L93.3165438,108.990826 C95.2282668,108.990826 96.7770043,107.422018 96.7770043,105.492355 L96.7770043,66.7859327 L96.7770043,53.058104 L96.7770043,37.2018349 C97.9446073,36.5626911 99.0668371,35.8256881 100.128569,35 C103.480134,37.235474 105.688295,41.0764526 105.688295,45.440367 Z" id="Path" fill="#A3E3E5"></path>
            <path d="M98.6882952,7.47028862 L98.6882952,14.5266553 C98.6882952,17.5490662 96.0433941,20 92.7832594,20 L92.2072319,20 L89.821694,20 L18.5903151,20 C15.3301804,20 12.6882952,17.5490662 12.6882952,14.5266553 L12.6882952,7.47028862 C12.6882952,4.44787776 15.3301804,2 18.5903151,2 L92.7832594,2 C96.0433941,2 98.6882952,4.44787776 98.6882952,7.47028862 Z" id="Path" fill="#9AD14B"></path>
            <path d="M33.9177035,14.5266553 L33.9177035,7.47028862 C33.9177035,4.44787776 36.5007583,2 39.6882952,2 L18.4588869,2 C15.27135,2 12.6882952,4.44787776 12.6882952,7.47028862 L12.6882952,14.5266553 C12.6882952,17.5490662 15.27135,20 18.4588869,20 L39.6882952,20 C36.5007583,19.9996944 33.9177035,17.5490662 33.9177035,14.5266553 Z" id="Path" fill="#90BC42"></path>
            <path d="M95.6882952,66.7443412 L95.6882952,105.497321 C95.6882952,107.429306 94.143043,109 92.2356223,109 L19.1439861,109 C17.2365654,109 15.6882952,107.429306 15.6882952,105.497321 L15.6882952,53 L55.6898042,53 L95.6882952,53 L95.6882952,66.7443412 L95.6882952,66.7443412 Z M75.572854,89.2790596 C75.572854,86.0580645 73.0014577,83.4494259 69.8294654,83.4494259 C66.654455,83.4494259 64.0830588,86.0580645 64.0830588,89.2790596 C64.0830588,92.4969929 66.654455,95.1056315 69.8294654,95.1056315 C73.0014577,95.1056315 75.572854,92.4969929 75.572854,89.2790596 Z M45.7120625,74.2793876 C45.7120625,71.8452706 43.771443,69.8734828 41.3720768,69.8734828 C38.9757287,69.8734828 37.0320911,71.8452706 37.0320911,74.2793876 C37.0320911,76.7104429 38.9757287,78.6822307 41.3720768,78.6822307 C43.771443,78.6822307 45.7120625,76.7104429 45.7120625,74.2793876 Z" id="Shape" fill="#D64394"></path>
            <path d="M95.6882952,37 L95.6882952,53 L55.6898042,53 L15.6882952,53 L15.6882952,38.3947927 C18.5554623,39.5211186 21.6127679,40.1074253 24.7093085,40.1074253 C27.6609816,40.1074253 30.6458535,39.5735776 33.5311291,38.4657666 C39.6185777,43.2827387 46.9132546,45.6896818 54.2079315,45.6896818 C61.4995903,45.6896818 68.7972852,43.2827387 74.8847338,38.4657666 C81.8655314,41.1442623 89.4348527,40.4622951 95.6882952,37 Z" id="Path" fill="#A3E3E5"></path>
            <path d="M25.6882952,109 L19.8181088,109 C18.0897682,109 16.6882952,107.484869 16.6882952,105.615672 L16.6882952,52 L25.6880094,52 L25.6880094,109 L25.6882952,109 Z" id="Path" fill="#BC3987"></path>
            <path d="M30.6882952,20.4681244 L26.3736922,39.9722821 C25.9839087,39.9907607 25.5971236,40 25.2073401,40 C22.1310492,40 19.0937366,39.4148445 16.245319,38.2907299 C14.5932369,37.6378195 13.0041197,36.8062827 11.5109492,35.7991993 C9.06131016,34.1515245 6.86652948,32.0388051 5.05853392,29.5041577 L3.68829517,27.5823837 L19.1027316,20 L29.7258299,20 L30.6882952,20.4681244 Z" id="Path" fill="#90BC42"></path>
            <path d="M92.6882952,17 C91.5834952,17 90.6882952,15.8809661 90.6882952,14.4999242 L90.6882952,8.50007576 C90.6882952,7.11903391 91.5834952,6 92.6882952,6 C93.7930952,6 94.6882952,7.11903391 94.6882952,8.50007576 L94.6882952,14.4999242 C94.6882952,15.8806327 93.7930952,17 92.6882952,17 Z" id="Path" fill="#FFFFFF"></path>
            <path d="M93.603113,31 C93.290077,31 92.9723191,30.9297361 92.6728933,30.7820723 L86.8402024,27.9001562 C85.8113778,27.3915667 85.3941816,26.155362 85.9085939,25.1381828 C86.4230062,24.1212782 87.6740391,23.7095759 88.703697,24.2176165 L94.536388,27.0995325 C95.5652126,27.6081221 95.9824087,28.8443268 95.4679964,29.8615059 C95.1030192,30.5828083 94.3672319,31 93.603113,31 Z" id="Path" fill="#FFFFFF"></path>
            <g id="Group" transform="translate(0.688295, 0.000000)" fill="#333333">
                <path d="M40.6795915,80.7648855 C44.3163859,80.7648855 47.2756141,77.7673282 47.2756141,74.0827481 C47.2756141,70.3981679 44.3166873,67.4006107 40.6795915,67.4006107 C37.0424958,67.4006107 34.083569,70.3981679 34.083569,74.0827481 C34.083569,77.7673282 37.0424958,80.7648855 40.6795915,80.7648855 Z M40.6795915,71.9807634 C41.823738,71.9807634 42.7544873,72.9236641 42.7544873,74.0827481 C42.7544873,75.2418321 41.823738,76.1847328 40.6795915,76.1847328 C39.5354451,76.1847328 38.6046958,75.2418321 38.6046958,74.0827481 C38.6046958,72.9236641 39.5354451,71.9807634 40.6795915,71.9807634 Z" id="Shape"></path>
                <path d="M61.1009183,89.0412214 C61.1009183,93.5083969 64.6882817,97.1425954 69.0978873,97.1425954 C73.5077944,97.1425954 77.0951577,93.5083969 77.0951577,89.0412214 C77.0951577,84.5737405 73.5077944,80.939542 69.0978873,80.939542 C64.6882817,80.939542 61.1009183,84.5737405 61.1009183,89.0412214 Z M69.0978873,85.5196947 C71.0145437,85.5196947 72.574031,87.099542 72.574031,89.0412214 C72.574031,90.9829008 71.0145437,92.5624427 69.0978873,92.5624427 C67.1815324,92.5624427 65.6220451,90.9829008 65.6220451,89.0412214 C65.6220451,87.099542 67.1815324,85.5196947 69.0978873,85.5196947 Z" id="Shape"></path>
                <path d="M105.033913,31.0531298 L106.412555,29.1462595 C106.809811,28.5966412 106.945144,27.8961832 106.781479,27.2351145 C106.617513,26.5743511 106.17173,26.0216794 105.565296,25.7273282 L96.479338,21.3203053 C98.7239268,19.9364885 100.213186,17.5352672 100.213186,14.8082443 L100.213186,7.7578626 C100.212885,3.48 96.5516761,0 92.0513465,0 L17.9027577,0 C13.4027296,0 9.74121972,3.48 9.74121972,7.7578626 L9.74121972,14.8085496 C9.74121972,17.0299237 10.7301408,19.0348092 12.3095211,20.450687 L1.42958028,25.7276336 C0.823146479,26.0219847 0.37736338,26.5743511 0.213397183,27.2354198 C0.0497323944,27.8961832 0.18476338,28.5966412 0.582321127,29.1462595 L1.96066197,31.0534351 C3.39687324,33.04 5.06577183,34.7825954 6.90376056,36.2726718 C4.96992394,38.8326718 3.89178592,41.9865649 3.89178592,45.2558779 L3.89178592,105.216183 C3.89178592,113.365191 10.4359662,119.994809 18.4799549,119.994809 L91.4750535,119.994809 C99.5190423,119.994809 106.063223,113.365191 106.063223,105.216183 L106.063223,45.2558779 C106.063223,41.2778626 104.4962,37.5383206 101.775386,34.7948092 C102.957208,33.6635115 104.049513,32.4146565 105.033913,31.0531298 Z M14.2623465,7.7578626 C14.2623465,6.00580153 15.8953775,4.58015267 17.9027577,4.58015267 L92.0513465,4.58015267 C94.0587268,4.58015267 95.6917577,6.00580153 95.6917577,7.7578626 L95.6917577,14.8085496 C95.6917577,16.560916 94.0587268,17.9865649 92.0513465,17.9865649 L17.9027577,17.9865649 C15.8953775,17.9865649 14.2623465,16.560916 14.2623465,14.8085496 L14.2623465,7.7578626 Z M18.4160563,22.5667176 L88.5788197,22.5667176 L101.152073,28.6653435 C95.0829127,36.7636641 84.3645268,39.9187786 74.9409915,36.3361832 C74.2067606,36.0567939 73.3833127,36.1832061 72.7633155,36.6690076 C61.4192056,45.5587786 45.5747662,45.5587786 34.2312592,36.6690076 C33.611262,36.1832061 32.7878141,36.0567939 32.0535831,36.3361832 C22.6309521,39.9181679 11.9119634,36.7636641 5.8422,28.6653435 L18.4160563,22.5667176 Z M17.2893915,55.1514504 L92.6626028,55.1514504 L92.6626028,105.215878 C92.6626028,105.879389 92.1297127,106.418931 91.4750535,106.418931 L18.4802563,106.418931 C17.8237887,106.418931 17.289693,105.879084 17.289693,105.215878 L17.2893915,55.1514504 L17.2893915,55.1514504 Z M92.6629042,50.5712977 L17.2893915,50.5712977 L17.2893915,41.5071756 C22.1948141,42.7743511 27.4519803,42.6836641 32.4583746,41.0427481 C38.7379183,45.6259542 46.1160958,47.9169466 53.4972873,47.9163359 C60.876369,47.9157252 68.2581634,45.6247328 74.5362,41.0427481 C77.283538,41.9432061 80.1056254,42.378626 82.905107,42.3783206 C86.2489324,42.3780153 89.5577944,41.7538931 92.6629042,40.5630534 L92.6629042,50.5712977 L92.6629042,50.5712977 Z M101.542397,45.2555725 L101.542397,105.215878 C101.542397,110.839389 97.0263944,115.414351 91.4753549,115.414351 L18.4802563,115.414351 C12.9292169,115.414351 8.41321408,110.839389 8.41321408,105.215878 L8.41321408,45.2555725 C8.41321408,42.9047328 9.21857746,40.6378626 10.6611183,38.8338931 C11.3492338,39.2229008 12.0521183,39.5822901 12.7685662,39.9090076 L12.7685662,105.215878 C12.7685662,108.40458 15.3308394,110.999084 18.4802563,110.999084 L91.4753549,110.999084 C94.6229634,110.999084 97.184031,108.40458 97.184031,105.215878 L97.184031,38.3334351 C97.5282394,38.1221374 97.8679268,37.9019847 98.2033944,37.6748092 C100.314158,39.5932824 101.542397,42.330687 101.542397,45.2555725 Z" id="Shape"></path>
                <ellipse id="Oval" cx="85.3757521" cy="67.529771" rx="2.26056338" ry="2.29007634"></ellipse>
                <ellipse id="Oval" cx="61.9123099" cy="67.7563359" rx="2.26056338" ry="2.29007634"></ellipse>
                <ellipse id="Oval" cx="30.1257746" cy="94.7548092" rx="2.26056338" ry="2.29007634"></ellipse>
                <ellipse id="Oval" cx="81.2443465" cy="99.8448855" rx="2.26056338" ry="2.29007634"></ellipse>
            </g>
            <path d="M88.6882952,102 C87.5834952,102 86.6882952,100.970472 86.6882952,99.6998927 L86.6882952,58.3001073 C86.6882952,57.029528 87.5834952,56 88.6882952,56 C89.7930952,56 90.6882952,57.029528 90.6882952,58.3001073 L90.6882952,99.6998927 C90.6882952,100.970472 89.7928285,102 88.6882952,102 Z" id="Path" fill="#FFFFFF"></path>
            <circle id="Oval" fill="#FFFFFF" cx="88.6882952" cy="52" r="2"></circle>
        </g>
    </g>
</svg>