<?xml version="1.0" encoding="UTF-8"?>
<svg width="128px" height="128px" viewBox="0 0 128 128" version="1.1" xmlns="http://www.w3.org/2000/svg" xmlns:xlink="http://www.w3.org/1999/xlink">
    <!-- Generator: Sketch 53 (72520) - https://sketchapp.com -->
    <title>Juice</title>
    <desc>Created with Sketch.</desc>
    <g id="Juice" stroke="none" stroke-width="1" fill="none" fill-rule="evenodd">
        <g id="pineapple" transform="translate(74.500000, 65.000000) rotate(-360.000000) translate(-74.500000, -65.000000) translate(47.000000, 5.000000)" fill-rule="nonzero">
            <polygon id="Path" fill="#9AD14B" points="44 10.0026389 38.6762075 30.8590153 33.0330948 32.9025353 27.6610018 22.4138703 26.9203936 23.8580225 22.2352415 33 16.3211091 30.8563155 11 10.0026389 21.950805 16.3337978 24.6824687 9.47886711 27.6610018 2 33.3282648 16.1742364"></polygon>
            <path d="M47,27.9764719 L39.4052992,46 C35.7251182,44.0296071 31.4963717,42.9084769 26.9986685,42.9084769 C25.4381865,42.9084769 23.9123227,43.0431161 22.429066,43.3020376 C19.6356434,43.7888101 16.9966713,44.71316 14.5920378,46 L7,27.9764719 L15.9075295,31.0964764 L19.5956994,32.3884949 L21.776646,33.1523134 L27.1611078,23 L32.4923108,33.0591017 L38.0924705,31.0990656 L47,27.9764719 Z" id="Path" fill="#9AD14B"></path>
            <path d="M53,68.2338155 L53,92.7661845 C53,106.703845 41.5826401,118 27.4986825,118 C13.4173599,118 2,106.703845 2,92.7661845 L2,68.2338155 C2,58.7030109 7.34110049,50.4056046 15.2223198,46.1134831 C18.8638595,44.1290939 23.0482046,43 27.4986825,43 C31.9491604,43 36.1335056,44.1290939 39.7750452,46.1134831 C41.8962025,47.2660455 43.8329114,48.7106599 45.5298373,50.3925666 C50.1463188,54.9584869 53,61.2662889 53,68.2338155 Z" id="Path" fill="#F7B239"></path>
            <path d="M15.3472913,92.7659238 L15.3472913,68.2335547 C15.3472913,58.7027502 20.6521853,50.4053439 28.4799791,46.1132223 C30.2064904,45.1658786 32.0570531,44.4161915 33.9994766,43.8886726 C31.8728082,43.3108268 29.6359592,43 27.3258309,43 C22.9055221,43 18.749542,44.1290939 15.1326878,46.1134831 C7.30489401,50.4056046 2,58.7030109 2,68.2338155 L2,92.7661845 C2,106.703845 13.3399634,118 27.3258309,118 C29.6362209,118 31.8733316,117.690216 34,117.112892 C23.2515048,114.194458 15.3472913,104.401589 15.3472913,92.7659238 Z" id="Path" fill="#E09B2D"></path>
            <polygon id="Path" fill="#90BC42" points="26 23.0605716 21.5857071 32 16.0134839 29.9038108 11 9.51216713 21.3177145 15.7030533 23.8914546 9 24.2706894 9.16632231"></polygon>
            <path d="M23,42.3055595 C20.2842596,42.7916966 17.7186745,43.7148398 15.3809113,45 L8,27 L16.6598205,30.1159316 L20.2454263,31.4062635 L23,42.3055595 Z" id="Path" fill="#90BC42"></path>
            <path d="M42.2610924,44.515253 L49.1387627,27.7316951 C49.4352004,27.0084636 49.2774871,26.1784481 48.7368313,25.6139426 C48.1956479,25.0494371 47.3725323,24.8566984 46.6377678,25.1216811 L41.3314281,27.0332481 L45.6345214,10.2844939 C45.8323224,9.5140665 45.5493351,8.70013447 44.9161084,8.21868326 C44.282618,7.73696839 43.4228433,7.68159886 42.7329136,8.07815013 L34.2163966,12.9717615 L29.4944927,1.23948638 C29.1930441,0.490415799 28.4667191,-5.68434189e-14 27.6594276,-5.68434189e-14 C27.6591638,-5.68434189e-14 27.6586363,-5.68434189e-14 27.6581089,-5.68434189e-14 C26.8502899,0.000527328816 26.1239648,0.491997785 25.8233074,1.2415957 L21.0581511,13.1262689 L12.2707787,8.07788647 C11.580849,7.68186253 10.721338,7.73723205 10.0878476,8.21868326 C9.45462087,8.70013447 9.17163367,9.5140665 9.3694346,10.2842302 L13.6706818,27.0327208 L8.36249598,25.1211538 C7.62667651,24.8561711 6.8043521,25.0497007 6.26369622,25.6139426 C5.72304033,26.1784481 5.56559079,27.0082 5.86176472,27.7314314 L12.7391713,44.515253 C5.08559386,49.4020091 0,57.9695204 0,67.7024283 L0,92.5071849 C0,107.666834 12.3364486,120 27.5001319,120 C42.6635514,120 55,107.666834 55,92.5071849 L55,67.7024283 C55.0005275,57.9695204 49.9149336,49.4022728 42.2610924,44.515253 Z M27.5003956,113.677855 L21.2039963,107.383131 L27.5009231,101.088143 L33.7970586,107.382867 L27.5003956,113.677855 Z M36.5942276,110.179555 L39.2903862,112.874997 C36.7780506,114.334116 33.9724421,115.341841 30.9853843,115.786906 L36.5942276,110.179555 Z M24.0151432,115.786906 C21.0283491,115.341841 18.2230044,114.334116 15.7106688,112.874997 L18.4065636,110.179819 L24.0151432,115.786906 Z M24.0135608,44.4234978 L18.4055087,50.0300577 L15.7101413,47.3356712 C18.2219494,45.8765523 21.0270304,44.8685633 24.0135608,44.4234978 Z M39.2909136,47.3354075 L36.5955462,50.0303214 L30.9872305,44.4234978 C33.9737608,44.8685633 36.7788418,45.8762887 39.2909136,47.3354075 Z M27.5003956,46.5307037 L33.7981136,52.8270098 L27.5006593,59.1230522 L21.2026776,52.8267461 L27.5003956,46.5307037 Z M51.0445088,70.0688164 L51.0445088,71.9574446 L45.6914881,77.3090411 L39.3924514,71.0116803 L45.6899057,64.7159016 L51.0445088,70.0688164 Z M48.4876021,61.9192132 L49.9136149,60.4935798 C50.3013048,61.6958895 50.5956326,62.9395945 50.7860489,64.2170485 L48.4876021,61.9192132 Z M24.7029629,80.1044111 L18.4047175,86.4009808 L12.1083182,80.1057294 L18.4060362,73.8091597 L24.7029629,80.1044111 Z M21.2034688,71.0124713 L27.5009231,64.7161653 L33.7978498,71.0116803 L27.5001319,77.3077227 L21.2034688,71.0124713 Z M27.5003956,82.9008358 L33.7994323,89.1981965 L27.5009231,95.4950299 L21.2021502,89.1974055 L27.5003956,82.9008358 Z M30.2975645,80.1044111 L36.5952825,73.8083687 L42.8943192,80.1057294 L36.5966012,86.4017718 L30.2975645,80.1044111 Z M36.5952825,68.214992 L30.298092,61.9194769 L36.5955462,55.6234345 L42.8930005,61.9192132 L36.5952825,68.214992 Z M24.7034904,61.9197406 L18.4060362,68.2160466 L12.107527,61.9192132 L18.405245,55.6231708 L24.7034904,61.9197406 Z M15.6088672,71.012735 L9.31114926,77.3090411 L3.9562824,71.9553352 L3.9562824,70.0682891 L9.31009432,64.7159016 L15.6088672,71.012735 Z M4.21500602,64.2165212 C4.40542238,62.9393308 4.69948644,61.6958895 5.08717627,60.4938434 L6.51292539,61.9192132 L4.21500602,64.2165212 Z M6.51398033,80.1057294 L3.9562824,82.6627469 L3.9562824,77.5484483 L6.51398033,80.1057294 Z M3.95654613,90.1402695 L3.95654613,88.2558599 L9.31141299,82.9021541 L15.6078123,89.1971419 L9.31062179,95.4926569 L3.95654613,90.1402695 Z M6.51292539,98.2893453 L5.08691253,99.7149788 C4.6992227,98.5126691 4.40515865,97.2689641 4.21474228,95.9917737 L6.51292539,98.2893453 Z M18.4047175,91.9940939 L24.7034904,98.2917183 L18.4065636,104.58697 L12.107527,98.289609 L18.4047175,91.9940939 Z M30.298092,98.2917183 L36.5966012,91.9948849 L42.8927367,98.2893453 L36.5939638,104.586442 L30.298092,98.2917183 Z M39.3940338,89.1981965 L45.6917518,82.9024178 L51.0447725,88.2540143 L51.0447725,90.1397421 L45.6904331,95.4926569 L39.3940338,89.1981965 Z M50.7863127,95.9912463 C50.5958963,97.2687004 50.3018322,98.5126691 49.9141424,99.7152424 L48.4878658,98.2893453 L50.7863127,95.9912463 Z M48.4891845,80.1057294 L51.0447725,77.5508213 L51.0447725,82.6606375 L48.4891845,80.1057294 Z M48.2410102,56.5723627 L45.6901694,59.1225249 L39.3927152,52.8267461 L42.5794201,49.6406254 C44.8794493,51.5630026 46.808404,53.9148891 48.2410102,56.5723627 Z M14.367996,13.8444907 L21.0613159,17.6897725 C21.5581918,17.975321 22.1539682,18.0312179 22.6951516,17.8434888 C23.236335,17.6557597 23.6696509,17.2425976 23.8827484,16.7110502 L27.6625924,7.28399293 L31.3947004,16.5573338 C31.6085891,17.0883539 32.0416413,17.5007251 32.5825609,17.6879268 C33.1226893,17.8748649 33.7192569,17.818968 34.2153417,17.5336831 L40.6346413,13.8452817 L36.8297425,28.6553115 L33.9025525,29.7097055 L29.4172185,21.0069344 C29.0780558,20.348828 28.3997305,19.9351386 27.6589001,19.9351386 C26.9183334,19.9351386 26.2400081,20.3485643 25.9005817,21.0066707 L21.3654019,29.804361 L18.1707849,28.6539932 L14.367996,13.8444907 Z M11.210302,30.35041 L21.6581472,34.1131648 C22.5933501,34.4498642 23.6319368,34.041448 24.086879,33.1586996 L27.6589001,26.2293353 L31.1810754,33.0635168 C31.6362812,33.9462652 32.6751317,34.354945 33.6095434,34.0182456 L43.789698,30.3517283 L38.7615983,42.6218789 C35.3227632,41.0725868 31.5107436,40.2096132 27.5003956,40.2096132 C23.4900476,40.2096132 19.6777643,41.0728505 16.2389291,42.6221425 L11.210302,30.35041 Z M12.4213711,49.6406254 L15.608076,52.8264825 L9.31035806,59.1225249 L6.75978096,56.5726264 C8.19238718,53.9151528 10.1213419,51.5632663 12.4213711,49.6406254 Z M6.75925349,103.63646 L9.31035806,101.086034 L15.6093947,107.383394 L12.4218986,110.569779 C10.1213419,108.647138 8.19212345,106.294724 6.75925349,103.63646 Z M42.5788926,110.570042 L39.3913965,107.383131 L45.6901694,101.086034 L48.2415377,103.636723 C46.8086678,106.294988 44.8794493,108.647402 42.5788926,110.570042 Z" id="Shape" fill="#333333"></path>
            <path d="M47.0330619,98 C45.9465253,98 45.0661237,97.1155956 45.0661237,96.0247072 L45.0661237,68.3548057 C45.0661237,63.6928513 43.2568029,59.3095449 39.970705,56.0118594 C38.8068021,54.8406424 37.4868555,53.8448315 36.0460077,53.0505004 C35.1821285,52.5730063 34.269207,52.1674129 33.3303218,51.8445183 C32.3025311,51.4910726 31.7546733,50.3677894 32.1066241,49.3358965 C32.4588371,48.3034768 33.5778938,47.7538186 34.6046355,48.107001 C35.758048,48.5036398 36.8807763,49.0022037 37.9416116,49.5884706 C39.7076598,50.5624216 41.3271055,51.7842061 42.7532668,53.2190587 C46.7810315,57.2612979 49,62.6369914 49,68.3545423 L49,96.0244438 C49,97.1155956 48.1195985,98 47.0330619,98 Z" id="Path" fill="#FFFFFF"></path>
            <circle id="Oval" fill="#FFFFFF" cx="28" cy="48" r="2"></circle>
        </g>
        <g id="pear" transform="translate(109.662267, 92.766940) rotate(14.000000) translate(-109.662267, -92.766940) translate(90.162267, 60.766940)" fill-rule="nonzero">
            <path d="M31.7839378,35.3837611 C35.109956,38.6404789 37.3127753,43.2004445 37.3127753,48.2494783 C37.3127753,58.1499567 29.2184335,63 19.2881746,63 C9.35650995,63 1.31277533,58.1499567 1.31277533,48.2494783 C1.31277533,43.1710163 3.34690396,38.587228 6.78819413,35.3263061 C9.13299478,33.1037783 10.4445649,30.0530576 10.4445649,26.8271693 L10.4445649,26.7753196 C10.4445649,21.8229784 14.6238769,17.8277535 19.6325848,18.0057239 C24.4023142,18.1738849 28.1767685,22.2265648 28.1767685,26.9855209 C28.1767685,30.1595596 29.5122365,33.1598319 31.7839378,35.3837611 Z" id="Path" fill="#F7B239"></path>
            <path d="M14.0658801,35.3262332 C12.6234057,38.5871637 11.7714178,43.1709641 11.7714178,48.2494395 C11.7714178,58.1387332 15.1357856,62.9887892 19.2902806,63 C9.35745236,63 1.31277533,58.1499439 1.31277533,48.2494395 C1.31277533,43.1709641 3.34714228,38.5871637 6.78883563,35.3262332 C9.133911,33.1036996 10.4456348,30.0529709 10.4456348,26.827074 L10.4456348,26.7752242 C10.4456348,21.9293722 14.4482904,18 19.3127753,18 C17.2741906,18.0014013 15.5983334,21.9307735 15.5983334,26.7752242 L15.5983334,26.827074 C15.5983334,30.0528307 15.0486185,33.1036996 14.0658801,35.3262332 Z" id="Path" fill="#E09B2D"></path>
            <path d="M19.3127753,14 C12.1327947,14 6.31277533,8.17935484 6.31277533,1 C9.9020668,1 13.1531151,2.45516129 15.5054428,4.80774194 C17.8577705,7.16046237 19.3127753,10.4104624 19.3127753,14 Z" id="Path" fill="#9AD14B"></path>
            <path d="M19.3127753,14 L6.31277533,1 C9.9020668,1 13.1531151,2.45516129 15.5054428,4.80774194 C17.8577705,7.16046237 19.3127753,10.4104624 19.3127753,14 Z" id="Path" fill="#90BC42"></path>
            <path d="M31.6796774,55 C31.4865186,55 31.2909219,54.9482403 31.1145408,54.8395876 C30.6096319,54.5287441 30.4536134,53.8695562 30.7663673,53.3673586 C31.69244,51.8801577 32.1619293,50.0697081 32.1619293,47.9863436 C32.1619293,44.3268029 30.5833898,40.6862264 27.8311271,37.998143 C25.6381216,35.8567448 24.0874016,33.2068752 23.3467442,30.3351374 C23.1991864,29.7629286 23.5460693,29.1803109 24.1213872,29.0335871 C24.6965618,28.8874336 25.2827782,29.2317855 25.430336,29.8038516 C26.0734819,32.2980144 27.4248769,34.6039599 29.3382537,36.4723006 C32.4996346,39.5600603 34.3127753,43.7568756 34.3127753,47.9864862 C34.3127753,50.4736621 33.7348762,52.6628275 32.5949951,54.4935247 C32.3916549,54.8201956 32.0398965,55 31.6796774,55 Z" id="Path" fill="#FFFFFF"></path>
            <path d="M24.2232529,28 C23.621546,28 23.1337305,27.52132 23.1337305,26.9308815 C23.1337305,24.3771137 21.0897864,22.2284706 18.577493,22.1412306 C18.5186588,22.1392349 18.4602603,22.138237 18.4022978,22.138237 C17.8005908,22.138237 17.3127753,21.659557 17.3127753,21.0691185 C17.3127753,20.47868 17.8005908,20 18.4022978,20 C18.4861183,20 18.5703747,20.0014255 18.6549217,20.004419 C22.3258859,20.1318579 25.3127753,23.2390014 25.3127753,26.9308815 C25.3127753,27.52132 24.8251051,28 24.2232529,28 Z" id="Path" fill="#FFFFFF"></path>
            <circle id="Oval" fill="#FFFFFF" cx="29.3127753" cy="57" r="1"></circle>
            <path d="M32.4844023,34.3555506 C30.3684473,32.2618847 29.203025,29.5246984 29.203025,26.6482733 C29.203025,21.6860905 25.5710678,17.4493333 20.8877916,16.6660091 L20.8877916,16.4690131 C20.8877916,13.525228 23.2327939,11.1303488 26.1153708,11.1303488 C26.6959793,11.1303488 27.1666899,10.6561461 27.1666899,10.0712301 C27.1666899,9.4863142 26.6959793,9.01211146 26.1153708,9.01211146 C24.1395917,9.01211146 22.2913727,9.78978701 20.9114813,11.2020865 C20.8869505,11.2272229 20.8641018,11.2536302 20.8399916,11.2789079 C19.5022931,4.84610344 13.8281135,0 7.05088989,0 C6.47028138,0 5.99957076,0.474202737 5.99957076,1.05911868 C5.99957076,8.47888051 11.6810395,14.5863237 18.8912664,15.2000477 C18.8222999,15.6152222 18.7851533,16.0390109 18.7851533,16.4690131 L18.7851533,16.5492236 C16.3987991,16.6734936 14.1670588,17.6442111 12.4241119,19.338801 C10.4860401,21.223185 9.41860075,23.743605 9.41860075,26.4361671 L9.41860075,26.4882758 C9.41860075,29.4656702 8.23944121,32.2347713 6.09839476,34.2855075 C2.36747344,37.8592564 0.31277533,42.7566211 0.31277533,48.0756564 C0.31277533,53.1163552 2.27187348,57.2723369 5.97826403,60.094394 C9.33393451,62.6495531 13.9361891,64 19.2875437,64 C24.6422624,64 29.2527874,62.6498355 32.620513,60.0956649 C36.3444256,57.2712072 38.3127753,53.1146606 38.3127753,48.0756564 C38.3126352,43.0211184 36.1882696,38.0203836 32.4844023,34.3555506 Z M8.15239199,2.16879263 C13.8846044,2.69708102 18.4617675,7.30834255 18.9861655,13.08294 C13.2540933,12.5546516 8.67678997,7.94339011 8.15239199,2.16879263 Z M19.2874035,61.8817626 C11.1308492,61.8817626 2.41541359,58.2549166 2.41541359,48.0755152 C2.41541359,43.3426668 4.23798043,38.9903951 7.5472527,35.8205235 C10.109808,33.3660513 11.521239,30.0517159 11.521239,26.4881346 L11.521239,26.4360259 C11.521239,24.3237196 12.360472,22.3444386 13.8841839,20.8629434 C15.3575726,19.4304501 17.2737769,18.6512212 19.3073085,18.6512212 C19.4024879,18.6512212 19.4979477,18.6529158 19.5935476,18.656305 C23.7328013,18.8045816 27.1003867,22.3896277 27.1003867,26.6479909 C27.1003867,30.0974698 28.4892494,33.3712763 31.0110135,35.8664187 C34.3149591,39.135565 36.2099969,43.585558 36.2099969,48.0753739 C36.2099969,58.2549166 27.4683484,61.8817626 19.2874035,61.8817626 Z" id="Shape" fill="#333333"></path>
        </g>
        <g id="orange" transform="translate(78.000000, 110.500000) rotate(-25.000000) translate(-78.000000, -110.500000) translate(52.000000, 97.000000)" fill-rule="nonzero">
            <path d="M26,1.00125291 L11.8583813,15 C8.23881541,11.4166816 6,6.46643995 6,1 L25.9987344,1 L26,1.00125291 Z" id="Path" fill="#F4DE3B"></path>
            <path d="M26,20.9987343 L26,21 C20.5323071,21 15.5820655,18.7610429 12,15.1412479 L26,1 L26,20.9987343 Z" id="Path" fill="#F4DE3B"></path>
            <path d="M26,1 L40,15.1412479 C36.4163609,18.7610429 31.4669292,21 26,21 L26,20.9987343 L26,1 Z" id="Path" fill="#F4DE3B"></path>
            <path d="M26,1 L46,1 C46,6.46769286 43.7611846,11.4179345 40.1403531,15 L26,1.00125291 L26,1 Z" id="Path" fill="#F4DE3B"></path>
            <path d="M45.8042508,1 L51,1 C51,14.8064565 39.8064565,26 26,26 C12.1922903,26 1,14.8064565 1,1 L6.19574916,1 C6.19574916,6.46769262 8.41265226,11.4190686 11.9967918,15.0032082 C15.5796782,18.5873477 20.5310542,20.8042508 26,20.8042508 C31.4676926,20.8042508 36.4178154,18.5873477 40.001955,15.0032082 C43.5873477,11.4203218 45.8042508,6.46894581 45.8042508,1 Z" id="Path" fill="#F7B239"></path>
            <path d="M36.9588002,21 C36.622712,21 36.296584,20.8274084 36.1212614,20.5211453 C35.8638322,20.0712631 36.0297055,19.5032526 36.491699,19.2525719 C41.8053899,16.3693716 45.676277,11.4338479 47.1118023,5.71146559 C47.2373246,5.21109909 47.755503,4.90471165 48.2693398,5.02681898 C48.7831767,5.14905066 49.09794,5.65376926 48.9724178,6.15401141 C47.4108595,12.3788741 43.2015857,17.746996 37.4238582,20.8818717 C37.2765005,20.9619503 37.1165011,21 36.9588002,21 Z" id="Path" fill="#FFFFFF"></path>
            <path d="M40.9863938,11 C40.8172757,11 40.6459202,10.9579768 40.4893049,10.8694734 C40.018538,10.6033265 39.8599486,10.01844 40.1350123,9.56306139 C41.036537,8.07034653 41.6797123,6.45410895 42.046771,4.75930072 C42.1585074,4.24292479 42.6821814,3.91272434 43.2151996,4.02032919 C43.7487442,4.12857075 44.0906656,4.63475925 43.9787975,5.15100785 C43.5680445,7.04752741 42.8482725,8.85605295 41.8394861,10.526666 C41.6560226,10.8305064 41.3256829,11 40.9863938,11 Z" id="Path" fill="#FFFFFF"></path>
            <circle id="Oval" fill="#FFFFFF" cx="48" cy="4" r="1"></circle>
            <path d="M51.0579255,0 L0.942074496,0 C0.421798155,0 0,0.422705021 0,0.944099958 C0,15.3114131 11.6635103,27 26,27 C40.3364897,27 52,15.3114131 52,0.944099958 C52,0.422705021 51.5782018,0 51.0579255,0 Z M11.9870815,13.6523148 C9.14377506,10.5065737 7.33775545,6.40263416 7.11555148,1.88807404 L23.7272139,1.88807404 L11.9870815,13.6523148 Z M25.0584279,3.22454194 L25.0584279,19.8691501 C20.5536789,19.6465942 16.4585439,17.8368176 13.3195517,14.9875239 L25.0584279,3.22454194 Z M26.9425769,3.22466782 L38.6803227,14.9876498 C35.5414561,17.8366917 31.4468235,19.6463425 26.9425769,19.8690242 L26.9425769,3.22466782 Z M40.0126673,13.6525666 L28.2734142,1.88807404 L44.8843229,1.88807404 C44.6622446,6.40276004 42.8562249,10.5068255 40.0126673,13.6525666 Z M26,25.1118001 C13.0182134,25.1118001 2.39927533,14.7781855 1.90236243,1.88819992 L5.23027199,1.88819992 C5.72467269,12.9410928 14.850988,21.7808896 26,21.7808896 C37.149012,21.7808896 46.2754529,12.9410928 46.7698536,1.88819992 L50.0977632,1.88819992 C49.6007247,14.7781855 38.9817866,25.1118001 26,25.1118001 Z" id="Shape" fill="#333333"></path>
        </g>
        <g id="drink" transform="translate(5.017284, 32.000000)" fill-rule="nonzero">
            <polygon id="Path" fill="#A3E3E5" points="52.982716 84 51.0579299 91 11.9075022 91 9.98271605 84 14.5309487 84 25.7465295 84 37.2189026 84 48.4367969 84"></polygon>
            <polygon id="Path" fill="#8DCCCC" points="14.5209549 84 9.98271605 84 11.9032729 91 22.982716 91 21.0621592 84"></polygon>
            <polygon id="Path" fill="#8DCCCC" points="11.2158315 12 11.982716 31.9953227 4.16136529 31.9953227 4.08729121 32 2.98271605 12.0070159 3.08075527 12"></polygon>
            <polygon id="Path" fill="#8DCCCC" points="24.7169085 12 24.982716 32 12.7689703 32 11.982716 12"></polygon>
            <polygon id="Path" fill="#A3E3E5" points="37.982716 12 37.7173189 32 25.2481132 32 24.982716 12"></polygon>
            <polygon id="Path" fill="#A3E3E5" points="50.982716 12 50.1964618 32 37.982716 32 38.2485236 12"></polygon>
            <polygon id="Path" fill="#A3E3E5" points="59.982716 12.0070159 58.8781409 32 58.8040668 31.9953227 50.982716 31.9953227 51.7496006 12 59.8868555 12"></polygon>
            <polygon id="Path" fill="#A3E3E5" points="59.982716 2 59.3531054 13 59.2541666 12.9930203 50.8556104 12.9930203 38.0362882 12.9930203 24.9291439 12.9930203 12.1098217 12.9930203 3.71351411 12.9930203 3.61232668 13 2.98271605 2"></polygon>
            <polygon id="Path" fill="#8DCCCC" points="22.1093071 2 1.98271605 2 2.85635506 13 2.99690099 12.9932528 14.6491016 12.9932528 22.982716 12.9932528"></polygon>
            <polygon id="Path" fill="#F95428" points="57.982716 32.0045769 55.0303142 84 52.2928718 84 47.982716 84 50.0336044 32 57.9081383 32"></polygon>
            <polygon id="Path" fill="#F95428" points="49.982716 32 47.8812292 84 36.982716 84 37.6929512 32"></polygon>
            <polygon id="Path" fill="#F95428" points="37.982716 32 37.3044832 84 26.6609489 84 25.982716 32"></polygon>
            <polygon id="Path" fill="#E54728" points="24.2724809 32 24.982716 84 14.0864505 84 11.982716 32"></polygon>
            <polygon id="Path" fill="#D13420" points="12.9300845 32 14.982716 84 10.6713125 84 7.93447044 84 4.98271605 32.0045769 5.05727745 32"></polygon>
            <path d="M61.5187522,0.540804484 C61.1968114,0.195883747 60.7480935,0 60.2787006,0 L2.68673151,0 C2.21733857,0 1.76862073,0.195883747 1.44667988,0.540804484 C1.12473904,0.886184503 0.957975038,1.3502889 0.985693305,1.82403822 L5.83161877,84.4904242 C5.88501051,85.4004914 6.63090452,86.1110005 7.53265698,86.1110005 L9.07192957,86.1110005 L10.6162005,91.7381229 C10.8209067,92.4837671 11.4925067,93 12.2583942,93 L50.7070379,93 C51.4726982,93 52.1442982,92.4837671 52.3490044,91.7381229 L53.8937297,86.1110005 L55.4330023,86.1110005 C56.334982,86.1110005 57.0806488,85.4004914 57.1340405,84.4904242 L61.9797388,1.82403822 C62.0074571,1.35051854 61.8406931,0.886184503 61.5187522,0.540804484 Z M58.4706517,3.44461455 L58.0364746,10.8521433 L4.92873032,10.8521433 L4.49455321,3.44461455 L58.4706517,3.44461455 Z M27.5293415,82.666386 L26.5882836,14.2965282 L36.3760125,14.2965282 L35.4351818,82.666386 L27.5293415,82.666386 Z M23.1800728,14.2967579 L24.1211307,82.6666156 L16.4695259,82.6666156 L13.6833858,14.2967579 L23.1800728,14.2967579 Z M38.8436198,82.666386 L39.7844505,14.2965282 L49.2811375,14.2965282 L46.4974965,82.666386 L38.8436198,82.666386 Z M5.13071014,14.2967579 L10.2726758,14.2967579 L13.0585888,82.6666156 L9.13872604,82.6666156 L5.13071014,14.2967579 Z M49.4115497,89.5553855 L13.5538824,89.5553855 L12.6087349,86.1110005 L50.3569244,86.1110005 L49.4115497,89.5553855 Z M53.8267061,82.666386 L49.9084337,82.666386 L52.6923019,14.2965282 L57.834722,14.2965282 L53.8267061,82.666386 Z" id="Shape" fill="#333333"></path>
            <path d="M50.5769891,79 C50.5453468,79 50.5134922,78.9990839 50.4814252,78.9970226 C49.6032992,78.9409102 48.9337148,78.1276237 48.9855317,77.1805836 L51.4555398,32.2148435 L51.7991451,24.6337129 C51.8420426,23.6862147 52.5863792,22.9581275 53.4676906,23.0018722 C54.3464537,23.0481364 55.0236832,23.8540938 54.9807856,24.801363 L54.6363308,32.400129 L52.1654733,77.3837335 C52.1153554,78.29619 51.4134917,79 50.5769891,79 Z" id="Path" fill="#FFFFFF"></path>
            <circle id="Oval" fill="#FFFFFF" cx="53.482716" cy="18.5" r="1.5"></circle>
        </g>
    </g>
</svg>