<?xml version="1.0" encoding="UTF-8"?>
<svg width="128px" height="128px" viewBox="0 0 128 128" version="1.1" xmlns="http://www.w3.org/2000/svg" xmlns:xlink="http://www.w3.org/1999/xlink">
    <!-- Generator: Sketch 53 (72520) - https://sketchapp.com -->
    <title>Liquor</title>
    <desc>Created with Sketch.</desc>
    <g id="Liquor" stroke="none" stroke-width="1" fill="none" fill-rule="evenodd">
        <g id="whiskey" transform="translate(6.000000, 4.000000)" fill-rule="nonzero">
            <path d="M109.633478,63.252516 C108.025708,62.4453101 106.417938,61.6385738 104.810633,60.8316027 C100.7124,58.7746129 96.5716244,57.0864772 93.393512,53.6104204 C89.9052831,49.7955625 87.8653492,44.7374948 87.8653492,39.5326837 C87.8653492,39.532449 87.8653492,30 87.8653492,30 L68.1341321,30 C68.1341321,30 68.1341321,39.5319794 68.1341321,39.5326837 C68.1341321,44.7374948 66.0941981,49.7955625 62.6059693,53.6104204 C59.4276244,57.0864772 55.2870816,58.7743781 51.1888486,60.8316027 C49.5810784,61.6385738 47.9733083,62.4455449 46.3660031,63.252516 C43.0133049,64.9354863 41.2995279,68.7719448 42.2693974,72.4240937 L54.3688208,118 L101.63159,118 L113.731014,72.4240937 C114.699953,68.77171 112.986409,64.9354863 109.633478,63.252516 Z" id="Path" fill="#E4EAF5"></path>
            <polygon id="Path" fill="#FFA05A" points="52 79 60.3669603 110 95.6332723 110 104 79"></polygon>
            <g id="Group" transform="translate(42.000000, 30.000000)" fill="#171D26" opacity="0.2">
                <path d="M13.8469293,42.9950213 C12.8781414,39.3542553 14.590596,35.53 17.9409293,33.852617 C19.5476768,33.0479787 21.1544242,32.2438085 22.7607071,31.4391702 C26.8563333,29.3884894 30.9944747,27.7059574 34.1705657,24.2409574 C37.6565758,20.438234 39.6952121,15.3962553 39.6952121,10.208 C39.6952121,10.207766 39.6952121,0.179744681 39.6952121,0.179744681 L26.1187071,0.179744681 C26.1187071,0.179744681 26.1187071,9.68140426 26.1187071,9.68210638 C26.1187071,14.8703617 24.0800707,19.9123404 20.5940606,23.7150638 C17.4177374,27.1800638 13.2798283,28.8625957 9.18420202,30.9132766 C7.57745455,31.7176809 5.97070707,32.5220851 4.36442424,33.3267234 C1.01385859,35.0043404 -0.698828283,38.8285957 0.270424242,42.4691277 L12.3621515,87.8998298 L25.7985657,87.8998298 L13.8469293,42.9950213 Z" id="Path"></path>
                <path d="M45.838303,8.83159574 C45.838303,6.50170213 45.838303,0.179744681 45.838303,0.179744681 L26.1196364,0.179744681 C26.1196364,0.179744681 26.1196364,6.50193617 26.1196364,8.83159574 L45.838303,8.83159574 Z" id="Path"></path>
            </g>
            <polygon id="Path" fill="#735642" points="92 2 88.5448714 27 67.4548953 27 64 2"></polygon>
            <polygon id="Path" fill="#171D26" opacity="0.2" points="64 2 67.3577802 27 75 27 71.6422198 2"></polygon>
            <rect id="Rectangle" fill="#E4EAF5" x="62" y="25" width="31" height="8"></rect>
            <rect id="Rectangle" fill="#171D26" opacity="0.2" x="62" y="25" width="8" height="8"></rect>
            <path d="M2,80 L7.08728349,110.999136 C7.59465572,115.002922 10.9379348,118 14.897075,118 L38.102925,118 C42.0615976,118 45.4053443,115.002689 45.9127165,110.999136 L51,80 L2,80 Z" id="Path" fill="#E4EAF5"></path>
            <path d="M13,99.0002296 L14.7987432,109.72589 L14.8166528,109.865929 C14.8258433,109.937327 14.8487017,109.97842 14.8659044,110 L38.1336243,110 C38.150827,109.97842 38.1736854,109.937327 38.1828758,109.86547 L38.2012568,109.72566 L40,99 L13,99 L13,99.0002296 Z" id="Path" fill="#FFA05A"></path>
            <path d="M20.200934,110.999136 L15.1202515,80 L2,80 L7.08044903,110.999136 C7.58713965,115.002922 10.9259273,118 14.8797485,118 L28,118 C24.0464122,118.000233 20.7076246,115.002922 20.200934,110.999136 Z" id="Path" fill="#171D26" opacity="0.2"></path>
            <path d="M5.12663809,111.260156 C5.77528852,116.245313 9.97978237,120 14.9230431,120 L38.2148501,120 C43.1576414,120 47.3626046,116.245547 48.011255,111.260156 L48.7502565,106.742578 L51.9162996,118.536094 C52.1481616,119.399531 52.9317519,120 53.8268144,120 L101.538761,120 C102.433824,120 103.217414,119.399766 103.449276,118.536094 L115.66357,73.0408594 C116.88155,68.5045312 114.708899,63.6951563 110.497834,61.605 L105.628732,59.1878906 C105.013171,58.8822656 104.396672,58.5850781 103.782284,58.2885938 C100.375461,56.6446875 97.1573199,55.0921875 94.6760677,52.4085938 C91.4630891,48.93375 89.6203962,44.3001563 89.6203962,39.695625 L89.6203962,34.7617969 L93.3029658,34.7617969 C94.3953926,34.7617969 95.2808333,33.8775 95.2808333,32.7864844 L95.2808333,24.541875 C95.2808333,23.450625 94.395158,22.5663281 93.3029658,22.5663281 L90.9252067,22.5663281 L93.7284373,2.2453125 C93.8065851,1.67976563 93.6355048,1.10835938 93.2600197,0.6778125 C92.8838306,0.24703125 92.3400813,0 91.7681707,0 L63.5969354,0 C63.0254941,0 62.4815102,0.24703125 62.1057904,0.67734375 C61.7303054,1.10765625 61.559225,1.67929688 61.6373728,2.24484375 L64.4406034,22.5658594 L62.0628443,22.5658594 C60.9704175,22.5658594 60.0849768,23.4501562 60.0849768,24.5411719 L60.0849768,32.7857812 C60.0849768,33.8770313 60.9706522,34.7610938 62.0628443,34.7610938 L65.745414,34.7610938 L65.745414,39.6946875 C65.745414,44.2989844 63.9027211,48.9328125 60.6897424,52.408125 C58.2082556,55.0914844 54.9903487,56.6442188 51.5832913,58.288125 C50.9691385,58.584375 50.3524043,58.8817969 49.7368435,59.1876562 L44.8682105,61.6042969 C40.656911,63.6944531 38.4844953,68.5040625 39.7024749,73.0403906 L40.9765426,77.7857812 L1.97819595,77.7857812 C1.39783687,77.7857812 0.846812555,78.0405469 0.470858148,78.481875 C0.0951384201,78.9236719 -0.0677282205,79.5079687 0.0259083639,80.0796094 L5.12663809,111.260156 Z M89.4990676,3.95085938 L86.9312192,22.5663281 L68.4338869,22.5663281 L65.8662732,3.95085938 L89.4990676,3.95085938 Z M64.0409465,30.8109375 L64.0409465,26.5171875 L66.7099412,26.5171875 L88.6556343,26.5171875 L91.324629,26.5171875 L91.324629,30.8109375 L87.6420593,30.8109375 L67.7235161,30.8109375 L64.0409465,30.8109375 Z M43.5542475,81.736875 L48.8319245,81.736875 L46.3279086,97.0450781 L44.1012823,110.656641 C44.0972927,110.680313 44.0940072,110.703984 44.0909564,110.727656 C43.7074923,113.761406 41.1814166,116.048906 38.2148501,116.048906 L14.9230431,116.048906 C11.9562418,116.048906 9.42993145,113.761172 9.0469367,110.727891 C9.04412056,110.703984 9.04060039,110.680313 9.03661086,110.656406 L4.3057339,81.736875 L43.5542475,81.736875 Z M61.4137245,108.147656 L54.0347393,80.6625 L101.93596,80.6625 L93.6483569,108.147656 L61.4137245,108.147656 Z M51.4570344,76.711875 C50.841943,76.711875 50.2620532,76.9975781 49.8875069,77.4848437 C49.814522,77.58 49.7537403,77.6819531 49.699999,77.7867187 L45.0714418,77.7867187 L43.5228006,72.0182812 C42.7910741,69.2903906 44.0970581,66.3991406 46.6285313,65.1426562 L51.4971644,62.7260156 C52.0995832,62.4267187 52.7029407,62.1360937 53.3039515,61.8457031 C56.8933539,60.1139062 60.6047889,58.3230469 63.5955274,55.0886719 C67.4754613,50.8924219 69.7009143,45.2819531 69.7009143,39.6953906 L69.7009143,34.7617969 L85.6634878,34.7617969 L85.6634878,39.695625 C85.6634878,45.2819531 87.8889408,50.8926562 91.7688747,55.0886719 C94.7596131,58.3230469 98.4712829,60.1139062 102.060451,61.8457031 C102.661461,62.1358594 103.264584,62.4267187 103.867003,62.7257812 L108.736105,65.1426562 C111.267579,66.399375 112.573563,69.290625 111.841601,72.0175781 L100.020628,116.049141 L55.3440087,116.049141 L50.3003058,97.2628125 L51.851059,87.78375 L57.9857807,110.634375 C58.2176427,111.497812 59.0012331,112.098281 59.8962956,112.098281 L80.010795,112.098281 L95.1515818,112.00875 C96.0307877,112.003551 96.8034887,111.424772 97.0557012,110.582502 L106.427362,79.2855928 C106.744217,78.2274452 106.143281,77.1127849 105.085134,76.7959293 C104.898993,76.7401906 104.705723,76.711875 104.511416,76.711875 L51.4570344,76.711875 Z" id="Shape" fill="#333333"></path>
            <path d="M81.1634878,41.695625 C81.1634878,40.8671979 81.8350607,40.195625 82.6634878,40.195625 C83.4919149,40.195625 84.1634878,40.8671979 84.1634878,41.695625 C84.1634878,46.9019458 86.2449349,52.1496994 89.8702035,56.0703031 C91.9222801,58.2895494 94.2762423,59.8257637 98.1546416,61.7377367 C98.5859929,61.9503843 98.9326779,62.1185706 99.7125981,62.4948872 C100.44539,62.848665 100.700223,62.9721202 101.075409,63.1560596 C101.23429,63.2339531 101.386307,63.3089154 101.533919,63.3821951 L106.403094,65.7991065 C109.57419,67.3733579 111.207543,70.9892882 110.290321,74.4064393 C110.075558,75.2065447 109.252846,75.6810593 108.45274,75.4662972 C107.652635,75.2515351 107.17812,74.4288224 107.392882,73.628717 C107.939591,71.5919294 106.960937,69.4253771 105.06919,68.4862424 L100.200016,66.0693318 C100.056955,65.9983112 99.909367,65.9255329 99.7547929,65.849751 C99.3870694,65.6694699 99.1353032,65.5475005 98.4086032,65.1966639 C97.6213782,64.8168227 97.2695915,64.6461614 96.8281338,64.4285316 C92.6479661,62.3677928 90.0237942,60.6552376 87.667545,58.1070396 C83.5328642,53.635524 81.1634878,47.6618418 81.1634878,41.695625 Z" id="Path" fill="#FFFFFF"></path>
            <path d="M37.6725619,100.903599 L36.4758081,108.095706 L16.5239362,108.095706 L15.3271824,100.903599 L37.6725619,100.903599 Z M12.9881585,97 C12.4051125,97 11.8510772,97.251733 11.4732295,97.6878078 C11.0956176,98.1243458 10.9319307,98.7016875 11.0260388,99.2665236 L12.8206978,110.051443 L12.833906,110.155193 C12.8850876,110.558383 13.0402835,110.934245 13.2829835,111.242253 C13.6594161,111.720245 14.2401035,112 14.8556982,112 L38.1438103,112 C38.7568105,112 39.3351393,111.722561 39.7122795,111.24758 C39.9575739,110.938414 40.1144208,110.560467 40.1656025,110.158435 L41.9739413,99.2665236 C42.0680495,98.7014559 41.9045985,98.1238826 41.5267507,97.6878078 C41.1491388,97.251733 40.5951036,97 40.0118217,97 L12.9881585,97 Z" id="Shape" fill="#333333"></path>
            <path d="M41.959968,86.2760703 C42.0945181,85.4586427 42.8662484,84.9050611 43.6836759,85.0396112 C44.5011035,85.1741612 45.0546851,85.9458915 44.920135,86.763319 L41.4800835,107.662556 C41.3455335,108.479983 40.5738032,109.033565 39.7563756,108.899015 C38.9389481,108.764465 38.3853665,107.992734 38.5199165,107.175307 L41.959968,86.2760703 Z" id="Path" fill="#FFFFFF"></path>
            <path d="M93.4601985,84.2760703 C93.5947485,83.4586427 94.3664788,82.9050611 95.1839063,83.0396112 C96.0013339,83.1741612 96.5549155,83.9458915 96.4203655,84.763319 L92.9803139,105.662556 C92.8457639,106.479983 92.0740336,107.033565 91.256606,106.899015 C90.4391785,106.764465 89.8855969,105.992734 90.0201469,105.175307 L93.4601985,84.2760703 Z" id="Path" fill="#FFFFFF" transform="translate(93.220256, 94.969313) rotate(6.000000) translate(-93.220256, -94.969313) "></path>
        </g>
    </g>
</svg>