<?xml version="1.0" encoding="UTF-8"?>
<svg width="128px" height="128px" viewBox="0 0 128 128" version="1.1" xmlns="http://www.w3.org/2000/svg" xmlns:xlink="http://www.w3.org/1999/xlink">
    <!-- Generator: Sketch 53 (72520) - https://sketchapp.com -->
    <title>Meat</title>
    <desc>Created with Sketch.</desc>
    <g id="Meat" stroke="none" stroke-width="1" fill="none" fill-rule="evenodd">
        <g id="steak" transform="translate(4.000000, 20.000000)" fill-rule="nonzero">
            <path d="M84.5014745,39 C90.8508783,39 96,44.1484615 96,50.5 C96,56.8515385 90.8508783,62 84.5014745,62 C78.1491217,62 73,56.8515385 73,50.5 C73,44.1484615 78.1491217,39 84.5014745,39 Z" id="Path" fill="#F2F2F2"></path>
            <path d="M99.6931187,14.5979813 C124.389049,30.5462549 122.922389,63.9820455 102.349118,80.605876 C101.963154,80.9165751 101.571473,81.2187229 101.171215,81.5151699 C88.4144147,90.9444619 63.1867129,91.9905774 49.7837815,71.6925156 C38.2620637,54.2392039 26.3944084,54.4045301 19.6614938,54.0111678 C12.9257203,53.6178056 -2.66719514,53.2244433 3.3566906,34.7563711 C9.38343533,16.2911493 40.2147518,-7.6782935 82.0360146,6.07513275 C89.1691873,8.42105395 94.8814434,11.4881393 99.6931187,14.5979813 Z M97.849072,75.0674496 C106.554688,68.0325365 111.400671,57.1837198 110.806001,46.0441572 C110.242781,35.5060397 104.916488,26.4615586 95.8077553,20.5782276 C90.4928983,17.1462846 85.4067603,14.6863453 79.7945687,12.8421035 C72.2983046,10.3764634 64.8363484,9.12511535 57.623124,9.12511535 C42.6906346,9.12511535 31.8607916,14.3699453 25.4023398,18.7681912 C17.9060758,23.8790499 12.2052556,30.6802261 10.1553618,36.9626202 C9.02606195,40.4202173 8.82879184,43.1794539 9.62644923,44.3424379 C11.0273529,46.3862113 16.9911999,46.7225645 19.5385574,46.8650871 C19.5385574,46.8650871 20.6678573,46.927797 20.9766279,46.9448997 C24.6847341,47.1415808 30.2912077,47.4380277 36.5781203,50.2656751 C43.8713963,53.5493947 50.1440139,59.2759509 55.7533465,67.7731454 C63.2782005,79.1692487 74.2309799,80.8738184 80.0919034,80.8738184 C80.0919034,80.8738184 80.0919034,80.8738184 80.0947624,80.8738184 C86.3187772,80.8738184 92.6085487,78.9725675 96.9141832,75.7914642 C97.2258128,75.5605776 97.5403014,75.3154389 97.849072,75.0674496 Z" id="Shape" fill="#B27214"></path>
            <path d="M109.951334,46.5337889 C110.541838,57.5571094 105.729793,68.2927178 97.085145,75.2542211 C96.7785368,75.4996226 96.4662506,75.7422033 96.1568035,75.9706805 C91.8813225,79.1185889 85.6355999,81 79.4551734,81 C79.4523345,81 79.4523345,81 79.4523345,81 C73.6324566,81 62.7563824,79.3132176 55.284227,68.0360335 C49.714178,59.6275078 43.4854892,53.9607088 36.2432899,50.711255 C30.0004063,47.9131143 24.4331963,47.6197608 20.7510589,47.4251321 C20.4444507,47.4082079 19.3230596,47.3461523 19.3230596,47.3461523 C16.7935419,47.205117 10.8714613,46.8722736 9.48036857,44.8498272 C8.68829738,43.698979 8.88418595,40.9685352 10.0055771,37.5470184 C12.0411148,31.3301816 17.7020107,24.5999762 25.1457764,19.5424496 C31.558998,15.1900997 42.3129967,10 57.14091,10 C64.3036182,10 71.7133164,11.2382901 79.1570821,13.6782011 C84.7299701,15.5031981 89.7804885,17.9374677 95.0581241,21.3335982 C104.103066,27.1555361 109.392057,36.1056374 109.951334,46.5337889 Z M94.1979178,50.4489293 C94.1979178,44.3731278 89.2410852,39.4481745 83.1287939,39.4481745 C77.0136637,39.4481745 72.0568311,44.3731278 72.0568311,50.4489293 C72.0568311,56.5247308 77.0136637,61.4496842 83.1287939,61.4496842 C89.2410852,61.4496842 94.1979178,56.5247308 94.1979178,50.4489293 Z" id="Shape" fill="#F95428"></path>
            <circle id="Oval" fill="#FFFFFF" cx="68" cy="16" r="2"></circle>
            <g id="Group" fill="#333333">
                <polygon id="Path" points="103.52152 82.0788644 103.52095 82.0791483 103.520665 82.0794322"></polygon>
                <path d="M119.856627,45.5121767 C119.513159,39.0744795 117.765036,33.0229022 114.660143,27.5252366 C111.346888,21.6590536 106.646936,16.7360252 100.690546,12.892429 C94.7905938,9.08574132 88.8704038,6.23242902 82.591924,4.16952681 C72.2485511,0.771388013 61.9727316,-0.556750789 52.0497862,0.219179811 C43.2624228,0.907097792 34.9265558,3.21359621 27.2733492,7.07479495 C14.7209501,13.4080126 4.82622328,23.7639748 1.45026128,34.1014826 C-0.67695962,40.6161199 -0.462897862,45.8023344 2.08674584,49.5156151 C6.05643705,55.2969085 14.2150119,55.7571293 19.0894062,56.0322397 L19.6115914,56.0620505 C19.9162945,56.0799369 20.2312589,56.0964038 20.5561995,56.1137224 C27.3451781,56.4720189 37.6050356,57.0134385 47.983753,72.7180126 C55.5149644,84.1136593 65.7471734,88.0322082 73.0047506,89.3129338 C75.2941568,89.7169401 77.6246081,89.9136909 79.951639,89.9136909 C88.1398575,89.9136909 96.2707838,87.4748896 102.274774,83.0416088 C102.692637,82.7332808 103.111924,82.4093375 103.52095,82.0788644 C114.498527,73.2191167 120.605416,59.5493375 119.856627,45.5121767 Z M100.829074,78.7707256 C100.828789,78.7710095 100.828504,78.7710095 100.828504,78.7710095 C100.467078,79.0628707 100.097672,79.3487697 99.7288361,79.6204732 C92.9301663,84.6405994 82.9764371,86.7475079 73.7504038,85.1201262 C67.319715,83.9853312 58.2493112,80.5062776 51.5546793,70.3765931 C46.495867,62.7220505 40.9333967,57.6059621 34.5485986,54.7356151 C29.1346318,52.3019243 24.3069834,52.0469716 20.7819477,51.8610095 C20.4649881,51.8442587 20.1580048,51.8283596 19.8609976,51.8107571 L19.3311164,51.7806625 C15.2419952,51.5498423 8.39800475,51.1637224 5.61548694,47.111735 C3.85368171,44.5457413 3.82004751,40.6115773 5.51572447,35.4191167 C7.89605701,28.1299685 15.3691211,17.8546372 29.2047506,10.873817 C36.0057007,7.44246057 45.5663658,4.23539432 57.5469834,4.23539432 C64.6272684,4.23539432 72.5549644,5.35656151 81.2525416,8.21413249 C87.2616627,10.1884543 92.6992874,12.8106625 98.3657957,16.466877 C108.824323,23.2154574 114.940333,33.6105994 115.587078,45.7381703 C116.263468,58.4176656 110.746318,70.7664038 100.829074,78.7707256 Z" id="Shape"></path>
                <path d="M96.816057,18.8494637 C91.359905,15.328959 86.1309264,12.8061199 80.35981,10.9101577 C72.6675534,8.38334385 65.0046556,7.10176656 57.584038,7.10176656 C42.1502138,7.10176656 30.9411876,12.5264669 24.255677,17.077571 C16.4032304,22.4230599 10.4109264,29.6080126 8.2264133,36.2972555 C7.2584323,39.2612934 6.42783848,43.2655836 7.96845606,45.5090536 C9.62109264,47.9157729 13.7709264,48.6238486 19.4935867,48.9460883 C19.4935867,48.9460883 20.624323,49.0096845 20.9341568,49.0258675 C24.4725891,49.2126814 29.8198575,49.4948896 35.7220903,52.1480442 C42.6136817,55.2460883 48.5712114,60.6980442 53.9355819,68.8153628 C61.9886936,81.0011356 73.7124941,82.8215773 79.983848,82.8221451 L79.9866983,82.8221451 C86.6368646,82.8221451 93.3819477,80.7728707 98.0297387,77.3406625 C98.3629454,77.094795 98.7007126,76.8335962 99.0342043,76.5647319 C108.244846,69.1307886 113.368931,57.6630284 112.740713,45.8883596 C112.143848,34.6934385 106.488171,25.0909779 96.816057,18.8494637 Z M96.3428979,73.2563091 C96.0572922,73.4868454 95.7685511,73.7097161 95.4840855,73.9198107 C91.5460333,76.8276341 85.7526841,78.5637539 79.9866983,78.5637539 L79.9844181,78.5637539 C74.5733017,78.5631861 64.4576722,76.9920189 57.5070784,66.4739432 C51.6838005,57.6624606 45.1333967,51.7068454 37.4810451,48.2666877 C30.847696,45.2847634 25.0178622,44.9770032 21.1613302,44.7734385 C20.8549169,44.7569716 19.7347268,44.6942271 19.7350119,44.6942271 C13.2350594,44.3279811 11.8138717,43.4770978 11.5048931,43.1128391 C11.3444181,42.7610726 11.1639905,41.0706625 12.2927316,37.6148896 C14.1950594,31.789306 19.5691211,25.4262776 26.6685036,20.593817 C32.856057,16.3817035 43.2424703,11.3607256 57.584323,11.3607256 C64.5491686,11.3607256 71.7614252,12.5701893 79.0209976,14.9550473 C84.4352494,16.7337539 89.3512589,19.1069716 94.4918765,22.4241956 C102.984228,27.9042587 107.949264,36.3176972 108.471734,46.1146372 C109.027268,56.5319243 104.493207,66.6780757 96.3428979,73.2563091 Z" id="Shape"></path>
                <path d="M83.6750594,36.7410095 C76.3670309,36.7410095 70.4214727,42.663123 70.4214727,49.9423344 C70.4214727,57.2215457 76.3670309,63.1436593 83.6750594,63.1436593 C90.9830879,63.1436593 96.9286461,57.2215457 96.9286461,49.9423344 C96.9286461,42.663123 90.9830879,36.7410095 83.6750594,36.7410095 Z M83.6750594,58.8849842 C78.7245606,58.8849842 74.6970071,54.8733123 74.6970071,49.9423344 C74.6970071,45.0113565 78.7245606,40.9996845 83.6750594,40.9996845 C88.6255582,40.9996845 92.6531116,45.0113565 92.6531116,49.9423344 C92.6531116,54.8733123 88.6255582,58.8849842 83.6750594,58.8849842 Z" id="Shape"></path>
                <path d="M44.55962,16.5881073 C43.5389074,15.9984227 42.2303088,16.344511 41.6380048,17.3617666 L29.2395249,38.6540063 C28.6472209,39.6712618 28.9949644,40.9741325 30.016247,41.5641009 C30.3537292,41.7594322 30.7228504,41.8519874 31.0868409,41.8519874 C31.823943,41.8519874 32.5416627,41.4715457 32.9381473,40.7907256 L45.3366271,19.4984858 C45.9286461,18.4809464 45.5809026,17.1780757 44.55962,16.5881073 Z" id="Path"></path>
                <path d="M62.6194774,17.0139748 C61.5990499,16.4242902 60.2901663,16.7703785 59.6978622,17.7876341 L43.3388124,45.8815457 C42.7465083,46.8988013 43.0942518,48.2016719 44.1155344,48.7916404 C44.4530166,48.9869716 44.8221378,49.0795268 45.1861283,49.0795268 C45.9232304,49.0795268 46.6409501,48.6990852 47.0374347,48.018265 L63.3964846,19.9243533 C63.9885036,18.9068139 63.6407601,17.6039432 62.6194774,17.0139748 Z" id="Path"></path>
                <path d="M80.6844656,21.0219558 C79.6654632,20.4282965 78.3562945,20.7704101 77.76,21.7853943 L56.2705938,58.3963722 C55.6745843,59.4113565 56.0177672,60.7156467 57.0370546,61.309306 C57.376247,61.5069085 57.7473634,61.6005994 58.1139192,61.6005994 C58.8484561,61.6005994 59.5636105,61.2229968 59.9612352,60.5455836 L81.4506413,23.9346057 C82.0469359,22.9196215 81.703753,21.6156151 80.6844656,21.0219558 Z" id="Path"></path>
                <path d="M77.6251781,64.2736278 C76.6061758,63.6794006 75.2967221,64.0217981 74.7007126,65.0370662 L72.5880285,68.6364984 C71.992019,69.6514826 72.3352019,70.9557729 73.3544893,71.5494322 C73.6936817,71.7470347 74.0650831,71.8407256 74.431639,71.8407256 C75.1661758,71.8407256 75.8813302,71.463123 76.2789549,70.7857098 L78.391639,67.1862776 C78.9876485,66.1712934 78.6444656,64.8670032 77.6251781,64.2736278 Z" id="Path"></path>
                <path d="M97.9619002,29.5313565 C96.9431829,28.9371293 95.6337292,29.2795268 95.0374347,30.294795 L92.3891686,34.8067192 C91.7931591,35.8217035 92.136342,37.1259937 93.1556295,37.719653 C93.4948219,37.9172555 93.8659382,38.0109464 94.2324941,38.0109464 C94.9670309,38.0109464 95.6821853,37.6333438 96.07981,36.9559306 L98.728076,32.4440063 C99.3246556,31.4290221 98.9814727,30.1247319 97.9619002,29.5313565 Z" id="Path"></path>
            </g>
            <path d="M95.0720176,71 C94.5137604,71 93.9566159,70.7712377 93.5457809,70.3185683 C92.7602711,69.4534985 92.8064449,68.0980606 93.6489765,67.2912523 C99.2270974,61.9514668 102.194733,54.4220178 101.790852,46.6335335 C101.390865,38.9332982 97.5795852,32.3037618 91.0585187,27.9664177 C86.5059553,24.9388161 82.1764723,22.7814251 77.433651,21.176662 C76.3393891,20.8062442 75.7446936,19.5953178 76.1054607,18.4717837 C76.4662278,17.3482496 77.6456051,16.7382169 78.739867,17.1080635 C83.8312166,18.8307777 88.466392,21.1386777 93.3271511,24.3710515 C100.999501,29.4740781 105.484751,37.29969 105.957615,46.4059136 C106.42714,55.4638715 102.978018,64.218241 96.4945024,70.42481 C96.0922902,70.8095076 95.5815976,71 95.0720176,71 Z" id="Path" fill="#FFFFFF"></path>
        </g>
    </g>
</svg>