<?xml version="1.0" encoding="UTF-8"?>
<svg width="128px" height="128px" viewBox="0 0 128 128" version="1.1" xmlns="http://www.w3.org/2000/svg" xmlns:xlink="http://www.w3.org/1999/xlink">
    <!-- Generator: Sketch 53 (72520) - https://sketchapp.com -->
    <title>Milk</title>
    <desc>Created with Sketch.</desc>
    <g id="Milk" stroke="none" stroke-width="1" fill="none" fill-rule="evenodd">
        <g id="milk-bottle" transform="translate(36.250000, 4.000000)" fill-rule="nonzero">
            <rect id="Rectangle" fill="#51C0C2" x="14.75" y="2" width="27" height="8"></rect>
            <path d="M39.3821085,17.6225177 L47.75,34.3285686 C42.8751158,34.3285686 42.8751158,38 38,38 C33.1248842,38 33.1251158,34.3285686 28.25,34.3285686 C23.3751158,34.3285686 23.3751158,38 18.5,38 C13.6248842,38 13.6251158,34.3285686 8.75,34.3285686 L17.1178915,17.6225177 L17.1178915,10 L39.381877,10 L39.3821085,17.6225177 L39.3821085,17.6225177 Z" id="Path" fill="#C8FEFF"></path>
            <path d="M52.75,50.2310412 L52.75,112.897544 C52.75,115.70393 50.4851063,118 47.7168259,118 L7.78317409,118 C5.01489369,118 2.75,115.70393 2.75,112.897544 L2.75,50.2310412 C2.75,47.4246554 3.76924836,43.0798278 5.01743488,40.5746197 L8.29164318,34 C13.1561746,34 13.1561746,37.6864991 18.0209371,37.6864991 C22.8856996,37.6864991 22.8854685,34 27.750231,34 C32.6147625,34 32.6147625,37.6864991 37.4795249,37.6864991 C42.3440564,37.6864991 42.3440564,34 47.2088189,34 L50.4830272,40.5746197 C51.7307516,43.0798278 52.75,47.4246554 52.75,50.2310412 Z" id="Path" fill="#F9EBDB"></path>
            <path d="M52.2701157,39.7380469 L40.8004774,16.7782031 L40.8004774,11.4892969 L41.4321635,11.4892969 C42.4788649,11.4892969 43.3274538,10.6321875 43.3274538,9.57445312 L43.3274538,1.91484375 C43.3274538,0.857109375 42.4788649,0 41.4321635,0 L14.0685323,0 C13.0218309,0 12.173242,0.857109375 12.173242,1.91484375 L12.173242,9.57445312 C12.173242,10.6321875 13.0218309,11.4892969 14.0685323,11.4892969 L14.7002184,11.4892969 L14.7002184,16.7782031 L3.23058012,39.7380469 C1.83961796,42.5221875 0.75,47.1466406 0.75,50.2657031 L0.75,112.978828 C0.75,116.850234 3.86736983,120 7.69947523,120 L47.8005246,120 C51.63263,120 54.7499999,116.850234 54.7499999,112.978828 L54.7499999,50.2657031 C54.7504638,47.1464062 53.6610778,42.5224219 52.2701157,39.7380469 Z M15.9640546,3.8296875 L39.5368732,3.8296875 L39.5368732,7.659375 L15.9640546,7.659375 L15.9640546,3.8296875 Z M18.2878151,18.0967969 C18.4214366,17.8291406 18.4910311,17.5338281 18.4910311,17.2340625 L18.4910311,11.4892969 L37.0094327,11.4892969 L37.0094327,17.2340625 C37.0094327,17.5338281 37.0790273,17.8291406 37.2126487,18.0967969 L44.4258871,32.5359375 C43.0583551,32.9838281 42.1000388,33.7061719 41.2702403,34.3326563 C40.1451291,35.1825 39.3322653,35.7963281 37.5197924,35.7963281 C35.7073196,35.7963281 34.8944558,35.1825 33.7693446,34.3326563 C32.4563283,33.3410156 30.8220173,32.1065625 27.748956,32.1065625 C24.6761267,32.1065625 23.0422797,33.3410156 21.7290314,34.3328906 C20.6041522,35.1825 19.7915204,35.7963281 17.9792795,35.7963281 C16.1670386,35.7963281 15.3544068,35.1825 14.2295276,34.3328906 C13.4001931,33.7064063 12.4416448,32.9840625 11.0743447,32.5361719 L18.2878151,18.0967969 Z M50.9598831,112.978828 C50.9598831,114.73875 49.542939,116.170313 47.8009886,116.170313 L7.69993919,116.170313 C5.95798875,116.170313 4.54104464,114.73875 4.54104464,112.978828 L4.54104464,50.2657031 C4.54104464,47.7447656 5.49077764,43.7139844 6.61496087,41.4632812 L9.32798663,36.0323437 C10.4159807,36.2357812 11.096615,36.7476562 11.9600508,37.3996875 C13.2728351,38.3915625 14.9071461,39.6260156 17.9797434,39.6260156 C21.0521088,39.6260156 22.6864198,38.3915625 23.9994361,37.3996875 C25.1243153,36.5500781 25.9369471,35.93625 27.749188,35.93625 C29.5616609,35.93625 30.3745247,36.5500781 31.4996358,37.3999219 C32.8126522,38.3917969 34.4469631,39.6260156 37.5197924,39.6260156 C40.5928538,39.6260156 42.2267008,38.3915625 43.540181,37.3999219 C44.4033849,36.7478906 45.0844831,36.2360156 46.1727092,36.0323437 L48.8857349,41.4635156 C50.0096862,43.71375 50.9596512,47.7445313 50.9596512,50.2657031 L50.9598831,112.978828 L50.9598831,112.978828 Z" id="Shape" fill="#333333"></path>
            <g id="Group" transform="translate(10.750000, 15.000000)" fill="#FFFFFF">
                <path d="M1.5,97 C0.671603427,97 0,96.1793925 0,95.1667041 L0,87.8332959 C0,86.8206075 0.671603427,86 1.5,86 C2.32839657,86 3,86.8206075 3,87.8332959 L3,95.1667041 C3,96.1793925 2.32839657,97 1.5,97 Z" id="Path"></path>
                <path d="M1.80324816,82 C0.807378427,82 0,81.1410859 0,80.0811244 L0,35.1460829 C0,33.2551566 0.785748278,29.7426982 1.58650523,28.0544634 C2.03522047,27.108648 3.11981795,26.7286307 4.00886123,27.2063532 C4.89790451,27.6840758 5.25502268,28.8379847 4.80608673,29.784035 C4.25672508,30.9419367 3.60649631,33.8486693 3.60649631,35.1460829 L3.60649631,80.0811244 C3.60649631,81.1410859 2.79911788,82 1.80324816,82 Z" id="Path"></path>
                <path d="M21.2672973,4 L14.7329148,4 C13.7758877,4 13,3.10477356 13,2 C13,0.895226438 13.7758877,0 14.7329148,0 L21.2670852,0 C22.2241123,0 23,0.895226438 23,2 C23,3.10477356 22.2243244,4 21.2672973,4 Z" id="Path"></path>
            </g>
        </g>
    </g>
</svg>