<?xml version="1.0" encoding="UTF-8"?>
<svg width="128px" height="128px" viewBox="0 0 128 128" version="1.1" xmlns="http://www.w3.org/2000/svg" xmlns:xlink="http://www.w3.org/1999/xlink">
    <!-- Generator: Sketch 53 (72520) - https://sketchapp.com -->
    <title>Mushroom</title>
    <desc>Created with Sketch.</desc>
    <g id="Mushroom" stroke="none" stroke-width="1" fill="none" fill-rule="evenodd">
        <g id="mushroom" transform="translate(3.000000, 12.520885)" fill-rule="nonzero">
            <path d="M118.984184,56.9553867 C119.171903,58.8447934 117.664195,60.4791155 115.760194,60.4791155 L94.3662455,60.4791155 L73.6337816,60.4791155 L58.7652856,60.4791155 L52.2398335,60.4791155 C50.3328521,60.4791155 48.8281245,58.8447934 49.015843,56.9553867 C49.4180969,52.939285 50.5056723,49.118946 52.1593827,45.618946 C57.3231309,34.6740307 68.0141456,26.8227595 80.653857,25.6363189 C81.7563307,25.5325053 82.870723,25.4791155 84.0000135,25.4791155 C102.223605,25.4791155 117.208308,39.2803867 118.984184,56.9553867 Z" id="Path" fill="#F95428"></path>
            <path d="M62.4327298,56.9553867 C62.8382333,52.939285 63.9345945,49.118946 65.6016644,45.618946 C70.3475571,35.6406833 79.7255011,28.2364036 91,26.1067426 C88.8249994,25.6947511 86.5794112,25.4791155 84.2827596,25.4791155 C83.1443461,25.4791155 82.0209513,25.5325053 80.9095713,25.6363189 C68.1677506,26.8227595 57.390369,34.6740307 52.1849057,45.618946 C50.5178358,49.118946 49.4214745,52.939285 49.015971,56.9553867 C48.826736,58.8447934 50.3436195,60.4791155 52.2660064,60.4791155 L58.8441741,60.4791155 L65.6827651,60.4791155 C63.7603782,60.4791155 62.2434948,58.8447934 62.4327298,56.9553867 Z" id="Path" fill="#E54728"></path>
            <path d="M44.4775779,3.47911548 C60.2143005,3.47911548 73.9105812,12.2736537 81,25.2507769 C68.3641535,26.4518064 57.6764077,34.3996188 52.5142385,45.4791155 L30.0574617,45.4791155 L6.84110436,45.4791155 C4.58023507,45.4791155 2.79298662,43.5184349 3.01937143,41.2514918 C5.1223671,20.0413116 22.8816592,3.47911548 44.4775779,3.47911548 Z" id="Path" fill="#F95428"></path>
            <path d="M19.4311082,41.2514918 C21.2767999,22.7811601 35.0891659,7.83765137 53,4.28470599 C50.3482443,3.75985611 47.608527,3.47911548 44.8027635,3.47911548 C23.037532,3.47911548 5.13900653,20.0413116 3.0195233,41.2514918 C2.79136363,43.5184349 4.59262417,45.4791155 6.87121874,45.4791155 L23.2828037,45.4791155 C21.0042091,45.4791155 19.2029486,43.5184349 19.4311082,41.2514918 Z" id="Path" fill="#E54728"></path>
            <path d="M61.5535913,77.073666 C61.8571492,78.4016436 62,79.7206885 62,81.0159132 C62,90.4100144 54.37534,98.4791155 44.5007802,98.4791155 C33.2661621,98.4791155 24.9421285,88.0309694 27.4479692,77.073666 C28.3259062,73.2326548 28.9895671,69.3499582 29.4329997,65.4374863 C29.8704802,61.5309694 30.0936845,57.5946773 30.0936845,53.6524301 L30.0936845,45.6815874 L30.0936845,45.4791155 L52.5301841,45.4791155 C50.8784721,48.9925986 49.792211,52.8276548 49.3904432,56.8592278 C49.2029515,58.7559132 50.7058607,60.3965312 52.6105377,60.3965312 L59.1281042,60.3965312 C59.4852312,66.0091717 60.2976949,71.5860818 61.5535913,77.073666 Z" id="Path" fill="#F7B239"></path>
            <path d="M34.9239361,77.073666 C35.7895314,73.2326548 36.4438628,69.3499582 36.8810617,65.4374863 C37.3123923,61.5309694 37.5324589,57.5946773 37.5324589,53.6524301 L37.5324589,45.6815874 L37.5324589,45.4791155 L30.0501945,45.4791155 L30.0501945,45.6815874 L30.0501945,53.6524301 C30.0501945,57.5946773 29.8301279,61.5309694 29.3987974,65.4374863 C28.9615984,69.3499582 28.307267,73.2326548 27.4416718,77.073666 C24.9710574,88.0309694 33.1780744,98.4791155 44.2547599,98.4791155 C45.546991,98.4791155 46.7984364,98.3332166 48,98.0646436 C38.8965784,96.0342672 32.7408755,86.7553964 34.9239361,77.073666 Z" id="Path" fill="#E09B2D"></path>
            <path d="M96.6804909,83.1305619 C96.8964554,84.0842758 97,85.0290764 97,85.9590217 C97,92.69444 91.553554,98.4791155 84.5006874,98.4791155 C76.4745016,98.4791155 70.528083,90.9890451 72.3208838,83.1305619 C72.9480683,80.376379 73.421415,77.5924853 73.7379657,74.7877941 C74.0515579,71.986074 74.208354,69.1665275 74.208354,66.3380678 L74.208354,60.624698 L74.208354,60.4791155 L94.7930208,60.4791155 L94.7930208,66.3380678 C94.7930208,71.9920162 95.4261221,77.622196 96.6804909,83.1305619 Z" id="Path" fill="#F7B239"></path>
            <path d="M78.813681,83.1305619 C79.4532749,80.376379 79.9359874,77.5924853 80.2588013,74.7877941 C80.5785983,71.986074 80.7384968,69.1665275 80.7384968,66.3380678 L80.7384968,60.624698 L80.7384968,60.4791155 L74.2520486,60.4791155 L74.2520486,60.624698 L74.2520486,66.3380678 C74.2520486,69.1665275 74.0921502,71.986074 73.7723532,74.7877941 C73.4495392,77.5924853 72.9668268,80.376379 72.3272329,83.1305619 C70.4989596,90.9890451 76.5630343,98.4791155 84.7480268,98.4791155 C85.8775738,98.4791155 86.9666937,98.336207 88,98.0694048 C81.5352739,96.4109529 77.2364182,89.9102492 78.813681,83.1305619 Z" id="Path" fill="#E09B2D"></path>
            <path d="M51.1755135,91.4791155 C50.539588,91.4791155 49.9091696,91.1930383 49.4796155,90.6426831 C48.7274612,89.6784417 48.8761529,88.268959 49.8120707,87.4940421 C51.6172412,85.9991544 52.6522868,83.7845943 52.6522868,81.4186343 C52.6522868,80.8216946 52.5859117,80.2193796 52.4546108,79.6284122 C51.5314463,75.4752162 50.8259574,71.2169063 50.3578536,66.9717357 C50.222205,65.742619 51.079574,64.6332486 52.2722967,64.4934949 C53.465599,64.3546369 54.5420928,65.2370567 54.6777415,66.4658747 C55.1275848,70.5453117 55.8058281,74.6375894 56.6927616,78.6292323 C56.8968143,79.5480836 57,80.4860466 57,81.4183357 C57,85.1483883 55.3727959,88.6353648 52.5357681,90.9849007 C52.1346191,91.3172639 51.6534721,91.4791155 51.1755135,91.4791155 Z" id="Path" fill="#FFFFFF"></path>
            <path d="M70.774169,25.4791155 C70.1472998,25.4791155 69.524291,25.2084862 69.0836118,24.6806674 C64.6070354,19.3193967 58.4502952,15.529059 51.7477541,14.0076091 C50.5465766,13.7348416 49.78786,12.512428 50.0527426,11.2768799 C50.3176253,10.0413318 51.5060339,9.26090528 52.7075084,9.53336731 C60.3457504,11.2671055 67.3615775,15.5861783 72.4623505,21.6951922 C73.2638284,22.6549183 73.1569251,24.1012274 72.2238967,24.9256388 C71.8040042,25.2973723 71.2876018,25.4791155 70.774169,25.4791155 Z" id="Path" fill="#FFFFFF"></path>
            <path d="M87.7067865,91.4791155 C87.0395534,91.4791155 86.3764022,91.2137714 85.9107519,90.697562 C85.0686252,89.7647211 85.1898262,88.3661985 86.1810991,87.5737122 C86.8652878,87.0267725 87.2904331,86.1849405 87.2904331,85.3762026 C87.2904331,85.1560675 87.2618598,84.9261815 87.2053412,84.6927496 C85.9399532,79.4845603 85.19799,74.1268564 85.0014309,68.7718118 C84.9565301,67.5485108 85.9738643,66.5225927 87.2737915,66.4803386 C88.5674388,66.4401528 89.6635851,67.395155 89.7084859,68.6187515 C89.8946832,73.6933823 90.5977114,78.7697861 91.7971611,83.7073127 C91.9321777,84.2651852 92,84.8260126 92,85.3762026 C92,87.4812259 90.9644542,89.5655654 89.229648,90.9519732 C88.7872332,91.3059622 88.2455969,91.4791155 87.7067865,91.4791155 Z" id="Path" fill="#FFFFFF"></path>
            <path d="M110.759407,55.4791155 C109.779505,55.4791155 108.879893,54.8256986 108.6041,53.8282832 C107.319153,49.1791908 104.754036,44.9925719 101.186332,41.7209772 C98.1931983,38.9762055 94.5523675,36.9678433 90.6578308,35.9126938 C89.4639201,35.5894434 88.7562295,34.352071 89.0773915,33.1492788 C89.398255,31.9464866 90.6267891,31.2335316 91.8204014,31.5570827 C96.4011383,32.7977628 100.681905,35.1591445 104.20036,38.3853338 C108.391882,42.2288562 111.406208,47.1506818 112.917401,52.6182743 C113.249009,53.8180595 112.552362,55.0617466 111.361436,55.3958221 C111.160263,55.4523534 110.958193,55.4791155 110.759407,55.4791155 Z" id="Path" fill="#FFFFFF"></path>
            <path d="M121.972956,56.011573 C121.047004,46.7587169 116.729202,38.2013045 109.814643,31.9161756 C102.852553,25.5877879 93.8297823,22.1024584 84.4084131,22.1024584 C83.6966512,22.1024584 82.9875968,22.1246885 82.280949,22.1643423 C74.3014542,8.75144102 59.8228453,0.479115479 44.1448303,0.479115479 C33.0809337,0.479115479 22.4851273,4.57216975 14.3088903,12.0039547 C6.18860747,19.3852711 1.11752951,29.4339071 0.0303327566,40.2978495 C-0.141440721,42.0023625 0.422012385,43.7110813 1.57659489,44.9857109 C2.7396006,46.2699536 4.40108032,47.0062528 6.13505987,47.0062528 L27.3254693,47.0062528 L27.3254693,52.9993855 C27.3254693,56.8557185 27.1055631,60.7718327 26.6720682,64.6356759 C26.2364675,68.4718817 25.5755458,72.3384286 24.7079543,76.1268695 C23.3467022,82.068332 24.7479646,88.2098661 28.5528524,92.9773356 C32.3577403,97.744805 38.0410057,100.478815 44.1448303,100.478815 C55.1425445,100.478815 64.0898068,91.564218 64.0898068,80.6068488 C64.0898068,79.1063126 63.9189358,77.5991674 63.5817062,76.1265691 C62.5206816,71.49939 61.7794385,66.7769817 61.3664,62.055775 L71.6875492,62.055775 L71.6875492,65.7282586 C71.6875492,68.4881037 71.5308172,71.2776891 71.221264,74.0183082 C70.9102066,76.7592276 70.4400105,79.5136654 69.8236115,82.2047171 C68.8013938,86.6630671 69.8524911,91.2719213 72.7070594,94.8491757 C75.5622294,98.4270308 79.8270851,100.479115 84.4081123,100.479115 C92.6610608,100.479115 99.3749671,93.789037 99.3749671,85.5659784 C99.3749671,84.4403509 99.2462122,83.3093161 98.9926131,82.2047171 C97.7562051,76.8120993 97.1289762,71.2686769 97.1289762,65.7282586 L97.1289762,62.055775 L116.471993,62.055775 C118.032695,62.055775 119.52902,61.3927753 120.576507,60.2371071 C121.617978,59.0883482 122.126981,57.5484586 121.972956,56.011573 Z M4.92362065,41.9630091 C4.74703391,41.7680446 4.45974201,41.3510787 4.52081034,40.7475598 C5.49730195,30.9915208 10.052157,21.9669745 17.3469645,15.3360764 C24.6902054,8.66131873 34.2072382,4.98523028 44.1454319,4.98523028 C57.5527881,4.98523028 69.9809451,11.7245756 77.3280969,22.7687625 C70.5329667,24.0593138 64.1944953,27.1964709 59.002484,31.9161756 C55.6449292,34.9683173 52.9016677,38.5569872 50.8599399,42.500138 L6.1353607,42.500138 C5.50452185,42.500138 5.10532149,42.1636814 4.92362065,41.9630091 Z M59.1832824,77.1317331 C59.4450038,78.2744838 59.5776695,79.4436704 59.5776695,80.6068488 C59.5776695,89.0795463 52.6546869,95.9727003 44.1451311,95.9727003 C39.423015,95.9727003 35.0260953,93.8572296 32.0818799,90.168524 C29.1379653,86.4801188 28.0537768,81.728571 29.1069798,77.1314327 C30.0118741,73.1792696 30.7010738,69.1459964 31.1562284,65.1400604 C31.6083747,61.1070876 31.8379074,57.0224448 31.8379074,52.9990851 L31.8379074,47.0059524 L48.8883052,47.0059524 C47.8465337,49.8904667 47.153724,52.9116665 46.8435691,56.011573 C46.6898454,57.5481582 47.1985476,59.0883482 48.2394166,60.2365063 C49.2869039,61.3924749 50.7832284,62.0551742 52.3439303,62.0551742 L56.8350096,62.0551742 C57.2591788,67.1137387 58.0470505,72.1753072 59.1832824,77.1317331 Z M94.5947909,83.2110828 C94.7728818,83.9864349 94.8631306,84.7786099 94.8631306,85.5656779 C94.8631306,91.3040649 90.1732032,95.9727003 84.408714,95.9727003 C81.2093953,95.9727003 78.2305845,94.5394554 76.2366885,92.0406645 C74.2427925,89.542174 73.5087693,86.3236065 74.2229378,83.2095807 C74.8766397,80.3545064 75.3754145,77.4327415 75.7054241,74.5241947 C76.0339296,71.6153473 76.2002882,68.6557311 76.2002882,65.7279582 L76.2002882,62.0554746 L92.6171397,62.0554746 L92.6171397,65.7279582 C92.6171397,71.6066355 93.2825739,77.488317 94.5947909,83.2110828 Z M117.231587,57.2129032 C117.117874,57.3384736 116.867885,57.5493598 116.472896,57.5493598 L52.344532,57.5493598 C51.9495433,57.5493598 51.6995542,57.3384736 51.5858407,57.2129032 C51.4760381,57.0915385 51.2973455,56.8325871 51.3346484,56.4594808 C52.1492939,48.3160302 55.9514742,40.7830079 62.0402574,35.2482973 C68.1696525,29.6766365 76.1136494,26.6082727 84.4090148,26.6082727 C92.7043802,26.6082727 100.648377,29.6766365 106.777772,35.2482973 C112.866555,40.7830079 116.668435,48.3160302 117.483381,56.4594808 C117.520383,56.8328875 117.34139,57.0918389 117.231587,57.2129032 Z" id="Shape" fill="#333333"></path>
            <circle id="Oval" fill="#FFFFFF" cx="44" cy="10.4791155" r="2"></circle>
            <circle id="Oval" fill="#FFFFFF" cx="84" cy="32.4791155" r="2"></circle>
        </g>
    </g>
</svg>