<?xml version="1.0" encoding="UTF-8"?>
<svg width="128px" height="128px" viewBox="0 0 128 128" version="1.1" xmlns="http://www.w3.org/2000/svg" xmlns:xlink="http://www.w3.org/1999/xlink">
    <!-- Generator: Sketch 53 (72520) - https://sketchapp.com -->
    <title>Oil</title>
    <desc>Created with Sketch.</desc>
    <g id="Oil" stroke="none" stroke-width="1" fill="none" fill-rule="evenodd">
        <g id="olive-oil" transform="translate(11.019651, 2.000000)" fill-rule="nonzero">
            <path d="M103.980349,58.1287901 C103.980349,66.3887472 99.544392,73.6296887 92.8794487,77.7003594 C94.7727109,82.1780973 95.8211599,87.0871645 95.8211599,92.2388544 C95.8211599,98.873239 94.0847523,105.11134 91.0329678,110.540698 C88.4407396,115.153226 83.4709264,118 78.0965935,118 L38.0298824,118 L37.9803493,117.946084 C39.8846189,116.280074 41.0376375,114.08299 41.0376375,111.678329 C41.0376375,111.268566 41.0046155,110.866891 40.9413233,110.470607 L41.0486449,110.451736 L76.8500125,110.451736 C80.3613533,110.451736 83.5644888,108.4811 85.0807496,105.378225 C87.0648223,101.315641 88.1160231,96.8379036 88.1160231,92.2388544 C88.1160231,84.5773668 85.2183413,77.3876457 80.1824841,71.893588 C77.7250958,69.2112586 74.7531145,66.9333005 71.3628543,65.2025915 C65.5317169,62.2264189 61.9075508,56.3953852 61.9075508,49.9874485 L61.9075508,25 L68.5367203,25 L69.6126876,25 L69.6126876,37.6756913 C72.8571005,36.0231608 76.541807,35.0823236 80.4549157,35.0823236 C93.4490785,35.0823236 103.980349,45.4018784 103.980349,58.1287901 Z M86.2640385,67.2621891 C89.3708597,65.3616442 91.4374874,61.9837962 91.4374874,58.1314859 C91.4374874,52.1872282 86.5199591,47.3698185 80.4521639,47.3698185 C75.9721772,47.3698185 72.1196089,50.0009276 70.4107196,53.7696678 C71.2968103,55.7726535 72.8708597,57.4629254 74.9209764,58.5088991 C79.2441085,60.7140704 83.0884214,63.6956345 86.2640385,67.2621891 Z" id="Shape" fill="#99E2FF"></path>
            <path d="M86.9803493,93.5683438 C86.9803493,98.2178197 85.932292,102.744654 83.9541523,106.851782 C82.4424256,109.988679 79.2488687,111.980922 75.7480279,111.980922 L40.0537187,111.980922 L39.9467181,112 C39.8616663,111.484906 39.7272296,110.983438 39.5406644,110.495597 C42.437912,109.560797 47.8922,107.091614 52.9129983,100.907757 C52.9129983,100.907757 46.1884209,98.8937107 39.3925097,100.419916 C40.2567455,97.4410901 40.8603387,93.4402516 40.3335664,88.5454927 C40.3335664,88.5454927 29.8392749,94.1433962 27.9708795,103.68218 C27.5456206,103.68218 27.1258489,103.698532 26.7115645,103.736688 C25.5757118,100.501677 24.9803493,97.0704403 24.9803493,93.5683438 C24.9803493,86.0545073 27.6992625,78.987631 32.4457003,73.5014675 L78.8949436,73.5014675 L79.0705343,73 C84.0913326,78.5542977 86.9803493,85.8228512 86.9803493,93.5683438 Z" id="Path" fill="#9AD14B"></path>
            <path d="M41.9348361,106.868349 C39.9954128,102.759211 38.9678682,98.2301615 38.9678682,93.5784101 C38.9678682,86.0600783 41.6343734,78.9911068 46.2884513,73.5017129 L32.9075067,73.5017129 L32.7353526,73 C27.8128219,78.557016 24.9803493,85.8291268 24.9803493,93.5784101 C24.9803493,98.2301615 26.007894,102.759211 27.9473173,106.868349 C29.4294563,110.006782 32.5605086,112 35.9928305,112 L49.9803493,112 C46.5480274,112 43.4169751,110.006782 41.9348361,106.868349 Z" id="Path" fill="#90BC42"></path>
            <path d="M78.9803493,71.5080494 L78.8033457,72 L31.9803493,72 C34.5358395,69.125832 37.6748886,66.6928153 41.2924007,64.8720633 C47.1556465,61.9203595 50.795284,56.1372661 50.795284,49.7820126 L50.795284,25 L60.6134551,25 L60.6134551,49.7820126 C60.6134551,56.1372661 64.2558583,61.9203595 70.1163385,64.8720633 C73.5236587,66.5885431 76.5105953,68.8477729 78.9803493,71.5080494 Z" id="Path" fill="#A3E3E5"></path>
            <path d="M67.2006403,13 C70.3932415,13 72.9803493,15.6857143 72.9803493,19 C72.9803493,20.6571429 72.3335724,22.1571429 71.2877203,23.2428571 C70.2418682,24.3285714 68.7969409,25 67.2006403,25 L60.5704884,25 L50.8000278,25 L44.1698759,25 C43.2258568,25 42.2983511,24.8285714 41.4258902,24.5028571 C40.5506772,24.1742857 39.7305089,23.6942857 39.0066692,23.0685714 L34.1489613,18.8942857 C31.8343255,16.9057143 33.1884287,13 36.1938774,13 L46.5560701,13 L64.8144461,13 L67.2006403,13 L67.2006403,13 Z" id="Path" fill="#7ECFE8"></path>
            <path d="M52.0011232,23.0685714 L47.3165101,18.8942857 C45.0843517,16.9057143 46.3902042,13 49.2885597,13 L47.0723263,13 L37.0793698,13 C34.1810142,13 32.8751618,16.9057143 35.1073202,18.8942857 L39.7919333,23.0685714 C40.4899804,23.6942857 41.2809236,24.1742857 42.1249502,24.5028571 C42.9663226,24.8285714 43.8607785,25 44.7711594,25 L51.1650591,25 L56.9803493,25 C56.0699684,25 55.1755126,24.8285714 54.3341401,24.5028571 C53.4901135,24.1742857 52.6991704,23.6942857 52.0011232,23.0685714 Z" id="Path" fill="#69C2D6"></path>
            <polygon id="Path" fill="#F7B239" points="65.9803493 2 64.3744512 14 46.5889284 14 44.9803493 2"></polygon>
            <polygon id="Path" fill="#E09B2D" points="44.9803493 2 46.647016 14 54.9803493 14 53.3136827 2"></polygon>
            <path d="M50.9803493,25 L50.9803493,49.994914 C50.9803493,56.4047652 47.3497099,62.237541 41.5009595,65.2146027 C37.8923909,67.0509967 34.7611023,69.5049153 32.21193,72.4037753 C27.439129,77.832059 24.705114,84.8243788 24.705114,92.2589432 C24.705114,95.724092 25.3037833,99.1191289 26.4459449,102.32001 C24.3216346,102.4872 22.3573373,103.085848 20.7020306,103.997303 L20.7020306,104 C20.0316314,103.630564 19.3088141,103.312363 18.547373,103.053489 L18.5584084,103.018433 C17.5321183,99.6045194 16.9803493,95.99645 16.9803493,92.2589432 C16.9803493,77.5866671 25.4831082,64.855953 37.9337736,58.5162138 C41.1919689,56.8577963 43.2555847,53.5868037 43.2555847,49.994914 L43.2555847,25 L44.3342929,25 L50.9803493,25 L50.9803493,25 Z" id="Path" fill="#99E2FF"></path>
            <path d="M36.5559148,105.863571 C37.9026948,106.952 38.9182545,108.292857 39.4794129,109.785714 C39.6655532,110.271571 39.7996837,110.771 39.8845418,111.284 C39.9475011,111.683 39.9803493,112.087429 39.9803493,112.5 C39.9803493,114.921143 38.8333965,117.133286 36.9391449,118.810714 C34.7328346,120.767714 31.5164392,122 27.9359753,122 C25.3436976,122 22.9485096,121.354 20.9830867,120.257429 C24.0626141,118.539286 26.0718347,115.705571 26.0718347,112.502714 C26.0718347,109.299857 24.0598768,106.466143 20.9803493,104.745286 L20.9803493,104.742571 C22.622764,103.825143 24.5717627,103.222571 26.6795281,103.054286 C27.0928692,103.016286 27.5116849,103 27.9359753,103 C31.3138748,103 34.368766,104.096571 36.5559148,105.863571 Z" id="Path" fill="#9AD14B"></path>
            <path d="M21.9103493,120.254714 C19.9521675,121.354 17.5630766,122 14.9803493,122 C8.35307662,122 2.98034934,117.746714 2.98034934,112.5 C2.98034934,107.253286 8.35307662,103 14.9803493,103 C16.6848948,103 18.3076221,103.282286 19.7776221,103.789857 C20.5303493,104.050429 21.2448948,104.370714 21.9076221,104.742571 C24.9758039,106.463429 26.9803493,109.297143 26.9803493,112.5 C26.9803493,115.702857 24.9785312,118.536571 21.9103493,120.254714 Z" id="Path" fill="#9AD14B"></path>
            <path d="M10.6266153,112.5 C10.6266153,108.391929 14.1078902,104.893486 18.9803493,103.5681 C17.6312436,103.201943 16.1778063,103 14.6615395,103 C7.65806402,103 1.98034934,107.253286 1.98034934,112.5 C1.98034934,117.746714 7.65806402,122 14.6615395,122 C16.1766535,122 17.624903,121.7948 18.9711267,121.429457 C14.1032789,120.102171 10.6266153,116.605357 10.6266153,112.5 Z" id="Path" fill="#90BC42"></path>
            <path d="M52.9803493,100.094386 C47.7447384,106.483197 42.0570912,109.034217 39.0358862,110 C38.4493833,108.451368 37.3879562,107.060415 35.9803493,105.931321 C36.0604571,105.824325 37.7026651,103.611189 38.8813928,99.5903766 C45.9680639,98.0135876 52.9803493,100.094386 52.9803493,100.094386 Z" id="Path" fill="#7EA33E"></path>
            <path d="M40.7765096,88 C41.3217521,92.6197609 40.6969951,96.3958239 39.8024566,99.2072931 C38.632457,102.880466 37.0024091,104.902255 36.9228945,105 C34.6538905,103.325465 31.4846684,102.286276 27.9803493,102.286276 C29.9142564,93.2834014 40.7765096,88 40.7765096,88 Z" id="Path" fill="#7EA33E"></path>
            <path d="M77.9926861,105 C77.7257574,105 77.4542955,104.944609 77.1940334,104.827796 C76.1815179,104.373703 75.7188594,103.161418 76.1607183,102.120515 C77.3681637,99.2744833 77.9804196,96.2378754 77.9804196,93.0954223 C77.9804196,84.6258804 73.4364995,76.930435 66.1219613,73.0122401 C62.665222,71.1602219 59.6364752,68.4817331 57.3629152,65.2663399 C56.7133266,64.3477345 56.9109231,63.0614127 57.8042408,62.3934358 C58.6978251,61.7251846 59.9487364,61.9289231 60.5980583,62.8472543 C62.5097581,65.5509705 65.0590466,67.804433 67.9699288,69.3641427 C76.6119103,73.9933656 81.9803493,83.0864623 81.9803493,93.0951481 C81.9803493,96.8071366 81.2558287,100.396827 79.8267872,103.764956 C79.4987929,104.538504 78.7638725,105 77.9926861,105 Z" id="Path" fill="#FFFFFF"></path>
            <path d="M96.8052245,62 C96.7346289,62 96.6634773,61.9965245 96.591492,61.9895736 C95.4461189,61.8775569 94.6120339,60.8934671 94.7287669,59.7917463 C94.7835202,59.2739028 94.8113138,58.7453656 94.8113138,58.2208385 C94.8113138,51.8308048 90.6092039,46.071968 84.3548167,43.8904486 C83.2725351,43.5129602 82.7133284,42.3631177 83.1057736,41.3220838 C83.4982189,40.28105 84.6944541,39.7431557 85.775902,40.1206441 C93.6740009,42.875347 98.9803493,50.1492169 98.9803493,58.2208385 C98.9803493,58.8806412 98.9453294,59.5457907 98.8764014,60.1978404 C98.7671727,61.2305867 97.8613802,62 96.8052245,62 Z" id="Path" fill="#FFFFFF"></path>
            <path d="M19.897016,114 C18.7989605,114 17.8992382,113.09363 17.819516,111.944296 C17.5986827,111.549926 16.3659049,110.444444 14.0636827,110.444444 C12.9131271,110.444444 11.9803493,109.449481 11.9803493,108.222222 C11.9803493,106.994963 12.9131271,106 14.0636827,106 C18.7992382,106 21.9803493,108.987556 21.9803493,111.777778 C21.9803493,113.005037 21.0475716,114 19.897016,114 Z" id="Shape" fill="#FFFFFF"></path>
            <path d="M34.7835804,114 C33.6263226,114 32.6781971,113.171612 32.5929625,112.120603 C32.4582273,111.920217 31.8724223,111.336956 30.5675416,110.987976 C29.4020825,110.676144 28.730457,109.548398 29.0672949,108.469459 C29.4041328,107.390521 30.6226073,106.768485 31.7877735,107.080588 C34.84509,107.898943 36.9803493,109.907953 36.9803493,111.966314 C36.9803493,113.089451 35.9967827,114 34.7835804,114 Z" id="Shape" fill="#FFFFFF"></path>
            <circle id="Oval" fill="#FFFFFF" cx="78.9803493" cy="42" r="2"></circle>
            <circle id="Oval" fill="#FFFFFF" cx="55.9803493" cy="58" r="2"></circle>
            <circle id="Oval" fill="#FFFFFF" cx="67.9803493" cy="19" r="2"></circle>
            <g id="Group" transform="translate(0.980349, 0.000000)" fill="#333333">
                <path d="M104.940783,58.4500262 C104.940783,44.5677118 93.5045561,33.2736943 79.4474413,33.2736943 C76.4676893,33.2736943 73.4956136,33.7970393 70.7020104,34.8025764 L70.7020104,26.561179 C73.4575065,25.367476 75.3875326,22.6492227 75.3875326,19.4923668 C75.3875326,15.2379214 71.8827807,11.7764803 67.5744909,11.7764803 L67.556671,11.7764803 L68.8772585,2.30726638 C68.9584073,1.72598253 68.7807572,1.13847162 68.3903655,0.696078603 C67.9999739,0.25368559 67.4346736,0 66.8405875,0 L45.3674021,0 C44.7733159,0 44.2080157,0.253956332 43.817624,0.696349345 C43.4272324,1.13874236 43.2495822,1.72625328 43.3307311,2.30753712 L44.6513185,11.7767511 L36.6894125,11.7767511 C34.4484987,11.7767511 32.5094256,13.1220699 31.749752,15.2043493 C30.9900783,17.2863581 31.6145953,19.5438079 33.3409269,20.9554585 L38.1796997,24.9123581 C39.1674674,25.7202533 40.2991645,26.3283406 41.5048825,26.7157729 L41.5048825,50.2738777 C41.5048825,53.1136943 39.9024674,55.7017205 37.3229765,57.0286288 C23.7971671,63.9869782 15.3949739,77.6581135 15.3949739,92.7073275 C15.3949739,95.4529258 15.6809138,98.1782183 16.2360705,100.847467 C15.5665927,100.767869 14.882859,100.724821 14.1867885,100.724821 C6.40171018,100.724821 0.0679895561,105.886524 0.0679895561,112.231371 C0.0679895561,118.576218 6.40171018,123.737921 14.1867885,123.737921 C16.7122715,123.737921 19.0831332,123.192105 21.1365274,122.241258 C23.2573629,123.221616 25.647141,123.736838 28.1166971,123.736838 C31.8517363,123.736838 35.2498433,122.546655 37.7777937,120.609764 L77.0987859,120.609764 C83.2227807,120.609764 88.8522063,117.335677 91.7897389,112.065135 C95.075718,106.169721 96.8127415,99.4756157 96.8127415,92.7070568 C96.8127415,87.9487598 95.9817885,83.3068821 94.3404439,78.8851179 C101.008629,74.152 104.940783,66.632131 104.940783,58.4500262 Z M69.4395431,67.3552838 C71.3021279,68.313441 73.0262663,69.4527249 74.5985248,70.7414585 L37.608094,70.7414585 C39.1803525,69.4527249 40.9044909,68.313441 42.7670757,67.3552838 C49.2600783,64.0162183 53.2933943,57.4710218 53.2933943,50.273607 L53.2933943,27.2090655 L58.9134987,27.2090655 L58.9134987,50.273607 C58.9134987,57.4691266 62.9468146,64.0143231 69.4395431,67.3552838 Z M41.1240862,101.276052 C44.0925979,100.792777 46.992846,100.979319 49.1150522,101.276865 C45.9919191,104.350061 42.9134726,106.054655 40.676671,106.985738 C40.2986162,106.386856 39.8596997,105.817485 39.3634856,105.284934 C39.8832768,104.350603 40.5332898,103.004472 41.1240862,101.276052 Z M37.191658,100.081537 C36.8177154,101.159633 36.4212924,102.046314 36.0739426,102.731834 C34.5044256,101.855712 32.7076371,101.232463 30.7718538,100.930856 C32.4203264,96.5754236 36.0418668,93.273179 38.6087467,91.3657991 C38.5977807,95.1264105 37.8806005,98.094559 37.191658,100.081537 Z M54.639752,101.273074 C55.0693473,100.747022 55.2056005,100.044445 55.0038251,99.3989956 C54.8017755,98.7535459 54.2880157,98.2491528 53.6327937,98.0542183 C53.3805744,97.978952 48.2226893,96.4771441 42.2179504,97.0435371 C42.7040209,94.3588559 42.912376,91.1638253 42.5148564,87.5001397 C42.4419321,86.8281572 42.0353655,86.2360437 41.4300392,85.9206288 C40.8247128,85.605214 40.1001305,85.6076507 39.4975457,85.9273974 C39.1074282,86.1342445 31.3163185,90.3421223 27.6509138,97.8159651 C27.3430418,96.1365502 27.1832115,94.4297904 27.1832115,92.7070568 C27.1832115,86.056 29.4948564,79.7842533 33.554765,74.8025939 L78.6518538,74.8025939 C82.7120366,79.7842533 85.0236815,86.056 85.0236815,92.7070568 C85.0236815,97.0167336 84.074295,101.161258 82.2015666,105.025834 C81.0410836,107.42055 78.5509661,108.967843 75.857154,108.967843 L45.7786292,108.967843 C48.5089034,107.359092 51.6556136,104.927013 54.639752,101.273074 Z M47.726201,4.06113537 L64.4820627,4.06113537 L63.4060183,11.7767511 L48.8025196,11.7767511 L47.726201,4.06113537 Z M35.9634595,17.8273013 C35.4077546,17.3727249 35.537154,16.8041659 35.618577,16.5808035 C35.7,16.357441 35.9675718,15.8378865 36.6891384,15.8378865 L67.5744909,15.8378865 C69.615,15.8378865 71.2752611,17.4775022 71.2752611,19.4926376 C71.2752611,21.5077729 69.6152742,23.1473886 67.5744909,23.1473886 L44.6332245,23.1473886 C43.2375196,23.1473886 41.8771802,22.6633013 40.8022324,21.7844716 L35.9634595,17.8273013 Z M19.5069713,92.7070568 C19.5069713,79.1775197 27.0614883,66.8860873 39.2225718,60.6300437 C43.1667885,58.6016419 45.617154,54.6333712 45.617154,50.273607 L45.617154,27.2090655 L49.1811227,27.2090655 L49.1811227,50.273607 C49.1811227,55.9510742 45.995483,61.1160262 40.8674804,63.7533275 C29.8901828,69.4004716 23.0709399,80.4946812 23.0709399,92.7070568 C23.0709399,95.5807162 23.4542037,98.4170131 24.2020888,101.171004 C23.1350914,101.420087 22.106201,101.770699 21.1343342,102.220131 C21.005483,102.160568 20.8755352,102.102087 20.7442167,102.045502 C19.9258747,99.0099389 19.5069713,95.8736594 19.5069713,92.7070568 Z M4.17998695,112.2311 C4.17998695,108.125563 8.66894256,104.785686 14.1865144,104.785686 C19.7040862,104.785686 24.1930418,108.125563 24.1930418,112.2311 C24.1930418,116.336638 19.7040862,119.676515 14.1865144,119.676515 C8.66894256,119.676515 4.17998695,116.336638 4.17998695,112.2311 Z M28.1161488,119.675703 C27.135235,119.675703 26.1770757,119.564969 25.2575718,119.359205 C27.1631984,117.397406 28.3053133,114.921738 28.3053133,112.2311 C28.3053133,109.539921 27.1626501,107.063441 25.256201,105.101642 C26.1759791,104.895607 27.1349608,104.784873 28.1161488,104.784873 C33.6337206,104.784873 38.1226762,108.124751 38.1226762,112.230288 C38.1226762,116.335825 33.6337206,119.675703 28.1161488,119.675703 Z M90.7375457,76.382917 C89.8843864,76.9081572 89.5408747,77.9656769 89.9257833,78.882952 C91.7667102,83.2716856 92.6999217,87.9230393 92.6999217,92.7070568 C92.6999217,98.7928035 91.1394517,104.809511 88.1868407,110.106856 C85.9719713,114.080271 81.7231723,116.548629 77.0982376,116.548629 L41.1994778,116.548629 C41.7477807,115.449144 42.0926632,114.265729 42.1971149,113.028978 L75.857154,113.028978 C80.1245953,113.028978 84.0710052,110.575511 85.9108355,106.778891 C88.0508616,102.362812 89.135953,97.6283406 89.135953,92.7070568 C89.135953,80.494952 82.3167102,69.4004716 71.3394125,63.7535983 C66.2111358,61.1149432 63.0254961,55.9497205 63.0254961,50.273607 L63.0254961,27.2090655 L66.5894648,27.2090655 L66.5894648,37.9088035 C66.5894648,38.6184192 66.9645039,39.2763231 67.578329,39.6445328 C68.1927023,40.0127424 68.9567624,40.0381921 69.5941645,39.7105939 C72.6641123,38.1343319 75.9794256,37.3351004 79.4471671,37.3351004 C91.2367755,37.3351004 100.828238,46.8072926 100.828238,58.4502969 C100.828512,65.7887686 97.056188,72.4923493 90.7375457,76.382917 Z" id="Shape"></path>
                <path d="M79.4471671,45.613048 C74.3131332,45.613048 69.6487206,48.6096245 67.563799,53.2468996 C67.3307702,53.7653712 67.3277546,54.356131 67.5555744,54.8767686 C68.6346345,57.341607 70.5627415,59.3851703 72.9854178,60.6313974 C77.0540992,62.7242358 80.6548042,65.5253362 83.6866449,68.9564541 C84.0896475,69.4123843 84.6596084,69.6519913 85.2366971,69.6519913 C85.6109138,69.6519913 85.9884204,69.5512751 86.3253525,69.343345 C90.1579896,66.9784105 92.4463316,62.9064454 92.4463316,58.4508384 C92.4466057,51.3720087 86.6151305,45.613048 79.4471671,45.613048 Z M85.4902872,64.8871965 C82.4041645,61.7046201 78.8445822,59.0662358 74.8852872,57.0297118 C73.5721018,56.3542096 72.4812533,55.3226812 71.7443342,54.074559 C73.3190601,51.3744454 76.2500131,49.6744541 79.446893,49.6744541 C84.3473499,49.6744541 88.3340601,53.6115895 88.3340601,58.4511092 C88.3343342,60.9332751 87.2944778,63.2418952 85.4902872,64.8871965 Z" id="Shape"></path>
            </g>
        </g>
    </g>
</svg>