<?xml version="1.0" encoding="UTF-8"?>
<svg width="128px" height="128px" viewBox="0 0 128 128" version="1.1" xmlns="http://www.w3.org/2000/svg" xmlns:xlink="http://www.w3.org/1999/xlink">
    <!-- Generator: Sketch 53 (72520) - https://sketchapp.com -->
    <title>Poultry</title>
    <desc>Created with Sketch.</desc>
    <g id="Poultry" stroke="none" stroke-width="1" fill="none" fill-rule="evenodd">
        <g id="roast-chicken" transform="translate(6.000000, 23.352144)" fill-rule="nonzero">
            <path d="M105,66.6478555 L105,70.7678555 C105,75.1198555 101.551095,78.6478555 97.2966632,78.6478555 L17.7007299,78.6478555 C13.4462982,78.6478555 10,75.1198555 10,70.7678555 L10,66.6478555 L29.3482795,66.6478555 L95.265902,66.6478555 L105,66.6478555 Z" id="Path" fill="#E6E6E6"></path>
            <path d="M28.3608514,70.7678555 L28.3608514,66.6478555 L10,66.6478555 L10,70.7678555 C10,75.1198555 13.4187388,78.6478555 17.6391486,78.6478555 L36,78.6478555 C31.7795902,78.6478555 28.3608514,75.1198555 28.3608514,70.7678555 Z" id="Path" fill="#CCCCCC"></path>
            <path d="M29.7142265,28.1894988 L30,28.2052203 C28.603484,29.7668898 27.5439652,31.5827236 26.9158026,33.6186585 C26.3038158,35.5995681 26.1528411,37.6276422 26.406263,39.6242733 L26.1798009,39.6478555 L17.4556201,37.1062123 C17.5364994,36.9070732 17.6092908,36.7053139 17.6739942,36.4956938 C18.2940689,34.4859615 17.9894235,32.4185836 17,30.7285218 C18.7820406,29.8454973 20.2055164,28.2838278 20.828287,26.2740955 C20.8929905,26.0670957 20.94691,25.8574756 20.9900456,25.6478555 L29.7142265,28.1894988 Z" id="Path" fill="#E6E6E6"></path>
            <path d="M20.8448891,25.5260708 C20.802547,25.735865 20.7496193,25.9456592 20.6861062,26.1528309 C20.0747918,28.1642325 18.6775018,29.7271991 16.9282429,30.6109571 C17.8994653,32.3024226 18.1985066,34.3715177 17.5898386,36.3829193 C17.5263254,36.5927135 17.4548731,36.7946404 17.3754816,36.9939449 C16.486297,39.2203855 14.5888408,40.8095764 12.3738186,41.3943777 C11.0850302,41.7405381 9.68509388,41.7431605 8.31426771,41.3340618 C4.3711577,40.1644593 2.13496444,36.0498711 3.31525106,32.1424546 C3.92391905,30.1310529 5.32385542,28.5680863 7.07311429,27.6843284 C6.10189189,25.9928628 5.80020428,23.9263902 6.40887227,21.9123661 C7.59180527,18.0075721 11.7439795,15.7889987 15.6870895,16.9612236 C16.4810043,17.1972421 17.2061131,17.5512698 17.8465377,18.0023272 C20.2203428,19.6623236 21.4562035,22.6046869 20.8448891,25.5260708 Z" id="Path" fill="#E6E6E6"></path>
            <path d="M11.1437564,32.1424546 C11.7256114,30.1310529 13.0638778,28.5680863 14.7360783,27.6843284 C13.8076402,25.9928628 13.5192425,23.9263902 14.1010974,21.9123661 C14.6007338,20.1873336 15.6546502,18.7924645 17,17.8725171 C16.4353477,17.4851846 15.8102331,17.173378 15.1281979,16.9612236 C11.3587898,15.7889987 7.3895271,18.0075721 6.25870465,21.9123661 C5.6768497,23.9263902 5.96524737,25.9928628 6.89368549,27.6843284 C5.22148496,28.5680863 3.88321857,30.1310529 3.30136363,32.1424546 C2.17307098,36.0498711 4.31075547,40.1644593 8.08016362,41.3340618 C9.39060216,41.7431605 10.7288685,41.7405381 11.9608832,41.3943777 C12.7018628,41.1895661 13.4043894,40.8594025 14.042912,40.4246041 C11.4857859,38.6775431 10.2201249,35.341029 11.1437564,32.1424546 Z" id="Path" fill="#CCCCCC"></path>
            <path d="M52.5844614,22.7664052 C64.1176847,26.2061133 71.1930872,36.5541871 68.385136,45.8785069 C65.5771848,55.2028267 53.9514207,59.9715728 42.4155534,56.5292329 C33.3439144,53.8211535 27.0299902,46.8417304 26.1151587,39.4491212 C25.8666206,37.4437214 26.0146858,35.4067404 26.6148788,33.4171311 C27.2309359,31.3722549 28.2700365,29.5484464 29.6396398,27.9799184 C34.5152161,22.3953272 43.578923,20.0793799 52.5844614,22.7664052 Z" id="Path" fill="#F7B239"></path>
            <path d="M41.4197748,39.449827 C41.1759041,37.4443476 41.3211887,35.4072859 41.9101106,33.4175977 C42.5145986,31.3726404 43.5341857,29.5487596 44.878069,27.9801695 C46.8274781,25.704661 49.4592063,23.9721058 52.4912456,22.8990954 C52.3555601,22.8554065 52.2222096,22.8080329 52.0852269,22.7664495 C43.2488051,20.0793177 34.3553073,22.3953569 29.5712903,27.9801695 C28.227407,29.5487596 27.2078199,31.3726404 26.6033319,33.4175977 C26.0144101,35.4072859 25.8691254,37.4443476 26.1129961,39.449827 C27.0106479,46.8427292 33.2060017,53.8224291 42.1072826,56.5306157 C47.3414226,58.1223663 52.592426,57.9555062 57,56.3971803 C48.3220942,53.6008262 42.3031575,46.7271905 41.4197748,39.449827 Z" id="Path" fill="#E09B2D"></path>
            <path d="M106.999645,45.1060559 C107.046629,54.0835385 102.426506,62.0265573 95.4127945,66.6478555 L29.4102935,66.6478555 C20.0891304,61.5093254 13.4278007,52.1731593 12,41.2047237 L12,41.2021245 C14.18477,40.6225129 16.0563113,39.0474247 16.9333515,36.8407418 L25.3800846,39.3619225 L25.5993447,39.3385301 C26.3145502,45.1242499 30.3786921,50.6552526 36.4918716,54.0289562 C38.0919481,54.9152682 39.8329774,55.6534283 41.6914675,56.2070484 C53.0799399,59.6067436 64.5571604,54.8970741 67.3292341,45.6882667 C70.1013078,36.4794592 63.1163085,26.2595803 51.7304464,22.8624842 C45.6277078,21.0404763 39.4988669,21.5473116 34.6960273,23.8267709 C32.5034266,24.8690322 30.5875112,26.2803735 29.0787932,28.011411 L28.8021078,27.9958161 L20.3553747,25.4746354 C20.9583399,22.5791763 19.7393584,19.662924 17.3979741,18.0176586 C23.6025119,8.69708749 34.2679481,2.55788252 46.2515549,2.64885295 C48.3841201,2.66444789 50.469701,2.87497947 52.4926361,3.26485278 C57.8801692,4.29151915 62.8187412,6.58137502 66.989903,9.80692683 C74.047989,15.2703514 82.220647,19.0833123 90.818774,21.5187209 C91.3147194,21.6590753 91.7401883,21.8098263 92.0873501,21.9683748 C100.855143,26.0259162 106.94744,34.8549871 106.999645,45.1060559 Z" id="Path" fill="#F7B239"></path>
            <path d="M43.9225744,67.5562964 C43.9483829,67.5876881 43.9741915,67.6164638 44,67.6478555 L29.2142915,67.6478555 C19.9980644,62.4760732 13.4117268,53.0794914 12,42.0400774 L12,42.0374614 C14.1601742,41.454099 16.010646,39.8688182 16.8778127,37.6478555 L25.229454,40.1853512 L25.4462457,40.1618074 C26.1533995,45.9849675 30.171788,51.5517621 36.2161465,54.9472975 C37.8111138,59.1040816 40.2577627,63.3317586 43.9225744,67.5562964 Z" id="Path" fill="#E09B2D"></path>
            <path d="M18,18.7973513 C24.1878022,9.61037916 34.8244701,3.55917217 46.7757531,3.64883866 C48.902566,3.66421006 50.9825214,3.87172393 53,4.25600888 C49.860543,6.09545283 36.6388992,14.3985696 35.2513946,24.5231971 C33.0647081,25.5505188 31.1539606,26.9416304 29.649312,28.6478555 L29.373373,28.6324841 L20.9494236,26.1474415 C21.5507624,23.2937414 20.3350688,20.41929 18,18.7973513 Z" id="Path" fill="#E09B2D"></path>
            <path d="M90.0176631,29.6478555 C89.77016,29.6478555 89.5189588,29.6022027 89.2756819,29.5054499 C89.242928,29.4935179 89.1760995,29.4717291 89.0696494,29.4421585 C78.8567761,26.5891175 69.8209295,22.1978882 62.2122544,16.3896061 C59.0303728,13.9630038 55.4477843,12.3163901 51.5648638,11.4959365 C50.4950796,11.270007 49.814644,10.2352965 50.0447136,9.18502259 C50.2747833,8.13448926 51.3281905,7.46474184 52.3979748,7.6922277 C56.8672955,8.63641074 60.9871534,10.5289271 64.6431739,13.3171204 C71.8495574,18.8182835 80.4318683,22.9841021 90.152905,25.6994066 C90.4638028,25.7860431 90.6619109,25.8581538 90.7733798,25.9032878 C91.7850523,26.3128661 92.2668514,27.450036 91.8500318,28.443244 C91.5346436,29.1941808 90.7960962,29.6478555 90.0176631,29.6478555 Z" id="Path" fill="#FFFFFF"></path>
            <path d="M92.9883298,63.6478555 C92.3439517,63.6478555 91.7122863,63.3442333 91.3301089,62.7842531 C90.7246636,61.8970184 90.9754758,60.7017947 91.8905299,60.1145861 C97.017216,56.8243173 100.058744,51.3234112 100.026962,45.3994375 C100.02246,44.5548435 99.9535991,43.7028003 99.8214394,42.8664263 C99.6553789,41.8147938 100.39987,40.831746 101.484428,40.6706875 C102.567396,40.5080877 103.582298,41.2314383 103.748359,42.2835845 C103.909652,43.3056768 103.994403,44.3475481 103.9997,45.3799152 C104.038368,52.6080263 100.331274,59.3177703 94.0826867,63.3277935 C93.7455337,63.5443363 93.3646805,63.6478555 92.9883298,63.6478555 Z" id="Path" fill="#FFFFFF"></path>
            <path d="M56.1524918,52.6478555 C55.4210515,52.6478555 54.7215025,52.2166932 54.3971895,51.4858916 C53.954056,50.4870057 54.3802151,49.3070104 55.3490391,48.8501268 C57.6765829,47.7523335 59.2840026,46.027419 59.8755331,43.9933192 C60.50487,41.8282267 59.9989829,39.3441377 58.4507162,36.9984662 C57.517384,35.584328 56.297031,34.3287599 54.823863,33.2667642 C53.9507126,32.6375217 53.7377616,31.3975986 54.3483239,30.497355 C54.958629,29.5968462 56.1612362,29.3775527 57.0343866,30.0070603 C58.8928209,31.3466864 60.4423735,32.9459115 61.6403513,34.7609829 C63.8547327,38.1161471 64.5403937,41.8006493 63.5707981,45.1356607 C62.6559834,48.2826684 60.3060643,50.8866131 56.9536298,52.4675416 C56.6938708,52.5897839 56.4209952,52.6478555 56.1524918,52.6478555 Z" id="Path" fill="#FFFFFF"></path>
            <path d="M99.8773886,75.6478555 C99.7891485,75.6478555 99.6999084,75.6410377 99.6099184,75.6271293 C98.5847825,75.4673195 97.8726118,74.4312828 98.0190955,73.3131594 L98.2690676,71.4041683 C98.4155513,70.286045 99.3649457,69.5090856 100.390082,69.6686227 C101.415217,69.8284326 102.127388,70.8644693 101.980905,71.9825926 L101.730932,73.8915837 C101.597447,74.9118031 100.795286,75.6478555 99.8773886,75.6478555 Z" id="Path" fill="#FFFFFF"></path>
            <circle id="Oval" fill="#FFFFFF" cx="95" cy="31.6478555" r="2"></circle>
            <g id="Group" transform="translate(0.000000, 0.647856)" fill="#333333">
                <path d="M113.899693,64.197785 L105.644054,64.197785 L101.350483,64.197785 C106.534609,59.0246254 109.493526,51.9997394 109.45451,44.5443648 C109.400045,33.8785668 103.082104,24.0813029 93.3504108,19.5807166 C92.9120722,19.3803257 92.3888939,19.1937459 91.7958014,19.0261889 C82.9072686,16.5099674 75.0894447,12.6728339 68.5586185,7.62032573 C62.2123973,2.71530945 54.6069345,0.0917263844 46.5649661,0.0328338762 C34.859702,-0.0521172638 23.9444424,5.44990228 17.0082709,14.8411726 C16.6914312,14.7074919 16.3662122,14.5886645 16.0315666,14.4888599 C13.6429616,13.7761564 11.1181941,14.0323127 8.92257336,15.2091205 C6.7269526,16.3864495 5.12363883,18.3439739 4.4074763,20.7213029 C3.85051919,22.5709446 3.88089391,24.491987 4.47581941,26.2806515 C2.9903386,27.4488599 1.90313318,29.0363518 1.34591422,30.8859935 C-0.132234763,35.7936156 2.67716479,40.9829316 7.60860497,42.4539414 C8.49916027,42.7197394 9.39914221,42.8461238 10.2844605,42.8461238 C10.3742754,42.8461238 10.4635666,42.8432573 10.5531196,42.8406515 C12.1260587,51.233355 16.6851467,58.8145928 23.2827449,64.1975244 L10.2195214,64.1975244 L1.96388262,64.1975244 C0.879295711,64.1975244 0,65.0725733 0,66.1519218 C0,67.2312704 0.879295711,68.1063192 1.96388262,68.1063192 L8.25563883,68.1063192 L8.25563883,70.1779805 C8.25563883,75.5012378 12.6073409,79.8319218 17.9564334,79.8319218 L97.9071422,79.8319218 C103.256235,79.8319218 107.607937,75.5009772 107.607937,70.1779805 L107.607937,68.1063192 L113.899693,68.1063192 C114.98428,68.1063192 115.863576,67.2312704 115.863576,66.1519218 C115.863576,65.0725733 114.98428,64.197785 113.899693,64.197785 Z M28.2076388,33.3597394 C30.1186275,27.0155049 36.8207043,23.1001954 44.5673047,23.1001954 C46.8145102,23.1001954 49.1502212,23.4298371 51.4817427,24.125342 C56.576316,25.6450814 60.8704108,28.6587622 63.5734989,32.6115961 C66.1901761,36.4380456 66.9859413,40.6876873 65.814158,44.5777199 C64.6423747,48.4677524 61.6289932,51.5809772 57.3288758,53.3443648 C52.8868352,55.1656026 47.6348894,55.3318567 42.5400542,53.8121173 C32.1720632,50.7192182 25.7425734,41.5442345 28.2076388,33.3597394 Z M24.4451016,32.2373941 C24.0502302,33.5484039 23.8315847,34.8776547 23.7745011,36.206645 L19.5202077,34.9375896 C19.7422573,33.4960261 19.6225914,32.0398697 19.1643521,30.6618893 C20.3083792,29.7620847 21.2130745,28.6118567 21.8244966,27.2865147 L26.0800993,28.5558306 C25.3932641,29.6974593 24.8402348,30.9263844 24.4451016,32.2373941 Z M5.10845147,32.0085993 C5.53631603,30.5878827 6.50542664,29.4337459 7.8366772,28.7588274 C8.31481716,28.5164821 8.67250564,28.0899023 8.82647404,27.5783713 C8.98044244,27.0668404 8.91759819,26.514658 8.65208126,26.0508143 C7.9131377,24.7585668 7.74188713,23.2643648 8.16975169,21.8436482 C8.5845237,20.4664495 9.51357111,19.3323779 10.7853815,18.6504235 C11.5850745,18.2214984 12.4599187,18.0039088 13.3436659,18.0039088 C13.8652731,18.0039088 14.3900226,18.08 14.9037743,18.2329642 C16.2876569,18.6457329 17.4272325,19.5702932 18.1124966,20.8359609 C18.7977607,22.1016287 18.946754,23.5570033 18.5319819,24.9344625 C18.1041174,26.3551792 17.1352686,27.5090554 15.8037562,28.1839739 C15.3256163,28.4263192 14.9679278,28.852899 14.8139594,29.36443 C14.659991,29.8759609 14.7228352,30.4278827 14.9880903,30.891987 C15.7270339,32.1842345 15.8982844,33.6786971 15.4704199,35.0994137 C14.6139052,37.9421498 11.5931919,39.5616938 8.73639729,38.7098371 C5.87986456,37.8577199 4.25219865,34.8513355 5.10845147,32.0085993 Z M14.3750971,41.901759 C15.8828352,41.1702932 17.1915666,40.0401303 18.1274221,38.6029967 L24.1230248,40.3914007 C25.6949165,47.9299023 32.2406682,54.8205863 41.4122619,57.5562215 C44.0839278,58.353355 46.8011558,58.7499674 49.4620858,58.7499674 C52.732605,58.7499674 55.917237,58.1506189 58.8248307,56.9584365 C64.2401716,54.7379805 68.0582212,50.7398046 69.5761716,45.7000651 C71.0941219,40.6603257 70.1155847,35.2312704 66.8204515,30.4125081 C63.6117291,25.7201303 58.5648126,22.1576547 52.6092731,20.3812378 C43.4387269,17.6450814 34.1684153,19.8196743 28.6886591,25.2539414 L22.6893905,23.4644951 C22.704316,21.9171336 22.3285598,20.3822801 21.5705011,18.9824104 C21.1955305,18.289772 20.7409571,17.6568078 20.2198736,17.0918567 C26.4121264,8.74996743 36.1186817,3.85771987 46.535377,3.94214984 C53.7077381,3.99452769 60.4899413,6.33407166 66.1485418,10.7072313 C73.078167,16.068013 81.3455892,20.1318567 90.7216885,22.7864495 C91.1168217,22.8979805 91.4587991,23.0181107 91.7031061,23.1293811 C100.053797,26.9912704 105.479874,35.4050814 105.526483,44.5646906 C105.567594,52.4130293 101.73907,59.7084039 95.258781,64.1980456 L30.1788533,64.1980456 C21.8629887,59.4491205 16.0525147,51.2252769 14.3750971,41.901759 Z M103.680172,70.178241 C103.680172,73.3461889 101.090203,75.9233876 97.9071422,75.9233876 L17.9564334,75.9233876 C14.7731106,75.9233876 12.1834041,73.3459283 12.1834041,70.178241 L12.1834041,68.1065798 L103.680172,68.1065798 L103.680172,70.178241 Z" id="Shape"></path>
                <ellipse id="Oval" cx="90.0162619" cy="41.5786319" rx="1.96388262" ry="1.95439739"></ellipse>
                <ellipse id="Oval" cx="50.0405147" cy="29.9392834" rx="1.96388262" ry="1.95439739"></ellipse>
                <ellipse id="Oval" cx="49.488009" cy="35.2750489" rx="1.96388262" ry="1.95439739"></ellipse>
                <ellipse id="Oval" cx="43.2035847" cy="32.148013" rx="1.96388262" ry="1.95439739"></ellipse>
                <ellipse id="Oval" cx="96.4297788" cy="38.362215" rx="1.96388262" ry="1.95439739"></ellipse>
                <ellipse id="Oval" cx="91.5682528" cy="35.3042345" rx="1.96388262" ry="1.95439739"></ellipse>
            </g>
        </g>
    </g>
</svg>