<?xml version="1.0" encoding="UTF-8"?>
<svg width="128px" height="128px" viewBox="0 0 128 128" version="1.1" xmlns="http://www.w3.org/2000/svg" xmlns:xlink="http://www.w3.org/1999/xlink">
    <!-- Generator: Sketch 53 (72520) - https://sketchapp.com -->
    <title>Seafood</title>
    <desc>Created with Sketch.</desc>
    <g id="Seafood" stroke="none" stroke-width="1" fill="none" fill-rule="evenodd">
        <g id="prawn" transform="translate(5.000000, 10.653846)" fill-rule="nonzero">
            <path d="M98,14.3461538 L98,16.7437186 C98,31.9872439 85.9242931,44.3461538 71.0237434,44.3461538 L48,44.3461538 L48,14.3461538 L98,14.3461538 Z" id="Path" fill="#F95428"></path>
            <path d="M72,94.3461538 L72,94.9450239 C72,101.241634 66.8353721,106.346154 60.4646164,106.346154 L47,106.346154 L47,94.3461538 L47.0257231,94.3461538 L72,94.3461538 Z" id="Path" fill="#F95428"></path>
            <path d="M47,93.3866944 L46.9746764,93.3866944 L46.9746764,105.346154 C22.1350591,105.346154 2,85.1997574 2,60.3461538 C2,35.4925502 22.1350591,15.3461538 46.9746764,15.3461538 L46.9746764,44.4790367 C25.9167136,44.4790367 10.5790658,82.7166493 47,93.3866944 Z" id="Path" fill="#F95428"></path>
            <path d="M16.9211712,60.3461538 C16.9211712,40.7231246 29.4814189,24.0378768 47,17.8824714 L47,15.3461538 C22.1463964,15.3461538 2,35.4925502 2,60.3461538 C2,85.1997574 22.1463964,105.346154 47,105.346154 L47,102.809836 C29.4814189,96.6547124 16.9211712,79.9691831 16.9211712,60.3461538 Z" id="Path" fill="#E54728"></path>
            <path d="M70.1627577,40.3461538 C68.9683387,40.3461538 68,39.305037 68,38.0208482 C68,36.7366594 68.9683387,35.6955426 70.1627577,35.6955426 C71.2692245,35.6955426 72.3771332,35.5904387 73.4562051,35.3830215 C74.6310151,35.1563817 75.7556491,35.9981423 75.9658691,37.2627986 C76.1760892,38.5271447 75.3934593,39.7350635 74.2174958,39.9610832 C72.8881208,40.2165568 71.5238532,40.3461538 70.1627577,40.3461538 Z" id="Path" fill="#FFFFFF"></path>
            <path d="M89.3413358,27.3461538 C89.0356357,27.3461538 88.7249394,27.2918731 88.426109,27.1774055 C87.2357832,26.7215039 86.6812138,25.4828914 87.1873833,24.4110584 C87.7013592,23.3220694 88.097614,22.1832996 88.3649065,21.02653 C88.6281396,19.8857914 89.8681143,19.1528613 91.1346308,19.3910777 C92.4008352,19.628169 93.2139538,20.7452828 92.9504084,21.8857401 C92.6206645,23.3133507 92.1319814,24.7184615 91.4977864,26.0619793 C91.1187057,26.8646587 90.252191,27.3461538 89.3413358,27.3461538 Z" id="Path" fill="#FFFFFF"></path>
            <path d="M60.1226808,102.346154 C58.9503949,102.346154 58,101.385731 58,100.201075 C58,99.0164196 58.9503949,98.0559963 60.1226808,98.0559963 C60.7382582,98.0559963 61.32242,97.9058408 61.8590337,97.6092479 C62.8875433,97.0412311 64.1772841,97.4233411 64.739653,98.4629893 C65.3017389,99.5026374 64.9236187,100.805701 63.8948261,101.374004 C62.743484,102.010092 61.4390259,102.346154 60.1226808,102.346154 Z" id="Path" fill="#FFFFFF"></path>
            <path d="M41.5,39.3461538 C40.1193333,39.3461538 39,38.4035574 39,37.2408907 L39,25.451417 C39,24.2887503 40.1193333,23.3461538 41.5,23.3461538 C42.8806667,23.3461538 44,24.2887503 44,25.451417 L44,37.2408907 C44,38.4035574 42.8806667,39.3461538 41.5,39.3461538 Z" id="Path" fill="#FFFFFF"></path>
            <g id="Group" transform="translate(0.000000, 0.346154)" fill="#333333">
                <path d="M113.829721,4.37680952 C111.142385,1.6984127 107.571183,0.22334127 103.774192,0.22334127 L6.18138462,0.22334127 C5.01641827,0.22334127 4.00065385,1.1189709 3.96576442,2.28096825 C3.92945673,3.48316138 4.89558173,4.46937302 6.09231731,4.46937302 L103.774192,4.46937302 C106.435716,4.46937302 108.938962,5.50342328 110.821005,7.37932011 C112.749,9.30616931 113.789726,11.8806799 113.736966,14.6080476 C113.631731,20.0557063 109.034553,24.354955 103.5745,24.354955 L98.5697115,24.354955 C99.274024,21.8546085 99.651851,19.218672 99.651851,16.4966825 L99.651851,14.1548545 C99.651851,12.9823836 98.6993413,12.0318386 97.5244471,12.0318386 L47.9267212,12.0318386 C21.6887404,12.0318386 0.0734663462,33.0830979 0.000283653846,59.2666772 C-0.0728990385,85.447709 21.2487933,106.770431 47.4672019,106.770431 L60.8301346,106.770431 C68.3279567,106.770431 74.4060913,100.704833 74.4060913,93.2224762 L74.4060913,92.6226534 C74.4060913,91.4501825 73.4535817,90.4996376 72.2786875,90.4996376 L53.2673558,90.4996376 C47.5446394,90.4996376 41.9107067,88.8626508 37.1946779,85.6277407 C34.6599471,83.8891323 32.5929615,81.8668889 31.0098894,79.5706349 C31.0098894,79.5706349 31.0098894,79.5706349 31.0098894,79.5706349 L34.7983702,79.5706349 C35.9633365,79.5706349 36.979101,78.6750053 37.0139904,77.5130079 C37.0502981,76.3108148 36.0841731,75.3246032 34.8874375,75.3246032 L28.7815048,75.3246032 C28.4039615,74.3262196 28.112649,73.2981138 27.9018942,72.2473624 L31.129024,72.2473624 C32.2939904,72.2473624 33.3097548,71.3517328 33.3446442,70.1897354 C33.3809519,68.9875423 32.4148269,68.0013307 31.2180913,68.0013307 L27.5050625,68.0013307 C27.5158413,67.0439921 27.5904423,66.0744815 27.7311346,65.0959127 C27.752125,64.9506984 27.7793558,64.8071825 27.802899,64.6628175 L33.2257933,64.6628175 C34.3907596,64.6628175 35.406524,63.7671878 35.4414135,62.6051905 C35.4777212,61.4029974 34.5115962,60.4167857 33.3148606,60.4167857 L28.8980865,60.4167857 C29.345976,59.1650556 29.891726,57.960881 30.5225721,56.8167169 L36.3703798,56.8167169 C37.5353462,56.8167169 38.5511106,55.9210873 38.586,54.7590899 C38.6223077,53.5568968 37.6561827,52.5706852 36.4594471,52.5706852 L33.4859038,52.5706852 C37.2082933,48.2952143 42.2618702,45.5706772 47.4669183,45.5706772 L70.5177644,45.5706772 C82.2559279,45.5706772 92.3937163,38.606336 97.003375,28.6012698 L103.524577,28.6012698 C111.374981,28.6012698 118.021274,22.1928757 117.993192,14.358664 C117.980144,10.5907354 116.503159,7.0484127 113.829721,4.37680952 Z M49.5946058,94.7456693 L70.026476,94.7456693 C69.2957837,99.1524841 65.4500048,102.524399 60.8301346,102.524399 L49.5946058,102.524399 L49.5946058,94.7456693 L49.5946058,94.7456693 Z M31.5675529,48.3991005 C27.2429663,52.7543968 24.3848702,58.4701217 23.5191587,64.4929762 C22.6086298,70.830037 23.9869038,76.8769524 27.5059135,81.9792672 C31.2867356,87.4620265 37.2823269,91.5608624 45.3397981,94.1795317 L45.3397981,102.471749 C22.4968702,101.360987 4.25480769,82.4675608 4.25480769,59.4011349 C4.25480769,36.334709 22.4968702,17.4412831 45.3397981,16.3305212 L45.3397981,41.4401376 C40.3582692,41.9805159 35.5344519,44.4035847 31.5675529,48.3991005 Z M70.5180481,41.3243624 L49.5946058,41.3243624 L49.5946058,16.2778704 L95.3970433,16.2778704 L95.3970433,16.4966825 C95.3970433,30.1867381 84.236399,41.3243624 70.5180481,41.3243624 Z" id="Shape"></path>
                <path d="M86.0827019,26.6781005 L72.4959663,26.6781005 C71.5879904,26.6781005 70.7801442,27.2530132 70.4845769,28.1098624 C70.1890096,28.9664286 70.4706779,29.9158413 71.1860529,30.4740529 L78.24875,35.9834206 C78.6376394,36.2868704 79.0991442,36.4337831 79.5572452,36.4337831 C80.1895096,36.4337831 80.8155337,36.153545 81.2350577,35.6179788 C81.9586587,34.6943254 81.7947067,33.3599392 80.8688606,32.6378307 L78.6719615,30.9241323 L86.0827019,30.9241323 C87.2575962,30.9241323 88.2101058,29.9735873 88.2101058,28.8011164 C88.2101058,27.6286455 87.2575962,26.6781005 86.0827019,26.6781005 Z" id="Path"></path>
                <ellipse id="Oval" cx="84.0982596" cy="20.7231825" rx="2.12740385" ry="2.12301587"></ellipse>
            </g>
        </g>
    </g>
</svg>