<?xml version="1.0" encoding="UTF-8"?>
<svg width="128px" height="128px" viewBox="0 0 128 128" version="1.1" xmlns="http://www.w3.org/2000/svg" xmlns:xlink="http://www.w3.org/1999/xlink">
    <!-- Generator: Sketch 53 (72520) - https://sketchapp.com -->
    <title>Snails</title>
    <desc>Created with Sketch.</desc>
    <g id="Snails" stroke="none" stroke-width="1" fill="none" fill-rule="evenodd">
        <g transform="translate(66.958273, 60.589756) rotate(239.000000) translate(-66.958273, -60.589756) translate(10.458273, 0.089756)" fill-rule="nonzero" id="Path">
            <path d="M67.0467352,120.547693 L66.8537437,120.578042 L66.6583805,120.578042 C44.9077282,120.578042 27.5436004,113.858298 15.7628984,101.761859 C5.07325944,90.7857258 -0.406143853,75.8717248 0.0234587292,60.2168369 C0.446541835,44.7995213 6.58378535,29.8635632 17.3242244,18.8126134 C29.0298083,6.76861591 45.4143009,-0.00235744613 64.8900452,6.15708153e-07 C94.8636829,6.15708153e-07 112.680981,19.5790095 112.064468,45.4110392 C111.531303,67.7507199 97.2906407,86.3532062 76.0662543,90.0393192 C81.0298869,108.120056 78.3092027,118.776662 67.0467352,120.547693 Z" fill="#333333"></path>
            <path d="M52.9722058,50.1599975 C53.1181182,48.7870172 54.3494241,47.7922822 55.7224044,47.9381947 C57.0953846,48.0841072 58.0901196,49.315413 57.9442072,50.6883933 C57.151278,58.1495523 59.6851951,61.0239652 66.5156904,60.6334708 L66.6547066,60.6293981 C72.4720907,60.620849 76.7689432,55.08791 76.7168677,48.2872694 C76.6614179,41.0459769 71.7968499,35.9241954 62.9341421,35.9241954 L62.8203488,35.9216043 C49.2074186,35.3013373 40.0018897,46.1673511 40.2460689,60.1376198 C40.5012058,74.7348084 50.8588251,85.622072 68.262239,85.7027804 C90.8229647,85.7027804 106.53062,67.7196868 107.065891,45.2917418 C107.617224,22.1908166 91.9732295,5.00000062 64.8897425,5.0000006 C46.7507482,4.9978044 31.6636751,11.2326127 20.909773,22.2974148 C11.0553246,32.4367596 5.41071038,46.173826 5.02157712,60.3539956 C4.62807478,74.6933767 9.62432328,88.2923128 19.3448708,98.2733822 C30.1080759,109.325054 46.0998679,115.536627 66.4544056,115.577835 C73.7434118,114.307434 75.5598613,106.479641 71.0389956,90.6205847 C70.1203993,90.6751031 69.190793,90.7027545 68.2506492,90.7027535 C48.0453165,90.6090825 35.5483019,77.4730242 35.2468325,60.2249989 C34.9560034,43.5857443 46.2846471,30.1944516 62.9911907,30.9242543 C74.6343861,30.948322 81.6408533,38.3412702 81.7167211,48.2489833 C81.788076,57.5673518 75.589937,65.5735812 66.7330483,65.629118 C56.7730442,66.1719217 51.8650479,60.5779273 52.9722058,50.1599975 Z" fill="#FFA65F"></path>
            <path d="M92.5118423,70.3458114 C91.6083296,71.3898565 90.0295221,71.5037805 88.985477,70.6002678 C87.9414319,69.6967551 87.8275079,68.1179476 88.7310206,67.0739025 C103.879059,49.5697385 97.35957,20.7744644 77.84409,15.7217013 C76.507452,15.3756316 75.7044377,14.0115276 76.0505074,12.6748896 C76.396577,11.3382516 77.7606811,10.5352373 79.097319,10.8813069 C102.424298,16.9209073 109.956263,50.1880852 92.5118423,70.3458114 Z" fill="#FFFFFF"></path>
            <path d="M64.8897425,5.0000006 C46.7507482,4.9978044 31.6636751,11.2326127 20.909773,22.2974148 C11.0553246,32.4367596 5.41071038,46.173826 5.02157712,60.3539956 C4.62807478,74.6933767 9.62432328,88.2923128 19.3448708,98.2733822 C30.1080759,109.325054 46.0998679,115.536627 66.4544056,115.577835 C-4.61852778e-14,109.05923 13.1887313,26.6012316 64.8897425,5.0000006 Z" fill-opacity="0.2" fill="#333333"></path>
        </g>
    </g>
</svg>