<?xml version="1.0" encoding="UTF-8"?>
<svg width="128px" height="128px" viewBox="0 0 128 128" version="1.1" xmlns="http://www.w3.org/2000/svg" xmlns:xlink="http://www.w3.org/1999/xlink">
    <!-- Generator: Sketch 53 (72520) - https://sketchapp.com -->
    <title>Vegetables</title>
    <desc>Created with Sketch.</desc>
    <g id="Vegetables" stroke="none" stroke-width="1" fill="none" fill-rule="evenodd">
        <g id="broccoli" transform="translate(3.000000, 5.000000)" fill-rule="nonzero">
            <path d="M84,61.8534278 C83.176382,63.8992286 82.2197399,66.4206007 81.2178128,69.3415652 C77.3346381,80.6567852 72.7778514,97.9827762 72.7778514,117 L48.2193183,117 C48.2193183,97.9827762 43.6625316,80.6567852 39.7821872,69.3415652 C38.7802601,66.4177866 37.823618,63.8964145 37,61.8506137 C39.5104781,61.5241861 41.8001927,60.5083208 43.6738528,59 C46.2069734,62.2755325 49.6854149,64.7884625 53.7016139,66.1420115 C54.1006865,68.7562467 54.4969288,71.6040464 54.8648681,74.6572704 C54.9695893,75.4986658 55.0686499,76.3569453 55.1648802,77.229295 C55.4705528,79.9335792 57.7602674,81.985008 60.4971697,81.985008 L60.5,81.985008 C63.2369023,81.985008 65.5294472,79.9335792 65.8322895,77.229295 C65.9285198,76.3569453 66.0275804,75.4986658 66.1294713,74.6572704 C66.4974106,71.6040464 66.8936529,68.7562467 67.2983861,66.1420115 C71.3117548,64.7884625 74.7901963,62.2755325 77.3233169,59 C79.1998073,60.5083208 81.4895219,61.5270001 84,61.8534278 Z" id="Path" fill="#71A517"></path>
            <path d="M61.2925723,79.6831248 L60,82 C60.3940599,82 60.9457437,81.8921097 61.6005539,81.707313 C68.2509432,79.8330647 73.1076614,74.1707602 74.0587152,67.391376 C74.1350119,66.8483281 74.2032038,66.378867 74.2588193,66.0211691 C77.1810109,65.0399206 79.8145048,63.4373346 82,61.3730334 C80.3203547,60.8783979 78.779888,60.0639644 77.4504249,59 C74.9491228,62.2201107 71.5143739,64.690522 67.5514171,66.0211691 C67.1517677,68.5911715 66.7605025,71.3907866 66.3971849,74.3923503 C66.2965739,75.2195093 66.1987576,76.0632668 66.1037361,76.9208564 C65.9449942,78.3322829 64.7410155,77.9402815 63.703045,78.784039 C62.3755383,79.4756435 60.0245938,79.6831248 61.2925723,79.6831248 Z" id="Path" fill="#648E13"></path>
            <path d="M84.0058798,61.7967994 C81.4947735,61.4672935 79.2044861,60.4390078 77.3275261,58.9164633 C74.7937718,62.2228846 71.3144599,64.7595119 67.3000871,66.1258252 C65.1655052,66.85017 62.8780488,67.2421684 60.5,67.2421684 C58.1219512,67.2421684 55.8344948,66.85017 53.6999129,66.1258252 C49.6827091,64.7595119 46.2033972,62.2228846 43.6696429,58.9164633 C41.7955139,60.4390078 39.5052265,61.4644529 36.9941202,61.7939588 C36.4194251,61.8706541 35.8305749,61.9104221 35.2360627,61.9104221 C35.1652875,61.9104221 35.0973432,61.9047409 35.0265679,61.9047409 C33.9083188,68.2108022 28.4218206,73 21.8170732,73 C14.4054878,73 8.39525261,66.9723145 8.39525261,59.5328666 C8.39525261,57.1609922 9.00958188,54.9311462 10.0853659,52.9938788 C5.23301394,49.9658332 2,44.5687538 2,38.4104021 C2,28.9314263 9.65788328,21.2476895 19.1049652,21.2476895 C19.9118031,21.2476895 20.7073171,21.310182 21.4858449,21.4181236 C22.8192509,13.2713743 29.8656359,7.05337067 38.3614983,7.05337067 C41.8662892,7.05337067 45.1247822,8.11574315 47.8397213,9.93086617 C50.0507404,5.24392879 54.804007,2 60.3159843,2 C65.9015679,2 70.7086237,5.33482697 72.8800087,10.1240248 C75.6487369,8.19243849 79.0091463,7.05337067 82.6385017,7.05337067 C91.1343641,7.05337067 98.1807491,13.2713743 99.511324,21.4181236 C100.289852,21.310182 101.085366,21.2476895 101.895035,21.2476895 C111.342117,21.2476895 119,28.9314263 119,38.4104021 C119,44.5687538 115.766986,49.9658332 110.911803,52.9938788 C111.987587,54.9311462 112.601916,57.1609922 112.601916,59.5328666 C112.601916,66.9723145 106.594512,73 99.1829268,73 C92.5753484,73 87.0888502,68.2108022 85.9734321,61.9047409 C85.9026568,61.9047409 85.8318815,61.9104221 85.7611063,61.9104221 C85.1665941,61.9104221 84.5805749,61.8706541 84.0058798,61.7967994 Z" id="Path" fill="#9AD14B"></path>
            <path d="M28.5803263,59.5328666 C28.5803263,57.1609922 29.1901086,54.9311462 30.2579301,52.9938788 C25.441493,49.9658332 22.2324082,44.5687538 22.2324082,38.4104021 C22.2324082,28.9314263 29.8336116,21.2476895 39.2107708,21.2476895 C40.0116369,21.2476895 40.8012629,21.310182 41.5740285,21.4181236 C42.8975652,13.2713743 49.8917963,7.05337067 58.3247764,7.05337067 C61.8036266,7.05337067 65.0380019,8.11574315 67.7328463,9.93086617 C68.3193051,8.67874375 69.0870126,7.53087017 70,6.51905981 C67.4962395,3.74354071 63.8926228,2 59.8843579,2 C54.4131775,2 49.6950923,5.24392879 47.500438,9.93086617 C44.8055937,8.11574315 41.5712184,7.05337067 38.0923682,7.05337067 C29.6593881,7.05337067 22.6651569,13.2713743 21.3416202,21.4181236 C20.5688547,21.310182 19.7792287,21.2476895 18.9783626,21.2476895 C9.60120337,21.2476895 2,28.9314263 2,38.4104021 C2,44.5687538 5.20908475,49.9658332 10.0255219,52.9938788 C8.95770038,54.9311462 8.34791808,57.1609922 8.34791808,59.5328666 C8.34791808,66.9723145 14.3136684,73 21.6703969,73 C25.7191266,73 29.3429757,71.1718104 31.785196,68.2894859 C29.7889317,65.934939 28.5803263,62.8779196 28.5803263,59.5328666 Z" id="Path" fill="#90BC42"></path>
            <path d="M46.9859837,70.5763621 C48.954274,72.1955558 51.2201131,73.4694678 53.6907291,74.3027024 C54.0725644,74.4321479 54.4600566,74.5503372 54.8532055,74.6572704 C54.4855123,71.6040464 54.0895349,68.7562467 53.6907291,66.1420115 C50.7305154,65.1435932 48.0644563,63.5131435 45.852357,61.4127505 L45.852357,61.4127505 C45.464582,61.0446752 45.0909491,60.6622483 44.731741,60.2663141 C44.7252357,60.259279 44.7187304,60.2525254 44.712225,60.2452089 C44.5501571,60.0662365 44.3923319,59.8836058 44.2364865,59.6990054 C44.2161219,59.6748047 44.1949089,59.6517297 44.1745443,59.627529 C44.0022942,59.4215419 43.8337209,59.2124594 43.6693903,59 C41.796983,60.5083208 39.5087995,61.5241861 37,61.8506137 C37.8230673,63.8964145 38.7790698,66.4177866 39.7803268,69.3415652 C43.6580767,80.6567852 48.2118165,97.9827762 48.2118165,117 L55,117 C55.0005657,98.6606763 50.7655877,81.8960846 46.9859837,70.5763621 Z" id="Path" fill="#648E13"></path>
            <path d="M84,61.9158879 C83.170415,64.0064702 82.2068419,66.5830338 81.197656,69.5679367 C79.7608489,69.0474479 78.4380741,68.2882818 77.2749446,67.3393242 C74.7234717,70.6865564 71.219829,73.2544932 67.1773836,74.6376707 C66.7896737,74.7699497 66.3962623,74.8907261 66,75 C66.370605,71.8799425 66.7697181,68.9698059 67.1773836,66.2983465 C71.219829,64.9151689 74.7234717,62.3472322 77.2749446,59 C79.1650301,60.5413372 81.4713335,61.5823149 84,61.9158879 Z" id="Path" fill="#648E13"></path>
            <path d="M49.1042496,40 C48.454942,40 47.8225818,39.6534862 47.46846,39.0301294 C47.4252066,38.9538858 47.3789178,38.9436323 47.3389526,38.9436323 C47.2977228,38.9436323 47.2615518,38.9594069 47.2311985,38.990693 C46.4862781,39.7568093 45.2852995,39.7497108 44.5484733,38.9757072 C43.8116471,38.2014407 43.8179707,36.9531496 44.5628911,36.1872962 C45.3073056,35.4217058 46.2932817,35 47.3392056,35 C48.7463337,35 50.0161131,35.7574403 50.7364979,37.0259754 C51.2689452,37.9637712 50.9689535,39.1728888 50.0667019,39.7263119 C49.7639278,39.9116626 49.4318122,40 49.1042496,40 Z" id="Path" fill="#FFFFFF"></path>
            <path d="M66.9437971,44 C65.8082248,44 64.8875942,43.0796848 64.8875942,41.9445015 C64.8875942,40.9334704 64.0659356,40.1109969 63.0562029,40.1109969 C61.9206306,40.1109969 61,39.1906817 61,38.0554985 C61,36.9203152 61.9206306,36 63.0562029,36 C66.3337903,36 69,38.6666667 69,41.9445015 C69,43.0796848 68.0793694,44 66.9437971,44 Z" id="Path" fill="#FFFFFF"></path>
            <path d="M104.147348,67 C103.643494,67 103.13964,66.7950544 102.750481,66.3828475 C101.959626,65.5456969 101.944155,64.1709983 102.715539,63.3130057 C103.543203,62.3921979 103.999045,61.1790243 103.999045,59.896667 C103.999045,59.0551743 103.8094,58.2591286 103.435444,57.5302402 L102.253296,55.228076 C101.715567,54.1807693 102.06205,52.858465 103.02708,52.2748911 C103.992377,51.6913173 105.210801,52.0673403 105.748263,53.114647 L106.930411,55.4171007 C107.640181,56.799615 108,58.3066019 108,59.896667 C108,62.3183828 107.140328,64.6086787 105.579156,66.3449267 C105.187596,66.7811598 104.667472,67 104.147348,67 Z" id="Path" fill="#FFFFFF"></path>
            <path d="M110.127456,45 C109.846939,45 109.562323,44.9301745 109.292822,44.7829903 C108.337527,44.2608923 107.937118,42.9614419 108.398754,41.8810293 C108.902148,40.7029769 109.157303,39.4324997 109.157303,38.1046556 C109.157303,35.2568745 107.913806,32.5869893 105.830808,30.9621693 C104.957235,30.2807184 104.737432,28.9276675 105.339711,27.9396795 C105.942246,26.9516916 107.13835,26.7028114 108.012179,27.384552 C111.135267,29.8203334 113,33.8279137 113,38.1046556 C113,40.0928002 112.615986,41.9995299 111.858719,43.7721135 C111.527478,44.5477275 110.841429,45 110.127456,45 Z" id="Path" fill="#FFFFFF"></path>
            <path d="M92.7870383,24 C91.7240007,24 90.786477,23.2538321 90.6091076,22.2030243 C90.017189,18.699093 87.3277746,15.9664782 83.7574061,15.2417437 C82.562962,14.9991177 81.7972096,13.8634336 82.0473534,12.7046014 C82.2974972,11.5457692 83.4701385,10.8033165 84.6628148,11.0459425 C90.034867,12.1367594 94.0807739,16.2439692 94.970567,21.5097254 C95.1679714,22.6779883 94.351542,23.7799505 93.147375,23.9714221 C93.025986,23.9905693 92.9057756,24 92.7870383,24 Z" id="Path" fill="#FFFFFF"></path>
            <path d="M66.8550058,15 C66.0395751,15 65.2601949,14.5663402 64.9005471,13.8325975 C64.0522129,12.1016763 62.1858779,10.9834025 60.1458704,10.9834025 C58.9607777,10.9834025 58,10.0916515 58,8.99170124 C58,7.89175104 58.9607777,7 60.1458704,7 C63.8642347,7 67.2638657,9.03472199 68.8068896,12.1834689 C69.2975786,13.1848963 68.8209093,14.3655768 67.7422517,14.8210124 C67.454419,14.9423734 67.1522804,15 66.8550058,15 Z" id="Path" fill="#FFFFFF"></path>
            <path d="M46.8489875,19 C46.4394724,19 46.025372,18.8881473 45.6591297,18.6539987 L43.8519901,17.4991952 C42.4420429,16.5980527 40.7999703,16.1220604 39.1040217,16.1220604 C38.5764378,16.1220604 38.0485674,16.1676809 37.5353122,16.257273 C36.3669475,16.4609163 35.2484467,15.7191708 35.0352352,14.5992698 C34.8223103,13.4793687 35.5963483,12.4061874 36.7641399,12.2019944 C37.5310136,12.0678811 38.3182341,12 39.1037351,12 C41.6508104,12 44.116785,12.7153626 46.2351446,14.0691375 L48.0422842,15.223941 C49.0301069,15.8552079 49.2971945,17.1347807 48.6392192,18.0820934 C48.2254054,18.6773586 47.5436444,19 46.8489875,19 Z" id="Path" fill="#FFFFFF"></path>
            <circle id="Oval" fill="#FFFFFF" cx="102" cy="27" r="2"></circle>
            <g id="Group" fill="#333333">
                <path d="M63.2076923,29.7000877 C60.5865897,29.7000877 58.0960769,30.4910711 55.9987436,31.9619336 C53.9640256,29.8306493 51.1136154,28.5726896 48.1187949,28.5726896 C42.113641,28.5726896 37.2285128,33.4570474 37.2285128,39.4606256 C37.2285128,45.4642038 42.1139231,50.3485616 48.1187949,50.3485616 C49.2870513,50.3485616 50.2341795,49.4016374 50.2341795,48.2336327 C50.2341795,47.065628 49.2870513,46.1187038 48.1187949,46.1187038 C44.4464872,46.1187038 41.4592821,43.1318602 41.4592821,39.4606256 C41.4592821,35.789391 44.4467692,32.8025474 48.1187949,32.8025474 C50.4931026,32.8025474 52.6358462,34.0303341 53.850641,36.086891 C54.1862821,36.6551019 54.7681538,37.0340972 55.423641,37.1116445 C56.0799744,37.18891 56.7334872,36.9562678 57.1923846,36.4822417 C58.7854103,34.836545 60.9219487,33.9299455 63.2079744,33.9299455 C67.8248718,33.9299455 71.5812308,37.6852133 71.5812308,42.3013981 C71.5812308,43.4694028 72.528359,44.416327 73.6966154,44.416327 C74.8648718,44.416327 75.812,43.4694028 75.812,42.3013981 C75.8114359,35.3528697 70.1574359,29.7000877 63.2076923,29.7000877 Z" id="Path"></path>
                <path d="M120.796641,38.3735521 C120.796641,27.8130071 112.203103,19.2213199 101.640282,19.2213199 C101.40759,19.2213199 101.172923,19.2258318 100.937128,19.2348555 C98.7004615,10.9544858 91.2162308,5.13053555 82.4548718,5.13053555 C79.3111282,5.13053555 76.2627179,5.88909005 73.5197692,7.34077725 C70.6228205,2.88645498 65.6223333,0.112796209 60.2154103,0.112796209 C54.8866154,0.112796209 49.9171538,2.83287678 47.0044103,7.19809005 C44.3316923,5.8400237 41.376641,5.13053555 38.3420513,5.13053555 C29.5806923,5.13053555 22.0961795,10.9544858 19.8597949,19.2348555 C19.624,19.2258318 19.3893333,19.2213199 19.156641,19.2213199 C8.59353846,19.2210379 0,27.8127251 0,38.3735521 C0,44.4002536 2.76805128,49.951519 7.4915641,53.5655095 C6.75625641,55.394782 6.37294872,57.3605379 6.37294872,59.3429313 C6.37294872,67.8801943 13.3198718,74.8256209 21.8589744,74.8256209 C28.2262821,74.8256209 33.7962308,70.9756043 36.151641,65.3059028 C40.2887692,76.3224265 46.0454359,95.4901682 46.0454359,116.85095 C46.0454359,118.018955 46.9925641,118.965879 48.1608205,118.965879 L72.6361026,118.965879 C73.804359,118.965879 74.7514872,118.018955 74.7514872,116.85095 C74.7514872,95.4904502 80.5078718,76.3227085 84.6452821,65.3059028 C87.0006923,70.9753223 92.570641,74.8253389 98.9379487,74.8253389 C107.477051,74.8253389 114.423974,67.8799123 114.423974,59.3426493 C114.423974,57.3602559 114.040667,55.3945 113.305359,53.5652275 C118.028308,49.951237 120.796641,44.4002536 120.796641,38.3735521 Z M70.5384872,114.736021 L50.2578718,114.736021 C49.8892308,93.1203199 43.9729231,73.9466564 39.842,63.1052488 C41.035641,62.7321754 42.185,62.2206445 43.257641,61.5709384 C45.6350513,64.171455 48.5226923,66.1558223 51.7129744,67.4369052 C52.1885128,70.6637227 52.6163846,73.9497583 52.9810769,77.231846 C53.4041538,81.0209526 56.5918974,83.8783626 60.3995897,83.8783626 C64.2041795,83.8783626 67.3922051,81.0209526 67.8152821,77.2290261 C68.1782821,73.9387607 68.6055897,70.6535711 69.0822564,67.4371872 C72.2728205,66.1561043 75.1610256,64.171737 77.5384359,61.5709384 C78.611359,62.2206445 79.7607179,62.7321754 80.954359,63.1052488 C76.8237179,73.9469384 70.9071282,93.1206019 70.5384872,114.736021 Z M56.1744615,68.723064 C57.5528462,68.9743175 58.9636667,69.1108009 60.3984615,69.1108009 C61.8324103,69.1108009 63.2426667,68.9745995 64.6204872,68.723628 C64.2470513,71.3788507 63.9077436,74.0707322 63.6107436,76.7628957 C63.4271282,78.4080284 62.0467692,79.6487867 60.3967692,79.6487867 C58.7498718,79.6487867 57.3697949,78.4083104 57.1861795,76.7643057 C56.8877692,74.076654 56.5478974,71.3842085 56.1744615,68.723064 Z M109.507538,51.0535379 C108.549128,51.6493839 108.227308,52.8926801 108.776462,53.8788009 C109.703,55.541981 110.192641,57.4315995 110.192641,59.3429313 C110.192641,65.5478507 105.143641,70.595763 98.9373846,70.595763 C93.4737692,70.595763 88.8151282,66.6975261 87.8601026,61.3264526 C87.6804359,60.3157986 86.8015641,59.5814953 85.7777179,59.5814953 C85.7664359,59.5814953 85.7554359,59.5814953 85.7441538,59.5817773 L85.5664615,59.5868531 C82.9628462,59.5868531 80.5171795,58.7219882 78.4943077,57.0853152 C78.0512051,56.7269052 77.4828718,56.5619408 76.9156667,56.6290545 C76.3495897,56.6958863 75.8342821,56.9883104 75.4867949,57.4400592 C71.8494615,62.1687583 66.3497436,64.8806611 60.3978974,64.8806611 C54.4460513,64.8806611 48.9463333,62.1687583 45.309,57.4400592 C44.9615128,56.9883104 44.4462051,56.6958863 43.8801282,56.6290545 C43.3137692,56.5622227 42.7445897,56.7269052 42.3014872,57.0853152 C40.2786154,58.7219882 37.8332308,59.5868531 35.2315897,59.5868531 L35.051641,59.5817773 C34.0224359,59.5721896 33.1176154,60.304519 32.9359744,61.3264526 C31.9809487,66.6975261 27.3223077,70.595763 21.8586923,70.595763 C15.6524359,70.595763 10.6034359,65.5478507 10.6034359,59.3429313 C10.6034359,57.4313175 11.0930769,55.541981 12.0196154,53.8788009 C12.5687692,52.8929621 12.2472308,51.6496659 11.2885385,51.0535379 C6.86935897,48.3058223 4.23076923,43.5655616 4.23076923,38.3735521 C4.23076923,30.1453507 10.9263846,23.4511777 19.156359,23.4511777 C19.8335641,23.4511777 20.5338974,23.50109 21.2376154,23.5989408 C22.374,23.7579834 23.4314103,22.9799716 23.6172821,21.8466517 C24.8047179,14.6116209 30.9974359,9.36011137 38.3417692,9.36011137 C41.2990769,9.36011137 44.1587949,10.2244123 46.6109487,11.8599573 C47.1223077,12.2011659 47.7569231,12.3026825 48.3495128,12.138846 C48.9421026,11.9747275 49.434,11.5607654 49.6968718,11.0052441 C51.6125641,6.95783412 55.7412308,4.34265403 60.2151282,4.34265403 C64.7646154,4.34265403 68.9220513,7.02184597 70.8067179,11.1679526 C71.0664872,11.7395474 71.5668462,12.1661991 72.1721282,12.3322915 C72.7779744,12.4986659 73.4258462,12.3872796 73.9408718,12.0285877 C76.4494359,10.2830664 79.3932051,9.36011137 82.4540256,9.36011137 C89.798641,9.36011137 95.9910769,14.6113389 97.1785128,21.8466517 C97.3646667,22.9796896 98.4209487,23.7577014 99.5581795,23.5989408 C100.262179,23.5008081 100.962513,23.4508957 101.639436,23.4508957 C109.86941,23.4508957 116.565026,30.1450687 116.565026,38.3732701 C116.565872,43.5655616 113.927282,48.3058223 109.507538,51.0535379 Z" id="Shape"></path>
            </g>
        </g>
        <g id="bell-pepper" transform="translate(3.000000, 39.000000)" fill-rule="nonzero">
            <path d="M45,11.069717 L45,11.7355789 C45,13.6623282 43.3729273,15.2227522 41.363883,15.2227522 C40.3593609,15.2227522 39.449804,14.8341641 38.7913778,14.2006846 C38.1308411,13.5712529 37.7256557,12.6989536 37.7256557,11.7355789 L37.7256557,11.1607924 C37.7256557,9.54977092 36.4805547,8.14113909 34.8091649,7.99137077 C32.8929756,7.81933958 31.2764546,9.26642543 31.2764546,11.069717 L31.2764546,26 L24,26 L24,11.2599633 C24,5.76103705 28.5140187,1.13238623 34.2478143,1.00285686 C40.1525475,0.869279707 45,5.43721364 45,11.069717 Z" id="Path" fill="#9AD14B"></path>
            <path d="M1.07670455,38.0241099 L16.0490057,75.659609 C17.2634943,78.7135253 19.4240057,80.907523 22,82.2456205 L21.9808239,82.2757578 C19.421875,83.1115665 16.602983,83.3265461 13.6711648,82.3701881 C2.59161932,78.7537084 1,38.0241099 1,38.0241099 L1.06818182,38 C1.0703125,38.0080366 1.07457386,38.0160732 1.07670455,38.0241099 Z" id="Path" fill="#F95428"></path>
            <path d="M55.9232877,38.0241099 C55.9254186,38.0160732 55.9296804,38.0080366 55.9318113,38 L56,38.0241099 C56,38.0241099 54.4082192,78.7537084 43.3275495,82.3701881 C40.3954338,83.3265461 37.5762557,83.1115665 35.0170472,82.2757578 L35,82.2456205 C37.5762557,80.907523 39.7369863,78.7135253 40.9515982,75.659609 L55.9232877,38.0241099 Z" id="Path" fill="#F95428"></path>
            <path d="M31.9666963,26 L45.5443135,26 C52.1341017,26 56.6954896,32.509026 54.397708,38.6179559 C54.3956977,38.625918 54.3916771,38.6338802 54.3896668,38.6418423 L40.2652459,75.9284096 C39.1193706,78.9540119 37.0809187,81.1276683 34.6504569,82.4533599 C30.867058,84.5155467 26.134794,84.5155467 22.3513952,82.4533599 C19.9209334,81.1276683 17.8824815,78.9540119 16.7366062,75.9284096 L2.610175,38.6418423 C2.60816469,38.6338802 2.60414408,38.625918 2.60213377,38.6179559 C0.304352231,32.509026 4.86775039,26 11.4555283,26 L25.0351558,26 L31.9666963,26 Z" id="Path" fill="#F95428"></path>
            <path d="M27.6852686,82.5772686 C16.9817043,78.9942871 15.4440961,38.6419531 15.4440961,38.6419531 L15.5099642,38.6180666 C13.1572385,32.5090831 17.829756,26 24.5750599,26 L10.6816275,26 C3.93632364,26 -0.736193863,32.5090831 1.61653191,38.6180666 L1.55066382,38.6419531 C1.55066382,38.6419531 3.088272,78.9942871 13.7918363,82.5772686 C16.6241641,83.5247682 19.3473979,83.3117798 21.8195096,82.483713 L21.838035,82.4538548 C25.2477377,84.2690331 29.4097775,84.4856044 33,83.1053603 C31.2991625,83.3151638 29.5151665,83.1895604 27.6852686,82.5772686 Z" id="Path" fill="#E54728"></path>
            <circle id="Oval" fill="#FFFFFF" cx="45.5" cy="30.5" r="1.5"></circle>
            <g id="Group" fill="#333333">
                <path d="M54.8688107,29.397 C52.7966571,26.4592 49.38765,24.7052 45.749625,24.7052 L33.5267893,24.7052 L33.5267893,11.45 C33.5267893,11.0082 33.7110214,10.6 34.0454893,10.3006 C34.3793464,10.0018 34.8121393,9.8596 35.2665107,9.9018 C36.0675643,9.9756 36.6949714,10.6952 36.6949714,11.5402 L36.6949714,12.1078 C36.6949714,13.4324 37.2199821,14.6754 38.1684214,15.6034 C39.1174714,16.5398 40.3824643,17.0554 41.7309214,17.0554 C44.5076357,17.0554 46.7666679,14.836 46.7666679,12.108 L46.7666679,11.45 C46.7666679,8.3448 45.5179607,5.4366 43.2507857,3.2612 C40.9840179,1.0866 37.9955893,-0.0682 34.8306643,0.0032 C28.5580179,0.1476 23.4548893,5.367 23.4548893,11.6384 L23.4548893,24.7052 L11.2310357,24.7052 C7.59301071,24.7052 4.18400357,26.4592 2.11185,29.397 C0.136596429,32.1976 -0.382714286,35.737 0.679521429,38.9608 C0.679521429,38.9608 1.0773,49.309 2.77528929,59.862 C5.16399643,74.7068 8.7723,82.7552 13.8070286,84.4674 C15.2000679,84.9408 16.6234393,85.1774 18.0687964,85.1774 C19.4052429,85.1774 20.7604179,84.9744 22.1261786,84.5696 C24.0373071,85.486 26.1941464,85.9812 28.4902286,85.9812 C30.7863107,85.9812 32.9429464,85.486 34.854075,84.5696 C36.2198357,84.9744 37.5746036,85.1774 38.9112536,85.1774 C40.3564071,85.1774 41.7805929,84.9408 43.1734286,84.4674 C48.20775,82.7552 51.8162571,74.7068 54.2049643,59.8622 C55.9029536,49.3092 56.3007321,38.961 56.3007321,38.961 C57.363375,35.737 56.8438607,32.1974 54.8688107,29.397 Z M26.5086643,11.6382 C26.5086643,6.9828 30.274125,3.1088 34.9027286,3.0022 C37.2340286,2.9458 39.444,3.802 41.1171536,5.4074 C42.7911214,7.0136 43.7128929,9.1594 43.7128929,11.4498 L43.7128929,12.1076 C43.7128929,13.1814 42.8236929,14.055 41.7307179,14.055 C41.2006179,14.055 40.7037,13.853 40.3272964,13.4818 C39.9539464,13.1164 39.7483393,12.6284 39.7483393,12.1076 L39.7483393,11.54 C39.7483393,9.1632 37.9047964,7.1316 35.5509,6.9148 C34.249875,6.7948 32.9517,7.221 31.9890107,8.0828 C31.0255071,8.945 30.4730143,10.1724 30.4730143,11.45 L30.4730143,24.7052 L26.5084607,24.7052 L26.5084607,11.6382 L26.5086643,11.6382 Z M14.80575,81.6322 C12.6597,80.9024 8.63529643,77.0458 5.795475,59.418 C5.20125,55.73 4.76866071,52.0788 4.4574,48.899 L15.1473429,76.8978 C15.935775,78.9626 17.1289071,80.738 18.6251571,82.1582 C17.3212821,82.2282 16.0442786,82.0532 14.80575,81.6322 Z M18.0065036,75.844 L3.70255714,38.3794 C2.76266786,35.9178 3.09774643,33.2666 4.62188571,31.1056 C6.146025,28.9446 8.55508929,27.7052 11.2310357,27.7052 L45.7494214,27.7052 C48.4255714,27.7052 50.8344321,28.9446 52.3585714,31.1056 C53.8827107,33.2666 54.2177893,35.9178 53.2781036,38.3794 C53.2781036,38.3794 53.2781036,38.3794 53.2781036,38.3794 L38.9739536,75.844 C36.9649071,81.1062 32.2410321,82.9812 28.4902286,82.9812 C24.7396286,82.981 20.0157536,81.1062 18.0065036,75.844 Z M42.1753179,81.6322 C40.9365857,82.0532 39.6595821,82.2282 38.3555036,82.1582 C39.85155,80.7378 41.0448857,78.9626 41.8333179,76.8978 L52.5232607,48.8988 C52.212,52.0786 51.7794107,55.73 51.1851857,59.418 C48.3453643,77.0458 44.3211643,80.9024 42.1753179,81.6322 Z" id="Shape"></path>
                <path d="M17.6583964,34.4398 C17.5077536,33.6246 16.7121964,33.0844 15.8832536,33.232 C15.0537,33.38 14.5032429,34.1608 14.6538857,34.976 L21.3833464,71.3798 C21.5172964,72.1044 22.1599714,72.612 22.8838714,72.612 C22.9744607,72.612 23.0662714,72.604 23.1584893,72.5876 C23.9880429,72.4396 24.5385,71.6588 24.3878571,70.8436 L17.6583964,34.4398 Z" id="Path"></path>
                <path d="M41.0972036,33.232 C40.266225,33.0842 39.4727036,33.6246 39.3220607,34.4398 L32.5926,70.8436 C32.4419571,71.6588 32.9924143,72.4394 33.8219679,72.5876 C33.9143893,72.604 34.0059964,72.612 34.0965857,72.612 C34.8202821,72.612 35.4631607,72.1042 35.5971107,71.3798 L42.3265714,34.976 C42.4772143,34.1608 41.9267571,33.38 41.0972036,33.232 Z" id="Path"></path>
            </g>
            <path d="M42.5922283,78 C42.2580415,78 41.9210929,77.9029667 41.6338579,77.7022081 C40.9312796,77.2111368 40.7914863,76.2854823 41.3215537,75.6347883 C41.8280389,75.0128303 42.624521,73.7931234 43.5418881,71.5147102 C44.8964812,68.1506261 46.0728272,63.5865173 47.0379961,57.9493342 C47.1901116,57.0606822 47.3483882,56.1509702 47.5090019,55.2286616 C48.3449999,50.424233 49.2094666,45.4562452 49.6029274,41.2836156 C50.1638004,35.3370281 49.4565481,33.7746539 49.1263979,33.3790414 C48.5882573,32.7340552 48.7163658,31.8070229 49.412783,31.3082755 C50.1089878,30.809725 51.1096361,30.9284088 51.6479891,31.5735918 C54.1156175,34.531435 52.8570527,43.046158 50.6552015,55.6984761 C50.4952253,56.618226 50.3371611,57.5255761 50.1854705,58.4118662 C49.1869467,64.2427223 47.9564255,68.9983391 46.5276867,72.5462551 C45.6836154,74.6428046 44.7881308,76.2799713 43.8656648,77.4126827 C43.5522983,77.79747 43.0751314,78 42.5922283,78 Z" id="Path" fill="#FFFFFF"></path>
        </g>
        <g id="carrot" transform="translate(64.356675, 105.072404) rotate(-285.000000) translate(-64.356675, -105.072404) translate(43.356675, 44.072404)" fill-rule="nonzero">
            <path d="M21,47.0623341 C21,47.0623341 15.2668464,46.9269629 10.4636119,49 C12.851752,36.3016525 2.14824798,18.252162 2,18 C8.66846361,20.8348317 13.0080863,25.6312184 15.8274933,30.5178526 C20.5256065,38.6640123 21,47.0623341 21,47.0623341 Z" id="Path" fill="#90BC42"></path>
            <path d="M40,18 C39.851731,18.252162 29.1467083,36.3016525 31.5351873,49 C26.7312713,46.9269629 21,47.0623341 21,47.0623341 C21,47.0623341 21.4744608,38.6640123 26.1732406,30.5178526 C28.9903519,25.6312184 33.3305902,20.8348317 40,18 Z" id="Path" fill="#9AD14B"></path>
            <path d="M26.9888076,31.0844838 C22.0034029,39.4133333 21.5,48 21.5,48 C21.5,48 20.9965971,39.4133333 16.0111924,31.0844838 C16.0111924,31.0844838 15.4934883,13.8053097 21.5,2 C27.5065117,13.8053097 26.9888076,31.0844838 26.9888076,31.0844838 Z" id="Path" fill="#9AD14B"></path>
            <path d="M21.0013493,47.0018198 C21.0013493,47.0018198 26.7386301,46.8654396 31.5475831,48.9539288 C35.0153187,50.4621336 38,53.1228849 38,57.8293395 C38,61.8405224 37.0203984,68.9242713 35.3337566,77.0830173 C32.3005,91.7666208 26.9869037,109.945302 21.0013493,120 C17.1423129,113.515254 13.561235,103.653093 10.689896,93.526193 C7.76458449,83.2067565 5.5759981,72.6172337 4.58560203,65.0494687 C4.20509564,62.1293275 4,59.6584389 4,57.8293395 C4,53.125559 6.9819827,50.4621336 10.4524169,48.9539288 C15.2613699,46.8654396 21.0013493,47.0018198 21.0013493,47.0018198 Z" id="Path" fill="#F7B239"></path>
            <path d="M17.7403175,93.5257592 C18.6469841,103.652825 19.7803175,113.515148 21,120 C17.1412698,113.515148 13.5604762,103.652825 10.6893651,93.5257592 C7.76428571,83.2061536 5.57587302,72.6164573 4.58555556,65.0485683 C4.20507937,62.1283793 4,59.6574501 4,57.8283208 C4,53.1244632 6.98174603,50.4609942 10.4519048,48.9527647 C14.8719048,47.0327137 20.0771429,46.9926012 20.8920635,47.0006237 C20.4819048,47.005972 18.9653968,47.166422 17.6647619,48.9527647 C16.5692063,50.4609942 15.6247619,53.1244632 15.6247619,57.8283208 C15.6247619,59.6574501 15.6895238,62.1283793 15.8109524,65.0485683 C16.1239683,72.6164573 16.8147619,83.2061536 17.7403175,93.5257592 Z" id="Path" fill="#E09B2D"></path>
            <polygon id="Path" fill="#90BC42" points="21 4 21 40 16 27.641791 17.3157895 11.5223881"></polygon>
            <path d="M25.0374678,94 C24.8550495,94 24.6699166,93.9740152 24.4855981,93.9194757 C23.4033038,93.5993773 22.772169,92.4169263 23.076471,91.2781641 C23.7423521,88.7861937 24.384888,86.2139845 24.9864341,83.6326378 C25.2538181,82.484167 26.3556573,81.7797221 27.448267,82.0624138 C28.5403338,82.3439633 29.2086581,83.503285 28.9410026,84.6523269 C28.3288697,87.2799322 27.6746612,89.8989711 26.9965645,92.4369146 C26.7438392,93.3820759 25.9267571,94 25.0374678,94 Z" id="Path" fill="#FFFFFF"></path>
            <path d="M30.2201143,74 C30.0885685,74 29.9549535,73.9889552 29.8204517,73.9660373 C28.6158474,73.7611564 27.8171134,72.6831848 28.0361593,71.5579967 C28.7488712,67.8991335 29.2818532,64.5453826 29.577166,61.8592894 C29.7022083,60.7216759 30.7847264,59.8944211 32.0094321,60.0109436 C33.2273388,60.1280184 34.1132772,61.1449675 33.9882349,62.2828571 C33.6810977,65.0735998 33.1315616,68.5372463 32.3987484,72.2996544 C32.2039424,73.299208 31.2710022,74 30.2201143,74 Z" id="Path" fill="#FFFFFF"></path>
            <circle id="Oval" fill="#FFFFFF" cx="31" cy="56" r="2"></circle>
            <path d="M41.7215491,19.013323 C42.1641882,18.2674253 42.0723756,17.3241861 41.4940369,16.6756259 C40.9156983,16.0270656 39.9816868,15.8203904 39.1798747,16.1636046 C34.8746443,18.0050144 31.1264822,20.7973971 28.0430864,24.4199475 C27.6796054,18.2588916 26.5027348,8.68942754 22.8183838,1.13018027 C22.481558,0.439218241 21.7747895,0 20.9999018,0 C20.2250142,0 19.5182456,0.439218241 19.1814199,1.13044695 C15.4970689,8.68942754 14.3201982,18.2591583 13.9567173,24.4202142 C10.8730523,20.7976637 7.12489015,18.0050144 2.81965977,16.1636046 C2.01730915,15.8203904 1.08464385,16.0273323 0.50603597,16.6753592 C-0.0720334241,17.3233861 -0.164115274,18.2666253 0.27771606,19.0127896 C0.379490737,19.1847967 10.1724763,35.8876237 8.64343294,47.8049187 C7.41971362,48.4289446 6.26653652,49.2009767 5.27679125,50.1580831 C3.11529098,52.2488366 2.01892462,54.8873461 2.01892462,58.0005421 C2.01892462,69.5092867 9.82488078,105.169168 19.260578,121.015959 C19.6237897,121.625851 20.2853251,122 20.9999018,122 C21.7144785,122 22.3760139,121.625851 22.7392257,121.015959 C32.1749229,105.168901 39.9808791,69.5092867 39.9808791,58.0005421 C39.9808791,54.8873461 38.8847819,52.2488366 36.7230124,50.1580831 C35.7332671,49.20071 34.5798208,48.4289446 33.3561015,47.8049187 C31.8273274,35.8873571 41.6200437,19.1847967 41.7215491,19.013323 Z M20.9999018,7.40537421 C24.0752202,16.7521624 24.172687,27.6731493 24.1543783,30.051648 C23.3366807,31.5210424 22.5997567,33.0776404 21.9476449,34.7177085 C21.5903565,35.6166792 21.2769551,36.495649 20.9996326,37.345551 C20.7223101,36.4953823 20.4091779,35.6164125 20.0516203,34.7177085 C19.3997777,33.0779071 18.6625845,31.5213091 17.8448869,30.0519147 C17.8273859,27.6734159 17.9248527,16.7521624 20.9999018,7.40537421 Z M6.98919058,23.2308314 C10.9619032,26.32616 14.0638768,30.6228718 16.2490707,36.070298 C17.7420352,39.7923192 18.4339953,43.2073944 18.7449735,45.2741469 C17.2048911,45.381618 15.0619687,45.6378953 12.8196949,46.2376536 C13.1368657,38.1855858 9.72095214,29.1129424 6.98919058,23.2308314 Z M35.9424706,58.0005421 C35.9424706,61.6998957 35.0803476,68.0001574 33.6471555,75.2012564 L25.039118,75.2012564 C23.9236352,75.2012564 23.0197791,76.0967603 23.0197791,77.2013395 C23.0197791,78.3059187 23.9236352,79.2014226 25.039118,79.2014226 L32.8122262,79.2014226 C32.2648508,81.7100601 31.6590491,84.285367 31.0055911,86.8633408 C27.982237,98.7929029 24.4855499,108.877855 21.0001711,115.795742 C18.4027629,110.640328 15.799162,103.725374 13.3899562,95.5994369 L18.9811015,95.5994369 C20.0965843,95.5994369 21.0004403,94.7039331 21.0004403,93.5993539 C21.0004403,92.4947746 20.0965843,91.5992708 18.9811015,91.5992708 L12.2467411,91.5992708 C11.821603,90.0562734 11.4034652,88.4772745 10.9944818,86.8633408 C9.21961762,79.8601166 7.79557988,72.8776933 6.94126494,67.2009242 L11.7112125,67.2009242 C12.8266953,67.2009242 13.7305513,66.3054203 13.7305513,65.2008411 C13.7305513,64.0962619 12.8266953,63.2007581 11.7112125,63.2007581 L6.40950571,63.2007581 C6.18010882,61.1588066 6.05760227,59.3947333 6.05760227,58.0005421 C6.05760227,55.9801915 6.72317634,54.3531906 8.09201882,53.0262022 C10.1700531,51.0119852 13.4868844,50.0778131 15.9033599,49.6484619 C18.253601,49.2311112 20.2427844,49.1991099 20.797968,49.1991099 C20.895704,49.1991099 20.9492837,49.1999099 20.9519762,49.2001766 C20.9840164,49.2009767 21.0160565,49.2009767 21.0480967,49.2001766 C23.4683416,49.1423075 30.4878326,49.7180648 33.9015922,53.0200686 C35.2747426,54.3481237 35.9424706,55.9772581 35.9424706,58.0005421 Z M23.2550994,45.2741469 C23.5660776,43.2073944 24.2580377,39.7923192 25.750733,36.070298 C27.9356576,30.6228718 31.0379005,26.32616 35.0106131,23.2308314 C32.2788515,29.1129424 28.8632072,38.1853192 29.1801088,46.2373869 C26.937835,45.6378953 24.7951818,45.381618 23.2550994,45.2741469 Z" id="Shape" fill="#333333"></path>
        </g>
    </g>
</svg>