<?xml version="1.0" encoding="UTF-8"?>
<svg width="128px" height="128px" viewBox="0 0 128 128" version="1.1" xmlns="http://www.w3.org/2000/svg" xmlns:xlink="http://www.w3.org/1999/xlink">
    <!-- Generator: Sketch 53 (72520) - https://sketchapp.com -->
    <title>Wine</title>
    <desc>Created with Sketch.</desc>
    <g id="Wine" stroke="none" stroke-width="1" fill="none" fill-rule="evenodd">
        <g id="vodka" transform="translate(19.000000, 5.000000)" fill-rule="nonzero">
            <g id="Group" transform="translate(2.000000, 18.000000)" fill="#FFEAC2">
                <rect id="Rectangle" x="0.226507042" y="76.0489202" width="33.550338" height="21.8565305"></rect>
                <path d="M24.202493,0.203821596 L9.79702817,0.203821596 C9.79702817,14.5838263 0.225309859,17.350831 0.225309859,29.2224038 L0.225309859,34.1447183 L33.7744507,34.1447183 L33.7744507,29.2224038 C33.7744507,17.350831 24.202493,14.5838263 24.202493,0.203821596 Z" id="Path"></path>
            </g>
            <rect id="Rectangle" fill="#FF6465" x="2" y="52" width="33" height="43"></rect>
            <ellipse id="Oval" fill="#F2E9DC" cx="18.5" cy="66" rx="4.5" ry="7"></ellipse>
            <path d="M25.6178721,18 L11.3823645,18 C11.3823645,23.8441949 9.83965612,27.7819192 8,31.1874059 C9.01269816,31.70529 10.1626311,32 11.3823645,32 L25.6176355,32 C26.8371323,32 27.9873018,31.70529 29,31.1876375 C27.1610537,27.7821507 25.6178721,23.8444264 25.6178721,18 Z" id="Path" fill="#171D26" opacity="0.1"></path>
            <path d="M25.1815457,2 L10.8184543,2 C9.81385201,2 9,2.78058453 9,3.74412215 L9,25.2558779 C9,26.2194155 9.81385201,27 10.8184543,27 L25.1815457,27 C26.186148,27 27,26.2194155 27,25.2558779 L27,3.74412215 C27,2.78058453 26.186148,2 25.1815457,2 Z" id="Path" fill="#FF6465"></path>
            <path d="M9.62297864,47.4861292 C9.62297864,40.4262314 12.9553783,36.5933614 15.646959,31.6105386 C16.516709,30.0087285 17.2637839,28.3463342 17.8140626,26.6125698 C17.4462719,26.2924372 17.2133534,25.8270403 17.2133534,25.3077141 L17.2133534,3.7479925 C17.2133534,2.78231672 18.0129698,2 19,2 L11.3770214,2 C10.3899912,2 9.59037474,2.78231672 9.59037474,3.7479925 L9.59037474,25.3074847 C9.59037474,25.8270403 9.82329323,26.2922078 10.1910839,26.6123403 C9.64080523,28.3461047 8.89373034,30.008499 8.02398035,31.6103091 C5.33239969,36.5933614 2,40.4260019 2,47.4858997 L2,94.8960369 L2,116 L9.62297864,116 L9.62297864,94.8960369 L9.62297864,47.4861292 L9.62297864,47.4861292 Z" id="Path" fill="#171D26" opacity="0.2"></path>
            <path d="M18.5001196,76 C22.1450465,76 25,72.2663562 25,67.4998872 C25,62.7334182 22.1450465,59 18.5001196,59 C14.8551927,59 12,62.7336438 12,67.4998872 C11.9997608,72.2663562 14.8549535,76 18.5001196,76 Z M18.5001196,62.4361342 C19.8485512,62.4361342 21.3565081,64.6014807 21.3565081,67.4998872 C21.3565081,70.3980682 19.848312,72.5638658 18.5001196,72.5638658 C17.1514488,72.5638658 15.6434919,70.3982937 15.6434919,67.4998872 C15.6432527,64.6014807 17.1514488,62.4361342 18.5001196,62.4361342 Z" id="Shape" fill="#333333"></path>
            <path d="M8.80618589,90 L28.1938141,90 C29.1914016,90 30,89.1048969 30,88 C30,86.8951031 29.1914016,86 28.1938141,86 L8.80618589,86 C7.80859838,86 7,86.8951031 7,88 C7,89.1048969 7.80859838,90 8.80618589,90 Z" id="Path" fill="#333333"></path>
            <path d="M8.80618589,83 L28.1938141,83 C29.1914016,83 30,82.1048969 30,81 C30,79.8951031 29.1914016,79 28.1938141,79 L8.80618589,79 C7.80859838,79 7,79.8951031 7,81 C7,82.1048969 7.80859838,83 8.80618589,83 Z" id="Path" fill="#333333"></path>
            <path d="M3.62828691,96.8054023 L33.3717131,96.8054023 L33.3717131,114.489039 L3.62828691,114.489039 L3.62828691,96.8054023 Z M32.336863,33.5322812 C31.0905176,31.4555273 29.8096375,29.3107852 28.8855366,26.7719414 C29.1441896,26.2893398 29.2928079,25.742668 29.2928079,25.1625781 L29.2928079,3.51096094 C29.2928079,1.57502344 27.6651518,0 25.664521,0 L11.335479,0 C9.33484818,0 7.7071921,1.57502344 7.7071921,3.51096094 L7.7071921,25.1628086 C7.7071921,25.7431289 7.85604856,26.2895703 8.11446338,26.7721719 C7.19060064,29.3098633 5.91019691,31.4541445 4.66432788,33.530207 C2.37122387,37.350918 6.76920811e-15,41.3016133 6.76920811e-15,47.4366914 L6.76920811e-15,51.6655625 L0,116.24452 C0,117.214332 0.812160849,118 1.81414346,118 L35.1858565,118 C36.1878392,118 37,117.214332 37,116.24452 L37,95.0499219 L37,51.6678672 L36.9997618,47.4366914 C36.9997618,40.098278 33.5832083,35.6090352 32.336863,33.5322812 Z M33.3714749,47.4362305 L33.3714749,49.9096211 L3.62828691,49.9096211 L3.62828691,47.4362305 C3.62828691,42.2465352 5.56246822,39.0243516 7.80174572,35.2930625 C9.01951066,33.2640156 10.2710958,31.1782734 11.2637897,28.6726172 C11.2878449,28.6730781 11.311662,28.6733086 11.335479,28.6733086 L25.664521,28.6733086 C25.6885762,28.6733086 25.7123932,28.6730781 25.7362103,28.6726172 C26.7289042,31.1791953 27.9812039,33.2656289 29.199207,35.2951367 C31.9807189,39.1739996 33.3714749,43.2210308 33.3714749,47.4362305 Z M11.335479,3.51096094 L25.664521,3.51096094 L25.6669027,25.1609648 C25.6661882,25.1616563 25.6652355,25.1621172 25.664521,25.1628086 L11.3376225,25.1621172 C11.336908,25.1616563 11.3361935,25.1611953 11.335479,25.1605039 L11.335479,3.51096094 L11.335479,3.51096094 Z M33.3712367,93.2944414 L3.62828691,93.2944414 L3.62828691,53.421043 L33.3712367,53.421043 L33.3712367,93.2944414 Z" id="Shape" fill="#333333"></path>
        </g>
        <g id="vodka-copy-3" transform="translate(73.000000, 5.000000)" fill-rule="nonzero">
            <g id="Group" transform="translate(2.000000, 18.000000)" fill="#FFC8C9">
                <rect id="Rectangle" x="0.226507042" y="76.0489202" width="33.550338" height="21.8565305"></rect>
                <path d="M24.202493,0.203821596 L9.79702817,0.203821596 C9.79702817,14.5838263 0.225309859,17.350831 0.225309859,29.2224038 L0.225309859,34.1447183 L33.7744507,34.1447183 L33.7744507,29.2224038 C33.7744507,17.350831 24.202493,14.5838263 24.202493,0.203821596 Z" id="Path"></path>
            </g>
            <rect id="Rectangle" fill="#FF6465" x="2" y="52" width="33" height="43"></rect>
            <ellipse id="Oval" fill="#F2E9DC" cx="18.5" cy="66" rx="4.5" ry="7"></ellipse>
            <path d="M25.6178721,18 L11.3823645,18 C11.3823645,23.8441949 9.83965612,27.7819192 8,31.1874059 C9.01269816,31.70529 10.1626311,32 11.3823645,32 L25.6176355,32 C26.8371323,32 27.9873018,31.70529 29,31.1876375 C27.1610537,27.7821507 25.6178721,23.8444264 25.6178721,18 Z" id="Path" fill="#171D26" opacity="0.1"></path>
            <path d="M25.1815457,2 L10.8184543,2 C9.81385201,2 9,2.78058453 9,3.74412215 L9,25.2558779 C9,26.2194155 9.81385201,27 10.8184543,27 L25.1815457,27 C26.186148,27 27,26.2194155 27,25.2558779 L27,3.74412215 C27,2.78058453 26.186148,2 25.1815457,2 Z" id="Path" fill="#FF6465"></path>
            <path d="M9.62297864,47.4861292 C9.62297864,40.4262314 12.9553783,36.5933614 15.646959,31.6105386 C16.516709,30.0087285 17.2637839,28.3463342 17.8140626,26.6125698 C17.4462719,26.2924372 17.2133534,25.8270403 17.2133534,25.3077141 L17.2133534,3.7479925 C17.2133534,2.78231672 18.0129698,2 19,2 L11.3770214,2 C10.3899912,2 9.59037474,2.78231672 9.59037474,3.7479925 L9.59037474,25.3074847 C9.59037474,25.8270403 9.82329323,26.2922078 10.1910839,26.6123403 C9.64080523,28.3461047 8.89373034,30.008499 8.02398035,31.6103091 C5.33239969,36.5933614 2,40.4260019 2,47.4858997 L2,94.8960369 L2,116 L9.62297864,116 L9.62297864,94.8960369 L9.62297864,47.4861292 L9.62297864,47.4861292 Z" id="Path" fill="#171D26" opacity="0.2"></path>
            <path d="M18.5001196,76 C22.1450465,76 25,72.2663562 25,67.4998872 C25,62.7334182 22.1450465,59 18.5001196,59 C14.8551927,59 12,62.7336438 12,67.4998872 C11.9997608,72.2663562 14.8549535,76 18.5001196,76 Z M18.5001196,62.4361342 C19.8485512,62.4361342 21.3565081,64.6014807 21.3565081,67.4998872 C21.3565081,70.3980682 19.848312,72.5638658 18.5001196,72.5638658 C17.1514488,72.5638658 15.6434919,70.3982937 15.6434919,67.4998872 C15.6432527,64.6014807 17.1514488,62.4361342 18.5001196,62.4361342 Z" id="Shape" fill="#333333"></path>
            <path d="M8.80618589,90 L28.1938141,90 C29.1914016,90 30,89.1048969 30,88 C30,86.8951031 29.1914016,86 28.1938141,86 L8.80618589,86 C7.80859838,86 7,86.8951031 7,88 C7,89.1048969 7.80859838,90 8.80618589,90 Z" id="Path" fill="#333333"></path>
            <path d="M8.80618589,83 L28.1938141,83 C29.1914016,83 30,82.1048969 30,81 C30,79.8951031 29.1914016,79 28.1938141,79 L8.80618589,79 C7.80859838,79 7,79.8951031 7,81 C7,82.1048969 7.80859838,83 8.80618589,83 Z" id="Path" fill="#333333"></path>
            <path d="M3.62828691,96.8054023 L33.3717131,96.8054023 L33.3717131,114.489039 L3.62828691,114.489039 L3.62828691,96.8054023 Z M32.336863,33.5322812 C31.0905176,31.4555273 29.8096375,29.3107852 28.8855366,26.7719414 C29.1441896,26.2893398 29.2928079,25.742668 29.2928079,25.1625781 L29.2928079,3.51096094 C29.2928079,1.57502344 27.6651518,0 25.664521,0 L11.335479,0 C9.33484818,0 7.7071921,1.57502344 7.7071921,3.51096094 L7.7071921,25.1628086 C7.7071921,25.7431289 7.85604856,26.2895703 8.11446338,26.7721719 C7.19060064,29.3098633 5.91019691,31.4541445 4.66432788,33.530207 C2.37122387,37.350918 6.76920811e-15,41.3016133 6.76920811e-15,47.4366914 L6.76920811e-15,51.6655625 L0,116.24452 C0,117.214332 0.812160849,118 1.81414346,118 L35.1858565,118 C36.1878392,118 37,117.214332 37,116.24452 L37,95.0499219 L37,51.6678672 L36.9997618,47.4366914 C36.9997618,40.098278 33.5832083,35.6090352 32.336863,33.5322812 Z M33.3714749,47.4362305 L33.3714749,49.9096211 L3.62828691,49.9096211 L3.62828691,47.4362305 C3.62828691,42.2465352 5.56246822,39.0243516 7.80174572,35.2930625 C9.01951066,33.2640156 10.2710958,31.1782734 11.2637897,28.6726172 C11.2878449,28.6730781 11.311662,28.6733086 11.335479,28.6733086 L25.664521,28.6733086 C25.6885762,28.6733086 25.7123932,28.6730781 25.7362103,28.6726172 C26.7289042,31.1791953 27.9812039,33.2656289 29.199207,35.2951367 C31.9807189,39.1739996 33.3714749,43.2210308 33.3714749,47.4362305 Z M11.335479,3.51096094 L25.664521,3.51096094 L25.6669027,25.1609648 C25.6661882,25.1616563 25.6652355,25.1621172 25.664521,25.1628086 L11.3376225,25.1621172 C11.336908,25.1616563 11.3361935,25.1611953 11.335479,25.1605039 L11.335479,3.51096094 L11.335479,3.51096094 Z M33.3712367,93.2944414 L3.62828691,93.2944414 L3.62828691,53.421043 L33.3712367,53.421043 L33.3712367,93.2944414 Z" id="Shape" fill="#333333"></path>
            <path d="M27.8032482,95 C26.8073784,95 26,94.1410859 26,93.0811244 L26,48.1460829 C26,46.2551566 26.7857483,42.7426982 27.5865052,41.0544634 C28.0352205,40.108648 29.119818,39.7286307 30.0088612,40.2063532 C30.8979045,40.6840758 31.2550227,41.8379847 30.8060867,42.784035 C30.2567251,43.9419367 29.6064963,46.8486693 29.6064963,48.1460829 L29.6064963,93.0811244 C29.6064963,94.1410859 28.7991179,95 27.8032482,95 Z" id="Path" fill="#FFFFFF" transform="translate(28.500000, 67.500000) scale(-1, 1) translate(-28.500000, -67.500000) "></path>
        </g>
        <g id="vodka-copy" transform="translate(46.000000, 5.000000)" fill-rule="nonzero">
            <g id="Group" transform="translate(2.000000, 18.000000)" fill="#B72828">
                <rect id="Rectangle" x="0.226507042" y="76.0489202" width="33.550338" height="21.8565305"></rect>
                <path d="M24.202493,0.203821596 L9.79702817,0.203821596 C9.79702817,14.5838263 0.225309859,17.350831 0.225309859,29.2224038 L0.225309859,34.1447183 L33.7744507,34.1447183 L33.7744507,29.2224038 C33.7744507,17.350831 24.202493,14.5838263 24.202493,0.203821596 Z" id="Path"></path>
            </g>
            <rect id="Rectangle" fill="#FF6465" x="2" y="52" width="33" height="43"></rect>
            <ellipse id="Oval" fill="#F2E9DC" cx="18.5" cy="66" rx="4.5" ry="7"></ellipse>
            <path d="M25.6178721,18 L11.3823645,18 C11.3823645,23.8441949 9.83965612,27.7819192 8,31.1874059 C9.01269816,31.70529 10.1626311,32 11.3823645,32 L25.6176355,32 C26.8371323,32 27.9873018,31.70529 29,31.1876375 C27.1610537,27.7821507 25.6178721,23.8444264 25.6178721,18 Z" id="Path" fill="#171D26" opacity="0.1"></path>
            <path d="M25.1815457,2 L10.8184543,2 C9.81385201,2 9,2.78058453 9,3.74412215 L9,25.2558779 C9,26.2194155 9.81385201,27 10.8184543,27 L25.1815457,27 C26.186148,27 27,26.2194155 27,25.2558779 L27,3.74412215 C27,2.78058453 26.186148,2 25.1815457,2 Z" id="Path" fill="#FF6465"></path>
            <path d="M9.62297864,47.4861292 C9.62297864,40.4262314 12.9553783,36.5933614 15.646959,31.6105386 C16.516709,30.0087285 17.2637839,28.3463342 17.8140626,26.6125698 C17.4462719,26.2924372 17.2133534,25.8270403 17.2133534,25.3077141 L17.2133534,3.7479925 C17.2133534,2.78231672 18.0129698,2 19,2 L11.3770214,2 C10.3899912,2 9.59037474,2.78231672 9.59037474,3.7479925 L9.59037474,25.3074847 C9.59037474,25.8270403 9.82329323,26.2922078 10.1910839,26.6123403 C9.64080523,28.3461047 8.89373034,30.008499 8.02398035,31.6103091 C5.33239969,36.5933614 2,40.4260019 2,47.4858997 L2,94.8960369 L2,116 L9.62297864,116 L9.62297864,94.8960369 L9.62297864,47.4861292 L9.62297864,47.4861292 Z" id="Path" fill="#171D26" opacity="0.2"></path>
            <path d="M18.5001196,76 C22.1450465,76 25,72.2663562 25,67.4998872 C25,62.7334182 22.1450465,59 18.5001196,59 C14.8551927,59 12,62.7336438 12,67.4998872 C11.9997608,72.2663562 14.8549535,76 18.5001196,76 Z M18.5001196,62.4361342 C19.8485512,62.4361342 21.3565081,64.6014807 21.3565081,67.4998872 C21.3565081,70.3980682 19.848312,72.5638658 18.5001196,72.5638658 C17.1514488,72.5638658 15.6434919,70.3982937 15.6434919,67.4998872 C15.6432527,64.6014807 17.1514488,62.4361342 18.5001196,62.4361342 Z" id="Shape" fill="#333333"></path>
            <path d="M8.80618589,90 L28.1938141,90 C29.1914016,90 30,89.1048969 30,88 C30,86.8951031 29.1914016,86 28.1938141,86 L8.80618589,86 C7.80859838,86 7,86.8951031 7,88 C7,89.1048969 7.80859838,90 8.80618589,90 Z" id="Path" fill="#333333"></path>
            <path d="M8.80618589,83 L28.1938141,83 C29.1914016,83 30,82.1048969 30,81 C30,79.8951031 29.1914016,79 28.1938141,79 L8.80618589,79 C7.80859838,79 7,79.8951031 7,81 C7,82.1048969 7.80859838,83 8.80618589,83 Z" id="Path" fill="#333333"></path>
            <path d="M3.62828691,96.8054023 L33.3717131,96.8054023 L33.3717131,114.489039 L3.62828691,114.489039 L3.62828691,96.8054023 Z M32.336863,33.5322812 C31.0905176,31.4555273 29.8096375,29.3107852 28.8855366,26.7719414 C29.1441896,26.2893398 29.2928079,25.742668 29.2928079,25.1625781 L29.2928079,3.51096094 C29.2928079,1.57502344 27.6651518,0 25.664521,0 L11.335479,0 C9.33484818,0 7.7071921,1.57502344 7.7071921,3.51096094 L7.7071921,25.1628086 C7.7071921,25.7431289 7.85604856,26.2895703 8.11446338,26.7721719 C7.19060064,29.3098633 5.91019691,31.4541445 4.66432788,33.530207 C2.37122387,37.350918 6.76920811e-15,41.3016133 6.76920811e-15,47.4366914 L6.76920811e-15,51.6655625 L0,116.24452 C0,117.214332 0.812160849,118 1.81414346,118 L35.1858565,118 C36.1878392,118 37,117.214332 37,116.24452 L37,95.0499219 L37,51.6678672 L36.9997618,47.4366914 C36.9997618,40.098278 33.5832083,35.6090352 32.336863,33.5322812 Z M33.3714749,47.4362305 L33.3714749,49.9096211 L3.62828691,49.9096211 L3.62828691,47.4362305 C3.62828691,42.2465352 5.56246822,39.0243516 7.80174572,35.2930625 C9.01951066,33.2640156 10.2710958,31.1782734 11.2637897,28.6726172 C11.2878449,28.6730781 11.311662,28.6733086 11.335479,28.6733086 L25.664521,28.6733086 C25.6885762,28.6733086 25.7123932,28.6730781 25.7362103,28.6726172 C26.7289042,31.1791953 27.9812039,33.2656289 29.199207,35.2951367 C31.9807189,39.1739996 33.3714749,43.2210308 33.3714749,47.4362305 Z M11.335479,3.51096094 L25.664521,3.51096094 L25.6669027,25.1609648 C25.6661882,25.1616563 25.6652355,25.1621172 25.664521,25.1628086 L11.3376225,25.1621172 C11.336908,25.1616563 11.3361935,25.1611953 11.335479,25.1605039 L11.335479,3.51096094 L11.335479,3.51096094 Z M33.3712367,93.2944414 L3.62828691,93.2944414 L3.62828691,53.421043 L33.3712367,53.421043 L33.3712367,93.2944414 Z" id="Shape" fill="#333333"></path>
            <path d="M27.8032482,95 C26.8073784,95 26,94.1410859 26,93.0811244 L26,48.1460829 C26,46.2551566 26.7857483,42.7426982 27.5865052,41.0544634 C28.0352205,40.108648 29.119818,39.7286307 30.0088612,40.2063532 C30.8979045,40.6840758 31.2550227,41.8379847 30.8060867,42.784035 C30.2567251,43.9419367 29.6064963,46.8486693 29.6064963,48.1460829 L29.6064963,93.0811244 C29.6064963,94.1410859 28.7991179,95 27.8032482,95 Z" id="Path" fill="#FFFFFF" transform="translate(28.500000, 67.500000) scale(-1, 1) translate(-28.500000, -67.500000) "></path>
        </g>
    </g>
</svg>