<svg xmlns="http://www.w3.org/2000/svg" viewBox="0 0 1392 186.46"><defs><style>.cls-1{fill:#3c4c3a;}.cls-2{fill:#ef924d;}.cls-3{fill:#4faf68;}</style></defs><g id="Layer_2" data-name="Layer 2"><g id="Layer_1-2" data-name="Layer 1"><path class="cls-1" d="M170.34,134.57c0-26.21,20-46.93,46.93-46.93,14.87,0,27.27,6.37,34,14.34a11.17,11.17,0,0,1,2.83,6.73c0,5.32-4.07,9-9.56,9-3.9,0-5.84-2-8.32-4.08a25.82,25.82,0,0,0-18.95-8C202,105.7,190,118.45,190,134.57c0,15.94,12,28.87,27.28,28.87a25.71,25.71,0,0,0,18.77-8c2.48-2.12,4.6-4.42,8.5-4.42a9.16,9.16,0,0,1,9.56,9.38,10.28,10.28,0,0,1-2.83,6.38c-6.73,8.15-19,14.7-34,14.7C190.35,181.5,170.34,160.78,170.34,134.57Z"/><path class="cls-1" d="M341.58,170.52a44,44,0,0,1-29.39,11c-25.51,0-44.81-20.72-44.81-46.93s19.3-46.93,44.81-46.93a43.28,43.28,0,0,1,29.39,11.15V97.55a9.74,9.74,0,1,1,19.48,0v73.86a9.74,9.74,0,1,1-19.48,0Zm0-36v-1.24c-.7-15.76-12.39-27.63-27.27-27.63-15.23,0-27.27,12.4-27.27,28.87s12,28.87,27.27,28.87S341.58,151,341.58,134.57Z"/><path class="cls-1" d="M382.83,63.91a9.74,9.74,0,1,1,19.48,0v107.5a9.74,9.74,0,1,1-19.48,0Z"/><path class="cls-1" d="M109.07,87.64c-26.92,0-46.93,20.72-46.93,46.93a48.32,48.32,0,0,0,4.21,19.9l-.65.57a25.73,25.73,0,0,1-18.77,8c-15.23,0-27.45-13.31-27.45-29.25V63.92a9.6,9.6,0,0,0-9.74-9.75A9.6,9.6,0,0,0,0,63.92v70.22H0c0,26.21,20,46.93,46.93,46.93,12.84,0,23.61-4.77,30.68-11.23a46.87,46.87,0,0,0,31.46,11.66c27.1,0,46.93-20.72,46.93-46.93S136.17,87.64,109.07,87.64Zm0,75.8c-15.58,0-27.27-13.11-27.27-28.87,0-15.94,11.69-28.87,27.27-28.87s27.27,12.93,27.27,28.87C136.34,150.33,124.66,163.44,109.07,163.44Z"/><path class="cls-1" d="M420.37,134.57c0-26.21,20-46.93,46.93-46.93,13.82,0,24.62,5.49,30.64,11a10.28,10.28,0,0,1,3.54,7.45,10.17,10.17,0,0,1-2.83,7.08l-27.27,32.41a8.21,8.21,0,0,1-6.73,3.19c-5.32,0-9.21-3.72-9.21-8.86a8,8,0,0,1,2.12-5.85L479,108.89c-3-2.13-7.79-3.19-11.69-3.19-15.23,0-27.27,12.75-27.27,28.87,0,15.94,11.86,28.87,27.27,28.87a25.41,25.41,0,0,0,18.78-8c2.83-2.29,4.78-4.42,8.5-4.42a9.16,9.16,0,0,1,9.56,9.38,10.28,10.28,0,0,1-2.83,6.38c-6.73,8.15-18.95,14.7-34,14.7C440.56,181.5,420.37,160.78,420.37,134.57Z"/><path class="cls-1" d="M521.48,123.23c0-22.13,14.88-35.59,33.65-35.59,10.81,0,19.84,3.72,25.68,13.1,5.49-9.38,15.06-13.1,25.5-13.1,18.78,0,33.65,13.46,33.65,35.59v48.18a9.74,9.74,0,1,1-19.48,0V123.06c0-11.69-6.55-17.36-15.05-17.36-8.33,0-14.88,5.67-14.88,17.36v40.59a9.85,9.85,0,0,1-9.74,9.91,9.75,9.75,0,0,1-9.74-9.91V123.06c0-11.69-6.73-17.36-15.05-17.36s-15,5.67-15,17.36v48.35a9.75,9.75,0,1,1-19.49,0Z"/><path class="cls-1" d="M658,134.57c0-26.21,20-46.93,46.93-46.93,13.82,0,24.62,5.49,30.64,11a10.29,10.29,0,0,1,3.55,7.45,10.14,10.14,0,0,1-2.84,7.08L709,145.55a8.21,8.21,0,0,1-6.73,3.19c-5.32,0-9.21-3.72-9.21-8.86A8,8,0,0,1,695.2,134l21.43-25.14c-3-2.13-7.79-3.19-11.69-3.19-15.23,0-27.27,12.75-27.27,28.87,0,15.94,11.87,28.87,27.27,28.87a25.41,25.41,0,0,0,18.78-8c2.83-2.29,4.78-4.42,8.5-4.42a9.16,9.16,0,0,1,9.56,9.38A10.28,10.28,0,0,1,739,166.8c-6.73,8.15-19,14.7-34,14.7C678.2,181.5,658,160.78,658,134.57Z"/><path class="cls-1" d="M759.13,128.9c0-25.32,17.53-41.26,39.85-41.26s39.84,15.94,39.84,41.26v42.51a9.86,9.86,0,0,1-9.74,9.91,9.75,9.75,0,0,1-9.74-9.91V128.19c0-14.69-9-22.49-20.36-22.49s-20.37,7.8-20.37,22.49v43.22a9.74,9.74,0,1,1-19.48,0Z"/><path class="cls-2" d="M955.93,170.52v.88a9.74,9.74,0,1,1-19.48,0V63.91a9.74,9.74,0,1,1,19.48,0V98.79a43.33,43.33,0,0,1,29.4-11.15c25.51,0,44.81,20.72,44.81,46.93s-19.3,46.93-44.81,46.93A44,44,0,0,1,955.93,170.52Zm54.55-36c0-16.48-12-28.87-27.27-28.87-14.88,0-26.75,11.86-27.28,27.63v1.24c0,16.47,12.05,28.86,27.28,28.86S1010.48,151,1010.48,134.57Z"/><path class="cls-2" d="M1044.68,134.57c0-26.21,20-46.93,46.93-46.93,27.1,0,46.94,20.72,46.94,46.93s-19.84,46.93-46.94,46.93C1064.69,181.5,1044.68,160.78,1044.68,134.57Zm74.21,0c0-15.95-11.69-28.87-27.28-28.87s-27.27,12.92-27.27,28.87c0,15.76,11.69,28.86,27.27,28.86S1118.89,150.33,1118.89,134.57Z"/><path class="cls-3" d="M1374.61,18.06a41.83,41.83,0,0,0-58.38,9.51,36.31,36.31,0,0,0-2.09,3.29,38.8,38.8,0,0,0-1.16-3.73,41.83,41.83,0,0,0-78.31,29.41c5.93,15.78,25.48,30.75,64.83,65.9a5.11,5.11,0,0,0,1.91.79c.14,0,.27.08.41.1a3,3,0,0,0,.42,0,5.09,5.09,0,0,0,2.06-.26c47.17-23.63,70-32.95,79.82-46.64A41.83,41.83,0,0,0,1374.61,18.06ZM1280,58.15a17.43,17.43,0,1,1,10.19-22.44A17.43,17.43,0,0,1,1280,58.15Zm84.36,4a17.42,17.42,0,1,1-4-24.32A17.42,17.42,0,0,1,1364.31,62.18Z"/><path class="cls-1" d="M906.05,163.09h-2.24c-12,0-20.72-8-20.72-23.55v-34.1h20.72a9.07,9.07,0,0,0,9-9,9,9,0,0,0-9-9H883.09V63.91a9.74,9.74,0,1,0-19.48,0V87.36h-6.38a9,9,0,0,0-9,9,9.07,9.07,0,0,0,9,9h6.38v34.1c0,25.63,17.3,41.74,40.09,41.79h2.18a9.12,9.12,0,0,0,.17-18.23Z"/><path class="cls-2" d="M1240.9,169.81h0c-5.24-3.76-8.47-10.41-8.47-19.91l0-21c0-25.32-17.53-41.26-39.84-41.26s-39.85,15.94-39.85,41.26v42.5a9.74,9.74,0,1,0,19.48,0V128.19c0-14.69,9-22.49,20.37-22.49s20.36,7.8,20.36,22.49v19.94c0,.09,0,.18,0,.27v1.49c0,15.68,6.49,27.77,16.74,34.83h0a9.32,9.32,0,0,0,11.19-14.9Z"/><path class="cls-2" d="M1314.44,166.61a14.91,14.91,0,1,1-14.91-14.91A14.9,14.9,0,0,1,1314.44,166.61Z"/><path class="cls-2" d="M124,134.57a14.91,14.91,0,1,1-14.91-14.91A14.92,14.92,0,0,1,124,134.57Z"/></g></g></svg>